G04 #@! TF.GenerationSoftware,KiCad,Pcbnew,5.1.5+dfsg1-2build2*
G04 #@! TF.CreationDate,2023-03-21T22:00:02+00:00*
G04 #@! TF.ProjectId,pps-rom-dumper,7070732d-726f-46d2-9d64-756d7065722e,rev?*
G04 #@! TF.SameCoordinates,Original*
G04 #@! TF.FileFunction,Legend,Top*
G04 #@! TF.FilePolarity,Positive*
%FSLAX46Y46*%
G04 Gerber Fmt 4.6, Leading zero omitted, Abs format (unit mm)*
G04 Created by KiCad (PCBNEW 5.1.5+dfsg1-2build2) date 2023-03-21 22:00:02*
%MOMM*%
%LPD*%
G04 APERTURE LIST*
%ADD10C,0.150000*%
%ADD11C,0.120000*%
G04 APERTURE END LIST*
D10*
X65952857Y-83589761D02*
X66095714Y-83637380D01*
X66333809Y-83637380D01*
X66429047Y-83589761D01*
X66476666Y-83542142D01*
X66524285Y-83446904D01*
X66524285Y-83351666D01*
X66476666Y-83256428D01*
X66429047Y-83208809D01*
X66333809Y-83161190D01*
X66143333Y-83113571D01*
X66048095Y-83065952D01*
X66000476Y-83018333D01*
X65952857Y-82923095D01*
X65952857Y-82827857D01*
X66000476Y-82732619D01*
X66048095Y-82685000D01*
X66143333Y-82637380D01*
X66381428Y-82637380D01*
X66524285Y-82685000D01*
X66857619Y-82637380D02*
X67095714Y-83637380D01*
X67286190Y-82923095D01*
X67476666Y-83637380D01*
X67714761Y-82637380D01*
X68095714Y-83637380D02*
X68095714Y-82637380D01*
X68333809Y-82637380D01*
X68476666Y-82685000D01*
X68571904Y-82780238D01*
X68619523Y-82875476D01*
X68667142Y-83065952D01*
X68667142Y-83208809D01*
X68619523Y-83399285D01*
X68571904Y-83494523D01*
X68476666Y-83589761D01*
X68333809Y-83637380D01*
X68095714Y-83637380D01*
X50443095Y-83589761D02*
X50585952Y-83637380D01*
X50824047Y-83637380D01*
X50919285Y-83589761D01*
X50966904Y-83542142D01*
X51014523Y-83446904D01*
X51014523Y-83351666D01*
X50966904Y-83256428D01*
X50919285Y-83208809D01*
X50824047Y-83161190D01*
X50633571Y-83113571D01*
X50538333Y-83065952D01*
X50490714Y-83018333D01*
X50443095Y-82923095D01*
X50443095Y-82827857D01*
X50490714Y-82732619D01*
X50538333Y-82685000D01*
X50633571Y-82637380D01*
X50871666Y-82637380D01*
X51014523Y-82685000D01*
X51347857Y-82637380D02*
X51585952Y-83637380D01*
X51776428Y-82923095D01*
X51966904Y-83637380D01*
X52205000Y-82637380D01*
X53157380Y-83542142D02*
X53109761Y-83589761D01*
X52966904Y-83637380D01*
X52871666Y-83637380D01*
X52728809Y-83589761D01*
X52633571Y-83494523D01*
X52585952Y-83399285D01*
X52538333Y-83208809D01*
X52538333Y-83065952D01*
X52585952Y-82875476D01*
X52633571Y-82780238D01*
X52728809Y-82685000D01*
X52871666Y-82637380D01*
X52966904Y-82637380D01*
X53109761Y-82685000D01*
X53157380Y-82732619D01*
X54062142Y-83637380D02*
X53585952Y-83637380D01*
X53585952Y-82637380D01*
X54395476Y-83637380D02*
X54395476Y-82637380D01*
X54966904Y-83637380D02*
X54538333Y-83065952D01*
X54966904Y-82637380D02*
X54395476Y-83208809D01*
X114753571Y-31632380D02*
X114753571Y-30632380D01*
X115134523Y-30632380D01*
X115229761Y-30680000D01*
X115277380Y-30727619D01*
X115325000Y-30822857D01*
X115325000Y-30965714D01*
X115277380Y-31060952D01*
X115229761Y-31108571D01*
X115134523Y-31156190D01*
X114753571Y-31156190D01*
X115753571Y-31632380D02*
X115753571Y-30632380D01*
X116134523Y-30632380D01*
X116229761Y-30680000D01*
X116277380Y-30727619D01*
X116325000Y-30822857D01*
X116325000Y-30965714D01*
X116277380Y-31060952D01*
X116229761Y-31108571D01*
X116134523Y-31156190D01*
X115753571Y-31156190D01*
X116705952Y-31584761D02*
X116848809Y-31632380D01*
X117086904Y-31632380D01*
X117182142Y-31584761D01*
X117229761Y-31537142D01*
X117277380Y-31441904D01*
X117277380Y-31346666D01*
X117229761Y-31251428D01*
X117182142Y-31203809D01*
X117086904Y-31156190D01*
X116896428Y-31108571D01*
X116801190Y-31060952D01*
X116753571Y-31013333D01*
X116705952Y-30918095D01*
X116705952Y-30822857D01*
X116753571Y-30727619D01*
X116801190Y-30680000D01*
X116896428Y-30632380D01*
X117134523Y-30632380D01*
X117277380Y-30680000D01*
X118134523Y-30965714D02*
X118134523Y-31632380D01*
X117896428Y-30584761D02*
X117658333Y-31299047D01*
X118277380Y-31299047D01*
X119372619Y-30584761D02*
X118515476Y-31870476D01*
X119658333Y-30727619D02*
X119705952Y-30680000D01*
X119801190Y-30632380D01*
X120039285Y-30632380D01*
X120134523Y-30680000D01*
X120182142Y-30727619D01*
X120229761Y-30822857D01*
X120229761Y-30918095D01*
X120182142Y-31060952D01*
X119610714Y-31632380D01*
X120229761Y-31632380D01*
X121991666Y-31632380D02*
X121658333Y-31156190D01*
X121420238Y-31632380D02*
X121420238Y-30632380D01*
X121801190Y-30632380D01*
X121896428Y-30680000D01*
X121944047Y-30727619D01*
X121991666Y-30822857D01*
X121991666Y-30965714D01*
X121944047Y-31060952D01*
X121896428Y-31108571D01*
X121801190Y-31156190D01*
X121420238Y-31156190D01*
X122610714Y-30632380D02*
X122801190Y-30632380D01*
X122896428Y-30680000D01*
X122991666Y-30775238D01*
X123039285Y-30965714D01*
X123039285Y-31299047D01*
X122991666Y-31489523D01*
X122896428Y-31584761D01*
X122801190Y-31632380D01*
X122610714Y-31632380D01*
X122515476Y-31584761D01*
X122420238Y-31489523D01*
X122372619Y-31299047D01*
X122372619Y-30965714D01*
X122420238Y-30775238D01*
X122515476Y-30680000D01*
X122610714Y-30632380D01*
X123467857Y-31632380D02*
X123467857Y-30632380D01*
X123801190Y-31346666D01*
X124134523Y-30632380D01*
X124134523Y-31632380D01*
X125372619Y-31632380D02*
X125372619Y-30632380D01*
X125610714Y-30632380D01*
X125753571Y-30680000D01*
X125848809Y-30775238D01*
X125896428Y-30870476D01*
X125944047Y-31060952D01*
X125944047Y-31203809D01*
X125896428Y-31394285D01*
X125848809Y-31489523D01*
X125753571Y-31584761D01*
X125610714Y-31632380D01*
X125372619Y-31632380D01*
X126801190Y-30965714D02*
X126801190Y-31632380D01*
X126372619Y-30965714D02*
X126372619Y-31489523D01*
X126420238Y-31584761D01*
X126515476Y-31632380D01*
X126658333Y-31632380D01*
X126753571Y-31584761D01*
X126801190Y-31537142D01*
X127277380Y-31632380D02*
X127277380Y-30965714D01*
X127277380Y-31060952D02*
X127325000Y-31013333D01*
X127420238Y-30965714D01*
X127563095Y-30965714D01*
X127658333Y-31013333D01*
X127705952Y-31108571D01*
X127705952Y-31632380D01*
X127705952Y-31108571D02*
X127753571Y-31013333D01*
X127848809Y-30965714D01*
X127991666Y-30965714D01*
X128086904Y-31013333D01*
X128134523Y-31108571D01*
X128134523Y-31632380D01*
X128610714Y-30965714D02*
X128610714Y-31965714D01*
X128610714Y-31013333D02*
X128705952Y-30965714D01*
X128896428Y-30965714D01*
X128991666Y-31013333D01*
X129039285Y-31060952D01*
X129086904Y-31156190D01*
X129086904Y-31441904D01*
X129039285Y-31537142D01*
X128991666Y-31584761D01*
X128896428Y-31632380D01*
X128705952Y-31632380D01*
X128610714Y-31584761D01*
X130134523Y-30632380D02*
X130705952Y-30632380D01*
X130420238Y-31632380D02*
X130420238Y-30632380D01*
X131182142Y-31632380D02*
X131086904Y-31584761D01*
X131039285Y-31537142D01*
X130991666Y-31441904D01*
X130991666Y-31156190D01*
X131039285Y-31060952D01*
X131086904Y-31013333D01*
X131182142Y-30965714D01*
X131325000Y-30965714D01*
X131420238Y-31013333D01*
X131467857Y-31060952D01*
X131515476Y-31156190D01*
X131515476Y-31441904D01*
X131467857Y-31537142D01*
X131420238Y-31584761D01*
X131325000Y-31632380D01*
X131182142Y-31632380D01*
X132086904Y-31632380D02*
X131991666Y-31584761D01*
X131944047Y-31537142D01*
X131896428Y-31441904D01*
X131896428Y-31156190D01*
X131944047Y-31060952D01*
X131991666Y-31013333D01*
X132086904Y-30965714D01*
X132229761Y-30965714D01*
X132325000Y-31013333D01*
X132372619Y-31060952D01*
X132420238Y-31156190D01*
X132420238Y-31441904D01*
X132372619Y-31537142D01*
X132325000Y-31584761D01*
X132229761Y-31632380D01*
X132086904Y-31632380D01*
X132991666Y-31632380D02*
X132896428Y-31584761D01*
X132848809Y-31489523D01*
X132848809Y-30632380D01*
X122301190Y-32282380D02*
X122634523Y-33282380D01*
X122967857Y-32282380D01*
X123825000Y-33282380D02*
X123253571Y-33282380D01*
X123539285Y-33282380D02*
X123539285Y-32282380D01*
X123444047Y-32425238D01*
X123348809Y-32520476D01*
X123253571Y-32568095D01*
X124253571Y-33187142D02*
X124301190Y-33234761D01*
X124253571Y-33282380D01*
X124205952Y-33234761D01*
X124253571Y-33187142D01*
X124253571Y-33282380D01*
X124920238Y-32282380D02*
X125015476Y-32282380D01*
X125110714Y-32330000D01*
X125158333Y-32377619D01*
X125205952Y-32472857D01*
X125253571Y-32663333D01*
X125253571Y-32901428D01*
X125205952Y-33091904D01*
X125158333Y-33187142D01*
X125110714Y-33234761D01*
X125015476Y-33282380D01*
X124920238Y-33282380D01*
X124825000Y-33234761D01*
X124777380Y-33187142D01*
X124729761Y-33091904D01*
X124682142Y-32901428D01*
X124682142Y-32663333D01*
X124729761Y-32472857D01*
X124777380Y-32377619D01*
X124825000Y-32330000D01*
X124920238Y-32282380D01*
X119563095Y-34932380D02*
X119563095Y-33932380D01*
X119896428Y-34646666D01*
X120229761Y-33932380D01*
X120229761Y-34932380D01*
X121134523Y-34932380D02*
X121134523Y-34408571D01*
X121086904Y-34313333D01*
X120991666Y-34265714D01*
X120801190Y-34265714D01*
X120705952Y-34313333D01*
X121134523Y-34884761D02*
X121039285Y-34932380D01*
X120801190Y-34932380D01*
X120705952Y-34884761D01*
X120658333Y-34789523D01*
X120658333Y-34694285D01*
X120705952Y-34599047D01*
X120801190Y-34551428D01*
X121039285Y-34551428D01*
X121134523Y-34503809D01*
X121610714Y-34932380D02*
X121610714Y-34265714D01*
X121610714Y-34456190D02*
X121658333Y-34360952D01*
X121705952Y-34313333D01*
X121801190Y-34265714D01*
X121896428Y-34265714D01*
X122658333Y-34884761D02*
X122563095Y-34932380D01*
X122372619Y-34932380D01*
X122277380Y-34884761D01*
X122229761Y-34837142D01*
X122182142Y-34741904D01*
X122182142Y-34456190D01*
X122229761Y-34360952D01*
X122277380Y-34313333D01*
X122372619Y-34265714D01*
X122563095Y-34265714D01*
X122658333Y-34313333D01*
X123086904Y-34932380D02*
X123086904Y-33932380D01*
X123515476Y-34932380D02*
X123515476Y-34408571D01*
X123467857Y-34313333D01*
X123372619Y-34265714D01*
X123229761Y-34265714D01*
X123134523Y-34313333D01*
X123086904Y-34360952D01*
X124705952Y-34027619D02*
X124753571Y-33980000D01*
X124848809Y-33932380D01*
X125086904Y-33932380D01*
X125182142Y-33980000D01*
X125229761Y-34027619D01*
X125277380Y-34122857D01*
X125277380Y-34218095D01*
X125229761Y-34360952D01*
X124658333Y-34932380D01*
X125277380Y-34932380D01*
X125896428Y-33932380D02*
X125991666Y-33932380D01*
X126086904Y-33980000D01*
X126134523Y-34027619D01*
X126182142Y-34122857D01*
X126229761Y-34313333D01*
X126229761Y-34551428D01*
X126182142Y-34741904D01*
X126134523Y-34837142D01*
X126086904Y-34884761D01*
X125991666Y-34932380D01*
X125896428Y-34932380D01*
X125801190Y-34884761D01*
X125753571Y-34837142D01*
X125705952Y-34741904D01*
X125658333Y-34551428D01*
X125658333Y-34313333D01*
X125705952Y-34122857D01*
X125753571Y-34027619D01*
X125801190Y-33980000D01*
X125896428Y-33932380D01*
X126610714Y-34027619D02*
X126658333Y-33980000D01*
X126753571Y-33932380D01*
X126991666Y-33932380D01*
X127086904Y-33980000D01*
X127134523Y-34027619D01*
X127182142Y-34122857D01*
X127182142Y-34218095D01*
X127134523Y-34360952D01*
X126563095Y-34932380D01*
X127182142Y-34932380D01*
X127515476Y-33932380D02*
X128134523Y-33932380D01*
X127801190Y-34313333D01*
X127944047Y-34313333D01*
X128039285Y-34360952D01*
X128086904Y-34408571D01*
X128134523Y-34503809D01*
X128134523Y-34741904D01*
X128086904Y-34837142D01*
X128039285Y-34884761D01*
X127944047Y-34932380D01*
X127658333Y-34932380D01*
X127563095Y-34884761D01*
X127515476Y-34837142D01*
X116229761Y-36582380D02*
X116229761Y-35915714D01*
X116229761Y-36010952D02*
X116277380Y-35963333D01*
X116372619Y-35915714D01*
X116515476Y-35915714D01*
X116610714Y-35963333D01*
X116658333Y-36058571D01*
X116658333Y-36582380D01*
X116658333Y-36058571D02*
X116705952Y-35963333D01*
X116801190Y-35915714D01*
X116944047Y-35915714D01*
X117039285Y-35963333D01*
X117086904Y-36058571D01*
X117086904Y-36582380D01*
X117944047Y-36534761D02*
X117848809Y-36582380D01*
X117658333Y-36582380D01*
X117563095Y-36534761D01*
X117515476Y-36439523D01*
X117515476Y-36058571D01*
X117563095Y-35963333D01*
X117658333Y-35915714D01*
X117848809Y-35915714D01*
X117944047Y-35963333D01*
X117991666Y-36058571D01*
X117991666Y-36153809D01*
X117515476Y-36249047D01*
X118420238Y-35915714D02*
X118420238Y-36582380D01*
X118420238Y-36010952D02*
X118467857Y-35963333D01*
X118563095Y-35915714D01*
X118705952Y-35915714D01*
X118801190Y-35963333D01*
X118848809Y-36058571D01*
X118848809Y-36582380D01*
X119753571Y-36582380D02*
X119753571Y-36058571D01*
X119705952Y-35963333D01*
X119610714Y-35915714D01*
X119420238Y-35915714D01*
X119325000Y-35963333D01*
X119753571Y-36534761D02*
X119658333Y-36582380D01*
X119420238Y-36582380D01*
X119325000Y-36534761D01*
X119277380Y-36439523D01*
X119277380Y-36344285D01*
X119325000Y-36249047D01*
X119420238Y-36201428D01*
X119658333Y-36201428D01*
X119753571Y-36153809D01*
X120658333Y-36582380D02*
X120658333Y-35582380D01*
X120658333Y-36534761D02*
X120563095Y-36582380D01*
X120372619Y-36582380D01*
X120277380Y-36534761D01*
X120229761Y-36487142D01*
X120182142Y-36391904D01*
X120182142Y-36106190D01*
X120229761Y-36010952D01*
X120277380Y-35963333D01*
X120372619Y-35915714D01*
X120563095Y-35915714D01*
X120658333Y-35963333D01*
X121563095Y-35915714D02*
X121563095Y-36582380D01*
X121134523Y-35915714D02*
X121134523Y-36439523D01*
X121182142Y-36534761D01*
X121277380Y-36582380D01*
X121420238Y-36582380D01*
X121515476Y-36534761D01*
X121563095Y-36487142D01*
X122420238Y-36534761D02*
X122325000Y-36582380D01*
X122134523Y-36582380D01*
X122039285Y-36534761D01*
X121991666Y-36439523D01*
X121991666Y-36058571D01*
X122039285Y-35963333D01*
X122134523Y-35915714D01*
X122325000Y-35915714D01*
X122420238Y-35963333D01*
X122467857Y-36058571D01*
X122467857Y-36153809D01*
X121991666Y-36249047D01*
X123515476Y-36106190D02*
X123467857Y-36058571D01*
X123372619Y-36010952D01*
X123277380Y-36010952D01*
X123182142Y-36058571D01*
X123134523Y-36106190D01*
X123086904Y-36201428D01*
X123086904Y-36296666D01*
X123134523Y-36391904D01*
X123182142Y-36439523D01*
X123277380Y-36487142D01*
X123372619Y-36487142D01*
X123467857Y-36439523D01*
X123515476Y-36391904D01*
X123515476Y-36010952D02*
X123515476Y-36391904D01*
X123563095Y-36439523D01*
X123610714Y-36439523D01*
X123705952Y-36391904D01*
X123753571Y-36296666D01*
X123753571Y-36058571D01*
X123658333Y-35915714D01*
X123515476Y-35820476D01*
X123325000Y-35772857D01*
X123134523Y-35820476D01*
X122991666Y-35915714D01*
X122896428Y-36058571D01*
X122848809Y-36249047D01*
X122896428Y-36439523D01*
X122991666Y-36582380D01*
X123134523Y-36677619D01*
X123325000Y-36725238D01*
X123515476Y-36677619D01*
X123658333Y-36582380D01*
X124610714Y-35915714D02*
X124610714Y-36725238D01*
X124563095Y-36820476D01*
X124515476Y-36868095D01*
X124420238Y-36915714D01*
X124277380Y-36915714D01*
X124182142Y-36868095D01*
X124610714Y-36534761D02*
X124515476Y-36582380D01*
X124325000Y-36582380D01*
X124229761Y-36534761D01*
X124182142Y-36487142D01*
X124134523Y-36391904D01*
X124134523Y-36106190D01*
X124182142Y-36010952D01*
X124229761Y-35963333D01*
X124325000Y-35915714D01*
X124515476Y-35915714D01*
X124610714Y-35963333D01*
X125086904Y-36582380D02*
X125086904Y-35915714D01*
X125086904Y-36010952D02*
X125134523Y-35963333D01*
X125229761Y-35915714D01*
X125372619Y-35915714D01*
X125467857Y-35963333D01*
X125515476Y-36058571D01*
X125515476Y-36582380D01*
X125515476Y-36058571D02*
X125563095Y-35963333D01*
X125658333Y-35915714D01*
X125801190Y-35915714D01*
X125896428Y-35963333D01*
X125944047Y-36058571D01*
X125944047Y-36582380D01*
X126848809Y-36582380D02*
X126848809Y-36058571D01*
X126801190Y-35963333D01*
X126705952Y-35915714D01*
X126515476Y-35915714D01*
X126420238Y-35963333D01*
X126848809Y-36534761D02*
X126753571Y-36582380D01*
X126515476Y-36582380D01*
X126420238Y-36534761D01*
X126372619Y-36439523D01*
X126372619Y-36344285D01*
X126420238Y-36249047D01*
X126515476Y-36201428D01*
X126753571Y-36201428D01*
X126848809Y-36153809D01*
X127325000Y-36582380D02*
X127325000Y-35915714D01*
X127325000Y-35582380D02*
X127277380Y-35630000D01*
X127325000Y-35677619D01*
X127372619Y-35630000D01*
X127325000Y-35582380D01*
X127325000Y-35677619D01*
X127944047Y-36582380D02*
X127848809Y-36534761D01*
X127801190Y-36439523D01*
X127801190Y-35582380D01*
X128325000Y-36487142D02*
X128372619Y-36534761D01*
X128325000Y-36582380D01*
X128277380Y-36534761D01*
X128325000Y-36487142D01*
X128325000Y-36582380D01*
X129229761Y-36534761D02*
X129134523Y-36582380D01*
X128944047Y-36582380D01*
X128848809Y-36534761D01*
X128801190Y-36487142D01*
X128753571Y-36391904D01*
X128753571Y-36106190D01*
X128801190Y-36010952D01*
X128848809Y-35963333D01*
X128944047Y-35915714D01*
X129134523Y-35915714D01*
X129229761Y-35963333D01*
X129801190Y-36582380D02*
X129705952Y-36534761D01*
X129658333Y-36487142D01*
X129610714Y-36391904D01*
X129610714Y-36106190D01*
X129658333Y-36010952D01*
X129705952Y-35963333D01*
X129801190Y-35915714D01*
X129944047Y-35915714D01*
X130039285Y-35963333D01*
X130086904Y-36010952D01*
X130134523Y-36106190D01*
X130134523Y-36391904D01*
X130086904Y-36487142D01*
X130039285Y-36534761D01*
X129944047Y-36582380D01*
X129801190Y-36582380D01*
X130563095Y-36582380D02*
X130563095Y-35915714D01*
X130563095Y-36010952D02*
X130610714Y-35963333D01*
X130705952Y-35915714D01*
X130848809Y-35915714D01*
X130944047Y-35963333D01*
X130991666Y-36058571D01*
X130991666Y-36582380D01*
X130991666Y-36058571D02*
X131039285Y-35963333D01*
X131134523Y-35915714D01*
X131277380Y-35915714D01*
X131372619Y-35963333D01*
X131420238Y-36058571D01*
X131420238Y-36582380D01*
D11*
X117398748Y-45175000D02*
X118821252Y-45175000D01*
X117398748Y-42455000D02*
X118821252Y-42455000D01*
X106603748Y-80735000D02*
X108026252Y-80735000D01*
X106603748Y-78015000D02*
X108026252Y-78015000D01*
X104685000Y-32435748D02*
X104685000Y-33858252D01*
X107405000Y-32435748D02*
X107405000Y-33858252D01*
X64322000Y-81855000D02*
X64322000Y-83185000D01*
X62992000Y-81855000D02*
X64322000Y-81855000D01*
X61722000Y-81855000D02*
X61722000Y-84515000D01*
X61722000Y-84515000D02*
X56582000Y-84515000D01*
X61722000Y-81855000D02*
X56582000Y-81855000D01*
X56582000Y-81855000D02*
X56582000Y-84515000D01*
X94880000Y-34585000D02*
X92430000Y-34585000D01*
X93080000Y-37805000D02*
X94880000Y-37805000D01*
X94334064Y-40032000D02*
X93879936Y-40032000D01*
X94334064Y-41502000D02*
X93879936Y-41502000D01*
X97309000Y-39142936D02*
X97309000Y-39597064D01*
X98779000Y-39142936D02*
X98779000Y-39597064D01*
X97309000Y-35332936D02*
X97309000Y-35787064D01*
X98779000Y-35332936D02*
X98779000Y-35787064D01*
X87638000Y-35022000D02*
X88638000Y-35022000D01*
X87638000Y-30002000D02*
X88638000Y-30002000D01*
X98129000Y-28737000D02*
X100429000Y-28737000D01*
X100429000Y-28737000D02*
X100429000Y-29937000D01*
X100429000Y-29937000D02*
X98129000Y-29937000D01*
X98129000Y-29937000D02*
X98129000Y-28737000D01*
X78302000Y-31658000D02*
X80602000Y-31658000D01*
X80602000Y-31658000D02*
X80602000Y-32858000D01*
X80602000Y-32858000D02*
X78302000Y-32858000D01*
X78302000Y-32858000D02*
X78302000Y-31658000D01*
X96484000Y-33512000D02*
X92584000Y-33512000D01*
X96484000Y-31512000D02*
X92584000Y-31512000D01*
X96484000Y-33512000D02*
X96484000Y-31512000D01*
X99859000Y-32308748D02*
X99859000Y-33731252D01*
X102579000Y-32308748D02*
X102579000Y-33731252D01*
X94945252Y-27977000D02*
X93522748Y-27977000D01*
X94945252Y-30697000D02*
X93522748Y-30697000D01*
X81571000Y-33324748D02*
X81571000Y-34747252D01*
X84291000Y-33324748D02*
X84291000Y-34747252D01*
X99568000Y-46355000D02*
G75*
G03X99568000Y-46355000I-1270000J0D01*
G01*
X117348000Y-47625000D02*
X99568000Y-47625000D01*
X117348000Y-76835000D02*
X117348000Y-47625000D01*
X99568000Y-76835000D02*
X117348000Y-76835000D01*
X99568000Y-47625000D02*
X99568000Y-76835000D01*
X49976599Y-27898800D02*
X70976599Y-27898800D01*
X56776599Y-78898800D02*
X49976599Y-78898800D01*
X49976599Y-30565800D02*
X52983599Y-30565800D01*
X52983599Y-30565800D02*
X52983599Y-27898800D01*
X49976599Y-27898800D02*
X49976599Y-28198800D01*
X49976599Y-30298800D02*
X49976599Y-30698800D01*
X49976599Y-32898800D02*
X49976599Y-33298800D01*
X49976599Y-35398800D02*
X49976599Y-35798800D01*
X49976599Y-37998800D02*
X49976599Y-38398800D01*
X49976599Y-40498800D02*
X49976599Y-40898800D01*
X49976599Y-42998800D02*
X49976599Y-43398800D01*
X49976599Y-45598800D02*
X49976599Y-45998800D01*
X49976599Y-48098800D02*
X49976599Y-48498800D01*
X49976599Y-50698800D02*
X49976599Y-51098800D01*
X49976599Y-53198800D02*
X49976599Y-53598800D01*
X49976599Y-55698800D02*
X49976599Y-56098800D01*
X49976599Y-58298800D02*
X49976599Y-58698800D01*
X49976599Y-60798800D02*
X49976599Y-61198800D01*
X49976599Y-63398800D02*
X49976599Y-63798800D01*
X49976599Y-65898800D02*
X49976599Y-66298800D01*
X49976599Y-68498800D02*
X49976599Y-68898800D01*
X49976599Y-70998800D02*
X49976599Y-71398800D01*
X49976599Y-73498800D02*
X49976599Y-73898800D01*
X49976599Y-76098800D02*
X49976599Y-76498800D01*
X70976599Y-42998800D02*
X70976599Y-43398800D01*
X70976599Y-48098800D02*
X70976599Y-48498800D01*
X70976599Y-55698800D02*
X70976599Y-56098800D01*
X70976599Y-63398800D02*
X70976599Y-63798800D01*
X70976599Y-32898800D02*
X70976599Y-33298800D01*
X70976599Y-30298800D02*
X70976599Y-30698800D01*
X70976599Y-37998800D02*
X70976599Y-38398800D01*
X70976599Y-70998800D02*
X70976599Y-71398800D01*
X70976599Y-76098800D02*
X70976599Y-76498800D01*
X70976599Y-73498800D02*
X70976599Y-73898800D01*
X70976599Y-58298800D02*
X70976599Y-58698800D01*
X70976599Y-53198800D02*
X70976599Y-53598800D01*
X70976599Y-40498800D02*
X70976599Y-40898800D01*
X70976599Y-45598800D02*
X70976599Y-45998800D01*
X70976599Y-65898800D02*
X70976599Y-66298800D01*
X70976599Y-50698800D02*
X70976599Y-51098800D01*
X70976599Y-27898800D02*
X70976599Y-28198800D01*
X70976599Y-35398800D02*
X70976599Y-35798800D01*
X70976599Y-60798800D02*
X70976599Y-61198800D01*
X70976599Y-68498800D02*
X70976599Y-68898800D01*
X70976599Y-78898800D02*
X64176599Y-78898800D01*
X58976599Y-78898800D02*
X59376599Y-78898800D01*
X61576599Y-78898800D02*
X61976599Y-78898800D01*
X92990936Y-52170000D02*
X93445064Y-52170000D01*
X92990936Y-50700000D02*
X93445064Y-50700000D01*
X124941064Y-50700000D02*
X124486936Y-50700000D01*
X124941064Y-52170000D02*
X124486936Y-52170000D01*
X92990936Y-57123000D02*
X93445064Y-57123000D01*
X92990936Y-55653000D02*
X93445064Y-55653000D01*
X92990936Y-54710000D02*
X93445064Y-54710000D01*
X92990936Y-53240000D02*
X93445064Y-53240000D01*
X128042936Y-58647000D02*
X128497064Y-58647000D01*
X128042936Y-57177000D02*
X128497064Y-57177000D01*
X123978936Y-58647000D02*
X124433064Y-58647000D01*
X123978936Y-57177000D02*
X124433064Y-57177000D01*
X128042936Y-63600000D02*
X128497064Y-63600000D01*
X128042936Y-62130000D02*
X128497064Y-62130000D01*
X123978936Y-63600000D02*
X124433064Y-63600000D01*
X123978936Y-62130000D02*
X124433064Y-62130000D01*
X128042936Y-66140000D02*
X128497064Y-66140000D01*
X128042936Y-64670000D02*
X128497064Y-64670000D01*
X123978936Y-66140000D02*
X124433064Y-66140000D01*
X123978936Y-64670000D02*
X124433064Y-64670000D01*
X128042936Y-61060000D02*
X128497064Y-61060000D01*
X128042936Y-59590000D02*
X128497064Y-59590000D01*
X123978936Y-61060000D02*
X124433064Y-61060000D01*
X123978936Y-59590000D02*
X124433064Y-59590000D01*
X92863936Y-66140000D02*
X93318064Y-66140000D01*
X92863936Y-64670000D02*
X93318064Y-64670000D01*
X92863936Y-69950000D02*
X93318064Y-69950000D01*
X92863936Y-68480000D02*
X93318064Y-68480000D01*
X124433064Y-69750000D02*
X123978936Y-69750000D01*
X124433064Y-71220000D02*
X123978936Y-71220000D01*
X124433064Y-72290000D02*
X123978936Y-72290000D01*
X124433064Y-73760000D02*
X123978936Y-73760000D01*
X92863936Y-59790000D02*
X93318064Y-59790000D01*
X92863936Y-58320000D02*
X93318064Y-58320000D01*
X124433064Y-67210000D02*
X123978936Y-67210000D01*
X124433064Y-68680000D02*
X123978936Y-68680000D01*
X86993000Y-46538000D02*
X85533000Y-46538000D01*
X86993000Y-43378000D02*
X84833000Y-43378000D01*
X86993000Y-43378000D02*
X86993000Y-44308000D01*
X86993000Y-46538000D02*
X86993000Y-45608000D01*
X129796000Y-49855000D02*
X131256000Y-49855000D01*
X129796000Y-53015000D02*
X131956000Y-53015000D01*
X129796000Y-53015000D02*
X129796000Y-52085000D01*
X129796000Y-49855000D02*
X129796000Y-50785000D01*
X86993000Y-53904000D02*
X85533000Y-53904000D01*
X86993000Y-50744000D02*
X84833000Y-50744000D01*
X86993000Y-50744000D02*
X86993000Y-51674000D01*
X86993000Y-53904000D02*
X86993000Y-52974000D01*
X86993000Y-50221000D02*
X85533000Y-50221000D01*
X86993000Y-47061000D02*
X84833000Y-47061000D01*
X86993000Y-47061000D02*
X86993000Y-47991000D01*
X86993000Y-50221000D02*
X86993000Y-49291000D01*
X86993000Y-68636000D02*
X85533000Y-68636000D01*
X86993000Y-65476000D02*
X84833000Y-65476000D01*
X86993000Y-65476000D02*
X86993000Y-66406000D01*
X86993000Y-68636000D02*
X86993000Y-67706000D01*
X86993000Y-72319000D02*
X85533000Y-72319000D01*
X86993000Y-69159000D02*
X84833000Y-69159000D01*
X86993000Y-69159000D02*
X86993000Y-70089000D01*
X86993000Y-72319000D02*
X86993000Y-71389000D01*
X134114000Y-52268000D02*
X135574000Y-52268000D01*
X134114000Y-55428000D02*
X136274000Y-55428000D01*
X134114000Y-55428000D02*
X134114000Y-54498000D01*
X134114000Y-52268000D02*
X134114000Y-53198000D01*
X137797000Y-67635000D02*
X139257000Y-67635000D01*
X137797000Y-70795000D02*
X139957000Y-70795000D01*
X137797000Y-70795000D02*
X137797000Y-69865000D01*
X137797000Y-67635000D02*
X137797000Y-68565000D01*
X86993000Y-76002000D02*
X85533000Y-76002000D01*
X86993000Y-72842000D02*
X84833000Y-72842000D01*
X86993000Y-72842000D02*
X86993000Y-73772000D01*
X86993000Y-76002000D02*
X86993000Y-75072000D01*
X86993000Y-79939000D02*
X85533000Y-79939000D01*
X86993000Y-76779000D02*
X84833000Y-76779000D01*
X86993000Y-76779000D02*
X86993000Y-77709000D01*
X86993000Y-79939000D02*
X86993000Y-79009000D01*
X132717000Y-70175000D02*
X134177000Y-70175000D01*
X132717000Y-73335000D02*
X134877000Y-73335000D01*
X132717000Y-73335000D02*
X132717000Y-72405000D01*
X132717000Y-70175000D02*
X132717000Y-71105000D01*
X137797000Y-71826000D02*
X139257000Y-71826000D01*
X137797000Y-74986000D02*
X139957000Y-74986000D01*
X137797000Y-74986000D02*
X137797000Y-74056000D01*
X137797000Y-71826000D02*
X137797000Y-72756000D01*
X86993000Y-83749000D02*
X85533000Y-83749000D01*
X86993000Y-80589000D02*
X84833000Y-80589000D01*
X86993000Y-80589000D02*
X86993000Y-81519000D01*
X86993000Y-83749000D02*
X86993000Y-82819000D01*
X86993000Y-61270000D02*
X85533000Y-61270000D01*
X86993000Y-58110000D02*
X84833000Y-58110000D01*
X86993000Y-58110000D02*
X86993000Y-59040000D01*
X86993000Y-61270000D02*
X86993000Y-60340000D01*
X132733000Y-65288000D02*
X134193000Y-65288000D01*
X132733000Y-68448000D02*
X134893000Y-68448000D01*
X132733000Y-68448000D02*
X132733000Y-67518000D01*
X132733000Y-65288000D02*
X132733000Y-66218000D01*
X86993000Y-64953000D02*
X85533000Y-64953000D01*
X86993000Y-61793000D02*
X84833000Y-61793000D01*
X86993000Y-61793000D02*
X86993000Y-62723000D01*
X86993000Y-64953000D02*
X86993000Y-64023000D01*
X86993000Y-57587000D02*
X85533000Y-57587000D01*
X86993000Y-54427000D02*
X84833000Y-54427000D01*
X86993000Y-54427000D02*
X86993000Y-55357000D01*
X86993000Y-57587000D02*
X86993000Y-56657000D01*
D10*
X117943333Y-41872142D02*
X117895714Y-41919761D01*
X117752857Y-41967380D01*
X117657619Y-41967380D01*
X117514761Y-41919761D01*
X117419523Y-41824523D01*
X117371904Y-41729285D01*
X117324285Y-41538809D01*
X117324285Y-41395952D01*
X117371904Y-41205476D01*
X117419523Y-41110238D01*
X117514761Y-41015000D01*
X117657619Y-40967380D01*
X117752857Y-40967380D01*
X117895714Y-41015000D01*
X117943333Y-41062619D01*
X118800476Y-40967380D02*
X118610000Y-40967380D01*
X118514761Y-41015000D01*
X118467142Y-41062619D01*
X118371904Y-41205476D01*
X118324285Y-41395952D01*
X118324285Y-41776904D01*
X118371904Y-41872142D01*
X118419523Y-41919761D01*
X118514761Y-41967380D01*
X118705238Y-41967380D01*
X118800476Y-41919761D01*
X118848095Y-41872142D01*
X118895714Y-41776904D01*
X118895714Y-41538809D01*
X118848095Y-41443571D01*
X118800476Y-41395952D01*
X118705238Y-41348333D01*
X118514761Y-41348333D01*
X118419523Y-41395952D01*
X118371904Y-41443571D01*
X118324285Y-41538809D01*
X102703333Y-80367142D02*
X102655714Y-80414761D01*
X102512857Y-80462380D01*
X102417619Y-80462380D01*
X102274761Y-80414761D01*
X102179523Y-80319523D01*
X102131904Y-80224285D01*
X102084285Y-80033809D01*
X102084285Y-79890952D01*
X102131904Y-79700476D01*
X102179523Y-79605238D01*
X102274761Y-79510000D01*
X102417619Y-79462380D01*
X102512857Y-79462380D01*
X102655714Y-79510000D01*
X102703333Y-79557619D01*
X103608095Y-79462380D02*
X103131904Y-79462380D01*
X103084285Y-79938571D01*
X103131904Y-79890952D01*
X103227142Y-79843333D01*
X103465238Y-79843333D01*
X103560476Y-79890952D01*
X103608095Y-79938571D01*
X103655714Y-80033809D01*
X103655714Y-80271904D01*
X103608095Y-80367142D01*
X103560476Y-80414761D01*
X103465238Y-80462380D01*
X103227142Y-80462380D01*
X103131904Y-80414761D01*
X103084285Y-80367142D01*
X108702142Y-33313666D02*
X108749761Y-33361285D01*
X108797380Y-33504142D01*
X108797380Y-33599380D01*
X108749761Y-33742238D01*
X108654523Y-33837476D01*
X108559285Y-33885095D01*
X108368809Y-33932714D01*
X108225952Y-33932714D01*
X108035476Y-33885095D01*
X107940238Y-33837476D01*
X107845000Y-33742238D01*
X107797380Y-33599380D01*
X107797380Y-33504142D01*
X107845000Y-33361285D01*
X107892619Y-33313666D01*
X108130714Y-32456523D02*
X108797380Y-32456523D01*
X107749761Y-32694619D02*
X108464047Y-32932714D01*
X108464047Y-32313666D01*
X51736666Y-80732380D02*
X51736666Y-81446666D01*
X51689047Y-81589523D01*
X51593809Y-81684761D01*
X51450952Y-81732380D01*
X51355714Y-81732380D01*
X52736666Y-81732380D02*
X52165238Y-81732380D01*
X52450952Y-81732380D02*
X52450952Y-80732380D01*
X52355714Y-80875238D01*
X52260476Y-80970476D01*
X52165238Y-81018095D01*
X89408095Y-37552380D02*
X89408095Y-38361904D01*
X89455714Y-38457142D01*
X89503333Y-38504761D01*
X89598571Y-38552380D01*
X89789047Y-38552380D01*
X89884285Y-38504761D01*
X89931904Y-38457142D01*
X89979523Y-38361904D01*
X89979523Y-37552380D01*
X90360476Y-37552380D02*
X90979523Y-37552380D01*
X90646190Y-37933333D01*
X90789047Y-37933333D01*
X90884285Y-37980952D01*
X90931904Y-38028571D01*
X90979523Y-38123809D01*
X90979523Y-38361904D01*
X90931904Y-38457142D01*
X90884285Y-38504761D01*
X90789047Y-38552380D01*
X90503333Y-38552380D01*
X90408095Y-38504761D01*
X90360476Y-38457142D01*
X93464142Y-42869380D02*
X93130809Y-42393190D01*
X92892714Y-42869380D02*
X92892714Y-41869380D01*
X93273666Y-41869380D01*
X93368904Y-41917000D01*
X93416523Y-41964619D01*
X93464142Y-42059857D01*
X93464142Y-42202714D01*
X93416523Y-42297952D01*
X93368904Y-42345571D01*
X93273666Y-42393190D01*
X92892714Y-42393190D01*
X93797476Y-41869380D02*
X94416523Y-41869380D01*
X94083190Y-42250333D01*
X94226047Y-42250333D01*
X94321285Y-42297952D01*
X94368904Y-42345571D01*
X94416523Y-42440809D01*
X94416523Y-42678904D01*
X94368904Y-42774142D01*
X94321285Y-42821761D01*
X94226047Y-42869380D01*
X93940333Y-42869380D01*
X93845095Y-42821761D01*
X93797476Y-42774142D01*
X95273666Y-41869380D02*
X95083190Y-41869380D01*
X94987952Y-41917000D01*
X94940333Y-41964619D01*
X94845095Y-42107476D01*
X94797476Y-42297952D01*
X94797476Y-42678904D01*
X94845095Y-42774142D01*
X94892714Y-42821761D01*
X94987952Y-42869380D01*
X95178428Y-42869380D01*
X95273666Y-42821761D01*
X95321285Y-42774142D01*
X95368904Y-42678904D01*
X95368904Y-42440809D01*
X95321285Y-42345571D01*
X95273666Y-42297952D01*
X95178428Y-42250333D01*
X94987952Y-42250333D01*
X94892714Y-42297952D01*
X94845095Y-42345571D01*
X94797476Y-42440809D01*
X98242380Y-43187857D02*
X97766190Y-43521190D01*
X98242380Y-43759285D02*
X97242380Y-43759285D01*
X97242380Y-43378333D01*
X97290000Y-43283095D01*
X97337619Y-43235476D01*
X97432857Y-43187857D01*
X97575714Y-43187857D01*
X97670952Y-43235476D01*
X97718571Y-43283095D01*
X97766190Y-43378333D01*
X97766190Y-43759285D01*
X97242380Y-42854523D02*
X97242380Y-42235476D01*
X97623333Y-42568809D01*
X97623333Y-42425952D01*
X97670952Y-42330714D01*
X97718571Y-42283095D01*
X97813809Y-42235476D01*
X98051904Y-42235476D01*
X98147142Y-42283095D01*
X98194761Y-42330714D01*
X98242380Y-42425952D01*
X98242380Y-42711666D01*
X98194761Y-42806904D01*
X98147142Y-42854523D01*
X97242380Y-41330714D02*
X97242380Y-41806904D01*
X97718571Y-41854523D01*
X97670952Y-41806904D01*
X97623333Y-41711666D01*
X97623333Y-41473571D01*
X97670952Y-41378333D01*
X97718571Y-41330714D01*
X97813809Y-41283095D01*
X98051904Y-41283095D01*
X98147142Y-41330714D01*
X98194761Y-41378333D01*
X98242380Y-41473571D01*
X98242380Y-41711666D01*
X98194761Y-41806904D01*
X98147142Y-41854523D01*
X100782380Y-37472857D02*
X100306190Y-37806190D01*
X100782380Y-38044285D02*
X99782380Y-38044285D01*
X99782380Y-37663333D01*
X99830000Y-37568095D01*
X99877619Y-37520476D01*
X99972857Y-37472857D01*
X100115714Y-37472857D01*
X100210952Y-37520476D01*
X100258571Y-37568095D01*
X100306190Y-37663333D01*
X100306190Y-38044285D01*
X99782380Y-37139523D02*
X99782380Y-36520476D01*
X100163333Y-36853809D01*
X100163333Y-36710952D01*
X100210952Y-36615714D01*
X100258571Y-36568095D01*
X100353809Y-36520476D01*
X100591904Y-36520476D01*
X100687142Y-36568095D01*
X100734761Y-36615714D01*
X100782380Y-36710952D01*
X100782380Y-36996666D01*
X100734761Y-37091904D01*
X100687142Y-37139523D01*
X100115714Y-35663333D02*
X100782380Y-35663333D01*
X99734761Y-35901428D02*
X100449047Y-36139523D01*
X100449047Y-35520476D01*
X87971333Y-29264380D02*
X87495142Y-29264380D01*
X87495142Y-28264380D01*
X88828476Y-29264380D02*
X88257047Y-29264380D01*
X88542761Y-29264380D02*
X88542761Y-28264380D01*
X88447523Y-28407238D01*
X88352285Y-28502476D01*
X88257047Y-28550095D01*
X98745666Y-27453666D02*
X98745666Y-27953666D01*
X98712333Y-28053666D01*
X98645666Y-28120333D01*
X98545666Y-28153666D01*
X98479000Y-28153666D01*
X99079000Y-28153666D02*
X99079000Y-27453666D01*
X99345666Y-27453666D01*
X99412333Y-27487000D01*
X99445666Y-27520333D01*
X99479000Y-27587000D01*
X99479000Y-27687000D01*
X99445666Y-27753666D01*
X99412333Y-27787000D01*
X99345666Y-27820333D01*
X99079000Y-27820333D01*
X99745666Y-27520333D02*
X99779000Y-27487000D01*
X99845666Y-27453666D01*
X100012333Y-27453666D01*
X100079000Y-27487000D01*
X100112333Y-27520333D01*
X100145666Y-27587000D01*
X100145666Y-27653666D01*
X100112333Y-27753666D01*
X99712333Y-28153666D01*
X100145666Y-28153666D01*
X78918666Y-30374666D02*
X78918666Y-30874666D01*
X78885333Y-30974666D01*
X78818666Y-31041333D01*
X78718666Y-31074666D01*
X78652000Y-31074666D01*
X79252000Y-31074666D02*
X79252000Y-30374666D01*
X79518666Y-30374666D01*
X79585333Y-30408000D01*
X79618666Y-30441333D01*
X79652000Y-30508000D01*
X79652000Y-30608000D01*
X79618666Y-30674666D01*
X79585333Y-30708000D01*
X79518666Y-30741333D01*
X79252000Y-30741333D01*
X80318666Y-31074666D02*
X79918666Y-31074666D01*
X80118666Y-31074666D02*
X80118666Y-30374666D01*
X80052000Y-30474666D01*
X79985333Y-30541333D01*
X79918666Y-30574666D01*
X97051904Y-32837380D02*
X97051904Y-31837380D01*
X97290000Y-31837380D01*
X97432857Y-31885000D01*
X97528095Y-31980238D01*
X97575714Y-32075476D01*
X97623333Y-32265952D01*
X97623333Y-32408809D01*
X97575714Y-32599285D01*
X97528095Y-32694523D01*
X97432857Y-32789761D01*
X97290000Y-32837380D01*
X97051904Y-32837380D01*
X98575714Y-32837380D02*
X98004285Y-32837380D01*
X98290000Y-32837380D02*
X98290000Y-31837380D01*
X98194761Y-31980238D01*
X98099523Y-32075476D01*
X98004285Y-32123095D01*
X103876142Y-33186666D02*
X103923761Y-33234285D01*
X103971380Y-33377142D01*
X103971380Y-33472380D01*
X103923761Y-33615238D01*
X103828523Y-33710476D01*
X103733285Y-33758095D01*
X103542809Y-33805714D01*
X103399952Y-33805714D01*
X103209476Y-33758095D01*
X103114238Y-33710476D01*
X103019000Y-33615238D01*
X102971380Y-33472380D01*
X102971380Y-33377142D01*
X103019000Y-33234285D01*
X103066619Y-33186666D01*
X102971380Y-32853333D02*
X102971380Y-32234285D01*
X103352333Y-32567619D01*
X103352333Y-32424761D01*
X103399952Y-32329523D01*
X103447571Y-32281904D01*
X103542809Y-32234285D01*
X103780904Y-32234285D01*
X103876142Y-32281904D01*
X103923761Y-32329523D01*
X103971380Y-32424761D01*
X103971380Y-32710476D01*
X103923761Y-32805714D01*
X103876142Y-32853333D01*
X93178333Y-27027142D02*
X93130714Y-27074761D01*
X92987857Y-27122380D01*
X92892619Y-27122380D01*
X92749761Y-27074761D01*
X92654523Y-26979523D01*
X92606904Y-26884285D01*
X92559285Y-26693809D01*
X92559285Y-26550952D01*
X92606904Y-26360476D01*
X92654523Y-26265238D01*
X92749761Y-26170000D01*
X92892619Y-26122380D01*
X92987857Y-26122380D01*
X93130714Y-26170000D01*
X93178333Y-26217619D01*
X93559285Y-26217619D02*
X93606904Y-26170000D01*
X93702142Y-26122380D01*
X93940238Y-26122380D01*
X94035476Y-26170000D01*
X94083095Y-26217619D01*
X94130714Y-26312857D01*
X94130714Y-26408095D01*
X94083095Y-26550952D01*
X93511666Y-27122380D01*
X94130714Y-27122380D01*
X83542142Y-37631666D02*
X83589761Y-37679285D01*
X83637380Y-37822142D01*
X83637380Y-37917380D01*
X83589761Y-38060238D01*
X83494523Y-38155476D01*
X83399285Y-38203095D01*
X83208809Y-38250714D01*
X83065952Y-38250714D01*
X82875476Y-38203095D01*
X82780238Y-38155476D01*
X82685000Y-38060238D01*
X82637380Y-37917380D01*
X82637380Y-37822142D01*
X82685000Y-37679285D01*
X82732619Y-37631666D01*
X83637380Y-36679285D02*
X83637380Y-37250714D01*
X83637380Y-36965000D02*
X82637380Y-36965000D01*
X82780238Y-37060238D01*
X82875476Y-37155476D01*
X82923095Y-37250714D01*
X103886095Y-51387380D02*
X103886095Y-52196904D01*
X103933714Y-52292142D01*
X103981333Y-52339761D01*
X104076571Y-52387380D01*
X104267047Y-52387380D01*
X104362285Y-52339761D01*
X104409904Y-52292142D01*
X104457523Y-52196904D01*
X104457523Y-51387380D01*
X104886095Y-51482619D02*
X104933714Y-51435000D01*
X105028952Y-51387380D01*
X105267047Y-51387380D01*
X105362285Y-51435000D01*
X105409904Y-51482619D01*
X105457523Y-51577857D01*
X105457523Y-51673095D01*
X105409904Y-51815952D01*
X104838476Y-52387380D01*
X105457523Y-52387380D01*
X59714694Y-52851180D02*
X59714694Y-53660704D01*
X59762313Y-53755942D01*
X59809932Y-53803561D01*
X59905170Y-53851180D01*
X60095646Y-53851180D01*
X60190884Y-53803561D01*
X60238503Y-53755942D01*
X60286122Y-53660704D01*
X60286122Y-52851180D01*
X61286122Y-53851180D02*
X60714694Y-53851180D01*
X61000408Y-53851180D02*
X61000408Y-52851180D01*
X60905170Y-52994038D01*
X60809932Y-53089276D01*
X60714694Y-53136895D01*
X64381360Y-79922609D02*
X64495646Y-79960704D01*
X64686122Y-79960704D01*
X64762313Y-79922609D01*
X64800408Y-79884514D01*
X64838503Y-79808323D01*
X64838503Y-79732133D01*
X64800408Y-79655942D01*
X64762313Y-79617847D01*
X64686122Y-79579752D01*
X64533741Y-79541657D01*
X64457551Y-79503561D01*
X64419456Y-79465466D01*
X64381360Y-79389276D01*
X64381360Y-79313085D01*
X64419456Y-79236895D01*
X64457551Y-79198800D01*
X64533741Y-79160704D01*
X64724218Y-79160704D01*
X64838503Y-79198800D01*
X65105170Y-79160704D02*
X65295646Y-79960704D01*
X65448027Y-79389276D01*
X65600408Y-79960704D01*
X65790884Y-79160704D01*
X66095646Y-79960704D02*
X66095646Y-79160704D01*
X66286122Y-79160704D01*
X66400408Y-79198800D01*
X66476599Y-79274990D01*
X66514694Y-79351180D01*
X66552789Y-79503561D01*
X66552789Y-79617847D01*
X66514694Y-79770228D01*
X66476599Y-79846419D01*
X66400408Y-79922609D01*
X66286122Y-79960704D01*
X66095646Y-79960704D01*
X66895646Y-79960704D02*
X66895646Y-79160704D01*
X67428979Y-79160704D02*
X67581360Y-79160704D01*
X67657551Y-79198800D01*
X67733741Y-79274990D01*
X67771837Y-79427371D01*
X67771837Y-79694038D01*
X67733741Y-79846419D01*
X67657551Y-79922609D01*
X67581360Y-79960704D01*
X67428979Y-79960704D01*
X67352789Y-79922609D01*
X67276599Y-79846419D01*
X67238503Y-79694038D01*
X67238503Y-79427371D01*
X67276599Y-79274990D01*
X67352789Y-79198800D01*
X67428979Y-79160704D01*
X52967075Y-79922609D02*
X53081360Y-79960704D01*
X53271837Y-79960704D01*
X53348027Y-79922609D01*
X53386122Y-79884514D01*
X53424218Y-79808323D01*
X53424218Y-79732133D01*
X53386122Y-79655942D01*
X53348027Y-79617847D01*
X53271837Y-79579752D01*
X53119456Y-79541657D01*
X53043265Y-79503561D01*
X53005170Y-79465466D01*
X52967075Y-79389276D01*
X52967075Y-79313085D01*
X53005170Y-79236895D01*
X53043265Y-79198800D01*
X53119456Y-79160704D01*
X53309932Y-79160704D01*
X53424218Y-79198800D01*
X53690884Y-79160704D02*
X53881360Y-79960704D01*
X54033741Y-79389276D01*
X54186122Y-79960704D01*
X54376599Y-79160704D01*
X55138503Y-79884514D02*
X55100408Y-79922609D01*
X54986122Y-79960704D01*
X54909932Y-79960704D01*
X54795646Y-79922609D01*
X54719456Y-79846419D01*
X54681360Y-79770228D01*
X54643265Y-79617847D01*
X54643265Y-79503561D01*
X54681360Y-79351180D01*
X54719456Y-79274990D01*
X54795646Y-79198800D01*
X54909932Y-79160704D01*
X54986122Y-79160704D01*
X55100408Y-79198800D01*
X55138503Y-79236895D01*
X55862313Y-79960704D02*
X55481360Y-79960704D01*
X55481360Y-79160704D01*
X56128979Y-79960704D02*
X56128979Y-79160704D01*
X56586122Y-79960704D02*
X56243265Y-79503561D01*
X56586122Y-79160704D02*
X56128979Y-79617847D01*
X72628196Y-48139764D02*
X72897570Y-47870390D01*
X72735945Y-48355263D02*
X72358822Y-47601016D01*
X73113069Y-47978140D01*
X73059194Y-46954519D02*
X72978382Y-46981456D01*
X72897570Y-47062268D01*
X72843695Y-47170018D01*
X72843695Y-47277767D01*
X72870632Y-47358580D01*
X72951444Y-47493267D01*
X73032257Y-47574079D01*
X73166944Y-47654891D01*
X73247756Y-47681828D01*
X73355505Y-47681828D01*
X73463255Y-47627954D01*
X73517130Y-47574079D01*
X73571005Y-47466329D01*
X73571005Y-47412454D01*
X73382443Y-47223893D01*
X73274693Y-47331642D01*
X73867316Y-47223893D02*
X73301631Y-46658207D01*
X74190565Y-46900644D01*
X73624879Y-46334958D01*
X74459939Y-46631270D02*
X73894253Y-46065584D01*
X74028940Y-45930897D01*
X74136690Y-45877023D01*
X74244440Y-45877023D01*
X74325252Y-45903960D01*
X74459939Y-45984772D01*
X74540751Y-46065584D01*
X74621563Y-46200271D01*
X74648501Y-46281084D01*
X74648501Y-46388833D01*
X74594626Y-46496583D01*
X74459939Y-46631270D01*
X72562757Y-34496955D02*
X72481945Y-34523893D01*
X72401133Y-34604705D01*
X72347258Y-34712454D01*
X72347258Y-34820204D01*
X72374196Y-34901016D01*
X72455008Y-35035703D01*
X72535820Y-35116515D01*
X72670507Y-35197328D01*
X72751319Y-35224265D01*
X72859069Y-35224265D01*
X72966818Y-35170390D01*
X73020693Y-35116515D01*
X73074568Y-35008766D01*
X73074568Y-34954891D01*
X72886006Y-34766329D01*
X72778257Y-34874079D01*
X73370879Y-34766329D02*
X72805194Y-34200644D01*
X73694128Y-34443080D01*
X73128443Y-33877395D01*
X73963502Y-34173706D02*
X73397817Y-33608021D01*
X73532504Y-33473334D01*
X73640253Y-33419459D01*
X73748003Y-33419459D01*
X73828815Y-33446397D01*
X73963502Y-33527209D01*
X74044314Y-33608021D01*
X74125127Y-33742708D01*
X74152064Y-33823520D01*
X74152064Y-33931270D01*
X74098189Y-34039019D01*
X73963502Y-34173706D01*
X72562757Y-59896955D02*
X72481945Y-59923893D01*
X72401133Y-60004705D01*
X72347258Y-60112454D01*
X72347258Y-60220204D01*
X72374196Y-60301016D01*
X72455008Y-60435703D01*
X72535820Y-60516515D01*
X72670507Y-60597328D01*
X72751319Y-60624265D01*
X72859069Y-60624265D01*
X72966818Y-60570390D01*
X73020693Y-60516515D01*
X73074568Y-60408766D01*
X73074568Y-60354891D01*
X72886006Y-60166329D01*
X72778257Y-60274079D01*
X73370879Y-60166329D02*
X72805194Y-59600644D01*
X73694128Y-59843080D01*
X73128443Y-59277395D01*
X73963502Y-59573706D02*
X73397817Y-59008021D01*
X73532504Y-58873334D01*
X73640253Y-58819459D01*
X73748003Y-58819459D01*
X73828815Y-58846397D01*
X73963502Y-58927209D01*
X74044314Y-59008021D01*
X74125127Y-59142708D01*
X74152064Y-59223520D01*
X74152064Y-59331270D01*
X74098189Y-59439019D01*
X73963502Y-59573706D01*
X72562757Y-72596955D02*
X72481945Y-72623893D01*
X72401133Y-72704705D01*
X72347258Y-72812454D01*
X72347258Y-72920204D01*
X72374196Y-73001016D01*
X72455008Y-73135703D01*
X72535820Y-73216515D01*
X72670507Y-73297328D01*
X72751319Y-73324265D01*
X72859069Y-73324265D01*
X72966818Y-73270390D01*
X73020693Y-73216515D01*
X73074568Y-73108766D01*
X73074568Y-73054891D01*
X72886006Y-72866329D01*
X72778257Y-72974079D01*
X73370879Y-72866329D02*
X72805194Y-72300644D01*
X73694128Y-72543080D01*
X73128443Y-71977395D01*
X73963502Y-72273706D02*
X73397817Y-71708021D01*
X73532504Y-71573334D01*
X73640253Y-71519459D01*
X73748003Y-71519459D01*
X73828815Y-71546397D01*
X73963502Y-71627209D01*
X74044314Y-71708021D01*
X74125127Y-71842708D01*
X74152064Y-71923520D01*
X74152064Y-72031270D01*
X74098189Y-72139019D01*
X73963502Y-72273706D01*
X46962757Y-72596955D02*
X46881945Y-72623893D01*
X46801133Y-72704705D01*
X46747258Y-72812454D01*
X46747258Y-72920204D01*
X46774196Y-73001016D01*
X46855008Y-73135703D01*
X46935820Y-73216515D01*
X47070507Y-73297328D01*
X47151319Y-73324265D01*
X47259069Y-73324265D01*
X47366818Y-73270390D01*
X47420693Y-73216515D01*
X47474568Y-73108766D01*
X47474568Y-73054891D01*
X47286006Y-72866329D01*
X47178257Y-72974079D01*
X47770879Y-72866329D02*
X47205194Y-72300644D01*
X48094128Y-72543080D01*
X47528443Y-71977395D01*
X48363502Y-72273706D02*
X47797817Y-71708021D01*
X47932504Y-71573334D01*
X48040253Y-71519459D01*
X48148003Y-71519459D01*
X48228815Y-71546397D01*
X48363502Y-71627209D01*
X48444314Y-71708021D01*
X48525127Y-71842708D01*
X48552064Y-71923520D01*
X48552064Y-72031270D01*
X48498189Y-72139019D01*
X48363502Y-72273706D01*
X46962757Y-59896955D02*
X46881945Y-59923893D01*
X46801133Y-60004705D01*
X46747258Y-60112454D01*
X46747258Y-60220204D01*
X46774196Y-60301016D01*
X46855008Y-60435703D01*
X46935820Y-60516515D01*
X47070507Y-60597328D01*
X47151319Y-60624265D01*
X47259069Y-60624265D01*
X47366818Y-60570390D01*
X47420693Y-60516515D01*
X47474568Y-60408766D01*
X47474568Y-60354891D01*
X47286006Y-60166329D01*
X47178257Y-60274079D01*
X47770879Y-60166329D02*
X47205194Y-59600644D01*
X48094128Y-59843080D01*
X47528443Y-59277395D01*
X48363502Y-59573706D02*
X47797817Y-59008021D01*
X47932504Y-58873334D01*
X48040253Y-58819459D01*
X48148003Y-58819459D01*
X48228815Y-58846397D01*
X48363502Y-58927209D01*
X48444314Y-59008021D01*
X48525127Y-59142708D01*
X48552064Y-59223520D01*
X48552064Y-59331270D01*
X48498189Y-59439019D01*
X48363502Y-59573706D01*
X46962757Y-47196955D02*
X46881945Y-47223893D01*
X46801133Y-47304705D01*
X46747258Y-47412454D01*
X46747258Y-47520204D01*
X46774196Y-47601016D01*
X46855008Y-47735703D01*
X46935820Y-47816515D01*
X47070507Y-47897328D01*
X47151319Y-47924265D01*
X47259069Y-47924265D01*
X47366818Y-47870390D01*
X47420693Y-47816515D01*
X47474568Y-47708766D01*
X47474568Y-47654891D01*
X47286006Y-47466329D01*
X47178257Y-47574079D01*
X47770879Y-47466329D02*
X47205194Y-46900644D01*
X48094128Y-47143080D01*
X47528443Y-46577395D01*
X48363502Y-46873706D02*
X47797817Y-46308021D01*
X47932504Y-46173334D01*
X48040253Y-46119459D01*
X48148003Y-46119459D01*
X48228815Y-46146397D01*
X48363502Y-46227209D01*
X48444314Y-46308021D01*
X48525127Y-46442708D01*
X48552064Y-46523520D01*
X48552064Y-46631270D01*
X48498189Y-46739019D01*
X48363502Y-46873706D01*
X46962757Y-34496955D02*
X46881945Y-34523893D01*
X46801133Y-34604705D01*
X46747258Y-34712454D01*
X46747258Y-34820204D01*
X46774196Y-34901016D01*
X46855008Y-35035703D01*
X46935820Y-35116515D01*
X47070507Y-35197328D01*
X47151319Y-35224265D01*
X47259069Y-35224265D01*
X47366818Y-35170390D01*
X47420693Y-35116515D01*
X47474568Y-35008766D01*
X47474568Y-34954891D01*
X47286006Y-34766329D01*
X47178257Y-34874079D01*
X47770879Y-34766329D02*
X47205194Y-34200644D01*
X48094128Y-34443080D01*
X47528443Y-33877395D01*
X48363502Y-34173706D02*
X47797817Y-33608021D01*
X47932504Y-33473334D01*
X48040253Y-33419459D01*
X48148003Y-33419459D01*
X48228815Y-33446397D01*
X48363502Y-33527209D01*
X48444314Y-33608021D01*
X48525127Y-33742708D01*
X48552064Y-33823520D01*
X48552064Y-33931270D01*
X48498189Y-34039019D01*
X48363502Y-34173706D01*
X72429728Y-29926109D02*
X73183976Y-30303233D01*
X72806852Y-29548986D01*
X73453350Y-29441236D02*
X73561099Y-29387361D01*
X73614974Y-29387361D01*
X73695786Y-29414299D01*
X73776598Y-29495111D01*
X73803536Y-29575923D01*
X73803536Y-29629798D01*
X73776599Y-29710610D01*
X73561099Y-29926109D01*
X72995414Y-29360424D01*
X73183976Y-29171862D01*
X73264788Y-29144925D01*
X73318663Y-29144925D01*
X73399475Y-29171862D01*
X73453350Y-29225737D01*
X73480287Y-29306549D01*
X73480287Y-29360424D01*
X73453350Y-29441236D01*
X73264788Y-29629798D01*
X73561099Y-28794738D02*
X74019035Y-29252674D01*
X74099847Y-29279612D01*
X74153722Y-29279612D01*
X74234534Y-29252674D01*
X74342284Y-29144925D01*
X74369221Y-29064112D01*
X74369221Y-29010238D01*
X74342284Y-28929425D01*
X73884348Y-28471490D01*
X74665533Y-28767801D02*
X74773282Y-28713926D01*
X74907969Y-28579239D01*
X74934907Y-28498427D01*
X74934907Y-28444552D01*
X74907969Y-28363740D01*
X74854095Y-28309865D01*
X74773282Y-28282928D01*
X74719408Y-28282928D01*
X74638595Y-28309865D01*
X74503908Y-28390677D01*
X74423096Y-28417615D01*
X74369221Y-28417615D01*
X74288409Y-28390677D01*
X74234534Y-28336803D01*
X74207597Y-28255990D01*
X74207597Y-28202116D01*
X74234534Y-28121303D01*
X74369221Y-27986616D01*
X74476971Y-27932742D01*
X72397072Y-32468766D02*
X73151319Y-32845889D01*
X72774196Y-32091642D01*
X73474568Y-32468766D02*
X73582318Y-32414891D01*
X73717005Y-32280204D01*
X73743942Y-32199392D01*
X73743942Y-32145517D01*
X73717005Y-32064705D01*
X73663130Y-32010830D01*
X73582318Y-31983893D01*
X73528443Y-31983893D01*
X73447631Y-32010830D01*
X73312944Y-32091642D01*
X73232131Y-32118580D01*
X73178257Y-32118580D01*
X73097444Y-32091642D01*
X73043570Y-32037767D01*
X73016632Y-31956955D01*
X73016632Y-31903080D01*
X73043570Y-31822268D01*
X73178257Y-31687581D01*
X73286006Y-31633706D01*
X73905566Y-31552894D02*
X74174940Y-31822268D01*
X73420693Y-31445145D02*
X73905566Y-31552894D01*
X73797817Y-31068021D01*
X74498189Y-31445145D02*
X74605939Y-31391270D01*
X74740626Y-31256583D01*
X74767563Y-31175771D01*
X74767563Y-31121896D01*
X74740626Y-31041084D01*
X74686751Y-30987209D01*
X74605939Y-30960271D01*
X74552064Y-30960271D01*
X74471252Y-30987209D01*
X74336565Y-31068021D01*
X74255753Y-31094958D01*
X74201878Y-31094958D01*
X74121066Y-31068021D01*
X74067191Y-31014146D01*
X74040253Y-30933334D01*
X74040253Y-30879459D01*
X74067191Y-30798647D01*
X74201878Y-30663960D01*
X74309627Y-30610085D01*
X72398730Y-37357108D02*
X72748916Y-37006922D01*
X72775854Y-37410983D01*
X72856666Y-37330170D01*
X72937478Y-37303233D01*
X72991353Y-37303233D01*
X73072165Y-37330170D01*
X73206852Y-37464857D01*
X73233789Y-37545670D01*
X73233789Y-37599544D01*
X73206852Y-37680357D01*
X73045228Y-37841981D01*
X72964415Y-37868918D01*
X72910541Y-37868918D01*
X72910541Y-36845297D02*
X73664788Y-37222421D01*
X73287664Y-36468174D01*
X73422351Y-36333487D02*
X73772537Y-35983300D01*
X73799475Y-36387361D01*
X73880287Y-36306549D01*
X73961099Y-36279612D01*
X74014974Y-36279612D01*
X74095786Y-36306549D01*
X74230473Y-36441236D01*
X74257411Y-36522048D01*
X74257411Y-36575923D01*
X74230473Y-36656735D01*
X74068849Y-36818360D01*
X73988037Y-36845297D01*
X73934162Y-36845297D01*
X74499847Y-36495111D02*
X74930846Y-36064112D01*
X74715347Y-35579239D02*
X74903908Y-35390677D01*
X75281032Y-35606177D02*
X75011658Y-35875551D01*
X74445973Y-35309865D01*
X74715347Y-35040491D01*
X75523469Y-35363740D02*
X74957783Y-34798055D01*
X75846717Y-35040491D01*
X75281032Y-34474806D01*
X72366446Y-39889392D02*
X72716632Y-39539206D01*
X72743570Y-39943267D01*
X72824382Y-39862454D01*
X72905194Y-39835517D01*
X72959069Y-39835517D01*
X73039881Y-39862454D01*
X73174568Y-39997141D01*
X73201505Y-40077954D01*
X73201505Y-40131828D01*
X73174568Y-40212641D01*
X73012944Y-40374265D01*
X72932131Y-40401202D01*
X72878257Y-40401202D01*
X72878257Y-39377581D02*
X73632504Y-39754705D01*
X73255380Y-39000458D01*
X73390067Y-38865771D02*
X73740253Y-38515584D01*
X73767191Y-38919645D01*
X73848003Y-38838833D01*
X73928815Y-38811896D01*
X73982690Y-38811896D01*
X74063502Y-38838833D01*
X74198189Y-38973520D01*
X74225127Y-39054332D01*
X74225127Y-39108207D01*
X74198189Y-39189019D01*
X74036565Y-39350644D01*
X73955753Y-39377581D01*
X73901878Y-39377581D01*
X72631387Y-42932573D02*
X72900761Y-42663199D01*
X72739136Y-43148072D02*
X72362013Y-42393825D01*
X73116260Y-42770949D01*
X73304822Y-42582387D02*
X72739136Y-42016702D01*
X72873823Y-41882015D01*
X72981573Y-41828140D01*
X73089322Y-41828140D01*
X73170135Y-41855077D01*
X73304822Y-41935889D01*
X73385634Y-42016702D01*
X73466446Y-42151389D01*
X73493383Y-42232201D01*
X73493383Y-42339950D01*
X73439509Y-42447700D01*
X73304822Y-42582387D01*
X74139881Y-41639578D02*
X74139881Y-41693453D01*
X74086006Y-41801202D01*
X74032131Y-41855077D01*
X73924382Y-41908952D01*
X73816632Y-41908952D01*
X73735820Y-41882015D01*
X73601133Y-41801202D01*
X73520321Y-41720390D01*
X73439509Y-41585703D01*
X73412571Y-41504891D01*
X73412571Y-41397141D01*
X73466446Y-41289392D01*
X73520321Y-41235517D01*
X73628070Y-41181642D01*
X73681945Y-41181642D01*
X74355380Y-41639578D02*
X74786379Y-41208580D01*
X74220693Y-40535145D02*
X74974940Y-40912268D01*
X74597817Y-40158021D01*
X75675313Y-40211896D02*
X75217377Y-40131084D01*
X75352064Y-40535145D02*
X74786379Y-39969459D01*
X75001878Y-39753960D01*
X75082690Y-39727023D01*
X75136565Y-39727023D01*
X75217377Y-39753960D01*
X75298189Y-39834772D01*
X75325127Y-39915584D01*
X75325127Y-39969459D01*
X75298189Y-40050271D01*
X75082690Y-40265771D01*
X75621438Y-39673148D02*
X75810000Y-39484586D01*
X76187123Y-39700085D02*
X75917749Y-39969459D01*
X75352064Y-39403774D01*
X75621438Y-39134400D01*
X76321810Y-38972775D02*
X76133249Y-39161337D01*
X76429560Y-39457649D02*
X75863875Y-38891963D01*
X76133249Y-38622589D01*
X72574321Y-44645392D02*
X72493509Y-44672329D01*
X72412696Y-44753141D01*
X72358822Y-44860891D01*
X72358822Y-44968641D01*
X72385759Y-45049453D01*
X72466571Y-45184140D01*
X72547383Y-45264952D01*
X72682070Y-45345764D01*
X72762883Y-45372702D01*
X72870632Y-45372702D01*
X72978382Y-45318827D01*
X73032257Y-45264952D01*
X73086131Y-45157202D01*
X73086131Y-45103328D01*
X72897570Y-44914766D01*
X72789820Y-45022515D01*
X73382443Y-44914766D02*
X72816757Y-44349080D01*
X73032257Y-44133581D01*
X73113069Y-44106644D01*
X73166944Y-44106644D01*
X73247756Y-44133581D01*
X73328568Y-44214393D01*
X73355505Y-44295206D01*
X73355505Y-44349080D01*
X73328568Y-44429893D01*
X73113069Y-44645392D01*
X73409380Y-43864207D02*
X73409380Y-43810332D01*
X73436318Y-43729520D01*
X73571005Y-43594833D01*
X73651817Y-43567896D01*
X73705692Y-43567896D01*
X73786504Y-43594833D01*
X73840379Y-43648708D01*
X73894253Y-43756458D01*
X73894253Y-44402955D01*
X74244440Y-44052769D01*
X74244440Y-43406271D02*
X74163627Y-43433209D01*
X74109753Y-43433209D01*
X74028940Y-43406271D01*
X74002003Y-43379334D01*
X73975066Y-43298522D01*
X73975066Y-43244647D01*
X74002003Y-43163835D01*
X74109753Y-43056085D01*
X74190565Y-43029148D01*
X74244440Y-43029148D01*
X74325252Y-43056085D01*
X74352189Y-43083023D01*
X74379127Y-43163835D01*
X74379127Y-43217710D01*
X74352189Y-43298522D01*
X74244440Y-43406271D01*
X74217502Y-43487084D01*
X74217502Y-43540958D01*
X74244440Y-43621771D01*
X74352189Y-43729520D01*
X74433001Y-43756458D01*
X74486876Y-43756458D01*
X74567688Y-43729520D01*
X74675438Y-43621771D01*
X74702375Y-43540958D01*
X74702375Y-43487084D01*
X74675438Y-43406271D01*
X74567688Y-43298522D01*
X74486876Y-43271584D01*
X74433001Y-43271584D01*
X74352189Y-43298522D01*
X72574321Y-49989392D02*
X72493509Y-50016329D01*
X72412696Y-50097141D01*
X72358822Y-50204891D01*
X72358822Y-50312641D01*
X72385759Y-50393453D01*
X72466571Y-50528140D01*
X72547383Y-50608952D01*
X72682070Y-50689764D01*
X72762883Y-50716702D01*
X72870632Y-50716702D01*
X72978382Y-50662827D01*
X73032257Y-50608952D01*
X73086131Y-50501202D01*
X73086131Y-50447328D01*
X72897570Y-50258766D01*
X72789820Y-50366515D01*
X73382443Y-50258766D02*
X72816757Y-49693080D01*
X73032257Y-49477581D01*
X73113069Y-49450644D01*
X73166944Y-49450644D01*
X73247756Y-49477581D01*
X73328568Y-49558393D01*
X73355505Y-49639206D01*
X73355505Y-49693080D01*
X73328568Y-49773893D01*
X73113069Y-49989392D01*
X73409380Y-49208207D02*
X73409380Y-49154332D01*
X73436318Y-49073520D01*
X73571005Y-48938833D01*
X73651817Y-48911896D01*
X73705692Y-48911896D01*
X73786504Y-48938833D01*
X73840379Y-48992708D01*
X73894253Y-49100458D01*
X73894253Y-49746955D01*
X74244440Y-49396769D01*
X73867316Y-48642522D02*
X74244440Y-48265398D01*
X74567688Y-49073520D01*
X72574321Y-52519392D02*
X72493509Y-52546329D01*
X72412696Y-52627141D01*
X72358822Y-52734891D01*
X72358822Y-52842641D01*
X72385759Y-52923453D01*
X72466571Y-53058140D01*
X72547383Y-53138952D01*
X72682070Y-53219764D01*
X72762883Y-53246702D01*
X72870632Y-53246702D01*
X72978382Y-53192827D01*
X73032257Y-53138952D01*
X73086131Y-53031202D01*
X73086131Y-52977328D01*
X72897570Y-52788766D01*
X72789820Y-52896515D01*
X73382443Y-52788766D02*
X72816757Y-52223080D01*
X73032257Y-52007581D01*
X73113069Y-51980644D01*
X73166944Y-51980644D01*
X73247756Y-52007581D01*
X73328568Y-52088393D01*
X73355505Y-52169206D01*
X73355505Y-52223080D01*
X73328568Y-52303893D01*
X73113069Y-52519392D01*
X73409380Y-51738207D02*
X73409380Y-51684332D01*
X73436318Y-51603520D01*
X73571005Y-51468833D01*
X73651817Y-51441896D01*
X73705692Y-51441896D01*
X73786504Y-51468833D01*
X73840379Y-51522708D01*
X73894253Y-51630458D01*
X73894253Y-52276955D01*
X74244440Y-51926769D01*
X74163627Y-50876210D02*
X74055878Y-50983960D01*
X74028940Y-51064772D01*
X74028940Y-51118647D01*
X74055878Y-51253334D01*
X74136690Y-51388021D01*
X74352189Y-51603520D01*
X74433001Y-51630458D01*
X74486876Y-51630458D01*
X74567688Y-51603520D01*
X74675438Y-51495771D01*
X74702375Y-51414958D01*
X74702375Y-51361084D01*
X74675438Y-51280271D01*
X74540751Y-51145584D01*
X74459939Y-51118647D01*
X74406064Y-51118647D01*
X74325252Y-51145584D01*
X74217502Y-51253334D01*
X74190565Y-51334146D01*
X74190565Y-51388021D01*
X74217502Y-51468833D01*
X73314974Y-55342235D02*
X72857038Y-55261422D01*
X72991725Y-55665483D02*
X72426040Y-55099798D01*
X72641539Y-54884299D01*
X72722351Y-54857361D01*
X72776226Y-54857361D01*
X72857038Y-54884299D01*
X72937850Y-54965111D01*
X72964788Y-55045923D01*
X72964788Y-55099798D01*
X72937850Y-55180610D01*
X72722351Y-55396109D01*
X72991725Y-54534112D02*
X73449661Y-54992048D01*
X73530473Y-55018986D01*
X73584348Y-55018986D01*
X73665160Y-54992048D01*
X73772910Y-54884299D01*
X73799847Y-54803487D01*
X73799847Y-54749612D01*
X73772910Y-54668800D01*
X73314974Y-54210864D01*
X74150034Y-54507175D02*
X73584348Y-53941490D01*
X74473282Y-54183926D01*
X73907597Y-53618241D01*
X72574321Y-57599392D02*
X72493509Y-57626329D01*
X72412696Y-57707141D01*
X72358822Y-57814891D01*
X72358822Y-57922641D01*
X72385759Y-58003453D01*
X72466571Y-58138140D01*
X72547383Y-58218952D01*
X72682070Y-58299764D01*
X72762883Y-58326702D01*
X72870632Y-58326702D01*
X72978382Y-58272827D01*
X73032257Y-58218952D01*
X73086131Y-58111202D01*
X73086131Y-58057328D01*
X72897570Y-57868766D01*
X72789820Y-57976515D01*
X73382443Y-57868766D02*
X72816757Y-57303080D01*
X73032257Y-57087581D01*
X73113069Y-57060644D01*
X73166944Y-57060644D01*
X73247756Y-57087581D01*
X73328568Y-57168393D01*
X73355505Y-57249206D01*
X73355505Y-57303080D01*
X73328568Y-57383893D01*
X73113069Y-57599392D01*
X73409380Y-56818207D02*
X73409380Y-56764332D01*
X73436318Y-56683520D01*
X73571005Y-56548833D01*
X73651817Y-56521896D01*
X73705692Y-56521896D01*
X73786504Y-56548833D01*
X73840379Y-56602708D01*
X73894253Y-56710458D01*
X73894253Y-57356955D01*
X74244440Y-57006769D01*
X73948128Y-56279459D02*
X73948128Y-56225584D01*
X73975066Y-56144772D01*
X74109753Y-56010085D01*
X74190565Y-55983148D01*
X74244440Y-55983148D01*
X74325252Y-56010085D01*
X74379127Y-56063960D01*
X74433001Y-56171710D01*
X74433001Y-56818207D01*
X74783188Y-56468021D01*
X72574321Y-62689392D02*
X72493509Y-62716329D01*
X72412696Y-62797141D01*
X72358822Y-62904891D01*
X72358822Y-63012641D01*
X72385759Y-63093453D01*
X72466571Y-63228140D01*
X72547383Y-63308952D01*
X72682070Y-63389764D01*
X72762883Y-63416702D01*
X72870632Y-63416702D01*
X72978382Y-63362827D01*
X73032257Y-63308952D01*
X73086131Y-63201202D01*
X73086131Y-63147328D01*
X72897570Y-62958766D01*
X72789820Y-63066515D01*
X73382443Y-62958766D02*
X72816757Y-62393080D01*
X73032257Y-62177581D01*
X73113069Y-62150644D01*
X73166944Y-62150644D01*
X73247756Y-62177581D01*
X73328568Y-62258393D01*
X73355505Y-62339206D01*
X73355505Y-62393080D01*
X73328568Y-62473893D01*
X73113069Y-62689392D01*
X73409380Y-61908207D02*
X73409380Y-61854332D01*
X73436318Y-61773520D01*
X73571005Y-61638833D01*
X73651817Y-61611896D01*
X73705692Y-61611896D01*
X73786504Y-61638833D01*
X73840379Y-61692708D01*
X73894253Y-61800458D01*
X73894253Y-62446955D01*
X74244440Y-62096769D01*
X74783188Y-61558021D02*
X74459939Y-61881270D01*
X74621563Y-61719645D02*
X74055878Y-61153960D01*
X74082815Y-61288647D01*
X74082815Y-61396397D01*
X74055878Y-61477209D01*
X72574321Y-65219392D02*
X72493509Y-65246329D01*
X72412696Y-65327141D01*
X72358822Y-65434891D01*
X72358822Y-65542641D01*
X72385759Y-65623453D01*
X72466571Y-65758140D01*
X72547383Y-65838952D01*
X72682070Y-65919764D01*
X72762883Y-65946702D01*
X72870632Y-65946702D01*
X72978382Y-65892827D01*
X73032257Y-65838952D01*
X73086131Y-65731202D01*
X73086131Y-65677328D01*
X72897570Y-65488766D01*
X72789820Y-65596515D01*
X73382443Y-65488766D02*
X72816757Y-64923080D01*
X73032257Y-64707581D01*
X73113069Y-64680644D01*
X73166944Y-64680644D01*
X73247756Y-64707581D01*
X73328568Y-64788393D01*
X73355505Y-64869206D01*
X73355505Y-64923080D01*
X73328568Y-65003893D01*
X73113069Y-65219392D01*
X73409380Y-64438207D02*
X73409380Y-64384332D01*
X73436318Y-64303520D01*
X73571005Y-64168833D01*
X73651817Y-64141896D01*
X73705692Y-64141896D01*
X73786504Y-64168833D01*
X73840379Y-64222708D01*
X73894253Y-64330458D01*
X73894253Y-64976955D01*
X74244440Y-64626769D01*
X74028940Y-63710897D02*
X74082815Y-63657023D01*
X74163627Y-63630085D01*
X74217502Y-63630085D01*
X74298314Y-63657023D01*
X74433001Y-63737835D01*
X74567688Y-63872522D01*
X74648501Y-64007209D01*
X74675438Y-64088021D01*
X74675438Y-64141896D01*
X74648501Y-64222708D01*
X74594626Y-64276583D01*
X74513814Y-64303520D01*
X74459939Y-64303520D01*
X74379127Y-64276583D01*
X74244440Y-64195771D01*
X74109753Y-64061084D01*
X74028940Y-63926397D01*
X74002003Y-63845584D01*
X74002003Y-63791710D01*
X74028940Y-63710897D01*
X72574321Y-67759392D02*
X72493509Y-67786329D01*
X72412696Y-67867141D01*
X72358822Y-67974891D01*
X72358822Y-68082641D01*
X72385759Y-68163453D01*
X72466571Y-68298140D01*
X72547383Y-68378952D01*
X72682070Y-68459764D01*
X72762883Y-68486702D01*
X72870632Y-68486702D01*
X72978382Y-68432827D01*
X73032257Y-68378952D01*
X73086131Y-68271202D01*
X73086131Y-68217328D01*
X72897570Y-68028766D01*
X72789820Y-68136515D01*
X73382443Y-68028766D02*
X72816757Y-67463080D01*
X73032257Y-67247581D01*
X73113069Y-67220644D01*
X73166944Y-67220644D01*
X73247756Y-67247581D01*
X73328568Y-67328393D01*
X73355505Y-67409206D01*
X73355505Y-67463080D01*
X73328568Y-67543893D01*
X73113069Y-67759392D01*
X74244440Y-67166769D02*
X73921191Y-67490018D01*
X74082815Y-67328393D02*
X73517130Y-66762708D01*
X73544067Y-66897395D01*
X73544067Y-67005145D01*
X73517130Y-67085957D01*
X74513814Y-66897395D02*
X74621563Y-66789645D01*
X74648501Y-66708833D01*
X74648501Y-66654958D01*
X74621563Y-66520271D01*
X74540751Y-66385584D01*
X74325252Y-66170085D01*
X74244440Y-66143148D01*
X74190565Y-66143148D01*
X74109753Y-66170085D01*
X74002003Y-66277835D01*
X73975066Y-66358647D01*
X73975066Y-66412522D01*
X74002003Y-66493334D01*
X74136690Y-66628021D01*
X74217502Y-66654958D01*
X74271377Y-66654958D01*
X74352189Y-66628021D01*
X74459939Y-66520271D01*
X74486876Y-66439459D01*
X74486876Y-66385584D01*
X74459939Y-66304772D01*
X72574321Y-70299392D02*
X72493509Y-70326329D01*
X72412696Y-70407141D01*
X72358822Y-70514891D01*
X72358822Y-70622641D01*
X72385759Y-70703453D01*
X72466571Y-70838140D01*
X72547383Y-70918952D01*
X72682070Y-70999764D01*
X72762883Y-71026702D01*
X72870632Y-71026702D01*
X72978382Y-70972827D01*
X73032257Y-70918952D01*
X73086131Y-70811202D01*
X73086131Y-70757328D01*
X72897570Y-70568766D01*
X72789820Y-70676515D01*
X73382443Y-70568766D02*
X72816757Y-70003080D01*
X73032257Y-69787581D01*
X73113069Y-69760644D01*
X73166944Y-69760644D01*
X73247756Y-69787581D01*
X73328568Y-69868393D01*
X73355505Y-69949206D01*
X73355505Y-70003080D01*
X73328568Y-70083893D01*
X73113069Y-70299392D01*
X74244440Y-69706769D02*
X73921191Y-70030018D01*
X74082815Y-69868393D02*
X73517130Y-69302708D01*
X73544067Y-69437395D01*
X73544067Y-69545145D01*
X73517130Y-69625957D01*
X74244440Y-69060271D02*
X74163627Y-69087209D01*
X74109753Y-69087209D01*
X74028940Y-69060271D01*
X74002003Y-69033334D01*
X73975066Y-68952522D01*
X73975066Y-68898647D01*
X74002003Y-68817835D01*
X74109753Y-68710085D01*
X74190565Y-68683148D01*
X74244440Y-68683148D01*
X74325252Y-68710085D01*
X74352189Y-68737023D01*
X74379127Y-68817835D01*
X74379127Y-68871710D01*
X74352189Y-68952522D01*
X74244440Y-69060271D01*
X74217502Y-69141084D01*
X74217502Y-69194958D01*
X74244440Y-69275771D01*
X74352189Y-69383520D01*
X74433001Y-69410458D01*
X74486876Y-69410458D01*
X74567688Y-69383520D01*
X74675438Y-69275771D01*
X74702375Y-69194958D01*
X74702375Y-69141084D01*
X74675438Y-69060271D01*
X74567688Y-68952522D01*
X74486876Y-68925584D01*
X74433001Y-68925584D01*
X74352189Y-68952522D01*
X72574321Y-75379392D02*
X72493509Y-75406329D01*
X72412696Y-75487141D01*
X72358822Y-75594891D01*
X72358822Y-75702641D01*
X72385759Y-75783453D01*
X72466571Y-75918140D01*
X72547383Y-75998952D01*
X72682070Y-76079764D01*
X72762883Y-76106702D01*
X72870632Y-76106702D01*
X72978382Y-76052827D01*
X73032257Y-75998952D01*
X73086131Y-75891202D01*
X73086131Y-75837328D01*
X72897570Y-75648766D01*
X72789820Y-75756515D01*
X73382443Y-75648766D02*
X72816757Y-75083080D01*
X73032257Y-74867581D01*
X73113069Y-74840644D01*
X73166944Y-74840644D01*
X73247756Y-74867581D01*
X73328568Y-74948393D01*
X73355505Y-75029206D01*
X73355505Y-75083080D01*
X73328568Y-75163893D01*
X73113069Y-75379392D01*
X74244440Y-74786769D02*
X73921191Y-75110018D01*
X74082815Y-74948393D02*
X73517130Y-74382708D01*
X73544067Y-74517395D01*
X73544067Y-74625145D01*
X73517130Y-74705957D01*
X73867316Y-74032522D02*
X74244440Y-73655398D01*
X74567688Y-74463520D01*
X72574321Y-77919392D02*
X72493509Y-77946329D01*
X72412696Y-78027141D01*
X72358822Y-78134891D01*
X72358822Y-78242641D01*
X72385759Y-78323453D01*
X72466571Y-78458140D01*
X72547383Y-78538952D01*
X72682070Y-78619764D01*
X72762883Y-78646702D01*
X72870632Y-78646702D01*
X72978382Y-78592827D01*
X73032257Y-78538952D01*
X73086131Y-78431202D01*
X73086131Y-78377328D01*
X72897570Y-78188766D01*
X72789820Y-78296515D01*
X73382443Y-78188766D02*
X72816757Y-77623080D01*
X73032257Y-77407581D01*
X73113069Y-77380644D01*
X73166944Y-77380644D01*
X73247756Y-77407581D01*
X73328568Y-77488393D01*
X73355505Y-77569206D01*
X73355505Y-77623080D01*
X73328568Y-77703893D01*
X73113069Y-77919392D01*
X74244440Y-77326769D02*
X73921191Y-77650018D01*
X74082815Y-77488393D02*
X73517130Y-76922708D01*
X73544067Y-77057395D01*
X73544067Y-77165145D01*
X73517130Y-77245957D01*
X74163627Y-76276210D02*
X74055878Y-76383960D01*
X74028940Y-76464772D01*
X74028940Y-76518647D01*
X74055878Y-76653334D01*
X74136690Y-76788021D01*
X74352189Y-77003520D01*
X74433001Y-77030458D01*
X74486876Y-77030458D01*
X74567688Y-77003520D01*
X74675438Y-76895771D01*
X74702375Y-76814958D01*
X74702375Y-76761084D01*
X74675438Y-76680271D01*
X74540751Y-76545584D01*
X74459939Y-76518647D01*
X74406064Y-76518647D01*
X74325252Y-76545584D01*
X74217502Y-76653334D01*
X74190565Y-76734146D01*
X74190565Y-76788021D01*
X74217502Y-76868833D01*
X46466321Y-77919392D02*
X46385509Y-77946329D01*
X46304696Y-78027141D01*
X46250822Y-78134891D01*
X46250822Y-78242641D01*
X46277759Y-78323453D01*
X46358571Y-78458140D01*
X46439383Y-78538952D01*
X46574070Y-78619764D01*
X46654883Y-78646702D01*
X46762632Y-78646702D01*
X46870382Y-78592827D01*
X46924257Y-78538952D01*
X46978131Y-78431202D01*
X46978131Y-78377328D01*
X46789570Y-78188766D01*
X46681820Y-78296515D01*
X47274443Y-78188766D02*
X46708757Y-77623080D01*
X46924257Y-77407581D01*
X47005069Y-77380644D01*
X47058944Y-77380644D01*
X47139756Y-77407581D01*
X47220568Y-77488393D01*
X47247505Y-77569206D01*
X47247505Y-77623080D01*
X47220568Y-77703893D01*
X47005069Y-77919392D01*
X48136440Y-77326769D02*
X47813191Y-77650018D01*
X47974815Y-77488393D02*
X47409130Y-76922708D01*
X47436067Y-77057395D01*
X47436067Y-77165145D01*
X47409130Y-77245957D01*
X48082565Y-76249273D02*
X47813191Y-76518647D01*
X48055627Y-76814958D01*
X48055627Y-76761084D01*
X48082565Y-76680271D01*
X48217252Y-76545584D01*
X48298064Y-76518647D01*
X48351939Y-76518647D01*
X48432751Y-76545584D01*
X48567438Y-76680271D01*
X48594375Y-76761084D01*
X48594375Y-76814958D01*
X48567438Y-76895771D01*
X48432751Y-77030458D01*
X48351939Y-77057395D01*
X48298064Y-77057395D01*
X46420321Y-75379392D02*
X46339509Y-75406329D01*
X46258696Y-75487141D01*
X46204822Y-75594891D01*
X46204822Y-75702641D01*
X46231759Y-75783453D01*
X46312571Y-75918140D01*
X46393383Y-75998952D01*
X46528070Y-76079764D01*
X46608883Y-76106702D01*
X46716632Y-76106702D01*
X46824382Y-76052827D01*
X46878257Y-75998952D01*
X46932131Y-75891202D01*
X46932131Y-75837328D01*
X46743570Y-75648766D01*
X46635820Y-75756515D01*
X47228443Y-75648766D02*
X46662757Y-75083080D01*
X46878257Y-74867581D01*
X46959069Y-74840644D01*
X47012944Y-74840644D01*
X47093756Y-74867581D01*
X47174568Y-74948393D01*
X47201505Y-75029206D01*
X47201505Y-75083080D01*
X47174568Y-75163893D01*
X46959069Y-75379392D01*
X48090440Y-74786769D02*
X47767191Y-75110018D01*
X47928815Y-74948393D02*
X47363130Y-74382708D01*
X47390067Y-74517395D01*
X47390067Y-74625145D01*
X47363130Y-74705957D01*
X48198189Y-73924772D02*
X48575313Y-74301896D01*
X47848003Y-73843960D02*
X48117377Y-74382708D01*
X48467563Y-74032522D01*
X46466321Y-70299392D02*
X46385509Y-70326329D01*
X46304696Y-70407141D01*
X46250822Y-70514891D01*
X46250822Y-70622641D01*
X46277759Y-70703453D01*
X46358571Y-70838140D01*
X46439383Y-70918952D01*
X46574070Y-70999764D01*
X46654883Y-71026702D01*
X46762632Y-71026702D01*
X46870382Y-70972827D01*
X46924257Y-70918952D01*
X46978131Y-70811202D01*
X46978131Y-70757328D01*
X46789570Y-70568766D01*
X46681820Y-70676515D01*
X47274443Y-70568766D02*
X46708757Y-70003080D01*
X46924257Y-69787581D01*
X47005069Y-69760644D01*
X47058944Y-69760644D01*
X47139756Y-69787581D01*
X47220568Y-69868393D01*
X47247505Y-69949206D01*
X47247505Y-70003080D01*
X47220568Y-70083893D01*
X47005069Y-70299392D01*
X48136440Y-69706769D02*
X47813191Y-70030018D01*
X47974815Y-69868393D02*
X47409130Y-69302708D01*
X47436067Y-69437395D01*
X47436067Y-69545145D01*
X47409130Y-69625957D01*
X47759316Y-68952522D02*
X48109502Y-68602336D01*
X48136440Y-69006397D01*
X48217252Y-68925584D01*
X48298064Y-68898647D01*
X48351939Y-68898647D01*
X48432751Y-68925584D01*
X48567438Y-69060271D01*
X48594375Y-69141084D01*
X48594375Y-69194958D01*
X48567438Y-69275771D01*
X48405814Y-69437395D01*
X48325001Y-69464332D01*
X48271127Y-69464332D01*
X46320321Y-67759392D02*
X46239509Y-67786329D01*
X46158696Y-67867141D01*
X46104822Y-67974891D01*
X46104822Y-68082641D01*
X46131759Y-68163453D01*
X46212571Y-68298140D01*
X46293383Y-68378952D01*
X46428070Y-68459764D01*
X46508883Y-68486702D01*
X46616632Y-68486702D01*
X46724382Y-68432827D01*
X46778257Y-68378952D01*
X46832131Y-68271202D01*
X46832131Y-68217328D01*
X46643570Y-68028766D01*
X46535820Y-68136515D01*
X47128443Y-68028766D02*
X46562757Y-67463080D01*
X46778257Y-67247581D01*
X46859069Y-67220644D01*
X46912944Y-67220644D01*
X46993756Y-67247581D01*
X47074568Y-67328393D01*
X47101505Y-67409206D01*
X47101505Y-67463080D01*
X47074568Y-67543893D01*
X46859069Y-67759392D01*
X47990440Y-67166769D02*
X47667191Y-67490018D01*
X47828815Y-67328393D02*
X47263130Y-66762708D01*
X47290067Y-66897395D01*
X47290067Y-67005145D01*
X47263130Y-67085957D01*
X47694128Y-66439459D02*
X47694128Y-66385584D01*
X47721066Y-66304772D01*
X47855753Y-66170085D01*
X47936565Y-66143148D01*
X47990440Y-66143148D01*
X48071252Y-66170085D01*
X48125127Y-66223960D01*
X48179001Y-66331710D01*
X48179001Y-66978207D01*
X48529188Y-66628021D01*
X46320321Y-65219392D02*
X46239509Y-65246329D01*
X46158696Y-65327141D01*
X46104822Y-65434891D01*
X46104822Y-65542641D01*
X46131759Y-65623453D01*
X46212571Y-65758140D01*
X46293383Y-65838952D01*
X46428070Y-65919764D01*
X46508883Y-65946702D01*
X46616632Y-65946702D01*
X46724382Y-65892827D01*
X46778257Y-65838952D01*
X46832131Y-65731202D01*
X46832131Y-65677328D01*
X46643570Y-65488766D01*
X46535820Y-65596515D01*
X47128443Y-65488766D02*
X46562757Y-64923080D01*
X46778257Y-64707581D01*
X46859069Y-64680644D01*
X46912944Y-64680644D01*
X46993756Y-64707581D01*
X47074568Y-64788393D01*
X47101505Y-64869206D01*
X47101505Y-64923080D01*
X47074568Y-65003893D01*
X46859069Y-65219392D01*
X47990440Y-64626769D02*
X47667191Y-64950018D01*
X47828815Y-64788393D02*
X47263130Y-64222708D01*
X47290067Y-64357395D01*
X47290067Y-64465145D01*
X47263130Y-64545957D01*
X48529188Y-64088021D02*
X48205939Y-64411270D01*
X48367563Y-64249645D02*
X47801878Y-63683960D01*
X47828815Y-63818647D01*
X47828815Y-63926397D01*
X47801878Y-64007209D01*
X46466321Y-62679392D02*
X46385509Y-62706329D01*
X46304696Y-62787141D01*
X46250822Y-62894891D01*
X46250822Y-63002641D01*
X46277759Y-63083453D01*
X46358571Y-63218140D01*
X46439383Y-63298952D01*
X46574070Y-63379764D01*
X46654883Y-63406702D01*
X46762632Y-63406702D01*
X46870382Y-63352827D01*
X46924257Y-63298952D01*
X46978131Y-63191202D01*
X46978131Y-63137328D01*
X46789570Y-62948766D01*
X46681820Y-63056515D01*
X47274443Y-62948766D02*
X46708757Y-62383080D01*
X46924257Y-62167581D01*
X47005069Y-62140644D01*
X47058944Y-62140644D01*
X47139756Y-62167581D01*
X47220568Y-62248393D01*
X47247505Y-62329206D01*
X47247505Y-62383080D01*
X47220568Y-62463893D01*
X47005069Y-62679392D01*
X48136440Y-62086769D02*
X47813191Y-62410018D01*
X47974815Y-62248393D02*
X47409130Y-61682708D01*
X47436067Y-61817395D01*
X47436067Y-61925145D01*
X47409130Y-62005957D01*
X47920940Y-61170897D02*
X47974815Y-61117023D01*
X48055627Y-61090085D01*
X48109502Y-61090085D01*
X48190314Y-61117023D01*
X48325001Y-61197835D01*
X48459688Y-61332522D01*
X48540501Y-61467209D01*
X48567438Y-61548021D01*
X48567438Y-61601896D01*
X48540501Y-61682708D01*
X48486626Y-61736583D01*
X48405814Y-61763520D01*
X48351939Y-61763520D01*
X48271127Y-61736583D01*
X48136440Y-61655771D01*
X48001753Y-61521084D01*
X47920940Y-61386397D01*
X47894003Y-61305584D01*
X47894003Y-61251710D01*
X47920940Y-61170897D01*
X46989695Y-57330018D02*
X46908883Y-57356955D01*
X46828070Y-57437767D01*
X46774196Y-57545517D01*
X46774196Y-57653267D01*
X46801133Y-57734079D01*
X46881945Y-57868766D01*
X46962757Y-57949578D01*
X47097444Y-58030390D01*
X47178257Y-58057328D01*
X47286006Y-58057328D01*
X47393756Y-58003453D01*
X47447631Y-57949578D01*
X47501505Y-57841828D01*
X47501505Y-57787954D01*
X47312944Y-57599392D01*
X47205194Y-57707141D01*
X47797817Y-57599392D02*
X47232131Y-57033706D01*
X47447631Y-56818207D01*
X47528443Y-56791270D01*
X47582318Y-56791270D01*
X47663130Y-56818207D01*
X47743942Y-56899019D01*
X47770879Y-56979832D01*
X47770879Y-57033706D01*
X47743942Y-57114519D01*
X47528443Y-57330018D01*
X48390440Y-57006769D02*
X48498189Y-56899019D01*
X48525127Y-56818207D01*
X48525127Y-56764332D01*
X48498189Y-56629645D01*
X48417377Y-56494958D01*
X48201878Y-56279459D01*
X48121066Y-56252522D01*
X48067191Y-56252522D01*
X47986379Y-56279459D01*
X47878629Y-56387209D01*
X47851692Y-56468021D01*
X47851692Y-56521896D01*
X47878629Y-56602708D01*
X48013316Y-56737395D01*
X48094128Y-56764332D01*
X48148003Y-56764332D01*
X48228815Y-56737395D01*
X48336565Y-56629645D01*
X48363502Y-56548833D01*
X48363502Y-56494958D01*
X48336565Y-56414146D01*
X46989695Y-54790018D02*
X46908883Y-54816955D01*
X46828070Y-54897767D01*
X46774196Y-55005517D01*
X46774196Y-55113267D01*
X46801133Y-55194079D01*
X46881945Y-55328766D01*
X46962757Y-55409578D01*
X47097444Y-55490390D01*
X47178257Y-55517328D01*
X47286006Y-55517328D01*
X47393756Y-55463453D01*
X47447631Y-55409578D01*
X47501505Y-55301828D01*
X47501505Y-55247954D01*
X47312944Y-55059392D01*
X47205194Y-55167141D01*
X47797817Y-55059392D02*
X47232131Y-54493706D01*
X47447631Y-54278207D01*
X47528443Y-54251270D01*
X47582318Y-54251270D01*
X47663130Y-54278207D01*
X47743942Y-54359019D01*
X47770879Y-54439832D01*
X47770879Y-54493706D01*
X47743942Y-54574519D01*
X47528443Y-54790018D01*
X48121066Y-54089645D02*
X48040253Y-54116583D01*
X47986379Y-54116583D01*
X47905566Y-54089645D01*
X47878629Y-54062708D01*
X47851692Y-53981896D01*
X47851692Y-53928021D01*
X47878629Y-53847209D01*
X47986379Y-53739459D01*
X48067191Y-53712522D01*
X48121066Y-53712522D01*
X48201878Y-53739459D01*
X48228815Y-53766397D01*
X48255753Y-53847209D01*
X48255753Y-53901084D01*
X48228815Y-53981896D01*
X48121066Y-54089645D01*
X48094128Y-54170458D01*
X48094128Y-54224332D01*
X48121066Y-54305145D01*
X48228815Y-54412894D01*
X48309627Y-54439832D01*
X48363502Y-54439832D01*
X48444314Y-54412894D01*
X48552064Y-54305145D01*
X48579001Y-54224332D01*
X48579001Y-54170458D01*
X48552064Y-54089645D01*
X48444314Y-53981896D01*
X48363502Y-53954958D01*
X48309627Y-53954958D01*
X48228815Y-53981896D01*
X47089695Y-52220018D02*
X47008883Y-52246955D01*
X46928070Y-52327767D01*
X46874196Y-52435517D01*
X46874196Y-52543267D01*
X46901133Y-52624079D01*
X46981945Y-52758766D01*
X47062757Y-52839578D01*
X47197444Y-52920390D01*
X47278257Y-52947328D01*
X47386006Y-52947328D01*
X47493756Y-52893453D01*
X47547631Y-52839578D01*
X47601505Y-52731828D01*
X47601505Y-52677954D01*
X47412944Y-52489392D01*
X47305194Y-52597141D01*
X47897817Y-52489392D02*
X47332131Y-51923706D01*
X47547631Y-51708207D01*
X47628443Y-51681270D01*
X47682318Y-51681270D01*
X47763130Y-51708207D01*
X47843942Y-51789019D01*
X47870879Y-51869832D01*
X47870879Y-51923706D01*
X47843942Y-52004519D01*
X47628443Y-52220018D01*
X47843942Y-51411896D02*
X48221066Y-51034772D01*
X48544314Y-51842894D01*
X46989695Y-49710018D02*
X46908883Y-49736955D01*
X46828070Y-49817767D01*
X46774196Y-49925517D01*
X46774196Y-50033267D01*
X46801133Y-50114079D01*
X46881945Y-50248766D01*
X46962757Y-50329578D01*
X47097444Y-50410390D01*
X47178257Y-50437328D01*
X47286006Y-50437328D01*
X47393756Y-50383453D01*
X47447631Y-50329578D01*
X47501505Y-50221828D01*
X47501505Y-50167954D01*
X47312944Y-49979392D01*
X47205194Y-50087141D01*
X47797817Y-49979392D02*
X47232131Y-49413706D01*
X47447631Y-49198207D01*
X47528443Y-49171270D01*
X47582318Y-49171270D01*
X47663130Y-49198207D01*
X47743942Y-49279019D01*
X47770879Y-49359832D01*
X47770879Y-49413706D01*
X47743942Y-49494519D01*
X47528443Y-49710018D01*
X48040253Y-48605584D02*
X47932504Y-48713334D01*
X47905566Y-48794146D01*
X47905566Y-48848021D01*
X47932504Y-48982708D01*
X48013316Y-49117395D01*
X48228815Y-49332894D01*
X48309627Y-49359832D01*
X48363502Y-49359832D01*
X48444314Y-49332894D01*
X48552064Y-49225145D01*
X48579001Y-49144332D01*
X48579001Y-49090458D01*
X48552064Y-49009645D01*
X48417377Y-48874958D01*
X48336565Y-48848021D01*
X48282690Y-48848021D01*
X48201878Y-48874958D01*
X48094128Y-48982708D01*
X48067191Y-49063520D01*
X48067191Y-49117395D01*
X48094128Y-49198207D01*
X46989695Y-44630018D02*
X46908883Y-44656955D01*
X46828070Y-44737767D01*
X46774196Y-44845517D01*
X46774196Y-44953267D01*
X46801133Y-45034079D01*
X46881945Y-45168766D01*
X46962757Y-45249578D01*
X47097444Y-45330390D01*
X47178257Y-45357328D01*
X47286006Y-45357328D01*
X47393756Y-45303453D01*
X47447631Y-45249578D01*
X47501505Y-45141828D01*
X47501505Y-45087954D01*
X47312944Y-44899392D01*
X47205194Y-45007141D01*
X47797817Y-44899392D02*
X47232131Y-44333706D01*
X47447631Y-44118207D01*
X47528443Y-44091270D01*
X47582318Y-44091270D01*
X47663130Y-44118207D01*
X47743942Y-44199019D01*
X47770879Y-44279832D01*
X47770879Y-44333706D01*
X47743942Y-44414519D01*
X47528443Y-44630018D01*
X48067191Y-43498647D02*
X47797817Y-43768021D01*
X48040253Y-44064332D01*
X48040253Y-44010458D01*
X48067191Y-43929645D01*
X48201878Y-43794958D01*
X48282690Y-43768021D01*
X48336565Y-43768021D01*
X48417377Y-43794958D01*
X48552064Y-43929645D01*
X48579001Y-44010458D01*
X48579001Y-44064332D01*
X48552064Y-44145145D01*
X48417377Y-44279832D01*
X48336565Y-44306769D01*
X48282690Y-44306769D01*
X46989695Y-42090018D02*
X46908883Y-42116955D01*
X46828070Y-42197767D01*
X46774196Y-42305517D01*
X46774196Y-42413267D01*
X46801133Y-42494079D01*
X46881945Y-42628766D01*
X46962757Y-42709578D01*
X47097444Y-42790390D01*
X47178257Y-42817328D01*
X47286006Y-42817328D01*
X47393756Y-42763453D01*
X47447631Y-42709578D01*
X47501505Y-42601828D01*
X47501505Y-42547954D01*
X47312944Y-42359392D01*
X47205194Y-42467141D01*
X47797817Y-42359392D02*
X47232131Y-41793706D01*
X47447631Y-41578207D01*
X47528443Y-41551270D01*
X47582318Y-41551270D01*
X47663130Y-41578207D01*
X47743942Y-41659019D01*
X47770879Y-41739832D01*
X47770879Y-41793706D01*
X47743942Y-41874519D01*
X47528443Y-42090018D01*
X48228815Y-41174146D02*
X48605939Y-41551270D01*
X47878629Y-41093334D02*
X48148003Y-41632082D01*
X48498189Y-41281896D01*
X46989695Y-39550018D02*
X46908883Y-39576955D01*
X46828070Y-39657767D01*
X46774196Y-39765517D01*
X46774196Y-39873267D01*
X46801133Y-39954079D01*
X46881945Y-40088766D01*
X46962757Y-40169578D01*
X47097444Y-40250390D01*
X47178257Y-40277328D01*
X47286006Y-40277328D01*
X47393756Y-40223453D01*
X47447631Y-40169578D01*
X47501505Y-40061828D01*
X47501505Y-40007954D01*
X47312944Y-39819392D01*
X47205194Y-39927141D01*
X47797817Y-39819392D02*
X47232131Y-39253706D01*
X47447631Y-39038207D01*
X47528443Y-39011270D01*
X47582318Y-39011270D01*
X47663130Y-39038207D01*
X47743942Y-39119019D01*
X47770879Y-39199832D01*
X47770879Y-39253706D01*
X47743942Y-39334519D01*
X47528443Y-39550018D01*
X47743942Y-38741896D02*
X48094128Y-38391710D01*
X48121066Y-38795771D01*
X48201878Y-38714958D01*
X48282690Y-38688021D01*
X48336565Y-38688021D01*
X48417377Y-38714958D01*
X48552064Y-38849645D01*
X48579001Y-38930458D01*
X48579001Y-38984332D01*
X48552064Y-39065145D01*
X48390440Y-39226769D01*
X48309627Y-39253706D01*
X48255753Y-39253706D01*
X46989695Y-29390018D02*
X46908883Y-29416955D01*
X46828070Y-29497767D01*
X46774196Y-29605517D01*
X46774196Y-29713267D01*
X46801133Y-29794079D01*
X46881945Y-29928766D01*
X46962757Y-30009578D01*
X47097444Y-30090390D01*
X47178257Y-30117328D01*
X47286006Y-30117328D01*
X47393756Y-30063453D01*
X47447631Y-30009578D01*
X47501505Y-29901828D01*
X47501505Y-29847954D01*
X47312944Y-29659392D01*
X47205194Y-29767141D01*
X47797817Y-29659392D02*
X47232131Y-29093706D01*
X47447631Y-28878207D01*
X47528443Y-28851270D01*
X47582318Y-28851270D01*
X47663130Y-28878207D01*
X47743942Y-28959019D01*
X47770879Y-29039832D01*
X47770879Y-29093706D01*
X47743942Y-29174519D01*
X47528443Y-29390018D01*
X47905566Y-28420271D02*
X47959441Y-28366397D01*
X48040253Y-28339459D01*
X48094128Y-28339459D01*
X48174940Y-28366397D01*
X48309627Y-28447209D01*
X48444314Y-28581896D01*
X48525127Y-28716583D01*
X48552064Y-28797395D01*
X48552064Y-28851270D01*
X48525127Y-28932082D01*
X48471252Y-28985957D01*
X48390440Y-29012894D01*
X48336565Y-29012894D01*
X48255753Y-28985957D01*
X48121066Y-28905145D01*
X47986379Y-28770458D01*
X47905566Y-28635771D01*
X47878629Y-28554958D01*
X47878629Y-28501084D01*
X47905566Y-28420271D01*
X46889695Y-37010018D02*
X46808883Y-37036955D01*
X46728070Y-37117767D01*
X46674196Y-37225517D01*
X46674196Y-37333267D01*
X46701133Y-37414079D01*
X46781945Y-37548766D01*
X46862757Y-37629578D01*
X46997444Y-37710390D01*
X47078257Y-37737328D01*
X47186006Y-37737328D01*
X47293756Y-37683453D01*
X47347631Y-37629578D01*
X47401505Y-37521828D01*
X47401505Y-37467954D01*
X47212944Y-37279392D01*
X47105194Y-37387141D01*
X47697817Y-37279392D02*
X47132131Y-36713706D01*
X47347631Y-36498207D01*
X47428443Y-36471270D01*
X47482318Y-36471270D01*
X47563130Y-36498207D01*
X47643942Y-36579019D01*
X47670879Y-36659832D01*
X47670879Y-36713706D01*
X47643942Y-36794519D01*
X47428443Y-37010018D01*
X47724754Y-36228833D02*
X47724754Y-36174958D01*
X47751692Y-36094146D01*
X47886379Y-35959459D01*
X47967191Y-35932522D01*
X48021066Y-35932522D01*
X48101878Y-35959459D01*
X48155753Y-36013334D01*
X48209627Y-36121084D01*
X48209627Y-36767581D01*
X48559814Y-36417395D01*
X46889695Y-31920018D02*
X46808883Y-31946955D01*
X46728070Y-32027767D01*
X46674196Y-32135517D01*
X46674196Y-32243267D01*
X46701133Y-32324079D01*
X46781945Y-32458766D01*
X46862757Y-32539578D01*
X46997444Y-32620390D01*
X47078257Y-32647328D01*
X47186006Y-32647328D01*
X47293756Y-32593453D01*
X47347631Y-32539578D01*
X47401505Y-32431828D01*
X47401505Y-32377954D01*
X47212944Y-32189392D01*
X47105194Y-32297141D01*
X47697817Y-32189392D02*
X47132131Y-31623706D01*
X47347631Y-31408207D01*
X47428443Y-31381270D01*
X47482318Y-31381270D01*
X47563130Y-31408207D01*
X47643942Y-31489019D01*
X47670879Y-31569832D01*
X47670879Y-31623706D01*
X47643942Y-31704519D01*
X47428443Y-31920018D01*
X48559814Y-31327395D02*
X48236565Y-31650644D01*
X48398189Y-31489019D02*
X47832504Y-30923334D01*
X47859441Y-31058021D01*
X47859441Y-31165771D01*
X47832504Y-31246583D01*
X88892142Y-51887380D02*
X88558809Y-51411190D01*
X88320714Y-51887380D02*
X88320714Y-50887380D01*
X88701666Y-50887380D01*
X88796904Y-50935000D01*
X88844523Y-50982619D01*
X88892142Y-51077857D01*
X88892142Y-51220714D01*
X88844523Y-51315952D01*
X88796904Y-51363571D01*
X88701666Y-51411190D01*
X88320714Y-51411190D01*
X89225476Y-50887380D02*
X89844523Y-50887380D01*
X89511190Y-51268333D01*
X89654047Y-51268333D01*
X89749285Y-51315952D01*
X89796904Y-51363571D01*
X89844523Y-51458809D01*
X89844523Y-51696904D01*
X89796904Y-51792142D01*
X89749285Y-51839761D01*
X89654047Y-51887380D01*
X89368333Y-51887380D01*
X89273095Y-51839761D01*
X89225476Y-51792142D01*
X90177857Y-50887380D02*
X90796904Y-50887380D01*
X90463571Y-51268333D01*
X90606428Y-51268333D01*
X90701666Y-51315952D01*
X90749285Y-51363571D01*
X90796904Y-51458809D01*
X90796904Y-51696904D01*
X90749285Y-51792142D01*
X90701666Y-51839761D01*
X90606428Y-51887380D01*
X90320714Y-51887380D01*
X90225476Y-51839761D01*
X90177857Y-51792142D01*
X124071142Y-53537380D02*
X123737809Y-53061190D01*
X123499714Y-53537380D02*
X123499714Y-52537380D01*
X123880666Y-52537380D01*
X123975904Y-52585000D01*
X124023523Y-52632619D01*
X124071142Y-52727857D01*
X124071142Y-52870714D01*
X124023523Y-52965952D01*
X123975904Y-53013571D01*
X123880666Y-53061190D01*
X123499714Y-53061190D01*
X124404476Y-52537380D02*
X125023523Y-52537380D01*
X124690190Y-52918333D01*
X124833047Y-52918333D01*
X124928285Y-52965952D01*
X124975904Y-53013571D01*
X125023523Y-53108809D01*
X125023523Y-53346904D01*
X124975904Y-53442142D01*
X124928285Y-53489761D01*
X124833047Y-53537380D01*
X124547333Y-53537380D01*
X124452095Y-53489761D01*
X124404476Y-53442142D01*
X125404476Y-52632619D02*
X125452095Y-52585000D01*
X125547333Y-52537380D01*
X125785428Y-52537380D01*
X125880666Y-52585000D01*
X125928285Y-52632619D01*
X125975904Y-52727857D01*
X125975904Y-52823095D01*
X125928285Y-52965952D01*
X125356857Y-53537380D01*
X125975904Y-53537380D01*
X88892142Y-56967380D02*
X88558809Y-56491190D01*
X88320714Y-56967380D02*
X88320714Y-55967380D01*
X88701666Y-55967380D01*
X88796904Y-56015000D01*
X88844523Y-56062619D01*
X88892142Y-56157857D01*
X88892142Y-56300714D01*
X88844523Y-56395952D01*
X88796904Y-56443571D01*
X88701666Y-56491190D01*
X88320714Y-56491190D01*
X89225476Y-55967380D02*
X89844523Y-55967380D01*
X89511190Y-56348333D01*
X89654047Y-56348333D01*
X89749285Y-56395952D01*
X89796904Y-56443571D01*
X89844523Y-56538809D01*
X89844523Y-56776904D01*
X89796904Y-56872142D01*
X89749285Y-56919761D01*
X89654047Y-56967380D01*
X89368333Y-56967380D01*
X89273095Y-56919761D01*
X89225476Y-56872142D01*
X90796904Y-56967380D02*
X90225476Y-56967380D01*
X90511190Y-56967380D02*
X90511190Y-55967380D01*
X90415952Y-56110238D01*
X90320714Y-56205476D01*
X90225476Y-56253095D01*
X88892142Y-54427380D02*
X88558809Y-53951190D01*
X88320714Y-54427380D02*
X88320714Y-53427380D01*
X88701666Y-53427380D01*
X88796904Y-53475000D01*
X88844523Y-53522619D01*
X88892142Y-53617857D01*
X88892142Y-53760714D01*
X88844523Y-53855952D01*
X88796904Y-53903571D01*
X88701666Y-53951190D01*
X88320714Y-53951190D01*
X89225476Y-53427380D02*
X89844523Y-53427380D01*
X89511190Y-53808333D01*
X89654047Y-53808333D01*
X89749285Y-53855952D01*
X89796904Y-53903571D01*
X89844523Y-53998809D01*
X89844523Y-54236904D01*
X89796904Y-54332142D01*
X89749285Y-54379761D01*
X89654047Y-54427380D01*
X89368333Y-54427380D01*
X89273095Y-54379761D01*
X89225476Y-54332142D01*
X90463571Y-53427380D02*
X90558809Y-53427380D01*
X90654047Y-53475000D01*
X90701666Y-53522619D01*
X90749285Y-53617857D01*
X90796904Y-53808333D01*
X90796904Y-54046428D01*
X90749285Y-54236904D01*
X90701666Y-54332142D01*
X90654047Y-54379761D01*
X90558809Y-54427380D01*
X90463571Y-54427380D01*
X90368333Y-54379761D01*
X90320714Y-54332142D01*
X90273095Y-54236904D01*
X90225476Y-54046428D01*
X90225476Y-53808333D01*
X90273095Y-53617857D01*
X90320714Y-53522619D01*
X90368333Y-53475000D01*
X90463571Y-53427380D01*
X134612142Y-57602380D02*
X134278809Y-57126190D01*
X134040714Y-57602380D02*
X134040714Y-56602380D01*
X134421666Y-56602380D01*
X134516904Y-56650000D01*
X134564523Y-56697619D01*
X134612142Y-56792857D01*
X134612142Y-56935714D01*
X134564523Y-57030952D01*
X134516904Y-57078571D01*
X134421666Y-57126190D01*
X134040714Y-57126190D01*
X134993095Y-56697619D02*
X135040714Y-56650000D01*
X135135952Y-56602380D01*
X135374047Y-56602380D01*
X135469285Y-56650000D01*
X135516904Y-56697619D01*
X135564523Y-56792857D01*
X135564523Y-56888095D01*
X135516904Y-57030952D01*
X134945476Y-57602380D01*
X135564523Y-57602380D01*
X136040714Y-57602380D02*
X136231190Y-57602380D01*
X136326428Y-57554761D01*
X136374047Y-57507142D01*
X136469285Y-57364285D01*
X136516904Y-57173809D01*
X136516904Y-56792857D01*
X136469285Y-56697619D01*
X136421666Y-56650000D01*
X136326428Y-56602380D01*
X136135952Y-56602380D01*
X136040714Y-56650000D01*
X135993095Y-56697619D01*
X135945476Y-56792857D01*
X135945476Y-57030952D01*
X135993095Y-57126190D01*
X136040714Y-57173809D01*
X136135952Y-57221428D01*
X136326428Y-57221428D01*
X136421666Y-57173809D01*
X136469285Y-57126190D01*
X136516904Y-57030952D01*
X131437142Y-57602380D02*
X131103809Y-57126190D01*
X130865714Y-57602380D02*
X130865714Y-56602380D01*
X131246666Y-56602380D01*
X131341904Y-56650000D01*
X131389523Y-56697619D01*
X131437142Y-56792857D01*
X131437142Y-56935714D01*
X131389523Y-57030952D01*
X131341904Y-57078571D01*
X131246666Y-57126190D01*
X130865714Y-57126190D01*
X131818095Y-56697619D02*
X131865714Y-56650000D01*
X131960952Y-56602380D01*
X132199047Y-56602380D01*
X132294285Y-56650000D01*
X132341904Y-56697619D01*
X132389523Y-56792857D01*
X132389523Y-56888095D01*
X132341904Y-57030952D01*
X131770476Y-57602380D01*
X132389523Y-57602380D01*
X132960952Y-57030952D02*
X132865714Y-56983333D01*
X132818095Y-56935714D01*
X132770476Y-56840476D01*
X132770476Y-56792857D01*
X132818095Y-56697619D01*
X132865714Y-56650000D01*
X132960952Y-56602380D01*
X133151428Y-56602380D01*
X133246666Y-56650000D01*
X133294285Y-56697619D01*
X133341904Y-56792857D01*
X133341904Y-56840476D01*
X133294285Y-56935714D01*
X133246666Y-56983333D01*
X133151428Y-57030952D01*
X132960952Y-57030952D01*
X132865714Y-57078571D01*
X132818095Y-57126190D01*
X132770476Y-57221428D01*
X132770476Y-57411904D01*
X132818095Y-57507142D01*
X132865714Y-57554761D01*
X132960952Y-57602380D01*
X133151428Y-57602380D01*
X133246666Y-57554761D01*
X133294285Y-57507142D01*
X133341904Y-57411904D01*
X133341904Y-57221428D01*
X133294285Y-57126190D01*
X133246666Y-57078571D01*
X133151428Y-57030952D01*
X134612142Y-61412380D02*
X134278809Y-60936190D01*
X134040714Y-61412380D02*
X134040714Y-60412380D01*
X134421666Y-60412380D01*
X134516904Y-60460000D01*
X134564523Y-60507619D01*
X134612142Y-60602857D01*
X134612142Y-60745714D01*
X134564523Y-60840952D01*
X134516904Y-60888571D01*
X134421666Y-60936190D01*
X134040714Y-60936190D01*
X134993095Y-60507619D02*
X135040714Y-60460000D01*
X135135952Y-60412380D01*
X135374047Y-60412380D01*
X135469285Y-60460000D01*
X135516904Y-60507619D01*
X135564523Y-60602857D01*
X135564523Y-60698095D01*
X135516904Y-60840952D01*
X134945476Y-61412380D01*
X135564523Y-61412380D01*
X136469285Y-60412380D02*
X135993095Y-60412380D01*
X135945476Y-60888571D01*
X135993095Y-60840952D01*
X136088333Y-60793333D01*
X136326428Y-60793333D01*
X136421666Y-60840952D01*
X136469285Y-60888571D01*
X136516904Y-60983809D01*
X136516904Y-61221904D01*
X136469285Y-61317142D01*
X136421666Y-61364761D01*
X136326428Y-61412380D01*
X136088333Y-61412380D01*
X135993095Y-61364761D01*
X135945476Y-61317142D01*
X131437142Y-61412380D02*
X131103809Y-60936190D01*
X130865714Y-61412380D02*
X130865714Y-60412380D01*
X131246666Y-60412380D01*
X131341904Y-60460000D01*
X131389523Y-60507619D01*
X131437142Y-60602857D01*
X131437142Y-60745714D01*
X131389523Y-60840952D01*
X131341904Y-60888571D01*
X131246666Y-60936190D01*
X130865714Y-60936190D01*
X131818095Y-60507619D02*
X131865714Y-60460000D01*
X131960952Y-60412380D01*
X132199047Y-60412380D01*
X132294285Y-60460000D01*
X132341904Y-60507619D01*
X132389523Y-60602857D01*
X132389523Y-60698095D01*
X132341904Y-60840952D01*
X131770476Y-61412380D01*
X132389523Y-61412380D01*
X133246666Y-60745714D02*
X133246666Y-61412380D01*
X133008571Y-60364761D02*
X132770476Y-61079047D01*
X133389523Y-61079047D01*
X134612142Y-63317380D02*
X134278809Y-62841190D01*
X134040714Y-63317380D02*
X134040714Y-62317380D01*
X134421666Y-62317380D01*
X134516904Y-62365000D01*
X134564523Y-62412619D01*
X134612142Y-62507857D01*
X134612142Y-62650714D01*
X134564523Y-62745952D01*
X134516904Y-62793571D01*
X134421666Y-62841190D01*
X134040714Y-62841190D01*
X135564523Y-63317380D02*
X134993095Y-63317380D01*
X135278809Y-63317380D02*
X135278809Y-62317380D01*
X135183571Y-62460238D01*
X135088333Y-62555476D01*
X134993095Y-62603095D01*
X136040714Y-63317380D02*
X136231190Y-63317380D01*
X136326428Y-63269761D01*
X136374047Y-63222142D01*
X136469285Y-63079285D01*
X136516904Y-62888809D01*
X136516904Y-62507857D01*
X136469285Y-62412619D01*
X136421666Y-62365000D01*
X136326428Y-62317380D01*
X136135952Y-62317380D01*
X136040714Y-62365000D01*
X135993095Y-62412619D01*
X135945476Y-62507857D01*
X135945476Y-62745952D01*
X135993095Y-62841190D01*
X136040714Y-62888809D01*
X136135952Y-62936428D01*
X136326428Y-62936428D01*
X136421666Y-62888809D01*
X136469285Y-62841190D01*
X136516904Y-62745952D01*
X131437142Y-63317380D02*
X131103809Y-62841190D01*
X130865714Y-63317380D02*
X130865714Y-62317380D01*
X131246666Y-62317380D01*
X131341904Y-62365000D01*
X131389523Y-62412619D01*
X131437142Y-62507857D01*
X131437142Y-62650714D01*
X131389523Y-62745952D01*
X131341904Y-62793571D01*
X131246666Y-62841190D01*
X130865714Y-62841190D01*
X132389523Y-63317380D02*
X131818095Y-63317380D01*
X132103809Y-63317380D02*
X132103809Y-62317380D01*
X132008571Y-62460238D01*
X131913333Y-62555476D01*
X131818095Y-62603095D01*
X132960952Y-62745952D02*
X132865714Y-62698333D01*
X132818095Y-62650714D01*
X132770476Y-62555476D01*
X132770476Y-62507857D01*
X132818095Y-62412619D01*
X132865714Y-62365000D01*
X132960952Y-62317380D01*
X133151428Y-62317380D01*
X133246666Y-62365000D01*
X133294285Y-62412619D01*
X133341904Y-62507857D01*
X133341904Y-62555476D01*
X133294285Y-62650714D01*
X133246666Y-62698333D01*
X133151428Y-62745952D01*
X132960952Y-62745952D01*
X132865714Y-62793571D01*
X132818095Y-62841190D01*
X132770476Y-62936428D01*
X132770476Y-63126904D01*
X132818095Y-63222142D01*
X132865714Y-63269761D01*
X132960952Y-63317380D01*
X133151428Y-63317380D01*
X133246666Y-63269761D01*
X133294285Y-63222142D01*
X133341904Y-63126904D01*
X133341904Y-62936428D01*
X133294285Y-62841190D01*
X133246666Y-62793571D01*
X133151428Y-62745952D01*
X134612142Y-59507380D02*
X134278809Y-59031190D01*
X134040714Y-59507380D02*
X134040714Y-58507380D01*
X134421666Y-58507380D01*
X134516904Y-58555000D01*
X134564523Y-58602619D01*
X134612142Y-58697857D01*
X134612142Y-58840714D01*
X134564523Y-58935952D01*
X134516904Y-58983571D01*
X134421666Y-59031190D01*
X134040714Y-59031190D01*
X135564523Y-59507380D02*
X134993095Y-59507380D01*
X135278809Y-59507380D02*
X135278809Y-58507380D01*
X135183571Y-58650238D01*
X135088333Y-58745476D01*
X134993095Y-58793095D01*
X135897857Y-58507380D02*
X136564523Y-58507380D01*
X136135952Y-59507380D01*
X131437142Y-59507380D02*
X131103809Y-59031190D01*
X130865714Y-59507380D02*
X130865714Y-58507380D01*
X131246666Y-58507380D01*
X131341904Y-58555000D01*
X131389523Y-58602619D01*
X131437142Y-58697857D01*
X131437142Y-58840714D01*
X131389523Y-58935952D01*
X131341904Y-58983571D01*
X131246666Y-59031190D01*
X130865714Y-59031190D01*
X132389523Y-59507380D02*
X131818095Y-59507380D01*
X132103809Y-59507380D02*
X132103809Y-58507380D01*
X132008571Y-58650238D01*
X131913333Y-58745476D01*
X131818095Y-58793095D01*
X133246666Y-58507380D02*
X133056190Y-58507380D01*
X132960952Y-58555000D01*
X132913333Y-58602619D01*
X132818095Y-58745476D01*
X132770476Y-58935952D01*
X132770476Y-59316904D01*
X132818095Y-59412142D01*
X132865714Y-59459761D01*
X132960952Y-59507380D01*
X133151428Y-59507380D01*
X133246666Y-59459761D01*
X133294285Y-59412142D01*
X133341904Y-59316904D01*
X133341904Y-59078809D01*
X133294285Y-58983571D01*
X133246666Y-58935952D01*
X133151428Y-58888333D01*
X132960952Y-58888333D01*
X132865714Y-58935952D01*
X132818095Y-58983571D01*
X132770476Y-59078809D01*
X92448142Y-64207380D02*
X92114809Y-63731190D01*
X91876714Y-64207380D02*
X91876714Y-63207380D01*
X92257666Y-63207380D01*
X92352904Y-63255000D01*
X92400523Y-63302619D01*
X92448142Y-63397857D01*
X92448142Y-63540714D01*
X92400523Y-63635952D01*
X92352904Y-63683571D01*
X92257666Y-63731190D01*
X91876714Y-63731190D01*
X93400523Y-64207380D02*
X92829095Y-64207380D01*
X93114809Y-64207380D02*
X93114809Y-63207380D01*
X93019571Y-63350238D01*
X92924333Y-63445476D01*
X92829095Y-63493095D01*
X93781476Y-63302619D02*
X93829095Y-63255000D01*
X93924333Y-63207380D01*
X94162428Y-63207380D01*
X94257666Y-63255000D01*
X94305285Y-63302619D01*
X94352904Y-63397857D01*
X94352904Y-63493095D01*
X94305285Y-63635952D01*
X93733857Y-64207380D01*
X94352904Y-64207380D01*
X92924333Y-68017380D02*
X92591000Y-67541190D01*
X92352904Y-68017380D02*
X92352904Y-67017380D01*
X92733857Y-67017380D01*
X92829095Y-67065000D01*
X92876714Y-67112619D01*
X92924333Y-67207857D01*
X92924333Y-67350714D01*
X92876714Y-67445952D01*
X92829095Y-67493571D01*
X92733857Y-67541190D01*
X92352904Y-67541190D01*
X93495761Y-67445952D02*
X93400523Y-67398333D01*
X93352904Y-67350714D01*
X93305285Y-67255476D01*
X93305285Y-67207857D01*
X93352904Y-67112619D01*
X93400523Y-67065000D01*
X93495761Y-67017380D01*
X93686238Y-67017380D01*
X93781476Y-67065000D01*
X93829095Y-67112619D01*
X93876714Y-67207857D01*
X93876714Y-67255476D01*
X93829095Y-67350714D01*
X93781476Y-67398333D01*
X93686238Y-67445952D01*
X93495761Y-67445952D01*
X93400523Y-67493571D01*
X93352904Y-67541190D01*
X93305285Y-67636428D01*
X93305285Y-67826904D01*
X93352904Y-67922142D01*
X93400523Y-67969761D01*
X93495761Y-68017380D01*
X93686238Y-68017380D01*
X93781476Y-67969761D01*
X93829095Y-67922142D01*
X93876714Y-67826904D01*
X93876714Y-67636428D01*
X93829095Y-67541190D01*
X93781476Y-67493571D01*
X93686238Y-67445952D01*
X126833333Y-71572380D02*
X126500000Y-71096190D01*
X126261904Y-71572380D02*
X126261904Y-70572380D01*
X126642857Y-70572380D01*
X126738095Y-70620000D01*
X126785714Y-70667619D01*
X126833333Y-70762857D01*
X126833333Y-70905714D01*
X126785714Y-71000952D01*
X126738095Y-71048571D01*
X126642857Y-71096190D01*
X126261904Y-71096190D01*
X127166666Y-70572380D02*
X127833333Y-70572380D01*
X127404761Y-71572380D01*
X126833333Y-74112380D02*
X126500000Y-73636190D01*
X126261904Y-74112380D02*
X126261904Y-73112380D01*
X126642857Y-73112380D01*
X126738095Y-73160000D01*
X126785714Y-73207619D01*
X126833333Y-73302857D01*
X126833333Y-73445714D01*
X126785714Y-73540952D01*
X126738095Y-73588571D01*
X126642857Y-73636190D01*
X126261904Y-73636190D01*
X127690476Y-73112380D02*
X127500000Y-73112380D01*
X127404761Y-73160000D01*
X127357142Y-73207619D01*
X127261904Y-73350476D01*
X127214285Y-73540952D01*
X127214285Y-73921904D01*
X127261904Y-74017142D01*
X127309523Y-74064761D01*
X127404761Y-74112380D01*
X127595238Y-74112380D01*
X127690476Y-74064761D01*
X127738095Y-74017142D01*
X127785714Y-73921904D01*
X127785714Y-73683809D01*
X127738095Y-73588571D01*
X127690476Y-73540952D01*
X127595238Y-73493333D01*
X127404761Y-73493333D01*
X127309523Y-73540952D01*
X127261904Y-73588571D01*
X127214285Y-73683809D01*
X90003333Y-59507380D02*
X89670000Y-59031190D01*
X89431904Y-59507380D02*
X89431904Y-58507380D01*
X89812857Y-58507380D01*
X89908095Y-58555000D01*
X89955714Y-58602619D01*
X90003333Y-58697857D01*
X90003333Y-58840714D01*
X89955714Y-58935952D01*
X89908095Y-58983571D01*
X89812857Y-59031190D01*
X89431904Y-59031190D01*
X90860476Y-58840714D02*
X90860476Y-59507380D01*
X90622380Y-58459761D02*
X90384285Y-59174047D01*
X91003333Y-59174047D01*
X126833333Y-69032380D02*
X126500000Y-68556190D01*
X126261904Y-69032380D02*
X126261904Y-68032380D01*
X126642857Y-68032380D01*
X126738095Y-68080000D01*
X126785714Y-68127619D01*
X126833333Y-68222857D01*
X126833333Y-68365714D01*
X126785714Y-68460952D01*
X126738095Y-68508571D01*
X126642857Y-68556190D01*
X126261904Y-68556190D01*
X127166666Y-68032380D02*
X127785714Y-68032380D01*
X127452380Y-68413333D01*
X127595238Y-68413333D01*
X127690476Y-68460952D01*
X127738095Y-68508571D01*
X127785714Y-68603809D01*
X127785714Y-68841904D01*
X127738095Y-68937142D01*
X127690476Y-68984761D01*
X127595238Y-69032380D01*
X127309523Y-69032380D01*
X127214285Y-68984761D01*
X127166666Y-68937142D01*
X80176904Y-44537380D02*
X80748333Y-44537380D01*
X80462619Y-45537380D02*
X80462619Y-44537380D01*
X81653095Y-45537380D02*
X81319761Y-45061190D01*
X81081666Y-45537380D02*
X81081666Y-44537380D01*
X81462619Y-44537380D01*
X81557857Y-44585000D01*
X81605476Y-44632619D01*
X81653095Y-44727857D01*
X81653095Y-44870714D01*
X81605476Y-44965952D01*
X81557857Y-45013571D01*
X81462619Y-45061190D01*
X81081666Y-45061190D01*
X82605476Y-45537380D02*
X82034047Y-45537380D01*
X82319761Y-45537380D02*
X82319761Y-44537380D01*
X82224523Y-44680238D01*
X82129285Y-44775476D01*
X82034047Y-44823095D01*
X82938809Y-44537380D02*
X83605476Y-44537380D01*
X83176904Y-45537380D01*
X128817904Y-53387380D02*
X129389333Y-53387380D01*
X129103619Y-54387380D02*
X129103619Y-53387380D01*
X130294095Y-54387380D02*
X129960761Y-53911190D01*
X129722666Y-54387380D02*
X129722666Y-53387380D01*
X130103619Y-53387380D01*
X130198857Y-53435000D01*
X130246476Y-53482619D01*
X130294095Y-53577857D01*
X130294095Y-53720714D01*
X130246476Y-53815952D01*
X130198857Y-53863571D01*
X130103619Y-53911190D01*
X129722666Y-53911190D01*
X131246476Y-54387380D02*
X130675047Y-54387380D01*
X130960761Y-54387380D02*
X130960761Y-53387380D01*
X130865523Y-53530238D01*
X130770285Y-53625476D01*
X130675047Y-53673095D01*
X132103619Y-53387380D02*
X131913142Y-53387380D01*
X131817904Y-53435000D01*
X131770285Y-53482619D01*
X131675047Y-53625476D01*
X131627428Y-53815952D01*
X131627428Y-54196904D01*
X131675047Y-54292142D01*
X131722666Y-54339761D01*
X131817904Y-54387380D01*
X132008380Y-54387380D01*
X132103619Y-54339761D01*
X132151238Y-54292142D01*
X132198857Y-54196904D01*
X132198857Y-53958809D01*
X132151238Y-53863571D01*
X132103619Y-53815952D01*
X132008380Y-53768333D01*
X131817904Y-53768333D01*
X131722666Y-53815952D01*
X131675047Y-53863571D01*
X131627428Y-53958809D01*
X80176904Y-52157380D02*
X80748333Y-52157380D01*
X80462619Y-53157380D02*
X80462619Y-52157380D01*
X81653095Y-53157380D02*
X81319761Y-52681190D01*
X81081666Y-53157380D02*
X81081666Y-52157380D01*
X81462619Y-52157380D01*
X81557857Y-52205000D01*
X81605476Y-52252619D01*
X81653095Y-52347857D01*
X81653095Y-52490714D01*
X81605476Y-52585952D01*
X81557857Y-52633571D01*
X81462619Y-52681190D01*
X81081666Y-52681190D01*
X82605476Y-53157380D02*
X82034047Y-53157380D01*
X82319761Y-53157380D02*
X82319761Y-52157380D01*
X82224523Y-52300238D01*
X82129285Y-52395476D01*
X82034047Y-52443095D01*
X83510238Y-52157380D02*
X83034047Y-52157380D01*
X82986428Y-52633571D01*
X83034047Y-52585952D01*
X83129285Y-52538333D01*
X83367380Y-52538333D01*
X83462619Y-52585952D01*
X83510238Y-52633571D01*
X83557857Y-52728809D01*
X83557857Y-52966904D01*
X83510238Y-53062142D01*
X83462619Y-53109761D01*
X83367380Y-53157380D01*
X83129285Y-53157380D01*
X83034047Y-53109761D01*
X82986428Y-53062142D01*
X80176904Y-48347380D02*
X80748333Y-48347380D01*
X80462619Y-49347380D02*
X80462619Y-48347380D01*
X81653095Y-49347380D02*
X81319761Y-48871190D01*
X81081666Y-49347380D02*
X81081666Y-48347380D01*
X81462619Y-48347380D01*
X81557857Y-48395000D01*
X81605476Y-48442619D01*
X81653095Y-48537857D01*
X81653095Y-48680714D01*
X81605476Y-48775952D01*
X81557857Y-48823571D01*
X81462619Y-48871190D01*
X81081666Y-48871190D01*
X82605476Y-49347380D02*
X82034047Y-49347380D01*
X82319761Y-49347380D02*
X82319761Y-48347380D01*
X82224523Y-48490238D01*
X82129285Y-48585476D01*
X82034047Y-48633095D01*
X83462619Y-48680714D02*
X83462619Y-49347380D01*
X83224523Y-48299761D02*
X82986428Y-49014047D01*
X83605476Y-49014047D01*
X80176904Y-66762380D02*
X80748333Y-66762380D01*
X80462619Y-67762380D02*
X80462619Y-66762380D01*
X81653095Y-67762380D02*
X81319761Y-67286190D01*
X81081666Y-67762380D02*
X81081666Y-66762380D01*
X81462619Y-66762380D01*
X81557857Y-66810000D01*
X81605476Y-66857619D01*
X81653095Y-66952857D01*
X81653095Y-67095714D01*
X81605476Y-67190952D01*
X81557857Y-67238571D01*
X81462619Y-67286190D01*
X81081666Y-67286190D01*
X82605476Y-67762380D02*
X82034047Y-67762380D01*
X82319761Y-67762380D02*
X82319761Y-66762380D01*
X82224523Y-66905238D01*
X82129285Y-67000476D01*
X82034047Y-67048095D01*
X82938809Y-66762380D02*
X83557857Y-66762380D01*
X83224523Y-67143333D01*
X83367380Y-67143333D01*
X83462619Y-67190952D01*
X83510238Y-67238571D01*
X83557857Y-67333809D01*
X83557857Y-67571904D01*
X83510238Y-67667142D01*
X83462619Y-67714761D01*
X83367380Y-67762380D01*
X83081666Y-67762380D01*
X82986428Y-67714761D01*
X82938809Y-67667142D01*
X80176904Y-69937380D02*
X80748333Y-69937380D01*
X80462619Y-70937380D02*
X80462619Y-69937380D01*
X81653095Y-70937380D02*
X81319761Y-70461190D01*
X81081666Y-70937380D02*
X81081666Y-69937380D01*
X81462619Y-69937380D01*
X81557857Y-69985000D01*
X81605476Y-70032619D01*
X81653095Y-70127857D01*
X81653095Y-70270714D01*
X81605476Y-70365952D01*
X81557857Y-70413571D01*
X81462619Y-70461190D01*
X81081666Y-70461190D01*
X82605476Y-70937380D02*
X82034047Y-70937380D01*
X82319761Y-70937380D02*
X82319761Y-69937380D01*
X82224523Y-70080238D01*
X82129285Y-70175476D01*
X82034047Y-70223095D01*
X82986428Y-70032619D02*
X83034047Y-69985000D01*
X83129285Y-69937380D01*
X83367380Y-69937380D01*
X83462619Y-69985000D01*
X83510238Y-70032619D01*
X83557857Y-70127857D01*
X83557857Y-70223095D01*
X83510238Y-70365952D01*
X82938809Y-70937380D01*
X83557857Y-70937380D01*
X132881904Y-50887380D02*
X133453333Y-50887380D01*
X133167619Y-51887380D02*
X133167619Y-50887380D01*
X134358095Y-51887380D02*
X134024761Y-51411190D01*
X133786666Y-51887380D02*
X133786666Y-50887380D01*
X134167619Y-50887380D01*
X134262857Y-50935000D01*
X134310476Y-50982619D01*
X134358095Y-51077857D01*
X134358095Y-51220714D01*
X134310476Y-51315952D01*
X134262857Y-51363571D01*
X134167619Y-51411190D01*
X133786666Y-51411190D01*
X135310476Y-51887380D02*
X134739047Y-51887380D01*
X135024761Y-51887380D02*
X135024761Y-50887380D01*
X134929523Y-51030238D01*
X134834285Y-51125476D01*
X134739047Y-51173095D01*
X136262857Y-51887380D02*
X135691428Y-51887380D01*
X135977142Y-51887380D02*
X135977142Y-50887380D01*
X135881904Y-51030238D01*
X135786666Y-51125476D01*
X135691428Y-51173095D01*
X136818904Y-66127380D02*
X137390333Y-66127380D01*
X137104619Y-67127380D02*
X137104619Y-66127380D01*
X138295095Y-67127380D02*
X137961761Y-66651190D01*
X137723666Y-67127380D02*
X137723666Y-66127380D01*
X138104619Y-66127380D01*
X138199857Y-66175000D01*
X138247476Y-66222619D01*
X138295095Y-66317857D01*
X138295095Y-66460714D01*
X138247476Y-66555952D01*
X138199857Y-66603571D01*
X138104619Y-66651190D01*
X137723666Y-66651190D01*
X139247476Y-67127380D02*
X138676047Y-67127380D01*
X138961761Y-67127380D02*
X138961761Y-66127380D01*
X138866523Y-66270238D01*
X138771285Y-66365476D01*
X138676047Y-66413095D01*
X139866523Y-66127380D02*
X139961761Y-66127380D01*
X140057000Y-66175000D01*
X140104619Y-66222619D01*
X140152238Y-66317857D01*
X140199857Y-66508333D01*
X140199857Y-66746428D01*
X140152238Y-66936904D01*
X140104619Y-67032142D01*
X140057000Y-67079761D01*
X139961761Y-67127380D01*
X139866523Y-67127380D01*
X139771285Y-67079761D01*
X139723666Y-67032142D01*
X139676047Y-66936904D01*
X139628428Y-66746428D01*
X139628428Y-66508333D01*
X139676047Y-66317857D01*
X139723666Y-66222619D01*
X139771285Y-66175000D01*
X139866523Y-66127380D01*
X81288095Y-73747380D02*
X81859523Y-73747380D01*
X81573809Y-74747380D02*
X81573809Y-73747380D01*
X82764285Y-74747380D02*
X82430952Y-74271190D01*
X82192857Y-74747380D02*
X82192857Y-73747380D01*
X82573809Y-73747380D01*
X82669047Y-73795000D01*
X82716666Y-73842619D01*
X82764285Y-73937857D01*
X82764285Y-74080714D01*
X82716666Y-74175952D01*
X82669047Y-74223571D01*
X82573809Y-74271190D01*
X82192857Y-74271190D01*
X83240476Y-74747380D02*
X83430952Y-74747380D01*
X83526190Y-74699761D01*
X83573809Y-74652142D01*
X83669047Y-74509285D01*
X83716666Y-74318809D01*
X83716666Y-73937857D01*
X83669047Y-73842619D01*
X83621428Y-73795000D01*
X83526190Y-73747380D01*
X83335714Y-73747380D01*
X83240476Y-73795000D01*
X83192857Y-73842619D01*
X83145238Y-73937857D01*
X83145238Y-74175952D01*
X83192857Y-74271190D01*
X83240476Y-74318809D01*
X83335714Y-74366428D01*
X83526190Y-74366428D01*
X83621428Y-74318809D01*
X83669047Y-74271190D01*
X83716666Y-74175952D01*
X81288095Y-77557380D02*
X81859523Y-77557380D01*
X81573809Y-78557380D02*
X81573809Y-77557380D01*
X82764285Y-78557380D02*
X82430952Y-78081190D01*
X82192857Y-78557380D02*
X82192857Y-77557380D01*
X82573809Y-77557380D01*
X82669047Y-77605000D01*
X82716666Y-77652619D01*
X82764285Y-77747857D01*
X82764285Y-77890714D01*
X82716666Y-77985952D01*
X82669047Y-78033571D01*
X82573809Y-78081190D01*
X82192857Y-78081190D01*
X83335714Y-77985952D02*
X83240476Y-77938333D01*
X83192857Y-77890714D01*
X83145238Y-77795476D01*
X83145238Y-77747857D01*
X83192857Y-77652619D01*
X83240476Y-77605000D01*
X83335714Y-77557380D01*
X83526190Y-77557380D01*
X83621428Y-77605000D01*
X83669047Y-77652619D01*
X83716666Y-77747857D01*
X83716666Y-77795476D01*
X83669047Y-77890714D01*
X83621428Y-77938333D01*
X83526190Y-77985952D01*
X83335714Y-77985952D01*
X83240476Y-78033571D01*
X83192857Y-78081190D01*
X83145238Y-78176428D01*
X83145238Y-78366904D01*
X83192857Y-78462142D01*
X83240476Y-78509761D01*
X83335714Y-78557380D01*
X83526190Y-78557380D01*
X83621428Y-78509761D01*
X83669047Y-78462142D01*
X83716666Y-78366904D01*
X83716666Y-78176428D01*
X83669047Y-78081190D01*
X83621428Y-78033571D01*
X83526190Y-77985952D01*
X132215095Y-73707380D02*
X132786523Y-73707380D01*
X132500809Y-74707380D02*
X132500809Y-73707380D01*
X133691285Y-74707380D02*
X133357952Y-74231190D01*
X133119857Y-74707380D02*
X133119857Y-73707380D01*
X133500809Y-73707380D01*
X133596047Y-73755000D01*
X133643666Y-73802619D01*
X133691285Y-73897857D01*
X133691285Y-74040714D01*
X133643666Y-74135952D01*
X133596047Y-74183571D01*
X133500809Y-74231190D01*
X133119857Y-74231190D01*
X134024619Y-73707380D02*
X134691285Y-73707380D01*
X134262714Y-74707380D01*
X137295095Y-75358380D02*
X137866523Y-75358380D01*
X137580809Y-76358380D02*
X137580809Y-75358380D01*
X138771285Y-76358380D02*
X138437952Y-75882190D01*
X138199857Y-76358380D02*
X138199857Y-75358380D01*
X138580809Y-75358380D01*
X138676047Y-75406000D01*
X138723666Y-75453619D01*
X138771285Y-75548857D01*
X138771285Y-75691714D01*
X138723666Y-75786952D01*
X138676047Y-75834571D01*
X138580809Y-75882190D01*
X138199857Y-75882190D01*
X139628428Y-75358380D02*
X139437952Y-75358380D01*
X139342714Y-75406000D01*
X139295095Y-75453619D01*
X139199857Y-75596476D01*
X139152238Y-75786952D01*
X139152238Y-76167904D01*
X139199857Y-76263142D01*
X139247476Y-76310761D01*
X139342714Y-76358380D01*
X139533190Y-76358380D01*
X139628428Y-76310761D01*
X139676047Y-76263142D01*
X139723666Y-76167904D01*
X139723666Y-75929809D01*
X139676047Y-75834571D01*
X139628428Y-75786952D01*
X139533190Y-75739333D01*
X139342714Y-75739333D01*
X139247476Y-75786952D01*
X139199857Y-75834571D01*
X139152238Y-75929809D01*
X81288095Y-82002380D02*
X81859523Y-82002380D01*
X81573809Y-83002380D02*
X81573809Y-82002380D01*
X82764285Y-83002380D02*
X82430952Y-82526190D01*
X82192857Y-83002380D02*
X82192857Y-82002380D01*
X82573809Y-82002380D01*
X82669047Y-82050000D01*
X82716666Y-82097619D01*
X82764285Y-82192857D01*
X82764285Y-82335714D01*
X82716666Y-82430952D01*
X82669047Y-82478571D01*
X82573809Y-82526190D01*
X82192857Y-82526190D01*
X83669047Y-82002380D02*
X83192857Y-82002380D01*
X83145238Y-82478571D01*
X83192857Y-82430952D01*
X83288095Y-82383333D01*
X83526190Y-82383333D01*
X83621428Y-82430952D01*
X83669047Y-82478571D01*
X83716666Y-82573809D01*
X83716666Y-82811904D01*
X83669047Y-82907142D01*
X83621428Y-82954761D01*
X83526190Y-83002380D01*
X83288095Y-83002380D01*
X83192857Y-82954761D01*
X83145238Y-82907142D01*
X81288095Y-59142380D02*
X81859523Y-59142380D01*
X81573809Y-60142380D02*
X81573809Y-59142380D01*
X82764285Y-60142380D02*
X82430952Y-59666190D01*
X82192857Y-60142380D02*
X82192857Y-59142380D01*
X82573809Y-59142380D01*
X82669047Y-59190000D01*
X82716666Y-59237619D01*
X82764285Y-59332857D01*
X82764285Y-59475714D01*
X82716666Y-59570952D01*
X82669047Y-59618571D01*
X82573809Y-59666190D01*
X82192857Y-59666190D01*
X83621428Y-59475714D02*
X83621428Y-60142380D01*
X83383333Y-59094761D02*
X83145238Y-59809047D01*
X83764285Y-59809047D01*
X132231095Y-68820380D02*
X132802523Y-68820380D01*
X132516809Y-69820380D02*
X132516809Y-68820380D01*
X133707285Y-69820380D02*
X133373952Y-69344190D01*
X133135857Y-69820380D02*
X133135857Y-68820380D01*
X133516809Y-68820380D01*
X133612047Y-68868000D01*
X133659666Y-68915619D01*
X133707285Y-69010857D01*
X133707285Y-69153714D01*
X133659666Y-69248952D01*
X133612047Y-69296571D01*
X133516809Y-69344190D01*
X133135857Y-69344190D01*
X134040619Y-68820380D02*
X134659666Y-68820380D01*
X134326333Y-69201333D01*
X134469190Y-69201333D01*
X134564428Y-69248952D01*
X134612047Y-69296571D01*
X134659666Y-69391809D01*
X134659666Y-69629904D01*
X134612047Y-69725142D01*
X134564428Y-69772761D01*
X134469190Y-69820380D01*
X134183476Y-69820380D01*
X134088238Y-69772761D01*
X134040619Y-69725142D01*
X81288095Y-62952380D02*
X81859523Y-62952380D01*
X81573809Y-63952380D02*
X81573809Y-62952380D01*
X82764285Y-63952380D02*
X82430952Y-63476190D01*
X82192857Y-63952380D02*
X82192857Y-62952380D01*
X82573809Y-62952380D01*
X82669047Y-63000000D01*
X82716666Y-63047619D01*
X82764285Y-63142857D01*
X82764285Y-63285714D01*
X82716666Y-63380952D01*
X82669047Y-63428571D01*
X82573809Y-63476190D01*
X82192857Y-63476190D01*
X83145238Y-63047619D02*
X83192857Y-63000000D01*
X83288095Y-62952380D01*
X83526190Y-62952380D01*
X83621428Y-63000000D01*
X83669047Y-63047619D01*
X83716666Y-63142857D01*
X83716666Y-63238095D01*
X83669047Y-63380952D01*
X83097619Y-63952380D01*
X83716666Y-63952380D01*
X80653095Y-55332380D02*
X81224523Y-55332380D01*
X80938809Y-56332380D02*
X80938809Y-55332380D01*
X82129285Y-56332380D02*
X81795952Y-55856190D01*
X81557857Y-56332380D02*
X81557857Y-55332380D01*
X81938809Y-55332380D01*
X82034047Y-55380000D01*
X82081666Y-55427619D01*
X82129285Y-55522857D01*
X82129285Y-55665714D01*
X82081666Y-55760952D01*
X82034047Y-55808571D01*
X81938809Y-55856190D01*
X81557857Y-55856190D01*
X83081666Y-56332380D02*
X82510238Y-56332380D01*
X82795952Y-56332380D02*
X82795952Y-55332380D01*
X82700714Y-55475238D01*
X82605476Y-55570476D01*
X82510238Y-55618095D01*
M02*
