M48
; DRILL file {KiCad 5.1.5+dfsg1-2build2} date Tue 21 Mar 2023 22:00:01 GMT
; FORMAT={-:-/ absolute / inch / decimal}
; #@! TF.CreationDate,2023-03-21T22:00:01+00:00
; #@! TF.GenerationSoftware,Kicad,Pcbnew,5.1.5+dfsg1-2build2
; #@! TF.FileFunction,Plated,1,2,PTH
FMAT,2
INCH
T1C0.0157
T2C0.0315
T3C0.0394
T4C0.0402
%
G90
G05
T1
X1.85Y-2.9
X1.875Y-1.25
X1.9Y-2.6
X2.025Y-3.125
X2.025Y-3.325
X2.1185Y-1.55
X2.125Y-1.05
X2.1477Y-1.3523
X2.15Y-1.85
X2.1523Y-2.3523
X2.2Y-1.45
X2.2Y-1.975
X2.225Y-1.0815
X2.225Y-2.2
X2.225Y-2.45
X2.3Y-2.15
X2.3Y-2.5
X2.375Y-2.85
X2.55Y-2.75
X2.575Y-3.25
X2.6Y-2.65
X2.6Y-3.175
X2.625Y-2.55
X2.65Y-3.2291
X2.9Y-2.95
X2.9Y-3.2724
X2.95Y-1.825
X2.95Y-2.45
X3.025Y-1.875
X3.025Y-2.05
X3.025Y-2.55
X3.025Y-2.75
X3.025Y-2.9
X3.025Y-3.05
X3.15Y-1.725
X3.15Y-2.25
X3.175Y-2.95
X3.25Y-1.35
X3.25Y-1.6
X3.25Y-1.95
X3.25Y-2.025
X3.25Y-2.15
X3.275Y-3.2724
X3.2815Y-2.55
X3.3Y-1.8
X3.3Y-1.95
X3.3026Y-2.0974
X3.475Y-2.075
X3.5Y-1.925
X3.5Y-2.925
X3.525Y-1.0815
X3.575Y-1.05
X3.575Y-2.3
X3.575Y-2.3
X3.575Y-2.575
X3.6Y-1.5
X3.6Y-2.175
X3.6Y-2.75
X3.65Y-3.2724
X3.7Y-1.775
X3.7Y-1.975
X3.7Y-2.925
X3.7Y-3.125
X3.8Y-1.45
X3.9Y-1.65
X4.0Y-3.125
X4.1Y-1.2
X4.1Y-1.925
X4.1Y-2.175
X4.125Y-2.925
X4.25Y-2.625
X4.375Y-1.725
X4.375Y-2.1935
X4.3894Y-2.525
X4.3944Y-2.425
X4.417Y-2.6435
X4.425Y-2.175
X4.45Y-1.0815
X4.45Y-3.2185
X4.475Y-1.6
X4.475Y-2.95
X4.4756Y-2.325
X4.525Y-1.75
X4.525Y-3.15
X4.55Y-2.8
X4.775Y-1.725
X4.8Y-2.075
X4.925Y-2.975
X4.975Y-2.875
X5.0Y-2.675
X5.0Y-2.775
X5.0106Y-2.28
X5.0106Y-2.375
X5.0106Y-2.475
X5.0106Y-2.575
X5.025Y-1.7
X5.05Y-2.1935
X5.075Y-2.075
X5.125Y-3.2
X5.2Y-1.075
X5.275Y-2.15
X5.275Y-3.363
X5.2944Y-2.8624
X5.35Y-2.675
X5.35Y-3.3
X5.425Y-2.5
X5.475Y-3.25
X5.475Y-3.325
X5.55Y-2.75
X5.55Y-2.925
T2
X3.82Y-2.025
X3.82Y-2.125
X3.82Y-2.225
X3.82Y-2.325
X3.82Y-2.425
X3.82Y-2.525
X3.82Y-2.625
X3.82Y-2.725
X3.82Y-2.825
X3.82Y-2.925
X3.87Y-1.975
X3.87Y-2.075
X3.87Y-2.175
X3.87Y-2.275
X3.87Y-2.375
X3.87Y-2.475
X3.87Y-2.575
X3.87Y-2.675
X3.87Y-2.775
X3.87Y-2.875
X3.87Y-2.975
X4.67Y-2.025
X4.67Y-2.125
X4.67Y-2.225
X4.67Y-2.325
X4.67Y-2.425
X4.67Y-2.525
X4.67Y-2.625
X4.67Y-2.725
X4.67Y-2.825
X4.67Y-2.925
X4.72Y-1.975
X4.72Y-2.075
X4.72Y-2.175
X4.72Y-2.275
X4.72Y-2.375
X4.72Y-2.475
X4.72Y-2.575
X4.72Y-2.675
X4.72Y-2.775
X4.72Y-2.875
X4.72Y-2.975
T3
X2.28Y-3.275
X2.38Y-3.275
X2.48Y-3.275
T4
X2.031Y-1.1523
X2.031Y-1.2523
X2.031Y-1.3523
X2.031Y-1.4523
X2.031Y-1.5523
X2.031Y-1.6523
X2.031Y-1.7523
X2.031Y-1.8523
X2.031Y-1.9523
X2.031Y-2.0523
X2.031Y-2.1523
X2.031Y-2.2523
X2.031Y-2.3523
X2.031Y-2.4523
X2.031Y-2.5523
X2.031Y-2.6523
X2.031Y-2.7523
X2.031Y-2.8523
X2.031Y-2.9523
X2.031Y-3.0523
X2.281Y-3.0433
X2.381Y-3.0433
X2.481Y-3.0433
X2.731Y-1.1523
X2.731Y-1.2523
X2.731Y-1.3523
X2.731Y-1.4523
X2.731Y-1.5523
X2.731Y-1.6523
X2.731Y-1.7523
X2.731Y-1.8523
X2.731Y-1.9523
X2.731Y-2.0523
X2.731Y-2.1523
X2.731Y-2.2523
X2.731Y-2.3523
X2.731Y-2.4523
X2.731Y-2.5523
X2.731Y-2.6523
X2.731Y-2.7523
X2.731Y-2.8523
X2.731Y-2.9523
X2.731Y-3.0523
T0
M30
