G04 #@! TF.GenerationSoftware,KiCad,Pcbnew,5.1.5+dfsg1-2build2*
G04 #@! TF.CreationDate,2023-03-21T22:00:02+00:00*
G04 #@! TF.ProjectId,pps-rom-dumper,7070732d-726f-46d2-9d64-756d7065722e,rev?*
G04 #@! TF.SameCoordinates,Original*
G04 #@! TF.FileFunction,Soldermask,Top*
G04 #@! TF.FilePolarity,Negative*
%FSLAX46Y46*%
G04 Gerber Fmt 4.6, Leading zero omitted, Abs format (unit mm)*
G04 Created by KiCad (PCBNEW 5.1.5+dfsg1-2build2) date 2023-03-21 22:00:02*
%MOMM*%
%LPD*%
G04 APERTURE LIST*
%ADD10C,0.100000*%
G04 APERTURE END LIST*
D10*
G36*
X58025512Y-82288927D02*
G01*
X58174812Y-82318624D01*
X58338784Y-82386544D01*
X58486354Y-82485147D01*
X58611853Y-82610646D01*
X58710456Y-82758216D01*
X58778376Y-82922188D01*
X58813000Y-83096259D01*
X58813000Y-83273741D01*
X58778376Y-83447812D01*
X58710456Y-83611784D01*
X58611853Y-83759354D01*
X58486354Y-83884853D01*
X58338784Y-83983456D01*
X58174812Y-84051376D01*
X58025512Y-84081073D01*
X58000742Y-84086000D01*
X57823258Y-84086000D01*
X57798488Y-84081073D01*
X57649188Y-84051376D01*
X57485216Y-83983456D01*
X57337646Y-83884853D01*
X57212147Y-83759354D01*
X57113544Y-83611784D01*
X57045624Y-83447812D01*
X57011000Y-83273741D01*
X57011000Y-83096259D01*
X57045624Y-82922188D01*
X57113544Y-82758216D01*
X57212147Y-82610646D01*
X57337646Y-82485147D01*
X57485216Y-82386544D01*
X57649188Y-82318624D01*
X57798488Y-82288927D01*
X57823258Y-82284000D01*
X58000742Y-82284000D01*
X58025512Y-82288927D01*
G37*
G36*
X63893000Y-84086000D02*
G01*
X62091000Y-84086000D01*
X62091000Y-82284000D01*
X63893000Y-82284000D01*
X63893000Y-84086000D01*
G37*
G36*
X60565512Y-82288927D02*
G01*
X60714812Y-82318624D01*
X60878784Y-82386544D01*
X61026354Y-82485147D01*
X61151853Y-82610646D01*
X61250456Y-82758216D01*
X61318376Y-82922188D01*
X61353000Y-83096259D01*
X61353000Y-83273741D01*
X61318376Y-83447812D01*
X61250456Y-83611784D01*
X61151853Y-83759354D01*
X61026354Y-83884853D01*
X60878784Y-83983456D01*
X60714812Y-84051376D01*
X60565512Y-84081073D01*
X60540742Y-84086000D01*
X60363258Y-84086000D01*
X60338488Y-84081073D01*
X60189188Y-84051376D01*
X60025216Y-83983456D01*
X59877646Y-83884853D01*
X59752147Y-83759354D01*
X59653544Y-83611784D01*
X59585624Y-83447812D01*
X59551000Y-83273741D01*
X59551000Y-83096259D01*
X59585624Y-82922188D01*
X59653544Y-82758216D01*
X59752147Y-82610646D01*
X59877646Y-82485147D01*
X60025216Y-82386544D01*
X60189188Y-82318624D01*
X60338488Y-82288927D01*
X60363258Y-82284000D01*
X60540742Y-82284000D01*
X60565512Y-82288927D01*
G37*
G36*
X85734000Y-83570000D02*
G01*
X84732000Y-83570000D01*
X84732000Y-82668000D01*
X85734000Y-82668000D01*
X85734000Y-83570000D01*
G37*
G36*
X87734000Y-82620000D02*
G01*
X86732000Y-82620000D01*
X86732000Y-81718000D01*
X87734000Y-81718000D01*
X87734000Y-82620000D01*
G37*
G36*
X85734000Y-81670000D02*
G01*
X84732000Y-81670000D01*
X84732000Y-80768000D01*
X85734000Y-80768000D01*
X85734000Y-81670000D01*
G37*
G36*
X109436811Y-77978271D02*
G01*
X109472603Y-77989129D01*
X109505595Y-78006763D01*
X109534508Y-78030492D01*
X109558237Y-78059405D01*
X109575871Y-78092397D01*
X109586729Y-78128189D01*
X109591000Y-78171555D01*
X109591000Y-80578445D01*
X109586729Y-80621811D01*
X109575871Y-80657603D01*
X109558237Y-80690595D01*
X109534508Y-80719508D01*
X109505595Y-80743237D01*
X109472603Y-80760871D01*
X109436811Y-80771729D01*
X109393445Y-80776000D01*
X108361555Y-80776000D01*
X108318189Y-80771729D01*
X108282397Y-80760871D01*
X108249405Y-80743237D01*
X108220492Y-80719508D01*
X108196763Y-80690595D01*
X108179129Y-80657603D01*
X108168271Y-80621811D01*
X108164000Y-80578445D01*
X108164000Y-78171555D01*
X108168271Y-78128189D01*
X108179129Y-78092397D01*
X108196763Y-78059405D01*
X108220492Y-78030492D01*
X108249405Y-78006763D01*
X108282397Y-77989129D01*
X108318189Y-77978271D01*
X108361555Y-77974000D01*
X109393445Y-77974000D01*
X109436811Y-77978271D01*
G37*
G36*
X106311811Y-77978271D02*
G01*
X106347603Y-77989129D01*
X106380595Y-78006763D01*
X106409508Y-78030492D01*
X106433237Y-78059405D01*
X106450871Y-78092397D01*
X106461729Y-78128189D01*
X106466000Y-78171555D01*
X106466000Y-80578445D01*
X106461729Y-80621811D01*
X106450871Y-80657603D01*
X106433237Y-80690595D01*
X106409508Y-80719508D01*
X106380595Y-80743237D01*
X106347603Y-80760871D01*
X106311811Y-80771729D01*
X106268445Y-80776000D01*
X105236555Y-80776000D01*
X105193189Y-80771729D01*
X105157397Y-80760871D01*
X105124405Y-80743237D01*
X105095492Y-80719508D01*
X105071763Y-80690595D01*
X105054129Y-80657603D01*
X105043271Y-80621811D01*
X105039000Y-80578445D01*
X105039000Y-78171555D01*
X105043271Y-78128189D01*
X105054129Y-78092397D01*
X105071763Y-78059405D01*
X105095492Y-78030492D01*
X105124405Y-78006763D01*
X105157397Y-77989129D01*
X105193189Y-77978271D01*
X105236555Y-77974000D01*
X106268445Y-77974000D01*
X106311811Y-77978271D01*
G37*
G36*
X58837599Y-79999800D02*
G01*
X57035599Y-79999800D01*
X57035599Y-76397800D01*
X58837599Y-76397800D01*
X58837599Y-79999800D01*
G37*
G36*
X63917599Y-79999800D02*
G01*
X62115599Y-79999800D01*
X62115599Y-76397800D01*
X63917599Y-76397800D01*
X63917599Y-79999800D01*
G37*
G36*
X61377599Y-79999800D02*
G01*
X59575599Y-79999800D01*
X59575599Y-76397800D01*
X61377599Y-76397800D01*
X61377599Y-79999800D01*
G37*
G36*
X85734000Y-79760000D02*
G01*
X84732000Y-79760000D01*
X84732000Y-78858000D01*
X85734000Y-78858000D01*
X85734000Y-79760000D01*
G37*
G36*
X87734000Y-78810000D02*
G01*
X86732000Y-78810000D01*
X86732000Y-77908000D01*
X87734000Y-77908000D01*
X87734000Y-78810000D01*
G37*
G36*
X72067599Y-78429800D02*
G01*
X68465599Y-78429800D01*
X68465599Y-76627800D01*
X72067599Y-76627800D01*
X72067599Y-78429800D01*
G37*
G36*
X52487599Y-78429800D02*
G01*
X48885599Y-78429800D01*
X48885599Y-76627800D01*
X52487599Y-76627800D01*
X52487599Y-78429800D01*
G37*
G36*
X85734000Y-77860000D02*
G01*
X84732000Y-77860000D01*
X84732000Y-76958000D01*
X85734000Y-76958000D01*
X85734000Y-77860000D01*
G37*
G36*
X120125142Y-49383242D02*
G01*
X120273101Y-49444529D01*
X120406255Y-49533499D01*
X120519501Y-49646745D01*
X120608471Y-49779899D01*
X120669758Y-49927858D01*
X120701000Y-50084925D01*
X120701000Y-50245075D01*
X120669758Y-50402142D01*
X120608471Y-50550101D01*
X120519501Y-50683255D01*
X120406255Y-50796501D01*
X120273101Y-50885471D01*
X120125142Y-50946758D01*
X119968075Y-50978000D01*
X119807925Y-50978000D01*
X119650858Y-50946758D01*
X119501006Y-50884687D01*
X119477557Y-50877574D01*
X119453171Y-50875172D01*
X119428785Y-50877574D01*
X119405336Y-50884687D01*
X119383726Y-50896238D01*
X119364784Y-50911783D01*
X119349238Y-50930725D01*
X119337687Y-50952336D01*
X119330574Y-50975785D01*
X119328172Y-51000171D01*
X119330574Y-51024557D01*
X119337687Y-51048006D01*
X119399758Y-51197858D01*
X119431000Y-51354925D01*
X119431000Y-51515075D01*
X119399758Y-51672142D01*
X119337687Y-51821994D01*
X119330574Y-51845443D01*
X119328172Y-51869829D01*
X119330574Y-51894215D01*
X119337687Y-51917664D01*
X119349238Y-51939274D01*
X119364783Y-51958216D01*
X119383725Y-51973762D01*
X119405336Y-51985313D01*
X119428785Y-51992426D01*
X119453171Y-51994828D01*
X119477557Y-51992426D01*
X119501006Y-51985313D01*
X119650858Y-51923242D01*
X119807925Y-51892000D01*
X119968075Y-51892000D01*
X120125142Y-51923242D01*
X120273101Y-51984529D01*
X120406255Y-52073499D01*
X120519501Y-52186745D01*
X120608471Y-52319899D01*
X120669758Y-52467858D01*
X120701000Y-52624925D01*
X120701000Y-52785075D01*
X120669758Y-52942142D01*
X120608471Y-53090101D01*
X120519501Y-53223255D01*
X120406255Y-53336501D01*
X120273101Y-53425471D01*
X120125142Y-53486758D01*
X119968075Y-53518000D01*
X119807925Y-53518000D01*
X119650858Y-53486758D01*
X119501006Y-53424687D01*
X119477557Y-53417574D01*
X119453171Y-53415172D01*
X119428785Y-53417574D01*
X119405336Y-53424687D01*
X119383726Y-53436238D01*
X119364784Y-53451783D01*
X119349238Y-53470725D01*
X119337687Y-53492336D01*
X119330574Y-53515785D01*
X119328172Y-53540171D01*
X119330574Y-53564557D01*
X119337687Y-53588006D01*
X119399758Y-53737858D01*
X119431000Y-53894925D01*
X119431000Y-54055075D01*
X119399758Y-54212142D01*
X119337687Y-54361994D01*
X119330574Y-54385443D01*
X119328172Y-54409829D01*
X119330574Y-54434215D01*
X119337687Y-54457664D01*
X119349238Y-54479274D01*
X119364783Y-54498216D01*
X119383725Y-54513762D01*
X119405336Y-54525313D01*
X119428785Y-54532426D01*
X119453171Y-54534828D01*
X119477557Y-54532426D01*
X119501006Y-54525313D01*
X119650858Y-54463242D01*
X119807925Y-54432000D01*
X119968075Y-54432000D01*
X120125142Y-54463242D01*
X120273101Y-54524529D01*
X120406255Y-54613499D01*
X120519501Y-54726745D01*
X120608471Y-54859899D01*
X120669758Y-55007858D01*
X120701000Y-55164925D01*
X120701000Y-55325075D01*
X120669758Y-55482142D01*
X120608471Y-55630101D01*
X120519501Y-55763255D01*
X120406255Y-55876501D01*
X120273101Y-55965471D01*
X120125142Y-56026758D01*
X119968075Y-56058000D01*
X119807925Y-56058000D01*
X119650858Y-56026758D01*
X119501006Y-55964687D01*
X119477557Y-55957574D01*
X119453171Y-55955172D01*
X119428785Y-55957574D01*
X119405336Y-55964687D01*
X119383726Y-55976238D01*
X119364784Y-55991783D01*
X119349238Y-56010725D01*
X119337687Y-56032336D01*
X119330574Y-56055785D01*
X119328172Y-56080171D01*
X119330574Y-56104557D01*
X119337687Y-56128006D01*
X119399758Y-56277858D01*
X119431000Y-56434925D01*
X119431000Y-56595075D01*
X119399758Y-56752142D01*
X119337687Y-56901994D01*
X119330574Y-56925443D01*
X119328172Y-56949829D01*
X119330574Y-56974215D01*
X119337687Y-56997664D01*
X119349238Y-57019274D01*
X119364783Y-57038216D01*
X119383725Y-57053762D01*
X119405336Y-57065313D01*
X119428785Y-57072426D01*
X119453171Y-57074828D01*
X119477557Y-57072426D01*
X119501006Y-57065313D01*
X119650858Y-57003242D01*
X119807925Y-56972000D01*
X119968075Y-56972000D01*
X120125142Y-57003242D01*
X120273101Y-57064529D01*
X120406255Y-57153499D01*
X120519501Y-57266745D01*
X120608471Y-57399899D01*
X120669758Y-57547858D01*
X120701000Y-57704925D01*
X120701000Y-57865075D01*
X120669758Y-58022142D01*
X120608471Y-58170101D01*
X120519501Y-58303255D01*
X120406255Y-58416501D01*
X120273101Y-58505471D01*
X120125142Y-58566758D01*
X119968075Y-58598000D01*
X119807925Y-58598000D01*
X119650858Y-58566758D01*
X119501006Y-58504687D01*
X119477557Y-58497574D01*
X119453171Y-58495172D01*
X119428785Y-58497574D01*
X119405336Y-58504687D01*
X119383726Y-58516238D01*
X119364784Y-58531783D01*
X119349238Y-58550725D01*
X119337687Y-58572336D01*
X119330574Y-58595785D01*
X119328172Y-58620171D01*
X119330574Y-58644557D01*
X119337687Y-58668006D01*
X119399758Y-58817858D01*
X119431000Y-58974925D01*
X119431000Y-59135075D01*
X119399758Y-59292142D01*
X119337687Y-59441994D01*
X119330574Y-59465443D01*
X119328172Y-59489829D01*
X119330574Y-59514215D01*
X119337687Y-59537664D01*
X119349238Y-59559274D01*
X119364783Y-59578216D01*
X119383725Y-59593762D01*
X119405336Y-59605313D01*
X119428785Y-59612426D01*
X119453171Y-59614828D01*
X119477557Y-59612426D01*
X119501006Y-59605313D01*
X119650858Y-59543242D01*
X119807925Y-59512000D01*
X119968075Y-59512000D01*
X120125142Y-59543242D01*
X120273101Y-59604529D01*
X120406255Y-59693499D01*
X120519501Y-59806745D01*
X120608471Y-59939899D01*
X120669758Y-60087858D01*
X120701000Y-60244925D01*
X120701000Y-60405075D01*
X120669758Y-60562142D01*
X120608471Y-60710101D01*
X120519501Y-60843255D01*
X120406255Y-60956501D01*
X120273101Y-61045471D01*
X120125142Y-61106758D01*
X119968075Y-61138000D01*
X119807925Y-61138000D01*
X119650858Y-61106758D01*
X119501006Y-61044687D01*
X119477557Y-61037574D01*
X119453171Y-61035172D01*
X119428785Y-61037574D01*
X119405336Y-61044687D01*
X119383726Y-61056238D01*
X119364784Y-61071783D01*
X119349238Y-61090725D01*
X119337687Y-61112336D01*
X119330574Y-61135785D01*
X119328172Y-61160171D01*
X119330574Y-61184557D01*
X119337687Y-61208006D01*
X119399758Y-61357858D01*
X119431000Y-61514925D01*
X119431000Y-61675075D01*
X119399758Y-61832142D01*
X119337687Y-61981994D01*
X119330574Y-62005443D01*
X119328172Y-62029829D01*
X119330574Y-62054215D01*
X119337687Y-62077664D01*
X119349238Y-62099274D01*
X119364783Y-62118216D01*
X119383725Y-62133762D01*
X119405336Y-62145313D01*
X119428785Y-62152426D01*
X119453171Y-62154828D01*
X119477557Y-62152426D01*
X119501006Y-62145313D01*
X119650858Y-62083242D01*
X119807925Y-62052000D01*
X119968075Y-62052000D01*
X120125142Y-62083242D01*
X120273101Y-62144529D01*
X120406255Y-62233499D01*
X120519501Y-62346745D01*
X120608471Y-62479899D01*
X120669758Y-62627858D01*
X120701000Y-62784925D01*
X120701000Y-62945075D01*
X120669758Y-63102142D01*
X120608471Y-63250101D01*
X120519501Y-63383255D01*
X120406255Y-63496501D01*
X120273101Y-63585471D01*
X120125142Y-63646758D01*
X119968075Y-63678000D01*
X119807925Y-63678000D01*
X119650858Y-63646758D01*
X119501006Y-63584687D01*
X119477557Y-63577574D01*
X119453171Y-63575172D01*
X119428785Y-63577574D01*
X119405336Y-63584687D01*
X119383726Y-63596238D01*
X119364784Y-63611783D01*
X119349238Y-63630725D01*
X119337687Y-63652336D01*
X119330574Y-63675785D01*
X119328172Y-63700171D01*
X119330574Y-63724557D01*
X119337687Y-63748006D01*
X119399758Y-63897858D01*
X119431000Y-64054925D01*
X119431000Y-64215075D01*
X119399758Y-64372142D01*
X119337687Y-64521994D01*
X119330574Y-64545443D01*
X119328172Y-64569829D01*
X119330574Y-64594215D01*
X119337687Y-64617664D01*
X119349238Y-64639274D01*
X119364783Y-64658216D01*
X119383725Y-64673762D01*
X119405336Y-64685313D01*
X119428785Y-64692426D01*
X119453171Y-64694828D01*
X119477557Y-64692426D01*
X119501006Y-64685313D01*
X119650858Y-64623242D01*
X119807925Y-64592000D01*
X119968075Y-64592000D01*
X120125142Y-64623242D01*
X120273101Y-64684529D01*
X120406255Y-64773499D01*
X120519501Y-64886745D01*
X120608471Y-65019899D01*
X120669758Y-65167858D01*
X120701000Y-65324925D01*
X120701000Y-65485075D01*
X120669758Y-65642142D01*
X120608471Y-65790101D01*
X120519501Y-65923255D01*
X120406255Y-66036501D01*
X120273101Y-66125471D01*
X120125142Y-66186758D01*
X119968075Y-66218000D01*
X119807925Y-66218000D01*
X119650858Y-66186758D01*
X119501006Y-66124687D01*
X119477557Y-66117574D01*
X119453171Y-66115172D01*
X119428785Y-66117574D01*
X119405336Y-66124687D01*
X119383726Y-66136238D01*
X119364784Y-66151783D01*
X119349238Y-66170725D01*
X119337687Y-66192336D01*
X119330574Y-66215785D01*
X119328172Y-66240171D01*
X119330574Y-66264557D01*
X119337687Y-66288006D01*
X119399758Y-66437858D01*
X119431000Y-66594925D01*
X119431000Y-66755075D01*
X119399758Y-66912142D01*
X119337687Y-67061994D01*
X119330574Y-67085443D01*
X119328172Y-67109829D01*
X119330574Y-67134215D01*
X119337687Y-67157664D01*
X119349238Y-67179274D01*
X119364783Y-67198216D01*
X119383725Y-67213762D01*
X119405336Y-67225313D01*
X119428785Y-67232426D01*
X119453171Y-67234828D01*
X119477557Y-67232426D01*
X119501006Y-67225313D01*
X119650858Y-67163242D01*
X119807925Y-67132000D01*
X119968075Y-67132000D01*
X120125142Y-67163242D01*
X120273101Y-67224529D01*
X120406255Y-67313499D01*
X120519501Y-67426745D01*
X120608471Y-67559899D01*
X120669758Y-67707858D01*
X120701000Y-67864925D01*
X120701000Y-68025075D01*
X120669758Y-68182142D01*
X120608471Y-68330101D01*
X120519501Y-68463255D01*
X120406255Y-68576501D01*
X120273101Y-68665471D01*
X120125142Y-68726758D01*
X119968075Y-68758000D01*
X119807925Y-68758000D01*
X119650858Y-68726758D01*
X119501006Y-68664687D01*
X119477557Y-68657574D01*
X119453171Y-68655172D01*
X119428785Y-68657574D01*
X119405336Y-68664687D01*
X119383726Y-68676238D01*
X119364784Y-68691783D01*
X119349238Y-68710725D01*
X119337687Y-68732336D01*
X119330574Y-68755785D01*
X119328172Y-68780171D01*
X119330574Y-68804557D01*
X119337687Y-68828006D01*
X119399758Y-68977858D01*
X119431000Y-69134925D01*
X119431000Y-69295075D01*
X119399758Y-69452142D01*
X119337687Y-69601994D01*
X119330574Y-69625443D01*
X119328172Y-69649829D01*
X119330574Y-69674215D01*
X119337687Y-69697664D01*
X119349238Y-69719274D01*
X119364783Y-69738216D01*
X119383725Y-69753762D01*
X119405336Y-69765313D01*
X119428785Y-69772426D01*
X119453171Y-69774828D01*
X119477557Y-69772426D01*
X119501006Y-69765313D01*
X119650858Y-69703242D01*
X119807925Y-69672000D01*
X119968075Y-69672000D01*
X120125142Y-69703242D01*
X120273101Y-69764529D01*
X120406255Y-69853499D01*
X120519501Y-69966745D01*
X120608471Y-70099899D01*
X120669758Y-70247858D01*
X120701000Y-70404925D01*
X120701000Y-70565075D01*
X120669758Y-70722142D01*
X120608471Y-70870101D01*
X120519501Y-71003255D01*
X120406255Y-71116501D01*
X120273101Y-71205471D01*
X120125142Y-71266758D01*
X119968075Y-71298000D01*
X119807925Y-71298000D01*
X119650858Y-71266758D01*
X119501006Y-71204687D01*
X119477557Y-71197574D01*
X119453171Y-71195172D01*
X119428785Y-71197574D01*
X119405336Y-71204687D01*
X119383726Y-71216238D01*
X119364784Y-71231783D01*
X119349238Y-71250725D01*
X119337687Y-71272336D01*
X119330574Y-71295785D01*
X119328172Y-71320171D01*
X119330574Y-71344557D01*
X119337687Y-71368006D01*
X119399758Y-71517858D01*
X119431000Y-71674925D01*
X119431000Y-71835075D01*
X119399758Y-71992142D01*
X119337687Y-72141994D01*
X119330574Y-72165443D01*
X119328172Y-72189829D01*
X119330574Y-72214215D01*
X119337687Y-72237664D01*
X119349238Y-72259274D01*
X119364783Y-72278216D01*
X119383725Y-72293762D01*
X119405336Y-72305313D01*
X119428785Y-72312426D01*
X119453171Y-72314828D01*
X119477557Y-72312426D01*
X119501006Y-72305313D01*
X119650858Y-72243242D01*
X119807925Y-72212000D01*
X119968075Y-72212000D01*
X120125142Y-72243242D01*
X120273101Y-72304529D01*
X120406255Y-72393499D01*
X120519501Y-72506745D01*
X120608471Y-72639899D01*
X120669758Y-72787858D01*
X120701000Y-72944925D01*
X120701000Y-73105075D01*
X120669758Y-73262142D01*
X120608471Y-73410101D01*
X120519501Y-73543255D01*
X120406255Y-73656501D01*
X120273101Y-73745471D01*
X120125142Y-73806758D01*
X119968075Y-73838000D01*
X119807925Y-73838000D01*
X119650858Y-73806758D01*
X119501006Y-73744687D01*
X119477557Y-73737574D01*
X119453171Y-73735172D01*
X119428785Y-73737574D01*
X119405336Y-73744687D01*
X119383726Y-73756238D01*
X119364784Y-73771783D01*
X119349238Y-73790725D01*
X119337687Y-73812336D01*
X119330574Y-73835785D01*
X119328172Y-73860171D01*
X119330574Y-73884557D01*
X119337687Y-73908006D01*
X119399758Y-74057858D01*
X119431000Y-74214925D01*
X119431000Y-74375075D01*
X119399758Y-74532142D01*
X119337687Y-74681994D01*
X119330574Y-74705443D01*
X119328172Y-74729829D01*
X119330574Y-74754215D01*
X119337687Y-74777664D01*
X119349238Y-74799274D01*
X119364783Y-74818216D01*
X119383725Y-74833762D01*
X119405336Y-74845313D01*
X119428785Y-74852426D01*
X119453171Y-74854828D01*
X119477557Y-74852426D01*
X119501006Y-74845313D01*
X119650858Y-74783242D01*
X119807925Y-74752000D01*
X119968075Y-74752000D01*
X120125142Y-74783242D01*
X120273101Y-74844529D01*
X120406255Y-74933499D01*
X120519501Y-75046745D01*
X120608471Y-75179899D01*
X120669758Y-75327858D01*
X120701000Y-75484925D01*
X120701000Y-75645075D01*
X120669758Y-75802142D01*
X120608471Y-75950101D01*
X120519501Y-76083255D01*
X120406255Y-76196501D01*
X120273101Y-76285471D01*
X120125142Y-76346758D01*
X119968075Y-76378000D01*
X119807925Y-76378000D01*
X119650858Y-76346758D01*
X119502899Y-76285471D01*
X119369745Y-76196501D01*
X119256499Y-76083255D01*
X119167529Y-75950101D01*
X119106242Y-75802142D01*
X119075000Y-75645075D01*
X119075000Y-75484925D01*
X119106242Y-75327858D01*
X119168313Y-75178006D01*
X119175426Y-75154557D01*
X119177828Y-75130171D01*
X119175426Y-75105785D01*
X119168313Y-75082336D01*
X119156762Y-75060726D01*
X119141217Y-75041784D01*
X119122275Y-75026238D01*
X119100664Y-75014687D01*
X119077215Y-75007574D01*
X119052829Y-75005172D01*
X119028443Y-75007574D01*
X119004994Y-75014687D01*
X118855142Y-75076758D01*
X118698075Y-75108000D01*
X118537925Y-75108000D01*
X118380858Y-75076758D01*
X118232899Y-75015471D01*
X118099745Y-74926501D01*
X117986499Y-74813255D01*
X117897529Y-74680101D01*
X117836242Y-74532142D01*
X117805000Y-74375075D01*
X117805000Y-74214925D01*
X117836242Y-74057858D01*
X117897529Y-73909899D01*
X117986499Y-73776745D01*
X118099745Y-73663499D01*
X118232899Y-73574529D01*
X118380858Y-73513242D01*
X118537925Y-73482000D01*
X118698075Y-73482000D01*
X118855142Y-73513242D01*
X119004994Y-73575313D01*
X119028443Y-73582426D01*
X119052829Y-73584828D01*
X119077215Y-73582426D01*
X119100664Y-73575313D01*
X119122274Y-73563762D01*
X119141216Y-73548217D01*
X119156762Y-73529275D01*
X119168313Y-73507664D01*
X119175426Y-73484215D01*
X119177828Y-73459829D01*
X119175426Y-73435443D01*
X119168313Y-73411994D01*
X119106242Y-73262142D01*
X119075000Y-73105075D01*
X119075000Y-72944925D01*
X119106242Y-72787858D01*
X119168313Y-72638006D01*
X119175426Y-72614557D01*
X119177828Y-72590171D01*
X119175426Y-72565785D01*
X119168313Y-72542336D01*
X119156762Y-72520726D01*
X119141217Y-72501784D01*
X119122275Y-72486238D01*
X119100664Y-72474687D01*
X119077215Y-72467574D01*
X119052829Y-72465172D01*
X119028443Y-72467574D01*
X119004994Y-72474687D01*
X118855142Y-72536758D01*
X118698075Y-72568000D01*
X118537925Y-72568000D01*
X118380858Y-72536758D01*
X118232899Y-72475471D01*
X118099745Y-72386501D01*
X117986499Y-72273255D01*
X117897529Y-72140101D01*
X117836242Y-71992142D01*
X117805000Y-71835075D01*
X117805000Y-71674925D01*
X117836242Y-71517858D01*
X117897529Y-71369899D01*
X117986499Y-71236745D01*
X118099745Y-71123499D01*
X118232899Y-71034529D01*
X118380858Y-70973242D01*
X118537925Y-70942000D01*
X118698075Y-70942000D01*
X118855142Y-70973242D01*
X119004994Y-71035313D01*
X119028443Y-71042426D01*
X119052829Y-71044828D01*
X119077215Y-71042426D01*
X119100664Y-71035313D01*
X119122274Y-71023762D01*
X119141216Y-71008217D01*
X119156762Y-70989275D01*
X119168313Y-70967664D01*
X119175426Y-70944215D01*
X119177828Y-70919829D01*
X119175426Y-70895443D01*
X119168313Y-70871994D01*
X119106242Y-70722142D01*
X119075000Y-70565075D01*
X119075000Y-70404925D01*
X119106242Y-70247858D01*
X119168313Y-70098006D01*
X119175426Y-70074557D01*
X119177828Y-70050171D01*
X119175426Y-70025785D01*
X119168313Y-70002336D01*
X119156762Y-69980726D01*
X119141217Y-69961784D01*
X119122275Y-69946238D01*
X119100664Y-69934687D01*
X119077215Y-69927574D01*
X119052829Y-69925172D01*
X119028443Y-69927574D01*
X119004994Y-69934687D01*
X118855142Y-69996758D01*
X118698075Y-70028000D01*
X118537925Y-70028000D01*
X118380858Y-69996758D01*
X118232899Y-69935471D01*
X118099745Y-69846501D01*
X117986499Y-69733255D01*
X117897529Y-69600101D01*
X117836242Y-69452142D01*
X117805000Y-69295075D01*
X117805000Y-69134925D01*
X117836242Y-68977858D01*
X117897529Y-68829899D01*
X117986499Y-68696745D01*
X118099745Y-68583499D01*
X118232899Y-68494529D01*
X118380858Y-68433242D01*
X118537925Y-68402000D01*
X118698075Y-68402000D01*
X118855142Y-68433242D01*
X119004994Y-68495313D01*
X119028443Y-68502426D01*
X119052829Y-68504828D01*
X119077215Y-68502426D01*
X119100664Y-68495313D01*
X119122274Y-68483762D01*
X119141216Y-68468217D01*
X119156762Y-68449275D01*
X119168313Y-68427664D01*
X119175426Y-68404215D01*
X119177828Y-68379829D01*
X119175426Y-68355443D01*
X119168313Y-68331994D01*
X119106242Y-68182142D01*
X119075000Y-68025075D01*
X119075000Y-67864925D01*
X119106242Y-67707858D01*
X119168313Y-67558006D01*
X119175426Y-67534557D01*
X119177828Y-67510171D01*
X119175426Y-67485785D01*
X119168313Y-67462336D01*
X119156762Y-67440726D01*
X119141217Y-67421784D01*
X119122275Y-67406238D01*
X119100664Y-67394687D01*
X119077215Y-67387574D01*
X119052829Y-67385172D01*
X119028443Y-67387574D01*
X119004994Y-67394687D01*
X118855142Y-67456758D01*
X118698075Y-67488000D01*
X118537925Y-67488000D01*
X118380858Y-67456758D01*
X118232899Y-67395471D01*
X118099745Y-67306501D01*
X117986499Y-67193255D01*
X117897529Y-67060101D01*
X117836242Y-66912142D01*
X117805000Y-66755075D01*
X117805000Y-66594925D01*
X117836242Y-66437858D01*
X117897529Y-66289899D01*
X117986499Y-66156745D01*
X118099745Y-66043499D01*
X118232899Y-65954529D01*
X118380858Y-65893242D01*
X118537925Y-65862000D01*
X118698075Y-65862000D01*
X118855142Y-65893242D01*
X119004994Y-65955313D01*
X119028443Y-65962426D01*
X119052829Y-65964828D01*
X119077215Y-65962426D01*
X119100664Y-65955313D01*
X119122274Y-65943762D01*
X119141216Y-65928217D01*
X119156762Y-65909275D01*
X119168313Y-65887664D01*
X119175426Y-65864215D01*
X119177828Y-65839829D01*
X119175426Y-65815443D01*
X119168313Y-65791994D01*
X119106242Y-65642142D01*
X119075000Y-65485075D01*
X119075000Y-65324925D01*
X119106242Y-65167858D01*
X119168313Y-65018006D01*
X119175426Y-64994557D01*
X119177828Y-64970171D01*
X119175426Y-64945785D01*
X119168313Y-64922336D01*
X119156762Y-64900726D01*
X119141217Y-64881784D01*
X119122275Y-64866238D01*
X119100664Y-64854687D01*
X119077215Y-64847574D01*
X119052829Y-64845172D01*
X119028443Y-64847574D01*
X119004994Y-64854687D01*
X118855142Y-64916758D01*
X118698075Y-64948000D01*
X118537925Y-64948000D01*
X118380858Y-64916758D01*
X118232899Y-64855471D01*
X118099745Y-64766501D01*
X117986499Y-64653255D01*
X117897529Y-64520101D01*
X117836242Y-64372142D01*
X117805000Y-64215075D01*
X117805000Y-64054925D01*
X117836242Y-63897858D01*
X117897529Y-63749899D01*
X117986499Y-63616745D01*
X118099745Y-63503499D01*
X118232899Y-63414529D01*
X118380858Y-63353242D01*
X118537925Y-63322000D01*
X118698075Y-63322000D01*
X118855142Y-63353242D01*
X119004994Y-63415313D01*
X119028443Y-63422426D01*
X119052829Y-63424828D01*
X119077215Y-63422426D01*
X119100664Y-63415313D01*
X119122274Y-63403762D01*
X119141216Y-63388217D01*
X119156762Y-63369275D01*
X119168313Y-63347664D01*
X119175426Y-63324215D01*
X119177828Y-63299829D01*
X119175426Y-63275443D01*
X119168313Y-63251994D01*
X119106242Y-63102142D01*
X119075000Y-62945075D01*
X119075000Y-62784925D01*
X119106242Y-62627858D01*
X119168313Y-62478006D01*
X119175426Y-62454557D01*
X119177828Y-62430171D01*
X119175426Y-62405785D01*
X119168313Y-62382336D01*
X119156762Y-62360726D01*
X119141217Y-62341784D01*
X119122275Y-62326238D01*
X119100664Y-62314687D01*
X119077215Y-62307574D01*
X119052829Y-62305172D01*
X119028443Y-62307574D01*
X119004994Y-62314687D01*
X118855142Y-62376758D01*
X118698075Y-62408000D01*
X118537925Y-62408000D01*
X118380858Y-62376758D01*
X118232899Y-62315471D01*
X118099745Y-62226501D01*
X117986499Y-62113255D01*
X117897529Y-61980101D01*
X117836242Y-61832142D01*
X117805000Y-61675075D01*
X117805000Y-61514925D01*
X117836242Y-61357858D01*
X117897529Y-61209899D01*
X117986499Y-61076745D01*
X118099745Y-60963499D01*
X118232899Y-60874529D01*
X118380858Y-60813242D01*
X118537925Y-60782000D01*
X118698075Y-60782000D01*
X118855142Y-60813242D01*
X119004994Y-60875313D01*
X119028443Y-60882426D01*
X119052829Y-60884828D01*
X119077215Y-60882426D01*
X119100664Y-60875313D01*
X119122274Y-60863762D01*
X119141216Y-60848217D01*
X119156762Y-60829275D01*
X119168313Y-60807664D01*
X119175426Y-60784215D01*
X119177828Y-60759829D01*
X119175426Y-60735443D01*
X119168313Y-60711994D01*
X119106242Y-60562142D01*
X119075000Y-60405075D01*
X119075000Y-60244925D01*
X119106242Y-60087858D01*
X119168313Y-59938006D01*
X119175426Y-59914557D01*
X119177828Y-59890171D01*
X119175426Y-59865785D01*
X119168313Y-59842336D01*
X119156762Y-59820726D01*
X119141217Y-59801784D01*
X119122275Y-59786238D01*
X119100664Y-59774687D01*
X119077215Y-59767574D01*
X119052829Y-59765172D01*
X119028443Y-59767574D01*
X119004994Y-59774687D01*
X118855142Y-59836758D01*
X118698075Y-59868000D01*
X118537925Y-59868000D01*
X118380858Y-59836758D01*
X118232899Y-59775471D01*
X118099745Y-59686501D01*
X117986499Y-59573255D01*
X117897529Y-59440101D01*
X117836242Y-59292142D01*
X117805000Y-59135075D01*
X117805000Y-58974925D01*
X117836242Y-58817858D01*
X117897529Y-58669899D01*
X117986499Y-58536745D01*
X118099745Y-58423499D01*
X118232899Y-58334529D01*
X118380858Y-58273242D01*
X118537925Y-58242000D01*
X118698075Y-58242000D01*
X118855142Y-58273242D01*
X119004994Y-58335313D01*
X119028443Y-58342426D01*
X119052829Y-58344828D01*
X119077215Y-58342426D01*
X119100664Y-58335313D01*
X119122274Y-58323762D01*
X119141216Y-58308217D01*
X119156762Y-58289275D01*
X119168313Y-58267664D01*
X119175426Y-58244215D01*
X119177828Y-58219829D01*
X119175426Y-58195443D01*
X119168313Y-58171994D01*
X119106242Y-58022142D01*
X119075000Y-57865075D01*
X119075000Y-57704925D01*
X119106242Y-57547858D01*
X119168313Y-57398006D01*
X119175426Y-57374557D01*
X119177828Y-57350171D01*
X119175426Y-57325785D01*
X119168313Y-57302336D01*
X119156762Y-57280726D01*
X119141217Y-57261784D01*
X119122275Y-57246238D01*
X119100664Y-57234687D01*
X119077215Y-57227574D01*
X119052829Y-57225172D01*
X119028443Y-57227574D01*
X119004994Y-57234687D01*
X118855142Y-57296758D01*
X118698075Y-57328000D01*
X118537925Y-57328000D01*
X118380858Y-57296758D01*
X118232899Y-57235471D01*
X118099745Y-57146501D01*
X117986499Y-57033255D01*
X117897529Y-56900101D01*
X117836242Y-56752142D01*
X117805000Y-56595075D01*
X117805000Y-56434925D01*
X117836242Y-56277858D01*
X117897529Y-56129899D01*
X117986499Y-55996745D01*
X118099745Y-55883499D01*
X118232899Y-55794529D01*
X118380858Y-55733242D01*
X118537925Y-55702000D01*
X118698075Y-55702000D01*
X118855142Y-55733242D01*
X119004994Y-55795313D01*
X119028443Y-55802426D01*
X119052829Y-55804828D01*
X119077215Y-55802426D01*
X119100664Y-55795313D01*
X119122274Y-55783762D01*
X119141216Y-55768217D01*
X119156762Y-55749275D01*
X119168313Y-55727664D01*
X119175426Y-55704215D01*
X119177828Y-55679829D01*
X119175426Y-55655443D01*
X119168313Y-55631994D01*
X119106242Y-55482142D01*
X119075000Y-55325075D01*
X119075000Y-55164925D01*
X119106242Y-55007858D01*
X119168313Y-54858006D01*
X119175426Y-54834557D01*
X119177828Y-54810171D01*
X119175426Y-54785785D01*
X119168313Y-54762336D01*
X119156762Y-54740726D01*
X119141217Y-54721784D01*
X119122275Y-54706238D01*
X119100664Y-54694687D01*
X119077215Y-54687574D01*
X119052829Y-54685172D01*
X119028443Y-54687574D01*
X119004994Y-54694687D01*
X118855142Y-54756758D01*
X118698075Y-54788000D01*
X118537925Y-54788000D01*
X118380858Y-54756758D01*
X118232899Y-54695471D01*
X118099745Y-54606501D01*
X117986499Y-54493255D01*
X117897529Y-54360101D01*
X117836242Y-54212142D01*
X117805000Y-54055075D01*
X117805000Y-53894925D01*
X117836242Y-53737858D01*
X117897529Y-53589899D01*
X117986499Y-53456745D01*
X118099745Y-53343499D01*
X118232899Y-53254529D01*
X118380858Y-53193242D01*
X118537925Y-53162000D01*
X118698075Y-53162000D01*
X118855142Y-53193242D01*
X119004994Y-53255313D01*
X119028443Y-53262426D01*
X119052829Y-53264828D01*
X119077215Y-53262426D01*
X119100664Y-53255313D01*
X119122274Y-53243762D01*
X119141216Y-53228217D01*
X119156762Y-53209275D01*
X119168313Y-53187664D01*
X119175426Y-53164215D01*
X119177828Y-53139829D01*
X119175426Y-53115443D01*
X119168313Y-53091994D01*
X119106242Y-52942142D01*
X119075000Y-52785075D01*
X119075000Y-52624925D01*
X119106242Y-52467858D01*
X119168313Y-52318006D01*
X119175426Y-52294557D01*
X119177828Y-52270171D01*
X119175426Y-52245785D01*
X119168313Y-52222336D01*
X119156762Y-52200726D01*
X119141217Y-52181784D01*
X119122275Y-52166238D01*
X119100664Y-52154687D01*
X119077215Y-52147574D01*
X119052829Y-52145172D01*
X119028443Y-52147574D01*
X119004994Y-52154687D01*
X118855142Y-52216758D01*
X118698075Y-52248000D01*
X118537925Y-52248000D01*
X118380858Y-52216758D01*
X118232899Y-52155471D01*
X118099745Y-52066501D01*
X117986499Y-51953255D01*
X117897529Y-51820101D01*
X117836242Y-51672142D01*
X117805000Y-51515075D01*
X117805000Y-51354925D01*
X117836242Y-51197858D01*
X117897529Y-51049899D01*
X117986499Y-50916745D01*
X118099745Y-50803499D01*
X118232899Y-50714529D01*
X118380858Y-50653242D01*
X118537925Y-50622000D01*
X118698075Y-50622000D01*
X118855142Y-50653242D01*
X119004994Y-50715313D01*
X119028443Y-50722426D01*
X119052829Y-50724828D01*
X119077215Y-50722426D01*
X119100664Y-50715313D01*
X119122274Y-50703762D01*
X119141216Y-50688217D01*
X119156762Y-50669275D01*
X119168313Y-50647664D01*
X119175426Y-50624215D01*
X119177828Y-50599829D01*
X119175426Y-50575443D01*
X119168313Y-50551994D01*
X119106242Y-50402142D01*
X119075000Y-50245075D01*
X119075000Y-50084925D01*
X119106242Y-49927858D01*
X119167529Y-49779899D01*
X119256499Y-49646745D01*
X119369745Y-49533499D01*
X119502899Y-49444529D01*
X119650858Y-49383242D01*
X119807925Y-49352000D01*
X119968075Y-49352000D01*
X120125142Y-49383242D01*
G37*
G36*
X98535142Y-49383242D02*
G01*
X98683101Y-49444529D01*
X98816255Y-49533499D01*
X98929501Y-49646745D01*
X99018471Y-49779899D01*
X99079758Y-49927858D01*
X99111000Y-50084925D01*
X99111000Y-50245075D01*
X99079758Y-50402142D01*
X99018471Y-50550101D01*
X98929501Y-50683255D01*
X98816255Y-50796501D01*
X98683101Y-50885471D01*
X98535142Y-50946758D01*
X98378075Y-50978000D01*
X98217925Y-50978000D01*
X98060858Y-50946758D01*
X97911006Y-50884687D01*
X97887557Y-50877574D01*
X97863171Y-50875172D01*
X97838785Y-50877574D01*
X97815336Y-50884687D01*
X97793726Y-50896238D01*
X97774784Y-50911783D01*
X97759238Y-50930725D01*
X97747687Y-50952336D01*
X97740574Y-50975785D01*
X97738172Y-51000171D01*
X97740574Y-51024557D01*
X97747687Y-51048006D01*
X97809758Y-51197858D01*
X97841000Y-51354925D01*
X97841000Y-51515075D01*
X97809758Y-51672142D01*
X97747687Y-51821994D01*
X97740574Y-51845443D01*
X97738172Y-51869829D01*
X97740574Y-51894215D01*
X97747687Y-51917664D01*
X97759238Y-51939274D01*
X97774783Y-51958216D01*
X97793725Y-51973762D01*
X97815336Y-51985313D01*
X97838785Y-51992426D01*
X97863171Y-51994828D01*
X97887557Y-51992426D01*
X97911006Y-51985313D01*
X98060858Y-51923242D01*
X98217925Y-51892000D01*
X98378075Y-51892000D01*
X98535142Y-51923242D01*
X98683101Y-51984529D01*
X98816255Y-52073499D01*
X98929501Y-52186745D01*
X99018471Y-52319899D01*
X99079758Y-52467858D01*
X99111000Y-52624925D01*
X99111000Y-52785075D01*
X99079758Y-52942142D01*
X99018471Y-53090101D01*
X98929501Y-53223255D01*
X98816255Y-53336501D01*
X98683101Y-53425471D01*
X98535142Y-53486758D01*
X98378075Y-53518000D01*
X98217925Y-53518000D01*
X98060858Y-53486758D01*
X97911006Y-53424687D01*
X97887557Y-53417574D01*
X97863171Y-53415172D01*
X97838785Y-53417574D01*
X97815336Y-53424687D01*
X97793726Y-53436238D01*
X97774784Y-53451783D01*
X97759238Y-53470725D01*
X97747687Y-53492336D01*
X97740574Y-53515785D01*
X97738172Y-53540171D01*
X97740574Y-53564557D01*
X97747687Y-53588006D01*
X97809758Y-53737858D01*
X97841000Y-53894925D01*
X97841000Y-54055075D01*
X97809758Y-54212142D01*
X97747687Y-54361994D01*
X97740574Y-54385443D01*
X97738172Y-54409829D01*
X97740574Y-54434215D01*
X97747687Y-54457664D01*
X97759238Y-54479274D01*
X97774783Y-54498216D01*
X97793725Y-54513762D01*
X97815336Y-54525313D01*
X97838785Y-54532426D01*
X97863171Y-54534828D01*
X97887557Y-54532426D01*
X97911006Y-54525313D01*
X98060858Y-54463242D01*
X98217925Y-54432000D01*
X98378075Y-54432000D01*
X98535142Y-54463242D01*
X98683101Y-54524529D01*
X98816255Y-54613499D01*
X98929501Y-54726745D01*
X99018471Y-54859899D01*
X99079758Y-55007858D01*
X99111000Y-55164925D01*
X99111000Y-55325075D01*
X99079758Y-55482142D01*
X99018471Y-55630101D01*
X98929501Y-55763255D01*
X98816255Y-55876501D01*
X98683101Y-55965471D01*
X98535142Y-56026758D01*
X98378075Y-56058000D01*
X98217925Y-56058000D01*
X98060858Y-56026758D01*
X97911006Y-55964687D01*
X97887557Y-55957574D01*
X97863171Y-55955172D01*
X97838785Y-55957574D01*
X97815336Y-55964687D01*
X97793726Y-55976238D01*
X97774784Y-55991783D01*
X97759238Y-56010725D01*
X97747687Y-56032336D01*
X97740574Y-56055785D01*
X97738172Y-56080171D01*
X97740574Y-56104557D01*
X97747687Y-56128006D01*
X97809758Y-56277858D01*
X97841000Y-56434925D01*
X97841000Y-56595075D01*
X97809758Y-56752142D01*
X97747687Y-56901994D01*
X97740574Y-56925443D01*
X97738172Y-56949829D01*
X97740574Y-56974215D01*
X97747687Y-56997664D01*
X97759238Y-57019274D01*
X97774783Y-57038216D01*
X97793725Y-57053762D01*
X97815336Y-57065313D01*
X97838785Y-57072426D01*
X97863171Y-57074828D01*
X97887557Y-57072426D01*
X97911006Y-57065313D01*
X98060858Y-57003242D01*
X98217925Y-56972000D01*
X98378075Y-56972000D01*
X98535142Y-57003242D01*
X98683101Y-57064529D01*
X98816255Y-57153499D01*
X98929501Y-57266745D01*
X99018471Y-57399899D01*
X99079758Y-57547858D01*
X99111000Y-57704925D01*
X99111000Y-57865075D01*
X99079758Y-58022142D01*
X99018471Y-58170101D01*
X98929501Y-58303255D01*
X98816255Y-58416501D01*
X98683101Y-58505471D01*
X98535142Y-58566758D01*
X98378075Y-58598000D01*
X98217925Y-58598000D01*
X98060858Y-58566758D01*
X97911006Y-58504687D01*
X97887557Y-58497574D01*
X97863171Y-58495172D01*
X97838785Y-58497574D01*
X97815336Y-58504687D01*
X97793726Y-58516238D01*
X97774784Y-58531783D01*
X97759238Y-58550725D01*
X97747687Y-58572336D01*
X97740574Y-58595785D01*
X97738172Y-58620171D01*
X97740574Y-58644557D01*
X97747687Y-58668006D01*
X97809758Y-58817858D01*
X97841000Y-58974925D01*
X97841000Y-59135075D01*
X97809758Y-59292142D01*
X97747687Y-59441994D01*
X97740574Y-59465443D01*
X97738172Y-59489829D01*
X97740574Y-59514215D01*
X97747687Y-59537664D01*
X97759238Y-59559274D01*
X97774783Y-59578216D01*
X97793725Y-59593762D01*
X97815336Y-59605313D01*
X97838785Y-59612426D01*
X97863171Y-59614828D01*
X97887557Y-59612426D01*
X97911006Y-59605313D01*
X98060858Y-59543242D01*
X98217925Y-59512000D01*
X98378075Y-59512000D01*
X98535142Y-59543242D01*
X98683101Y-59604529D01*
X98816255Y-59693499D01*
X98929501Y-59806745D01*
X99018471Y-59939899D01*
X99079758Y-60087858D01*
X99111000Y-60244925D01*
X99111000Y-60405075D01*
X99079758Y-60562142D01*
X99018471Y-60710101D01*
X98929501Y-60843255D01*
X98816255Y-60956501D01*
X98683101Y-61045471D01*
X98535142Y-61106758D01*
X98378075Y-61138000D01*
X98217925Y-61138000D01*
X98060858Y-61106758D01*
X97911006Y-61044687D01*
X97887557Y-61037574D01*
X97863171Y-61035172D01*
X97838785Y-61037574D01*
X97815336Y-61044687D01*
X97793726Y-61056238D01*
X97774784Y-61071783D01*
X97759238Y-61090725D01*
X97747687Y-61112336D01*
X97740574Y-61135785D01*
X97738172Y-61160171D01*
X97740574Y-61184557D01*
X97747687Y-61208006D01*
X97809758Y-61357858D01*
X97841000Y-61514925D01*
X97841000Y-61675075D01*
X97809758Y-61832142D01*
X97747687Y-61981994D01*
X97740574Y-62005443D01*
X97738172Y-62029829D01*
X97740574Y-62054215D01*
X97747687Y-62077664D01*
X97759238Y-62099274D01*
X97774783Y-62118216D01*
X97793725Y-62133762D01*
X97815336Y-62145313D01*
X97838785Y-62152426D01*
X97863171Y-62154828D01*
X97887557Y-62152426D01*
X97911006Y-62145313D01*
X98060858Y-62083242D01*
X98217925Y-62052000D01*
X98378075Y-62052000D01*
X98535142Y-62083242D01*
X98683101Y-62144529D01*
X98816255Y-62233499D01*
X98929501Y-62346745D01*
X99018471Y-62479899D01*
X99079758Y-62627858D01*
X99111000Y-62784925D01*
X99111000Y-62945075D01*
X99079758Y-63102142D01*
X99018471Y-63250101D01*
X98929501Y-63383255D01*
X98816255Y-63496501D01*
X98683101Y-63585471D01*
X98535142Y-63646758D01*
X98378075Y-63678000D01*
X98217925Y-63678000D01*
X98060858Y-63646758D01*
X97911006Y-63584687D01*
X97887557Y-63577574D01*
X97863171Y-63575172D01*
X97838785Y-63577574D01*
X97815336Y-63584687D01*
X97793726Y-63596238D01*
X97774784Y-63611783D01*
X97759238Y-63630725D01*
X97747687Y-63652336D01*
X97740574Y-63675785D01*
X97738172Y-63700171D01*
X97740574Y-63724557D01*
X97747687Y-63748006D01*
X97809758Y-63897858D01*
X97841000Y-64054925D01*
X97841000Y-64215075D01*
X97809758Y-64372142D01*
X97747687Y-64521994D01*
X97740574Y-64545443D01*
X97738172Y-64569829D01*
X97740574Y-64594215D01*
X97747687Y-64617664D01*
X97759238Y-64639274D01*
X97774783Y-64658216D01*
X97793725Y-64673762D01*
X97815336Y-64685313D01*
X97838785Y-64692426D01*
X97863171Y-64694828D01*
X97887557Y-64692426D01*
X97911006Y-64685313D01*
X98060858Y-64623242D01*
X98217925Y-64592000D01*
X98378075Y-64592000D01*
X98535142Y-64623242D01*
X98683101Y-64684529D01*
X98816255Y-64773499D01*
X98929501Y-64886745D01*
X99018471Y-65019899D01*
X99079758Y-65167858D01*
X99111000Y-65324925D01*
X99111000Y-65485075D01*
X99079758Y-65642142D01*
X99018471Y-65790101D01*
X98929501Y-65923255D01*
X98816255Y-66036501D01*
X98683101Y-66125471D01*
X98535142Y-66186758D01*
X98378075Y-66218000D01*
X98217925Y-66218000D01*
X98060858Y-66186758D01*
X97911006Y-66124687D01*
X97887557Y-66117574D01*
X97863171Y-66115172D01*
X97838785Y-66117574D01*
X97815336Y-66124687D01*
X97793726Y-66136238D01*
X97774784Y-66151783D01*
X97759238Y-66170725D01*
X97747687Y-66192336D01*
X97740574Y-66215785D01*
X97738172Y-66240171D01*
X97740574Y-66264557D01*
X97747687Y-66288006D01*
X97809758Y-66437858D01*
X97841000Y-66594925D01*
X97841000Y-66755075D01*
X97809758Y-66912142D01*
X97747687Y-67061994D01*
X97740574Y-67085443D01*
X97738172Y-67109829D01*
X97740574Y-67134215D01*
X97747687Y-67157664D01*
X97759238Y-67179274D01*
X97774783Y-67198216D01*
X97793725Y-67213762D01*
X97815336Y-67225313D01*
X97838785Y-67232426D01*
X97863171Y-67234828D01*
X97887557Y-67232426D01*
X97911006Y-67225313D01*
X98060858Y-67163242D01*
X98217925Y-67132000D01*
X98378075Y-67132000D01*
X98535142Y-67163242D01*
X98683101Y-67224529D01*
X98816255Y-67313499D01*
X98929501Y-67426745D01*
X99018471Y-67559899D01*
X99079758Y-67707858D01*
X99111000Y-67864925D01*
X99111000Y-68025075D01*
X99079758Y-68182142D01*
X99018471Y-68330101D01*
X98929501Y-68463255D01*
X98816255Y-68576501D01*
X98683101Y-68665471D01*
X98535142Y-68726758D01*
X98378075Y-68758000D01*
X98217925Y-68758000D01*
X98060858Y-68726758D01*
X97911006Y-68664687D01*
X97887557Y-68657574D01*
X97863171Y-68655172D01*
X97838785Y-68657574D01*
X97815336Y-68664687D01*
X97793726Y-68676238D01*
X97774784Y-68691783D01*
X97759238Y-68710725D01*
X97747687Y-68732336D01*
X97740574Y-68755785D01*
X97738172Y-68780171D01*
X97740574Y-68804557D01*
X97747687Y-68828006D01*
X97809758Y-68977858D01*
X97841000Y-69134925D01*
X97841000Y-69295075D01*
X97809758Y-69452142D01*
X97747687Y-69601994D01*
X97740574Y-69625443D01*
X97738172Y-69649829D01*
X97740574Y-69674215D01*
X97747687Y-69697664D01*
X97759238Y-69719274D01*
X97774783Y-69738216D01*
X97793725Y-69753762D01*
X97815336Y-69765313D01*
X97838785Y-69772426D01*
X97863171Y-69774828D01*
X97887557Y-69772426D01*
X97911006Y-69765313D01*
X98060858Y-69703242D01*
X98217925Y-69672000D01*
X98378075Y-69672000D01*
X98535142Y-69703242D01*
X98683101Y-69764529D01*
X98816255Y-69853499D01*
X98929501Y-69966745D01*
X99018471Y-70099899D01*
X99079758Y-70247858D01*
X99111000Y-70404925D01*
X99111000Y-70565075D01*
X99079758Y-70722142D01*
X99018471Y-70870101D01*
X98929501Y-71003255D01*
X98816255Y-71116501D01*
X98683101Y-71205471D01*
X98535142Y-71266758D01*
X98378075Y-71298000D01*
X98217925Y-71298000D01*
X98060858Y-71266758D01*
X97911006Y-71204687D01*
X97887557Y-71197574D01*
X97863171Y-71195172D01*
X97838785Y-71197574D01*
X97815336Y-71204687D01*
X97793726Y-71216238D01*
X97774784Y-71231783D01*
X97759238Y-71250725D01*
X97747687Y-71272336D01*
X97740574Y-71295785D01*
X97738172Y-71320171D01*
X97740574Y-71344557D01*
X97747687Y-71368006D01*
X97809758Y-71517858D01*
X97841000Y-71674925D01*
X97841000Y-71835075D01*
X97809758Y-71992142D01*
X97747687Y-72141994D01*
X97740574Y-72165443D01*
X97738172Y-72189829D01*
X97740574Y-72214215D01*
X97747687Y-72237664D01*
X97759238Y-72259274D01*
X97774783Y-72278216D01*
X97793725Y-72293762D01*
X97815336Y-72305313D01*
X97838785Y-72312426D01*
X97863171Y-72314828D01*
X97887557Y-72312426D01*
X97911006Y-72305313D01*
X98060858Y-72243242D01*
X98217925Y-72212000D01*
X98378075Y-72212000D01*
X98535142Y-72243242D01*
X98683101Y-72304529D01*
X98816255Y-72393499D01*
X98929501Y-72506745D01*
X99018471Y-72639899D01*
X99079758Y-72787858D01*
X99111000Y-72944925D01*
X99111000Y-73105075D01*
X99079758Y-73262142D01*
X99018471Y-73410101D01*
X98929501Y-73543255D01*
X98816255Y-73656501D01*
X98683101Y-73745471D01*
X98535142Y-73806758D01*
X98378075Y-73838000D01*
X98217925Y-73838000D01*
X98060858Y-73806758D01*
X97911006Y-73744687D01*
X97887557Y-73737574D01*
X97863171Y-73735172D01*
X97838785Y-73737574D01*
X97815336Y-73744687D01*
X97793726Y-73756238D01*
X97774784Y-73771783D01*
X97759238Y-73790725D01*
X97747687Y-73812336D01*
X97740574Y-73835785D01*
X97738172Y-73860171D01*
X97740574Y-73884557D01*
X97747687Y-73908006D01*
X97809758Y-74057858D01*
X97841000Y-74214925D01*
X97841000Y-74375075D01*
X97809758Y-74532142D01*
X97747687Y-74681994D01*
X97740574Y-74705443D01*
X97738172Y-74729829D01*
X97740574Y-74754215D01*
X97747687Y-74777664D01*
X97759238Y-74799274D01*
X97774783Y-74818216D01*
X97793725Y-74833762D01*
X97815336Y-74845313D01*
X97838785Y-74852426D01*
X97863171Y-74854828D01*
X97887557Y-74852426D01*
X97911006Y-74845313D01*
X98060858Y-74783242D01*
X98217925Y-74752000D01*
X98378075Y-74752000D01*
X98535142Y-74783242D01*
X98683101Y-74844529D01*
X98816255Y-74933499D01*
X98929501Y-75046745D01*
X99018471Y-75179899D01*
X99079758Y-75327858D01*
X99111000Y-75484925D01*
X99111000Y-75645075D01*
X99079758Y-75802142D01*
X99018471Y-75950101D01*
X98929501Y-76083255D01*
X98816255Y-76196501D01*
X98683101Y-76285471D01*
X98535142Y-76346758D01*
X98378075Y-76378000D01*
X98217925Y-76378000D01*
X98060858Y-76346758D01*
X97912899Y-76285471D01*
X97779745Y-76196501D01*
X97666499Y-76083255D01*
X97577529Y-75950101D01*
X97516242Y-75802142D01*
X97485000Y-75645075D01*
X97485000Y-75484925D01*
X97516242Y-75327858D01*
X97578313Y-75178006D01*
X97585426Y-75154557D01*
X97587828Y-75130171D01*
X97585426Y-75105785D01*
X97578313Y-75082336D01*
X97566762Y-75060726D01*
X97551217Y-75041784D01*
X97532275Y-75026238D01*
X97510664Y-75014687D01*
X97487215Y-75007574D01*
X97462829Y-75005172D01*
X97438443Y-75007574D01*
X97414994Y-75014687D01*
X97265142Y-75076758D01*
X97108075Y-75108000D01*
X96947925Y-75108000D01*
X96790858Y-75076758D01*
X96642899Y-75015471D01*
X96509745Y-74926501D01*
X96396499Y-74813255D01*
X96307529Y-74680101D01*
X96246242Y-74532142D01*
X96215000Y-74375075D01*
X96215000Y-74214925D01*
X96246242Y-74057858D01*
X96307529Y-73909899D01*
X96396499Y-73776745D01*
X96509745Y-73663499D01*
X96642899Y-73574529D01*
X96790858Y-73513242D01*
X96947925Y-73482000D01*
X97108075Y-73482000D01*
X97265142Y-73513242D01*
X97414994Y-73575313D01*
X97438443Y-73582426D01*
X97462829Y-73584828D01*
X97487215Y-73582426D01*
X97510664Y-73575313D01*
X97532274Y-73563762D01*
X97551216Y-73548217D01*
X97566762Y-73529275D01*
X97578313Y-73507664D01*
X97585426Y-73484215D01*
X97587828Y-73459829D01*
X97585426Y-73435443D01*
X97578313Y-73411994D01*
X97516242Y-73262142D01*
X97485000Y-73105075D01*
X97485000Y-72944925D01*
X97516242Y-72787858D01*
X97578313Y-72638006D01*
X97585426Y-72614557D01*
X97587828Y-72590171D01*
X97585426Y-72565785D01*
X97578313Y-72542336D01*
X97566762Y-72520726D01*
X97551217Y-72501784D01*
X97532275Y-72486238D01*
X97510664Y-72474687D01*
X97487215Y-72467574D01*
X97462829Y-72465172D01*
X97438443Y-72467574D01*
X97414994Y-72474687D01*
X97265142Y-72536758D01*
X97108075Y-72568000D01*
X96947925Y-72568000D01*
X96790858Y-72536758D01*
X96642899Y-72475471D01*
X96509745Y-72386501D01*
X96396499Y-72273255D01*
X96307529Y-72140101D01*
X96246242Y-71992142D01*
X96215000Y-71835075D01*
X96215000Y-71674925D01*
X96246242Y-71517858D01*
X96307529Y-71369899D01*
X96396499Y-71236745D01*
X96509745Y-71123499D01*
X96642899Y-71034529D01*
X96790858Y-70973242D01*
X96947925Y-70942000D01*
X97108075Y-70942000D01*
X97265142Y-70973242D01*
X97414994Y-71035313D01*
X97438443Y-71042426D01*
X97462829Y-71044828D01*
X97487215Y-71042426D01*
X97510664Y-71035313D01*
X97532274Y-71023762D01*
X97551216Y-71008217D01*
X97566762Y-70989275D01*
X97578313Y-70967664D01*
X97585426Y-70944215D01*
X97587828Y-70919829D01*
X97585426Y-70895443D01*
X97578313Y-70871994D01*
X97516242Y-70722142D01*
X97485000Y-70565075D01*
X97485000Y-70404925D01*
X97516242Y-70247858D01*
X97578313Y-70098006D01*
X97585426Y-70074557D01*
X97587828Y-70050171D01*
X97585426Y-70025785D01*
X97578313Y-70002336D01*
X97566762Y-69980726D01*
X97551217Y-69961784D01*
X97532275Y-69946238D01*
X97510664Y-69934687D01*
X97487215Y-69927574D01*
X97462829Y-69925172D01*
X97438443Y-69927574D01*
X97414994Y-69934687D01*
X97265142Y-69996758D01*
X97108075Y-70028000D01*
X96947925Y-70028000D01*
X96790858Y-69996758D01*
X96642899Y-69935471D01*
X96509745Y-69846501D01*
X96396499Y-69733255D01*
X96307529Y-69600101D01*
X96246242Y-69452142D01*
X96215000Y-69295075D01*
X96215000Y-69134925D01*
X96246242Y-68977858D01*
X96307529Y-68829899D01*
X96396499Y-68696745D01*
X96509745Y-68583499D01*
X96642899Y-68494529D01*
X96790858Y-68433242D01*
X96947925Y-68402000D01*
X97108075Y-68402000D01*
X97265142Y-68433242D01*
X97414994Y-68495313D01*
X97438443Y-68502426D01*
X97462829Y-68504828D01*
X97487215Y-68502426D01*
X97510664Y-68495313D01*
X97532274Y-68483762D01*
X97551216Y-68468217D01*
X97566762Y-68449275D01*
X97578313Y-68427664D01*
X97585426Y-68404215D01*
X97587828Y-68379829D01*
X97585426Y-68355443D01*
X97578313Y-68331994D01*
X97516242Y-68182142D01*
X97485000Y-68025075D01*
X97485000Y-67864925D01*
X97516242Y-67707858D01*
X97578313Y-67558006D01*
X97585426Y-67534557D01*
X97587828Y-67510171D01*
X97585426Y-67485785D01*
X97578313Y-67462336D01*
X97566762Y-67440726D01*
X97551217Y-67421784D01*
X97532275Y-67406238D01*
X97510664Y-67394687D01*
X97487215Y-67387574D01*
X97462829Y-67385172D01*
X97438443Y-67387574D01*
X97414994Y-67394687D01*
X97265142Y-67456758D01*
X97108075Y-67488000D01*
X96947925Y-67488000D01*
X96790858Y-67456758D01*
X96642899Y-67395471D01*
X96509745Y-67306501D01*
X96396499Y-67193255D01*
X96307529Y-67060101D01*
X96246242Y-66912142D01*
X96215000Y-66755075D01*
X96215000Y-66594925D01*
X96246242Y-66437858D01*
X96307529Y-66289899D01*
X96396499Y-66156745D01*
X96509745Y-66043499D01*
X96642899Y-65954529D01*
X96790858Y-65893242D01*
X96947925Y-65862000D01*
X97108075Y-65862000D01*
X97265142Y-65893242D01*
X97414994Y-65955313D01*
X97438443Y-65962426D01*
X97462829Y-65964828D01*
X97487215Y-65962426D01*
X97510664Y-65955313D01*
X97532274Y-65943762D01*
X97551216Y-65928217D01*
X97566762Y-65909275D01*
X97578313Y-65887664D01*
X97585426Y-65864215D01*
X97587828Y-65839829D01*
X97585426Y-65815443D01*
X97578313Y-65791994D01*
X97516242Y-65642142D01*
X97485000Y-65485075D01*
X97485000Y-65324925D01*
X97516242Y-65167858D01*
X97578313Y-65018006D01*
X97585426Y-64994557D01*
X97587828Y-64970171D01*
X97585426Y-64945785D01*
X97578313Y-64922336D01*
X97566762Y-64900726D01*
X97551217Y-64881784D01*
X97532275Y-64866238D01*
X97510664Y-64854687D01*
X97487215Y-64847574D01*
X97462829Y-64845172D01*
X97438443Y-64847574D01*
X97414994Y-64854687D01*
X97265142Y-64916758D01*
X97108075Y-64948000D01*
X96947925Y-64948000D01*
X96790858Y-64916758D01*
X96642899Y-64855471D01*
X96509745Y-64766501D01*
X96396499Y-64653255D01*
X96307529Y-64520101D01*
X96246242Y-64372142D01*
X96215000Y-64215075D01*
X96215000Y-64054925D01*
X96246242Y-63897858D01*
X96307529Y-63749899D01*
X96396499Y-63616745D01*
X96509745Y-63503499D01*
X96642899Y-63414529D01*
X96790858Y-63353242D01*
X96947925Y-63322000D01*
X97108075Y-63322000D01*
X97265142Y-63353242D01*
X97414994Y-63415313D01*
X97438443Y-63422426D01*
X97462829Y-63424828D01*
X97487215Y-63422426D01*
X97510664Y-63415313D01*
X97532274Y-63403762D01*
X97551216Y-63388217D01*
X97566762Y-63369275D01*
X97578313Y-63347664D01*
X97585426Y-63324215D01*
X97587828Y-63299829D01*
X97585426Y-63275443D01*
X97578313Y-63251994D01*
X97516242Y-63102142D01*
X97485000Y-62945075D01*
X97485000Y-62784925D01*
X97516242Y-62627858D01*
X97578313Y-62478006D01*
X97585426Y-62454557D01*
X97587828Y-62430171D01*
X97585426Y-62405785D01*
X97578313Y-62382336D01*
X97566762Y-62360726D01*
X97551217Y-62341784D01*
X97532275Y-62326238D01*
X97510664Y-62314687D01*
X97487215Y-62307574D01*
X97462829Y-62305172D01*
X97438443Y-62307574D01*
X97414994Y-62314687D01*
X97265142Y-62376758D01*
X97108075Y-62408000D01*
X96947925Y-62408000D01*
X96790858Y-62376758D01*
X96642899Y-62315471D01*
X96509745Y-62226501D01*
X96396499Y-62113255D01*
X96307529Y-61980101D01*
X96246242Y-61832142D01*
X96215000Y-61675075D01*
X96215000Y-61514925D01*
X96246242Y-61357858D01*
X96307529Y-61209899D01*
X96396499Y-61076745D01*
X96509745Y-60963499D01*
X96642899Y-60874529D01*
X96790858Y-60813242D01*
X96947925Y-60782000D01*
X97108075Y-60782000D01*
X97265142Y-60813242D01*
X97414994Y-60875313D01*
X97438443Y-60882426D01*
X97462829Y-60884828D01*
X97487215Y-60882426D01*
X97510664Y-60875313D01*
X97532274Y-60863762D01*
X97551216Y-60848217D01*
X97566762Y-60829275D01*
X97578313Y-60807664D01*
X97585426Y-60784215D01*
X97587828Y-60759829D01*
X97585426Y-60735443D01*
X97578313Y-60711994D01*
X97516242Y-60562142D01*
X97485000Y-60405075D01*
X97485000Y-60244925D01*
X97516242Y-60087858D01*
X97578313Y-59938006D01*
X97585426Y-59914557D01*
X97587828Y-59890171D01*
X97585426Y-59865785D01*
X97578313Y-59842336D01*
X97566762Y-59820726D01*
X97551217Y-59801784D01*
X97532275Y-59786238D01*
X97510664Y-59774687D01*
X97487215Y-59767574D01*
X97462829Y-59765172D01*
X97438443Y-59767574D01*
X97414994Y-59774687D01*
X97265142Y-59836758D01*
X97108075Y-59868000D01*
X96947925Y-59868000D01*
X96790858Y-59836758D01*
X96642899Y-59775471D01*
X96509745Y-59686501D01*
X96396499Y-59573255D01*
X96307529Y-59440101D01*
X96246242Y-59292142D01*
X96215000Y-59135075D01*
X96215000Y-58974925D01*
X96246242Y-58817858D01*
X96307529Y-58669899D01*
X96396499Y-58536745D01*
X96509745Y-58423499D01*
X96642899Y-58334529D01*
X96790858Y-58273242D01*
X96947925Y-58242000D01*
X97108075Y-58242000D01*
X97265142Y-58273242D01*
X97414994Y-58335313D01*
X97438443Y-58342426D01*
X97462829Y-58344828D01*
X97487215Y-58342426D01*
X97510664Y-58335313D01*
X97532274Y-58323762D01*
X97551216Y-58308217D01*
X97566762Y-58289275D01*
X97578313Y-58267664D01*
X97585426Y-58244215D01*
X97587828Y-58219829D01*
X97585426Y-58195443D01*
X97578313Y-58171994D01*
X97516242Y-58022142D01*
X97485000Y-57865075D01*
X97485000Y-57704925D01*
X97516242Y-57547858D01*
X97578313Y-57398006D01*
X97585426Y-57374557D01*
X97587828Y-57350171D01*
X97585426Y-57325785D01*
X97578313Y-57302336D01*
X97566762Y-57280726D01*
X97551217Y-57261784D01*
X97532275Y-57246238D01*
X97510664Y-57234687D01*
X97487215Y-57227574D01*
X97462829Y-57225172D01*
X97438443Y-57227574D01*
X97414994Y-57234687D01*
X97265142Y-57296758D01*
X97108075Y-57328000D01*
X96947925Y-57328000D01*
X96790858Y-57296758D01*
X96642899Y-57235471D01*
X96509745Y-57146501D01*
X96396499Y-57033255D01*
X96307529Y-56900101D01*
X96246242Y-56752142D01*
X96215000Y-56595075D01*
X96215000Y-56434925D01*
X96246242Y-56277858D01*
X96307529Y-56129899D01*
X96396499Y-55996745D01*
X96509745Y-55883499D01*
X96642899Y-55794529D01*
X96790858Y-55733242D01*
X96947925Y-55702000D01*
X97108075Y-55702000D01*
X97265142Y-55733242D01*
X97414994Y-55795313D01*
X97438443Y-55802426D01*
X97462829Y-55804828D01*
X97487215Y-55802426D01*
X97510664Y-55795313D01*
X97532274Y-55783762D01*
X97551216Y-55768217D01*
X97566762Y-55749275D01*
X97578313Y-55727664D01*
X97585426Y-55704215D01*
X97587828Y-55679829D01*
X97585426Y-55655443D01*
X97578313Y-55631994D01*
X97516242Y-55482142D01*
X97485000Y-55325075D01*
X97485000Y-55164925D01*
X97516242Y-55007858D01*
X97578313Y-54858006D01*
X97585426Y-54834557D01*
X97587828Y-54810171D01*
X97585426Y-54785785D01*
X97578313Y-54762336D01*
X97566762Y-54740726D01*
X97551217Y-54721784D01*
X97532275Y-54706238D01*
X97510664Y-54694687D01*
X97487215Y-54687574D01*
X97462829Y-54685172D01*
X97438443Y-54687574D01*
X97414994Y-54694687D01*
X97265142Y-54756758D01*
X97108075Y-54788000D01*
X96947925Y-54788000D01*
X96790858Y-54756758D01*
X96642899Y-54695471D01*
X96509745Y-54606501D01*
X96396499Y-54493255D01*
X96307529Y-54360101D01*
X96246242Y-54212142D01*
X96215000Y-54055075D01*
X96215000Y-53894925D01*
X96246242Y-53737858D01*
X96307529Y-53589899D01*
X96396499Y-53456745D01*
X96509745Y-53343499D01*
X96642899Y-53254529D01*
X96790858Y-53193242D01*
X96947925Y-53162000D01*
X97108075Y-53162000D01*
X97265142Y-53193242D01*
X97414994Y-53255313D01*
X97438443Y-53262426D01*
X97462829Y-53264828D01*
X97487215Y-53262426D01*
X97510664Y-53255313D01*
X97532274Y-53243762D01*
X97551216Y-53228217D01*
X97566762Y-53209275D01*
X97578313Y-53187664D01*
X97585426Y-53164215D01*
X97587828Y-53139829D01*
X97585426Y-53115443D01*
X97578313Y-53091994D01*
X97516242Y-52942142D01*
X97485000Y-52785075D01*
X97485000Y-52624925D01*
X97516242Y-52467858D01*
X97578313Y-52318006D01*
X97585426Y-52294557D01*
X97587828Y-52270171D01*
X97585426Y-52245785D01*
X97578313Y-52222336D01*
X97566762Y-52200726D01*
X97551217Y-52181784D01*
X97532275Y-52166238D01*
X97510664Y-52154687D01*
X97487215Y-52147574D01*
X97462829Y-52145172D01*
X97438443Y-52147574D01*
X97414994Y-52154687D01*
X97265142Y-52216758D01*
X97108075Y-52248000D01*
X96947925Y-52248000D01*
X96790858Y-52216758D01*
X96642899Y-52155471D01*
X96509745Y-52066501D01*
X96396499Y-51953255D01*
X96307529Y-51820101D01*
X96246242Y-51672142D01*
X96215000Y-51515075D01*
X96215000Y-51354925D01*
X96246242Y-51197858D01*
X96307529Y-51049899D01*
X96396499Y-50916745D01*
X96509745Y-50803499D01*
X96642899Y-50714529D01*
X96790858Y-50653242D01*
X96947925Y-50622000D01*
X97108075Y-50622000D01*
X97265142Y-50653242D01*
X97414994Y-50715313D01*
X97438443Y-50722426D01*
X97462829Y-50724828D01*
X97487215Y-50722426D01*
X97510664Y-50715313D01*
X97532274Y-50703762D01*
X97551216Y-50688217D01*
X97566762Y-50669275D01*
X97578313Y-50647664D01*
X97585426Y-50624215D01*
X97587828Y-50599829D01*
X97585426Y-50575443D01*
X97578313Y-50551994D01*
X97516242Y-50402142D01*
X97485000Y-50245075D01*
X97485000Y-50084925D01*
X97516242Y-49927858D01*
X97577529Y-49779899D01*
X97666499Y-49646745D01*
X97779745Y-49533499D01*
X97912899Y-49444529D01*
X98060858Y-49383242D01*
X98217925Y-49352000D01*
X98378075Y-49352000D01*
X98535142Y-49383242D01*
G37*
G36*
X52487599Y-75889800D02*
G01*
X48885599Y-75889800D01*
X48885599Y-74087800D01*
X52487599Y-74087800D01*
X52487599Y-75889800D01*
G37*
G36*
X72067599Y-75889800D02*
G01*
X68465599Y-75889800D01*
X68465599Y-74087800D01*
X72067599Y-74087800D01*
X72067599Y-75889800D01*
G37*
G36*
X85734000Y-75823000D02*
G01*
X84732000Y-75823000D01*
X84732000Y-74921000D01*
X85734000Y-74921000D01*
X85734000Y-75823000D01*
G37*
G36*
X87734000Y-74873000D02*
G01*
X86732000Y-74873000D01*
X86732000Y-73971000D01*
X87734000Y-73971000D01*
X87734000Y-74873000D01*
G37*
G36*
X140058000Y-74807000D02*
G01*
X139056000Y-74807000D01*
X139056000Y-73905000D01*
X140058000Y-73905000D01*
X140058000Y-74807000D01*
G37*
G36*
X85734000Y-73923000D02*
G01*
X84732000Y-73923000D01*
X84732000Y-73021000D01*
X85734000Y-73021000D01*
X85734000Y-73923000D01*
G37*
G36*
X138058000Y-73857000D02*
G01*
X137056000Y-73857000D01*
X137056000Y-72955000D01*
X138058000Y-72955000D01*
X138058000Y-73857000D01*
G37*
G36*
X123697242Y-72278404D02*
G01*
X123734337Y-72289657D01*
X123768515Y-72307925D01*
X123798481Y-72332519D01*
X123823075Y-72362485D01*
X123841343Y-72396663D01*
X123852596Y-72433758D01*
X123857000Y-72478474D01*
X123857000Y-73571526D01*
X123852596Y-73616242D01*
X123841343Y-73653337D01*
X123823075Y-73687515D01*
X123798481Y-73717481D01*
X123768515Y-73742075D01*
X123734337Y-73760343D01*
X123697242Y-73771596D01*
X123652526Y-73776000D01*
X122759474Y-73776000D01*
X122714758Y-73771596D01*
X122677663Y-73760343D01*
X122643485Y-73742075D01*
X122613519Y-73717481D01*
X122588925Y-73687515D01*
X122570657Y-73653337D01*
X122559404Y-73616242D01*
X122555000Y-73571526D01*
X122555000Y-72478474D01*
X122559404Y-72433758D01*
X122570657Y-72396663D01*
X122588925Y-72362485D01*
X122613519Y-72332519D01*
X122643485Y-72307925D01*
X122677663Y-72289657D01*
X122714758Y-72278404D01*
X122759474Y-72274000D01*
X123652526Y-72274000D01*
X123697242Y-72278404D01*
G37*
G36*
X125697242Y-72278404D02*
G01*
X125734337Y-72289657D01*
X125768515Y-72307925D01*
X125798481Y-72332519D01*
X125823075Y-72362485D01*
X125841343Y-72396663D01*
X125852596Y-72433758D01*
X125857000Y-72478474D01*
X125857000Y-73571526D01*
X125852596Y-73616242D01*
X125841343Y-73653337D01*
X125823075Y-73687515D01*
X125798481Y-73717481D01*
X125768515Y-73742075D01*
X125734337Y-73760343D01*
X125697242Y-73771596D01*
X125652526Y-73776000D01*
X124759474Y-73776000D01*
X124714758Y-73771596D01*
X124677663Y-73760343D01*
X124643485Y-73742075D01*
X124613519Y-73717481D01*
X124588925Y-73687515D01*
X124570657Y-73653337D01*
X124559404Y-73616242D01*
X124555000Y-73571526D01*
X124555000Y-72478474D01*
X124559404Y-72433758D01*
X124570657Y-72396663D01*
X124588925Y-72362485D01*
X124613519Y-72332519D01*
X124643485Y-72307925D01*
X124677663Y-72289657D01*
X124714758Y-72278404D01*
X124759474Y-72274000D01*
X125652526Y-72274000D01*
X125697242Y-72278404D01*
G37*
G36*
X52487599Y-73349800D02*
G01*
X48885599Y-73349800D01*
X48885599Y-71547800D01*
X52487599Y-71547800D01*
X52487599Y-73349800D01*
G37*
G36*
X72067599Y-73349800D02*
G01*
X68465599Y-73349800D01*
X68465599Y-71547800D01*
X72067599Y-71547800D01*
X72067599Y-73349800D01*
G37*
G36*
X134978000Y-73156000D02*
G01*
X133976000Y-73156000D01*
X133976000Y-72254000D01*
X134978000Y-72254000D01*
X134978000Y-73156000D01*
G37*
G36*
X140058000Y-72907000D02*
G01*
X139056000Y-72907000D01*
X139056000Y-72005000D01*
X140058000Y-72005000D01*
X140058000Y-72907000D01*
G37*
G36*
X132978000Y-72206000D02*
G01*
X131976000Y-72206000D01*
X131976000Y-71304000D01*
X132978000Y-71304000D01*
X132978000Y-72206000D01*
G37*
G36*
X85734000Y-72140000D02*
G01*
X84732000Y-72140000D01*
X84732000Y-71238000D01*
X85734000Y-71238000D01*
X85734000Y-72140000D01*
G37*
G36*
X134978000Y-71256000D02*
G01*
X133976000Y-71256000D01*
X133976000Y-70354000D01*
X134978000Y-70354000D01*
X134978000Y-71256000D01*
G37*
G36*
X125697242Y-69738404D02*
G01*
X125734337Y-69749657D01*
X125768515Y-69767925D01*
X125798481Y-69792519D01*
X125823075Y-69822485D01*
X125841343Y-69856663D01*
X125852596Y-69893758D01*
X125857000Y-69938474D01*
X125857000Y-71031526D01*
X125852596Y-71076242D01*
X125841343Y-71113337D01*
X125823075Y-71147515D01*
X125798481Y-71177481D01*
X125768515Y-71202075D01*
X125734337Y-71220343D01*
X125697242Y-71231596D01*
X125652526Y-71236000D01*
X124759474Y-71236000D01*
X124714758Y-71231596D01*
X124677663Y-71220343D01*
X124643485Y-71202075D01*
X124613519Y-71177481D01*
X124588925Y-71147515D01*
X124570657Y-71113337D01*
X124559404Y-71076242D01*
X124555000Y-71031526D01*
X124555000Y-69938474D01*
X124559404Y-69893758D01*
X124570657Y-69856663D01*
X124588925Y-69822485D01*
X124613519Y-69792519D01*
X124643485Y-69767925D01*
X124677663Y-69749657D01*
X124714758Y-69738404D01*
X124759474Y-69734000D01*
X125652526Y-69734000D01*
X125697242Y-69738404D01*
G37*
G36*
X123697242Y-69738404D02*
G01*
X123734337Y-69749657D01*
X123768515Y-69767925D01*
X123798481Y-69792519D01*
X123823075Y-69822485D01*
X123841343Y-69856663D01*
X123852596Y-69893758D01*
X123857000Y-69938474D01*
X123857000Y-71031526D01*
X123852596Y-71076242D01*
X123841343Y-71113337D01*
X123823075Y-71147515D01*
X123798481Y-71177481D01*
X123768515Y-71202075D01*
X123734337Y-71220343D01*
X123697242Y-71231596D01*
X123652526Y-71236000D01*
X122759474Y-71236000D01*
X122714758Y-71231596D01*
X122677663Y-71220343D01*
X122643485Y-71202075D01*
X122613519Y-71177481D01*
X122588925Y-71147515D01*
X122570657Y-71113337D01*
X122559404Y-71076242D01*
X122555000Y-71031526D01*
X122555000Y-69938474D01*
X122559404Y-69893758D01*
X122570657Y-69856663D01*
X122588925Y-69822485D01*
X122613519Y-69792519D01*
X122643485Y-69767925D01*
X122677663Y-69749657D01*
X122714758Y-69738404D01*
X122759474Y-69734000D01*
X123652526Y-69734000D01*
X123697242Y-69738404D01*
G37*
G36*
X87734000Y-71190000D02*
G01*
X86732000Y-71190000D01*
X86732000Y-70288000D01*
X87734000Y-70288000D01*
X87734000Y-71190000D01*
G37*
G36*
X52487599Y-70809800D02*
G01*
X48885599Y-70809800D01*
X48885599Y-69007800D01*
X52487599Y-69007800D01*
X52487599Y-70809800D01*
G37*
G36*
X72067599Y-70809800D02*
G01*
X68465599Y-70809800D01*
X68465599Y-69007800D01*
X72067599Y-69007800D01*
X72067599Y-70809800D01*
G37*
G36*
X140058000Y-70616000D02*
G01*
X139056000Y-70616000D01*
X139056000Y-69714000D01*
X140058000Y-69714000D01*
X140058000Y-70616000D01*
G37*
G36*
X85734000Y-70240000D02*
G01*
X84732000Y-70240000D01*
X84732000Y-69338000D01*
X85734000Y-69338000D01*
X85734000Y-70240000D01*
G37*
G36*
X92582242Y-68468404D02*
G01*
X92619337Y-68479657D01*
X92653515Y-68497925D01*
X92683481Y-68522519D01*
X92708075Y-68552485D01*
X92726343Y-68586663D01*
X92737596Y-68623758D01*
X92742000Y-68668474D01*
X92742000Y-69761526D01*
X92737596Y-69806242D01*
X92726343Y-69843337D01*
X92708075Y-69877515D01*
X92683481Y-69907481D01*
X92653515Y-69932075D01*
X92619337Y-69950343D01*
X92582242Y-69961596D01*
X92537526Y-69966000D01*
X91644474Y-69966000D01*
X91599758Y-69961596D01*
X91562663Y-69950343D01*
X91528485Y-69932075D01*
X91498519Y-69907481D01*
X91473925Y-69877515D01*
X91455657Y-69843337D01*
X91444404Y-69806242D01*
X91440000Y-69761526D01*
X91440000Y-68668474D01*
X91444404Y-68623758D01*
X91455657Y-68586663D01*
X91473925Y-68552485D01*
X91498519Y-68522519D01*
X91528485Y-68497925D01*
X91562663Y-68479657D01*
X91599758Y-68468404D01*
X91644474Y-68464000D01*
X92537526Y-68464000D01*
X92582242Y-68468404D01*
G37*
G36*
X94582242Y-68468404D02*
G01*
X94619337Y-68479657D01*
X94653515Y-68497925D01*
X94683481Y-68522519D01*
X94708075Y-68552485D01*
X94726343Y-68586663D01*
X94737596Y-68623758D01*
X94742000Y-68668474D01*
X94742000Y-69761526D01*
X94737596Y-69806242D01*
X94726343Y-69843337D01*
X94708075Y-69877515D01*
X94683481Y-69907481D01*
X94653515Y-69932075D01*
X94619337Y-69950343D01*
X94582242Y-69961596D01*
X94537526Y-69966000D01*
X93644474Y-69966000D01*
X93599758Y-69961596D01*
X93562663Y-69950343D01*
X93528485Y-69932075D01*
X93498519Y-69907481D01*
X93473925Y-69877515D01*
X93455657Y-69843337D01*
X93444404Y-69806242D01*
X93440000Y-69761526D01*
X93440000Y-68668474D01*
X93444404Y-68623758D01*
X93455657Y-68586663D01*
X93473925Y-68552485D01*
X93498519Y-68522519D01*
X93528485Y-68497925D01*
X93562663Y-68479657D01*
X93599758Y-68468404D01*
X93644474Y-68464000D01*
X94537526Y-68464000D01*
X94582242Y-68468404D01*
G37*
G36*
X138058000Y-69666000D02*
G01*
X137056000Y-69666000D01*
X137056000Y-68764000D01*
X138058000Y-68764000D01*
X138058000Y-69666000D01*
G37*
G36*
X140058000Y-68716000D02*
G01*
X139056000Y-68716000D01*
X139056000Y-67814000D01*
X140058000Y-67814000D01*
X140058000Y-68716000D01*
G37*
G36*
X125697242Y-67198404D02*
G01*
X125734337Y-67209657D01*
X125768515Y-67227925D01*
X125798481Y-67252519D01*
X125823075Y-67282485D01*
X125841343Y-67316663D01*
X125852596Y-67353758D01*
X125857000Y-67398474D01*
X125857000Y-68491526D01*
X125852596Y-68536242D01*
X125841343Y-68573337D01*
X125823075Y-68607515D01*
X125798481Y-68637481D01*
X125768515Y-68662075D01*
X125734337Y-68680343D01*
X125697242Y-68691596D01*
X125652526Y-68696000D01*
X124759474Y-68696000D01*
X124714758Y-68691596D01*
X124677663Y-68680343D01*
X124643485Y-68662075D01*
X124613519Y-68637481D01*
X124588925Y-68607515D01*
X124570657Y-68573337D01*
X124559404Y-68536242D01*
X124555000Y-68491526D01*
X124555000Y-67398474D01*
X124559404Y-67353758D01*
X124570657Y-67316663D01*
X124588925Y-67282485D01*
X124613519Y-67252519D01*
X124643485Y-67227925D01*
X124677663Y-67209657D01*
X124714758Y-67198404D01*
X124759474Y-67194000D01*
X125652526Y-67194000D01*
X125697242Y-67198404D01*
G37*
G36*
X123697242Y-67198404D02*
G01*
X123734337Y-67209657D01*
X123768515Y-67227925D01*
X123798481Y-67252519D01*
X123823075Y-67282485D01*
X123841343Y-67316663D01*
X123852596Y-67353758D01*
X123857000Y-67398474D01*
X123857000Y-68491526D01*
X123852596Y-68536242D01*
X123841343Y-68573337D01*
X123823075Y-68607515D01*
X123798481Y-68637481D01*
X123768515Y-68662075D01*
X123734337Y-68680343D01*
X123697242Y-68691596D01*
X123652526Y-68696000D01*
X122759474Y-68696000D01*
X122714758Y-68691596D01*
X122677663Y-68680343D01*
X122643485Y-68662075D01*
X122613519Y-68637481D01*
X122588925Y-68607515D01*
X122570657Y-68573337D01*
X122559404Y-68536242D01*
X122555000Y-68491526D01*
X122555000Y-67398474D01*
X122559404Y-67353758D01*
X122570657Y-67316663D01*
X122588925Y-67282485D01*
X122613519Y-67252519D01*
X122643485Y-67227925D01*
X122677663Y-67209657D01*
X122714758Y-67198404D01*
X122759474Y-67194000D01*
X123652526Y-67194000D01*
X123697242Y-67198404D01*
G37*
G36*
X85734000Y-68457000D02*
G01*
X84732000Y-68457000D01*
X84732000Y-67555000D01*
X85734000Y-67555000D01*
X85734000Y-68457000D01*
G37*
G36*
X52487599Y-68269800D02*
G01*
X48885599Y-68269800D01*
X48885599Y-66467800D01*
X52487599Y-66467800D01*
X52487599Y-68269800D01*
G37*
G36*
X72067599Y-68269800D02*
G01*
X68465599Y-68269800D01*
X68465599Y-66467800D01*
X72067599Y-66467800D01*
X72067599Y-68269800D01*
G37*
G36*
X134994000Y-68269000D02*
G01*
X133992000Y-68269000D01*
X133992000Y-67367000D01*
X134994000Y-67367000D01*
X134994000Y-68269000D01*
G37*
G36*
X87734000Y-67507000D02*
G01*
X86732000Y-67507000D01*
X86732000Y-66605000D01*
X87734000Y-66605000D01*
X87734000Y-67507000D01*
G37*
G36*
X132994000Y-67319000D02*
G01*
X131992000Y-67319000D01*
X131992000Y-66417000D01*
X132994000Y-66417000D01*
X132994000Y-67319000D01*
G37*
G36*
X85734000Y-66557000D02*
G01*
X84732000Y-66557000D01*
X84732000Y-65655000D01*
X85734000Y-65655000D01*
X85734000Y-66557000D01*
G37*
G36*
X134994000Y-66369000D02*
G01*
X133992000Y-66369000D01*
X133992000Y-65467000D01*
X134994000Y-65467000D01*
X134994000Y-66369000D01*
G37*
G36*
X129761242Y-64658404D02*
G01*
X129798337Y-64669657D01*
X129832515Y-64687925D01*
X129862481Y-64712519D01*
X129887075Y-64742485D01*
X129905343Y-64776663D01*
X129916596Y-64813758D01*
X129921000Y-64858474D01*
X129921000Y-65951526D01*
X129916596Y-65996242D01*
X129905343Y-66033337D01*
X129887075Y-66067515D01*
X129862481Y-66097481D01*
X129832515Y-66122075D01*
X129798337Y-66140343D01*
X129761242Y-66151596D01*
X129716526Y-66156000D01*
X128823474Y-66156000D01*
X128778758Y-66151596D01*
X128741663Y-66140343D01*
X128707485Y-66122075D01*
X128677519Y-66097481D01*
X128652925Y-66067515D01*
X128634657Y-66033337D01*
X128623404Y-65996242D01*
X128619000Y-65951526D01*
X128619000Y-64858474D01*
X128623404Y-64813758D01*
X128634657Y-64776663D01*
X128652925Y-64742485D01*
X128677519Y-64712519D01*
X128707485Y-64687925D01*
X128741663Y-64669657D01*
X128778758Y-64658404D01*
X128823474Y-64654000D01*
X129716526Y-64654000D01*
X129761242Y-64658404D01*
G37*
G36*
X125697242Y-64658404D02*
G01*
X125734337Y-64669657D01*
X125768515Y-64687925D01*
X125798481Y-64712519D01*
X125823075Y-64742485D01*
X125841343Y-64776663D01*
X125852596Y-64813758D01*
X125857000Y-64858474D01*
X125857000Y-65951526D01*
X125852596Y-65996242D01*
X125841343Y-66033337D01*
X125823075Y-66067515D01*
X125798481Y-66097481D01*
X125768515Y-66122075D01*
X125734337Y-66140343D01*
X125697242Y-66151596D01*
X125652526Y-66156000D01*
X124759474Y-66156000D01*
X124714758Y-66151596D01*
X124677663Y-66140343D01*
X124643485Y-66122075D01*
X124613519Y-66097481D01*
X124588925Y-66067515D01*
X124570657Y-66033337D01*
X124559404Y-65996242D01*
X124555000Y-65951526D01*
X124555000Y-64858474D01*
X124559404Y-64813758D01*
X124570657Y-64776663D01*
X124588925Y-64742485D01*
X124613519Y-64712519D01*
X124643485Y-64687925D01*
X124677663Y-64669657D01*
X124714758Y-64658404D01*
X124759474Y-64654000D01*
X125652526Y-64654000D01*
X125697242Y-64658404D01*
G37*
G36*
X94582242Y-64658404D02*
G01*
X94619337Y-64669657D01*
X94653515Y-64687925D01*
X94683481Y-64712519D01*
X94708075Y-64742485D01*
X94726343Y-64776663D01*
X94737596Y-64813758D01*
X94742000Y-64858474D01*
X94742000Y-65951526D01*
X94737596Y-65996242D01*
X94726343Y-66033337D01*
X94708075Y-66067515D01*
X94683481Y-66097481D01*
X94653515Y-66122075D01*
X94619337Y-66140343D01*
X94582242Y-66151596D01*
X94537526Y-66156000D01*
X93644474Y-66156000D01*
X93599758Y-66151596D01*
X93562663Y-66140343D01*
X93528485Y-66122075D01*
X93498519Y-66097481D01*
X93473925Y-66067515D01*
X93455657Y-66033337D01*
X93444404Y-65996242D01*
X93440000Y-65951526D01*
X93440000Y-64858474D01*
X93444404Y-64813758D01*
X93455657Y-64776663D01*
X93473925Y-64742485D01*
X93498519Y-64712519D01*
X93528485Y-64687925D01*
X93562663Y-64669657D01*
X93599758Y-64658404D01*
X93644474Y-64654000D01*
X94537526Y-64654000D01*
X94582242Y-64658404D01*
G37*
G36*
X127761242Y-64658404D02*
G01*
X127798337Y-64669657D01*
X127832515Y-64687925D01*
X127862481Y-64712519D01*
X127887075Y-64742485D01*
X127905343Y-64776663D01*
X127916596Y-64813758D01*
X127921000Y-64858474D01*
X127921000Y-65951526D01*
X127916596Y-65996242D01*
X127905343Y-66033337D01*
X127887075Y-66067515D01*
X127862481Y-66097481D01*
X127832515Y-66122075D01*
X127798337Y-66140343D01*
X127761242Y-66151596D01*
X127716526Y-66156000D01*
X126823474Y-66156000D01*
X126778758Y-66151596D01*
X126741663Y-66140343D01*
X126707485Y-66122075D01*
X126677519Y-66097481D01*
X126652925Y-66067515D01*
X126634657Y-66033337D01*
X126623404Y-65996242D01*
X126619000Y-65951526D01*
X126619000Y-64858474D01*
X126623404Y-64813758D01*
X126634657Y-64776663D01*
X126652925Y-64742485D01*
X126677519Y-64712519D01*
X126707485Y-64687925D01*
X126741663Y-64669657D01*
X126778758Y-64658404D01*
X126823474Y-64654000D01*
X127716526Y-64654000D01*
X127761242Y-64658404D01*
G37*
G36*
X123697242Y-64658404D02*
G01*
X123734337Y-64669657D01*
X123768515Y-64687925D01*
X123798481Y-64712519D01*
X123823075Y-64742485D01*
X123841343Y-64776663D01*
X123852596Y-64813758D01*
X123857000Y-64858474D01*
X123857000Y-65951526D01*
X123852596Y-65996242D01*
X123841343Y-66033337D01*
X123823075Y-66067515D01*
X123798481Y-66097481D01*
X123768515Y-66122075D01*
X123734337Y-66140343D01*
X123697242Y-66151596D01*
X123652526Y-66156000D01*
X122759474Y-66156000D01*
X122714758Y-66151596D01*
X122677663Y-66140343D01*
X122643485Y-66122075D01*
X122613519Y-66097481D01*
X122588925Y-66067515D01*
X122570657Y-66033337D01*
X122559404Y-65996242D01*
X122555000Y-65951526D01*
X122555000Y-64858474D01*
X122559404Y-64813758D01*
X122570657Y-64776663D01*
X122588925Y-64742485D01*
X122613519Y-64712519D01*
X122643485Y-64687925D01*
X122677663Y-64669657D01*
X122714758Y-64658404D01*
X122759474Y-64654000D01*
X123652526Y-64654000D01*
X123697242Y-64658404D01*
G37*
G36*
X92582242Y-64658404D02*
G01*
X92619337Y-64669657D01*
X92653515Y-64687925D01*
X92683481Y-64712519D01*
X92708075Y-64742485D01*
X92726343Y-64776663D01*
X92737596Y-64813758D01*
X92742000Y-64858474D01*
X92742000Y-65951526D01*
X92737596Y-65996242D01*
X92726343Y-66033337D01*
X92708075Y-66067515D01*
X92683481Y-66097481D01*
X92653515Y-66122075D01*
X92619337Y-66140343D01*
X92582242Y-66151596D01*
X92537526Y-66156000D01*
X91644474Y-66156000D01*
X91599758Y-66151596D01*
X91562663Y-66140343D01*
X91528485Y-66122075D01*
X91498519Y-66097481D01*
X91473925Y-66067515D01*
X91455657Y-66033337D01*
X91444404Y-65996242D01*
X91440000Y-65951526D01*
X91440000Y-64858474D01*
X91444404Y-64813758D01*
X91455657Y-64776663D01*
X91473925Y-64742485D01*
X91498519Y-64712519D01*
X91528485Y-64687925D01*
X91562663Y-64669657D01*
X91599758Y-64658404D01*
X91644474Y-64654000D01*
X92537526Y-64654000D01*
X92582242Y-64658404D01*
G37*
G36*
X52487599Y-65729800D02*
G01*
X48885599Y-65729800D01*
X48885599Y-63927800D01*
X52487599Y-63927800D01*
X52487599Y-65729800D01*
G37*
G36*
X72067599Y-65729800D02*
G01*
X68465599Y-65729800D01*
X68465599Y-63927800D01*
X72067599Y-63927800D01*
X72067599Y-65729800D01*
G37*
G36*
X85734000Y-64774000D02*
G01*
X84732000Y-64774000D01*
X84732000Y-63872000D01*
X85734000Y-63872000D01*
X85734000Y-64774000D01*
G37*
G36*
X87734000Y-63824000D02*
G01*
X86732000Y-63824000D01*
X86732000Y-62922000D01*
X87734000Y-62922000D01*
X87734000Y-63824000D01*
G37*
G36*
X127761242Y-62118404D02*
G01*
X127798337Y-62129657D01*
X127832515Y-62147925D01*
X127862481Y-62172519D01*
X127887075Y-62202485D01*
X127905343Y-62236663D01*
X127916596Y-62273758D01*
X127921000Y-62318474D01*
X127921000Y-63411526D01*
X127916596Y-63456242D01*
X127905343Y-63493337D01*
X127887075Y-63527515D01*
X127862481Y-63557481D01*
X127832515Y-63582075D01*
X127798337Y-63600343D01*
X127761242Y-63611596D01*
X127716526Y-63616000D01*
X126823474Y-63616000D01*
X126778758Y-63611596D01*
X126741663Y-63600343D01*
X126707485Y-63582075D01*
X126677519Y-63557481D01*
X126652925Y-63527515D01*
X126634657Y-63493337D01*
X126623404Y-63456242D01*
X126619000Y-63411526D01*
X126619000Y-62318474D01*
X126623404Y-62273758D01*
X126634657Y-62236663D01*
X126652925Y-62202485D01*
X126677519Y-62172519D01*
X126707485Y-62147925D01*
X126741663Y-62129657D01*
X126778758Y-62118404D01*
X126823474Y-62114000D01*
X127716526Y-62114000D01*
X127761242Y-62118404D01*
G37*
G36*
X129761242Y-62118404D02*
G01*
X129798337Y-62129657D01*
X129832515Y-62147925D01*
X129862481Y-62172519D01*
X129887075Y-62202485D01*
X129905343Y-62236663D01*
X129916596Y-62273758D01*
X129921000Y-62318474D01*
X129921000Y-63411526D01*
X129916596Y-63456242D01*
X129905343Y-63493337D01*
X129887075Y-63527515D01*
X129862481Y-63557481D01*
X129832515Y-63582075D01*
X129798337Y-63600343D01*
X129761242Y-63611596D01*
X129716526Y-63616000D01*
X128823474Y-63616000D01*
X128778758Y-63611596D01*
X128741663Y-63600343D01*
X128707485Y-63582075D01*
X128677519Y-63557481D01*
X128652925Y-63527515D01*
X128634657Y-63493337D01*
X128623404Y-63456242D01*
X128619000Y-63411526D01*
X128619000Y-62318474D01*
X128623404Y-62273758D01*
X128634657Y-62236663D01*
X128652925Y-62202485D01*
X128677519Y-62172519D01*
X128707485Y-62147925D01*
X128741663Y-62129657D01*
X128778758Y-62118404D01*
X128823474Y-62114000D01*
X129716526Y-62114000D01*
X129761242Y-62118404D01*
G37*
G36*
X125697242Y-62118404D02*
G01*
X125734337Y-62129657D01*
X125768515Y-62147925D01*
X125798481Y-62172519D01*
X125823075Y-62202485D01*
X125841343Y-62236663D01*
X125852596Y-62273758D01*
X125857000Y-62318474D01*
X125857000Y-63411526D01*
X125852596Y-63456242D01*
X125841343Y-63493337D01*
X125823075Y-63527515D01*
X125798481Y-63557481D01*
X125768515Y-63582075D01*
X125734337Y-63600343D01*
X125697242Y-63611596D01*
X125652526Y-63616000D01*
X124759474Y-63616000D01*
X124714758Y-63611596D01*
X124677663Y-63600343D01*
X124643485Y-63582075D01*
X124613519Y-63557481D01*
X124588925Y-63527515D01*
X124570657Y-63493337D01*
X124559404Y-63456242D01*
X124555000Y-63411526D01*
X124555000Y-62318474D01*
X124559404Y-62273758D01*
X124570657Y-62236663D01*
X124588925Y-62202485D01*
X124613519Y-62172519D01*
X124643485Y-62147925D01*
X124677663Y-62129657D01*
X124714758Y-62118404D01*
X124759474Y-62114000D01*
X125652526Y-62114000D01*
X125697242Y-62118404D01*
G37*
G36*
X123697242Y-62118404D02*
G01*
X123734337Y-62129657D01*
X123768515Y-62147925D01*
X123798481Y-62172519D01*
X123823075Y-62202485D01*
X123841343Y-62236663D01*
X123852596Y-62273758D01*
X123857000Y-62318474D01*
X123857000Y-63411526D01*
X123852596Y-63456242D01*
X123841343Y-63493337D01*
X123823075Y-63527515D01*
X123798481Y-63557481D01*
X123768515Y-63582075D01*
X123734337Y-63600343D01*
X123697242Y-63611596D01*
X123652526Y-63616000D01*
X122759474Y-63616000D01*
X122714758Y-63611596D01*
X122677663Y-63600343D01*
X122643485Y-63582075D01*
X122613519Y-63557481D01*
X122588925Y-63527515D01*
X122570657Y-63493337D01*
X122559404Y-63456242D01*
X122555000Y-63411526D01*
X122555000Y-62318474D01*
X122559404Y-62273758D01*
X122570657Y-62236663D01*
X122588925Y-62202485D01*
X122613519Y-62172519D01*
X122643485Y-62147925D01*
X122677663Y-62129657D01*
X122714758Y-62118404D01*
X122759474Y-62114000D01*
X123652526Y-62114000D01*
X123697242Y-62118404D01*
G37*
G36*
X72067599Y-63189800D02*
G01*
X68465599Y-63189800D01*
X68465599Y-61387800D01*
X72067599Y-61387800D01*
X72067599Y-63189800D01*
G37*
G36*
X52487599Y-63189800D02*
G01*
X48885599Y-63189800D01*
X48885599Y-61387800D01*
X52487599Y-61387800D01*
X52487599Y-63189800D01*
G37*
G36*
X85734000Y-62874000D02*
G01*
X84732000Y-62874000D01*
X84732000Y-61972000D01*
X85734000Y-61972000D01*
X85734000Y-62874000D01*
G37*
G36*
X85734000Y-61091000D02*
G01*
X84732000Y-61091000D01*
X84732000Y-60189000D01*
X85734000Y-60189000D01*
X85734000Y-61091000D01*
G37*
G36*
X127761242Y-59578404D02*
G01*
X127798337Y-59589657D01*
X127832515Y-59607925D01*
X127862481Y-59632519D01*
X127887075Y-59662485D01*
X127905343Y-59696663D01*
X127916596Y-59733758D01*
X127921000Y-59778474D01*
X127921000Y-60871526D01*
X127916596Y-60916242D01*
X127905343Y-60953337D01*
X127887075Y-60987515D01*
X127862481Y-61017481D01*
X127832515Y-61042075D01*
X127798337Y-61060343D01*
X127761242Y-61071596D01*
X127716526Y-61076000D01*
X126823474Y-61076000D01*
X126778758Y-61071596D01*
X126741663Y-61060343D01*
X126707485Y-61042075D01*
X126677519Y-61017481D01*
X126652925Y-60987515D01*
X126634657Y-60953337D01*
X126623404Y-60916242D01*
X126619000Y-60871526D01*
X126619000Y-59778474D01*
X126623404Y-59733758D01*
X126634657Y-59696663D01*
X126652925Y-59662485D01*
X126677519Y-59632519D01*
X126707485Y-59607925D01*
X126741663Y-59589657D01*
X126778758Y-59578404D01*
X126823474Y-59574000D01*
X127716526Y-59574000D01*
X127761242Y-59578404D01*
G37*
G36*
X129761242Y-59578404D02*
G01*
X129798337Y-59589657D01*
X129832515Y-59607925D01*
X129862481Y-59632519D01*
X129887075Y-59662485D01*
X129905343Y-59696663D01*
X129916596Y-59733758D01*
X129921000Y-59778474D01*
X129921000Y-60871526D01*
X129916596Y-60916242D01*
X129905343Y-60953337D01*
X129887075Y-60987515D01*
X129862481Y-61017481D01*
X129832515Y-61042075D01*
X129798337Y-61060343D01*
X129761242Y-61071596D01*
X129716526Y-61076000D01*
X128823474Y-61076000D01*
X128778758Y-61071596D01*
X128741663Y-61060343D01*
X128707485Y-61042075D01*
X128677519Y-61017481D01*
X128652925Y-60987515D01*
X128634657Y-60953337D01*
X128623404Y-60916242D01*
X128619000Y-60871526D01*
X128619000Y-59778474D01*
X128623404Y-59733758D01*
X128634657Y-59696663D01*
X128652925Y-59662485D01*
X128677519Y-59632519D01*
X128707485Y-59607925D01*
X128741663Y-59589657D01*
X128778758Y-59578404D01*
X128823474Y-59574000D01*
X129716526Y-59574000D01*
X129761242Y-59578404D01*
G37*
G36*
X123697242Y-59578404D02*
G01*
X123734337Y-59589657D01*
X123768515Y-59607925D01*
X123798481Y-59632519D01*
X123823075Y-59662485D01*
X123841343Y-59696663D01*
X123852596Y-59733758D01*
X123857000Y-59778474D01*
X123857000Y-60871526D01*
X123852596Y-60916242D01*
X123841343Y-60953337D01*
X123823075Y-60987515D01*
X123798481Y-61017481D01*
X123768515Y-61042075D01*
X123734337Y-61060343D01*
X123697242Y-61071596D01*
X123652526Y-61076000D01*
X122759474Y-61076000D01*
X122714758Y-61071596D01*
X122677663Y-61060343D01*
X122643485Y-61042075D01*
X122613519Y-61017481D01*
X122588925Y-60987515D01*
X122570657Y-60953337D01*
X122559404Y-60916242D01*
X122555000Y-60871526D01*
X122555000Y-59778474D01*
X122559404Y-59733758D01*
X122570657Y-59696663D01*
X122588925Y-59662485D01*
X122613519Y-59632519D01*
X122643485Y-59607925D01*
X122677663Y-59589657D01*
X122714758Y-59578404D01*
X122759474Y-59574000D01*
X123652526Y-59574000D01*
X123697242Y-59578404D01*
G37*
G36*
X125697242Y-59578404D02*
G01*
X125734337Y-59589657D01*
X125768515Y-59607925D01*
X125798481Y-59632519D01*
X125823075Y-59662485D01*
X125841343Y-59696663D01*
X125852596Y-59733758D01*
X125857000Y-59778474D01*
X125857000Y-60871526D01*
X125852596Y-60916242D01*
X125841343Y-60953337D01*
X125823075Y-60987515D01*
X125798481Y-61017481D01*
X125768515Y-61042075D01*
X125734337Y-61060343D01*
X125697242Y-61071596D01*
X125652526Y-61076000D01*
X124759474Y-61076000D01*
X124714758Y-61071596D01*
X124677663Y-61060343D01*
X124643485Y-61042075D01*
X124613519Y-61017481D01*
X124588925Y-60987515D01*
X124570657Y-60953337D01*
X124559404Y-60916242D01*
X124555000Y-60871526D01*
X124555000Y-59778474D01*
X124559404Y-59733758D01*
X124570657Y-59696663D01*
X124588925Y-59662485D01*
X124613519Y-59632519D01*
X124643485Y-59607925D01*
X124677663Y-59589657D01*
X124714758Y-59578404D01*
X124759474Y-59574000D01*
X125652526Y-59574000D01*
X125697242Y-59578404D01*
G37*
G36*
X72067599Y-60649800D02*
G01*
X68465599Y-60649800D01*
X68465599Y-58847800D01*
X72067599Y-58847800D01*
X72067599Y-60649800D01*
G37*
G36*
X52487599Y-60649800D02*
G01*
X48885599Y-60649800D01*
X48885599Y-58847800D01*
X52487599Y-58847800D01*
X52487599Y-60649800D01*
G37*
G36*
X87734000Y-60141000D02*
G01*
X86732000Y-60141000D01*
X86732000Y-59239000D01*
X87734000Y-59239000D01*
X87734000Y-60141000D01*
G37*
G36*
X92582242Y-58308404D02*
G01*
X92619337Y-58319657D01*
X92653515Y-58337925D01*
X92683481Y-58362519D01*
X92708075Y-58392485D01*
X92726343Y-58426663D01*
X92737596Y-58463758D01*
X92742000Y-58508474D01*
X92742000Y-59601526D01*
X92737596Y-59646242D01*
X92726343Y-59683337D01*
X92708075Y-59717515D01*
X92683481Y-59747481D01*
X92653515Y-59772075D01*
X92619337Y-59790343D01*
X92582242Y-59801596D01*
X92537526Y-59806000D01*
X91644474Y-59806000D01*
X91599758Y-59801596D01*
X91562663Y-59790343D01*
X91528485Y-59772075D01*
X91498519Y-59747481D01*
X91473925Y-59717515D01*
X91455657Y-59683337D01*
X91444404Y-59646242D01*
X91440000Y-59601526D01*
X91440000Y-58508474D01*
X91444404Y-58463758D01*
X91455657Y-58426663D01*
X91473925Y-58392485D01*
X91498519Y-58362519D01*
X91528485Y-58337925D01*
X91562663Y-58319657D01*
X91599758Y-58308404D01*
X91644474Y-58304000D01*
X92537526Y-58304000D01*
X92582242Y-58308404D01*
G37*
G36*
X94582242Y-58308404D02*
G01*
X94619337Y-58319657D01*
X94653515Y-58337925D01*
X94683481Y-58362519D01*
X94708075Y-58392485D01*
X94726343Y-58426663D01*
X94737596Y-58463758D01*
X94742000Y-58508474D01*
X94742000Y-59601526D01*
X94737596Y-59646242D01*
X94726343Y-59683337D01*
X94708075Y-59717515D01*
X94683481Y-59747481D01*
X94653515Y-59772075D01*
X94619337Y-59790343D01*
X94582242Y-59801596D01*
X94537526Y-59806000D01*
X93644474Y-59806000D01*
X93599758Y-59801596D01*
X93562663Y-59790343D01*
X93528485Y-59772075D01*
X93498519Y-59747481D01*
X93473925Y-59717515D01*
X93455657Y-59683337D01*
X93444404Y-59646242D01*
X93440000Y-59601526D01*
X93440000Y-58508474D01*
X93444404Y-58463758D01*
X93455657Y-58426663D01*
X93473925Y-58392485D01*
X93498519Y-58362519D01*
X93528485Y-58337925D01*
X93562663Y-58319657D01*
X93599758Y-58308404D01*
X93644474Y-58304000D01*
X94537526Y-58304000D01*
X94582242Y-58308404D01*
G37*
G36*
X85734000Y-59191000D02*
G01*
X84732000Y-59191000D01*
X84732000Y-58289000D01*
X85734000Y-58289000D01*
X85734000Y-59191000D01*
G37*
G36*
X129761242Y-57165404D02*
G01*
X129798337Y-57176657D01*
X129832515Y-57194925D01*
X129862481Y-57219519D01*
X129887075Y-57249485D01*
X129905343Y-57283663D01*
X129916596Y-57320758D01*
X129921000Y-57365474D01*
X129921000Y-58458526D01*
X129916596Y-58503242D01*
X129905343Y-58540337D01*
X129887075Y-58574515D01*
X129862481Y-58604481D01*
X129832515Y-58629075D01*
X129798337Y-58647343D01*
X129761242Y-58658596D01*
X129716526Y-58663000D01*
X128823474Y-58663000D01*
X128778758Y-58658596D01*
X128741663Y-58647343D01*
X128707485Y-58629075D01*
X128677519Y-58604481D01*
X128652925Y-58574515D01*
X128634657Y-58540337D01*
X128623404Y-58503242D01*
X128619000Y-58458526D01*
X128619000Y-57365474D01*
X128623404Y-57320758D01*
X128634657Y-57283663D01*
X128652925Y-57249485D01*
X128677519Y-57219519D01*
X128707485Y-57194925D01*
X128741663Y-57176657D01*
X128778758Y-57165404D01*
X128823474Y-57161000D01*
X129716526Y-57161000D01*
X129761242Y-57165404D01*
G37*
G36*
X127761242Y-57165404D02*
G01*
X127798337Y-57176657D01*
X127832515Y-57194925D01*
X127862481Y-57219519D01*
X127887075Y-57249485D01*
X127905343Y-57283663D01*
X127916596Y-57320758D01*
X127921000Y-57365474D01*
X127921000Y-58458526D01*
X127916596Y-58503242D01*
X127905343Y-58540337D01*
X127887075Y-58574515D01*
X127862481Y-58604481D01*
X127832515Y-58629075D01*
X127798337Y-58647343D01*
X127761242Y-58658596D01*
X127716526Y-58663000D01*
X126823474Y-58663000D01*
X126778758Y-58658596D01*
X126741663Y-58647343D01*
X126707485Y-58629075D01*
X126677519Y-58604481D01*
X126652925Y-58574515D01*
X126634657Y-58540337D01*
X126623404Y-58503242D01*
X126619000Y-58458526D01*
X126619000Y-57365474D01*
X126623404Y-57320758D01*
X126634657Y-57283663D01*
X126652925Y-57249485D01*
X126677519Y-57219519D01*
X126707485Y-57194925D01*
X126741663Y-57176657D01*
X126778758Y-57165404D01*
X126823474Y-57161000D01*
X127716526Y-57161000D01*
X127761242Y-57165404D01*
G37*
G36*
X125697242Y-57165404D02*
G01*
X125734337Y-57176657D01*
X125768515Y-57194925D01*
X125798481Y-57219519D01*
X125823075Y-57249485D01*
X125841343Y-57283663D01*
X125852596Y-57320758D01*
X125857000Y-57365474D01*
X125857000Y-58458526D01*
X125852596Y-58503242D01*
X125841343Y-58540337D01*
X125823075Y-58574515D01*
X125798481Y-58604481D01*
X125768515Y-58629075D01*
X125734337Y-58647343D01*
X125697242Y-58658596D01*
X125652526Y-58663000D01*
X124759474Y-58663000D01*
X124714758Y-58658596D01*
X124677663Y-58647343D01*
X124643485Y-58629075D01*
X124613519Y-58604481D01*
X124588925Y-58574515D01*
X124570657Y-58540337D01*
X124559404Y-58503242D01*
X124555000Y-58458526D01*
X124555000Y-57365474D01*
X124559404Y-57320758D01*
X124570657Y-57283663D01*
X124588925Y-57249485D01*
X124613519Y-57219519D01*
X124643485Y-57194925D01*
X124677663Y-57176657D01*
X124714758Y-57165404D01*
X124759474Y-57161000D01*
X125652526Y-57161000D01*
X125697242Y-57165404D01*
G37*
G36*
X123697242Y-57165404D02*
G01*
X123734337Y-57176657D01*
X123768515Y-57194925D01*
X123798481Y-57219519D01*
X123823075Y-57249485D01*
X123841343Y-57283663D01*
X123852596Y-57320758D01*
X123857000Y-57365474D01*
X123857000Y-58458526D01*
X123852596Y-58503242D01*
X123841343Y-58540337D01*
X123823075Y-58574515D01*
X123798481Y-58604481D01*
X123768515Y-58629075D01*
X123734337Y-58647343D01*
X123697242Y-58658596D01*
X123652526Y-58663000D01*
X122759474Y-58663000D01*
X122714758Y-58658596D01*
X122677663Y-58647343D01*
X122643485Y-58629075D01*
X122613519Y-58604481D01*
X122588925Y-58574515D01*
X122570657Y-58540337D01*
X122559404Y-58503242D01*
X122555000Y-58458526D01*
X122555000Y-57365474D01*
X122559404Y-57320758D01*
X122570657Y-57283663D01*
X122588925Y-57249485D01*
X122613519Y-57219519D01*
X122643485Y-57194925D01*
X122677663Y-57176657D01*
X122714758Y-57165404D01*
X122759474Y-57161000D01*
X123652526Y-57161000D01*
X123697242Y-57165404D01*
G37*
G36*
X72067599Y-58109800D02*
G01*
X68465599Y-58109800D01*
X68465599Y-56307800D01*
X72067599Y-56307800D01*
X72067599Y-58109800D01*
G37*
G36*
X52487599Y-58109800D02*
G01*
X48885599Y-58109800D01*
X48885599Y-56307800D01*
X52487599Y-56307800D01*
X52487599Y-58109800D01*
G37*
G36*
X85734000Y-57408000D02*
G01*
X84732000Y-57408000D01*
X84732000Y-56506000D01*
X85734000Y-56506000D01*
X85734000Y-57408000D01*
G37*
G36*
X94709242Y-55641404D02*
G01*
X94746337Y-55652657D01*
X94780515Y-55670925D01*
X94810481Y-55695519D01*
X94835075Y-55725485D01*
X94853343Y-55759663D01*
X94864596Y-55796758D01*
X94869000Y-55841474D01*
X94869000Y-56934526D01*
X94864596Y-56979242D01*
X94853343Y-57016337D01*
X94835075Y-57050515D01*
X94810481Y-57080481D01*
X94780515Y-57105075D01*
X94746337Y-57123343D01*
X94709242Y-57134596D01*
X94664526Y-57139000D01*
X93771474Y-57139000D01*
X93726758Y-57134596D01*
X93689663Y-57123343D01*
X93655485Y-57105075D01*
X93625519Y-57080481D01*
X93600925Y-57050515D01*
X93582657Y-57016337D01*
X93571404Y-56979242D01*
X93567000Y-56934526D01*
X93567000Y-55841474D01*
X93571404Y-55796758D01*
X93582657Y-55759663D01*
X93600925Y-55725485D01*
X93625519Y-55695519D01*
X93655485Y-55670925D01*
X93689663Y-55652657D01*
X93726758Y-55641404D01*
X93771474Y-55637000D01*
X94664526Y-55637000D01*
X94709242Y-55641404D01*
G37*
G36*
X92709242Y-55641404D02*
G01*
X92746337Y-55652657D01*
X92780515Y-55670925D01*
X92810481Y-55695519D01*
X92835075Y-55725485D01*
X92853343Y-55759663D01*
X92864596Y-55796758D01*
X92869000Y-55841474D01*
X92869000Y-56934526D01*
X92864596Y-56979242D01*
X92853343Y-57016337D01*
X92835075Y-57050515D01*
X92810481Y-57080481D01*
X92780515Y-57105075D01*
X92746337Y-57123343D01*
X92709242Y-57134596D01*
X92664526Y-57139000D01*
X91771474Y-57139000D01*
X91726758Y-57134596D01*
X91689663Y-57123343D01*
X91655485Y-57105075D01*
X91625519Y-57080481D01*
X91600925Y-57050515D01*
X91582657Y-57016337D01*
X91571404Y-56979242D01*
X91567000Y-56934526D01*
X91567000Y-55841474D01*
X91571404Y-55796758D01*
X91582657Y-55759663D01*
X91600925Y-55725485D01*
X91625519Y-55695519D01*
X91655485Y-55670925D01*
X91689663Y-55652657D01*
X91726758Y-55641404D01*
X91771474Y-55637000D01*
X92664526Y-55637000D01*
X92709242Y-55641404D01*
G37*
G36*
X87734000Y-56458000D02*
G01*
X86732000Y-56458000D01*
X86732000Y-55556000D01*
X87734000Y-55556000D01*
X87734000Y-56458000D01*
G37*
G36*
X72067599Y-55569800D02*
G01*
X68465599Y-55569800D01*
X68465599Y-53767800D01*
X72067599Y-53767800D01*
X72067599Y-55569800D01*
G37*
G36*
X52487599Y-55569800D02*
G01*
X48885599Y-55569800D01*
X48885599Y-53767800D01*
X52487599Y-53767800D01*
X52487599Y-55569800D01*
G37*
G36*
X85734000Y-55508000D02*
G01*
X84732000Y-55508000D01*
X84732000Y-54606000D01*
X85734000Y-54606000D01*
X85734000Y-55508000D01*
G37*
G36*
X136375000Y-55249000D02*
G01*
X135373000Y-55249000D01*
X135373000Y-54347000D01*
X136375000Y-54347000D01*
X136375000Y-55249000D01*
G37*
G36*
X92709242Y-53228404D02*
G01*
X92746337Y-53239657D01*
X92780515Y-53257925D01*
X92810481Y-53282519D01*
X92835075Y-53312485D01*
X92853343Y-53346663D01*
X92864596Y-53383758D01*
X92869000Y-53428474D01*
X92869000Y-54521526D01*
X92864596Y-54566242D01*
X92853343Y-54603337D01*
X92835075Y-54637515D01*
X92810481Y-54667481D01*
X92780515Y-54692075D01*
X92746337Y-54710343D01*
X92709242Y-54721596D01*
X92664526Y-54726000D01*
X91771474Y-54726000D01*
X91726758Y-54721596D01*
X91689663Y-54710343D01*
X91655485Y-54692075D01*
X91625519Y-54667481D01*
X91600925Y-54637515D01*
X91582657Y-54603337D01*
X91571404Y-54566242D01*
X91567000Y-54521526D01*
X91567000Y-53428474D01*
X91571404Y-53383758D01*
X91582657Y-53346663D01*
X91600925Y-53312485D01*
X91625519Y-53282519D01*
X91655485Y-53257925D01*
X91689663Y-53239657D01*
X91726758Y-53228404D01*
X91771474Y-53224000D01*
X92664526Y-53224000D01*
X92709242Y-53228404D01*
G37*
G36*
X94709242Y-53228404D02*
G01*
X94746337Y-53239657D01*
X94780515Y-53257925D01*
X94810481Y-53282519D01*
X94835075Y-53312485D01*
X94853343Y-53346663D01*
X94864596Y-53383758D01*
X94869000Y-53428474D01*
X94869000Y-54521526D01*
X94864596Y-54566242D01*
X94853343Y-54603337D01*
X94835075Y-54637515D01*
X94810481Y-54667481D01*
X94780515Y-54692075D01*
X94746337Y-54710343D01*
X94709242Y-54721596D01*
X94664526Y-54726000D01*
X93771474Y-54726000D01*
X93726758Y-54721596D01*
X93689663Y-54710343D01*
X93655485Y-54692075D01*
X93625519Y-54667481D01*
X93600925Y-54637515D01*
X93582657Y-54603337D01*
X93571404Y-54566242D01*
X93567000Y-54521526D01*
X93567000Y-53428474D01*
X93571404Y-53383758D01*
X93582657Y-53346663D01*
X93600925Y-53312485D01*
X93625519Y-53282519D01*
X93655485Y-53257925D01*
X93689663Y-53239657D01*
X93726758Y-53228404D01*
X93771474Y-53224000D01*
X94664526Y-53224000D01*
X94709242Y-53228404D01*
G37*
G36*
X134375000Y-54299000D02*
G01*
X133373000Y-54299000D01*
X133373000Y-53397000D01*
X134375000Y-53397000D01*
X134375000Y-54299000D01*
G37*
G36*
X85734000Y-53725000D02*
G01*
X84732000Y-53725000D01*
X84732000Y-52823000D01*
X85734000Y-52823000D01*
X85734000Y-53725000D01*
G37*
G36*
X136375000Y-53349000D02*
G01*
X135373000Y-53349000D01*
X135373000Y-52447000D01*
X136375000Y-52447000D01*
X136375000Y-53349000D01*
G37*
G36*
X52487599Y-53029800D02*
G01*
X48885599Y-53029800D01*
X48885599Y-51227800D01*
X52487599Y-51227800D01*
X52487599Y-53029800D01*
G37*
G36*
X72067599Y-53029800D02*
G01*
X68465599Y-53029800D01*
X68465599Y-51227800D01*
X72067599Y-51227800D01*
X72067599Y-53029800D01*
G37*
G36*
X132057000Y-52836000D02*
G01*
X131055000Y-52836000D01*
X131055000Y-51934000D01*
X132057000Y-51934000D01*
X132057000Y-52836000D01*
G37*
G36*
X87734000Y-52775000D02*
G01*
X86732000Y-52775000D01*
X86732000Y-51873000D01*
X87734000Y-51873000D01*
X87734000Y-52775000D01*
G37*
G36*
X92709242Y-50688404D02*
G01*
X92746337Y-50699657D01*
X92780515Y-50717925D01*
X92810481Y-50742519D01*
X92835075Y-50772485D01*
X92853343Y-50806663D01*
X92864596Y-50843758D01*
X92869000Y-50888474D01*
X92869000Y-51981526D01*
X92864596Y-52026242D01*
X92853343Y-52063337D01*
X92835075Y-52097515D01*
X92810481Y-52127481D01*
X92780515Y-52152075D01*
X92746337Y-52170343D01*
X92709242Y-52181596D01*
X92664526Y-52186000D01*
X91771474Y-52186000D01*
X91726758Y-52181596D01*
X91689663Y-52170343D01*
X91655485Y-52152075D01*
X91625519Y-52127481D01*
X91600925Y-52097515D01*
X91582657Y-52063337D01*
X91571404Y-52026242D01*
X91567000Y-51981526D01*
X91567000Y-50888474D01*
X91571404Y-50843758D01*
X91582657Y-50806663D01*
X91600925Y-50772485D01*
X91625519Y-50742519D01*
X91655485Y-50717925D01*
X91689663Y-50699657D01*
X91726758Y-50688404D01*
X91771474Y-50684000D01*
X92664526Y-50684000D01*
X92709242Y-50688404D01*
G37*
G36*
X126205242Y-50688404D02*
G01*
X126242337Y-50699657D01*
X126276515Y-50717925D01*
X126306481Y-50742519D01*
X126331075Y-50772485D01*
X126349343Y-50806663D01*
X126360596Y-50843758D01*
X126365000Y-50888474D01*
X126365000Y-51981526D01*
X126360596Y-52026242D01*
X126349343Y-52063337D01*
X126331075Y-52097515D01*
X126306481Y-52127481D01*
X126276515Y-52152075D01*
X126242337Y-52170343D01*
X126205242Y-52181596D01*
X126160526Y-52186000D01*
X125267474Y-52186000D01*
X125222758Y-52181596D01*
X125185663Y-52170343D01*
X125151485Y-52152075D01*
X125121519Y-52127481D01*
X125096925Y-52097515D01*
X125078657Y-52063337D01*
X125067404Y-52026242D01*
X125063000Y-51981526D01*
X125063000Y-50888474D01*
X125067404Y-50843758D01*
X125078657Y-50806663D01*
X125096925Y-50772485D01*
X125121519Y-50742519D01*
X125151485Y-50717925D01*
X125185663Y-50699657D01*
X125222758Y-50688404D01*
X125267474Y-50684000D01*
X126160526Y-50684000D01*
X126205242Y-50688404D01*
G37*
G36*
X124205242Y-50688404D02*
G01*
X124242337Y-50699657D01*
X124276515Y-50717925D01*
X124306481Y-50742519D01*
X124331075Y-50772485D01*
X124349343Y-50806663D01*
X124360596Y-50843758D01*
X124365000Y-50888474D01*
X124365000Y-51981526D01*
X124360596Y-52026242D01*
X124349343Y-52063337D01*
X124331075Y-52097515D01*
X124306481Y-52127481D01*
X124276515Y-52152075D01*
X124242337Y-52170343D01*
X124205242Y-52181596D01*
X124160526Y-52186000D01*
X123267474Y-52186000D01*
X123222758Y-52181596D01*
X123185663Y-52170343D01*
X123151485Y-52152075D01*
X123121519Y-52127481D01*
X123096925Y-52097515D01*
X123078657Y-52063337D01*
X123067404Y-52026242D01*
X123063000Y-51981526D01*
X123063000Y-50888474D01*
X123067404Y-50843758D01*
X123078657Y-50806663D01*
X123096925Y-50772485D01*
X123121519Y-50742519D01*
X123151485Y-50717925D01*
X123185663Y-50699657D01*
X123222758Y-50688404D01*
X123267474Y-50684000D01*
X124160526Y-50684000D01*
X124205242Y-50688404D01*
G37*
G36*
X94709242Y-50688404D02*
G01*
X94746337Y-50699657D01*
X94780515Y-50717925D01*
X94810481Y-50742519D01*
X94835075Y-50772485D01*
X94853343Y-50806663D01*
X94864596Y-50843758D01*
X94869000Y-50888474D01*
X94869000Y-51981526D01*
X94864596Y-52026242D01*
X94853343Y-52063337D01*
X94835075Y-52097515D01*
X94810481Y-52127481D01*
X94780515Y-52152075D01*
X94746337Y-52170343D01*
X94709242Y-52181596D01*
X94664526Y-52186000D01*
X93771474Y-52186000D01*
X93726758Y-52181596D01*
X93689663Y-52170343D01*
X93655485Y-52152075D01*
X93625519Y-52127481D01*
X93600925Y-52097515D01*
X93582657Y-52063337D01*
X93571404Y-52026242D01*
X93567000Y-51981526D01*
X93567000Y-50888474D01*
X93571404Y-50843758D01*
X93582657Y-50806663D01*
X93600925Y-50772485D01*
X93625519Y-50742519D01*
X93655485Y-50717925D01*
X93689663Y-50699657D01*
X93726758Y-50688404D01*
X93771474Y-50684000D01*
X94664526Y-50684000D01*
X94709242Y-50688404D01*
G37*
G36*
X130057000Y-51886000D02*
G01*
X129055000Y-51886000D01*
X129055000Y-50984000D01*
X130057000Y-50984000D01*
X130057000Y-51886000D01*
G37*
G36*
X85734000Y-51825000D02*
G01*
X84732000Y-51825000D01*
X84732000Y-50923000D01*
X85734000Y-50923000D01*
X85734000Y-51825000D01*
G37*
G36*
X132057000Y-50936000D02*
G01*
X131055000Y-50936000D01*
X131055000Y-50034000D01*
X132057000Y-50034000D01*
X132057000Y-50936000D01*
G37*
G36*
X52487599Y-50489800D02*
G01*
X48885599Y-50489800D01*
X48885599Y-48687800D01*
X52487599Y-48687800D01*
X52487599Y-50489800D01*
G37*
G36*
X72067599Y-50489800D02*
G01*
X68465599Y-50489800D01*
X68465599Y-48687800D01*
X72067599Y-48687800D01*
X72067599Y-50489800D01*
G37*
G36*
X85734000Y-50042000D02*
G01*
X84732000Y-50042000D01*
X84732000Y-49140000D01*
X85734000Y-49140000D01*
X85734000Y-50042000D01*
G37*
G36*
X87734000Y-49092000D02*
G01*
X86732000Y-49092000D01*
X86732000Y-48190000D01*
X87734000Y-48190000D01*
X87734000Y-49092000D01*
G37*
G36*
X85734000Y-48142000D02*
G01*
X84732000Y-48142000D01*
X84732000Y-47240000D01*
X85734000Y-47240000D01*
X85734000Y-48142000D01*
G37*
G36*
X72067599Y-47949800D02*
G01*
X68465599Y-47949800D01*
X68465599Y-46147800D01*
X72067599Y-46147800D01*
X72067599Y-47949800D01*
G37*
G36*
X52487599Y-47949800D02*
G01*
X48885599Y-47949800D01*
X48885599Y-46147800D01*
X52487599Y-46147800D01*
X52487599Y-47949800D01*
G37*
G36*
X85734000Y-46359000D02*
G01*
X84732000Y-46359000D01*
X84732000Y-45457000D01*
X85734000Y-45457000D01*
X85734000Y-46359000D01*
G37*
G36*
X72067599Y-45409800D02*
G01*
X68465599Y-45409800D01*
X68465599Y-43607800D01*
X72067599Y-43607800D01*
X72067599Y-45409800D01*
G37*
G36*
X52487599Y-45409800D02*
G01*
X48885599Y-45409800D01*
X48885599Y-43607800D01*
X52487599Y-43607800D01*
X52487599Y-45409800D01*
G37*
G36*
X87734000Y-45409000D02*
G01*
X86732000Y-45409000D01*
X86732000Y-44507000D01*
X87734000Y-44507000D01*
X87734000Y-45409000D01*
G37*
G36*
X117106811Y-42418271D02*
G01*
X117142603Y-42429129D01*
X117175595Y-42446763D01*
X117204508Y-42470492D01*
X117228237Y-42499405D01*
X117245871Y-42532397D01*
X117256729Y-42568189D01*
X117261000Y-42611555D01*
X117261000Y-45018445D01*
X117256729Y-45061811D01*
X117245871Y-45097603D01*
X117228237Y-45130595D01*
X117204508Y-45159508D01*
X117175595Y-45183237D01*
X117142603Y-45200871D01*
X117106811Y-45211729D01*
X117063445Y-45216000D01*
X116031555Y-45216000D01*
X115988189Y-45211729D01*
X115952397Y-45200871D01*
X115919405Y-45183237D01*
X115890492Y-45159508D01*
X115866763Y-45130595D01*
X115849129Y-45097603D01*
X115838271Y-45061811D01*
X115834000Y-45018445D01*
X115834000Y-42611555D01*
X115838271Y-42568189D01*
X115849129Y-42532397D01*
X115866763Y-42499405D01*
X115890492Y-42470492D01*
X115919405Y-42446763D01*
X115952397Y-42429129D01*
X115988189Y-42418271D01*
X116031555Y-42414000D01*
X117063445Y-42414000D01*
X117106811Y-42418271D01*
G37*
G36*
X120231811Y-42418271D02*
G01*
X120267603Y-42429129D01*
X120300595Y-42446763D01*
X120329508Y-42470492D01*
X120353237Y-42499405D01*
X120370871Y-42532397D01*
X120381729Y-42568189D01*
X120386000Y-42611555D01*
X120386000Y-45018445D01*
X120381729Y-45061811D01*
X120370871Y-45097603D01*
X120353237Y-45130595D01*
X120329508Y-45159508D01*
X120300595Y-45183237D01*
X120267603Y-45200871D01*
X120231811Y-45211729D01*
X120188445Y-45216000D01*
X119156555Y-45216000D01*
X119113189Y-45211729D01*
X119077397Y-45200871D01*
X119044405Y-45183237D01*
X119015492Y-45159508D01*
X118991763Y-45130595D01*
X118974129Y-45097603D01*
X118963271Y-45061811D01*
X118959000Y-45018445D01*
X118959000Y-42611555D01*
X118963271Y-42568189D01*
X118974129Y-42532397D01*
X118991763Y-42499405D01*
X119015492Y-42470492D01*
X119044405Y-42446763D01*
X119077397Y-42429129D01*
X119113189Y-42418271D01*
X119156555Y-42414000D01*
X120188445Y-42414000D01*
X120231811Y-42418271D01*
G37*
G36*
X85734000Y-44459000D02*
G01*
X84732000Y-44459000D01*
X84732000Y-43557000D01*
X85734000Y-43557000D01*
X85734000Y-44459000D01*
G37*
G36*
X72067599Y-42869800D02*
G01*
X68465599Y-42869800D01*
X68465599Y-41067800D01*
X72067599Y-41067800D01*
X72067599Y-42869800D01*
G37*
G36*
X52487599Y-42869800D02*
G01*
X48885599Y-42869800D01*
X48885599Y-41067800D01*
X52487599Y-41067800D01*
X52487599Y-42869800D01*
G37*
G36*
X93588162Y-40020644D02*
G01*
X93627608Y-40032610D01*
X93663953Y-40052037D01*
X93695815Y-40078185D01*
X93721963Y-40110047D01*
X93741390Y-40146392D01*
X93753356Y-40185838D01*
X93758000Y-40232993D01*
X93758000Y-41301007D01*
X93753356Y-41348162D01*
X93741390Y-41387608D01*
X93721963Y-41423953D01*
X93695815Y-41455815D01*
X93663953Y-41481963D01*
X93627608Y-41501390D01*
X93588162Y-41513356D01*
X93541007Y-41518000D01*
X92847993Y-41518000D01*
X92800838Y-41513356D01*
X92761392Y-41501390D01*
X92725047Y-41481963D01*
X92693185Y-41455815D01*
X92667037Y-41423953D01*
X92647610Y-41387608D01*
X92635644Y-41348162D01*
X92631000Y-41301007D01*
X92631000Y-40232993D01*
X92635644Y-40185838D01*
X92647610Y-40146392D01*
X92667037Y-40110047D01*
X92693185Y-40078185D01*
X92725047Y-40052037D01*
X92761392Y-40032610D01*
X92800838Y-40020644D01*
X92847993Y-40016000D01*
X93541007Y-40016000D01*
X93588162Y-40020644D01*
G37*
G36*
X95413162Y-40020644D02*
G01*
X95452608Y-40032610D01*
X95488953Y-40052037D01*
X95520815Y-40078185D01*
X95546963Y-40110047D01*
X95566390Y-40146392D01*
X95578356Y-40185838D01*
X95583000Y-40232993D01*
X95583000Y-41301007D01*
X95578356Y-41348162D01*
X95566390Y-41387608D01*
X95546963Y-41423953D01*
X95520815Y-41455815D01*
X95488953Y-41481963D01*
X95452608Y-41501390D01*
X95413162Y-41513356D01*
X95366007Y-41518000D01*
X94672993Y-41518000D01*
X94625838Y-41513356D01*
X94586392Y-41501390D01*
X94550047Y-41481963D01*
X94518185Y-41455815D01*
X94492037Y-41423953D01*
X94472610Y-41387608D01*
X94460644Y-41348162D01*
X94456000Y-41301007D01*
X94456000Y-40232993D01*
X94460644Y-40185838D01*
X94472610Y-40146392D01*
X94492037Y-40110047D01*
X94518185Y-40078185D01*
X94550047Y-40052037D01*
X94586392Y-40032610D01*
X94625838Y-40020644D01*
X94672993Y-40016000D01*
X95366007Y-40016000D01*
X95413162Y-40020644D01*
G37*
G36*
X98625162Y-39723644D02*
G01*
X98664608Y-39735610D01*
X98700953Y-39755037D01*
X98732815Y-39781185D01*
X98758963Y-39813047D01*
X98778390Y-39849392D01*
X98790356Y-39888838D01*
X98795000Y-39935993D01*
X98795000Y-40629007D01*
X98790356Y-40676162D01*
X98778390Y-40715608D01*
X98758963Y-40751953D01*
X98732815Y-40783815D01*
X98700953Y-40809963D01*
X98664608Y-40829390D01*
X98625162Y-40841356D01*
X98578007Y-40846000D01*
X97509993Y-40846000D01*
X97462838Y-40841356D01*
X97423392Y-40829390D01*
X97387047Y-40809963D01*
X97355185Y-40783815D01*
X97329037Y-40751953D01*
X97309610Y-40715608D01*
X97297644Y-40676162D01*
X97293000Y-40629007D01*
X97293000Y-39935993D01*
X97297644Y-39888838D01*
X97309610Y-39849392D01*
X97329037Y-39813047D01*
X97355185Y-39781185D01*
X97387047Y-39755037D01*
X97423392Y-39735610D01*
X97462838Y-39723644D01*
X97509993Y-39719000D01*
X98578007Y-39719000D01*
X98625162Y-39723644D01*
G37*
G36*
X52487599Y-40329800D02*
G01*
X48885599Y-40329800D01*
X48885599Y-38527800D01*
X52487599Y-38527800D01*
X52487599Y-40329800D01*
G37*
G36*
X72067599Y-40329800D02*
G01*
X68465599Y-40329800D01*
X68465599Y-38527800D01*
X72067599Y-38527800D01*
X72067599Y-40329800D01*
G37*
G36*
X98625162Y-37898644D02*
G01*
X98664608Y-37910610D01*
X98700953Y-37930037D01*
X98732815Y-37956185D01*
X98758963Y-37988047D01*
X98778390Y-38024392D01*
X98790356Y-38063838D01*
X98795000Y-38110993D01*
X98795000Y-38804007D01*
X98790356Y-38851162D01*
X98778390Y-38890608D01*
X98758963Y-38926953D01*
X98732815Y-38958815D01*
X98700953Y-38984963D01*
X98664608Y-39004390D01*
X98625162Y-39016356D01*
X98578007Y-39021000D01*
X97509993Y-39021000D01*
X97462838Y-39016356D01*
X97423392Y-39004390D01*
X97387047Y-38984963D01*
X97355185Y-38958815D01*
X97329037Y-38926953D01*
X97309610Y-38890608D01*
X97297644Y-38851162D01*
X97293000Y-38804007D01*
X97293000Y-38110993D01*
X97297644Y-38063838D01*
X97309610Y-38024392D01*
X97329037Y-37988047D01*
X97355185Y-37956185D01*
X97387047Y-37930037D01*
X97423392Y-37910610D01*
X97462838Y-37898644D01*
X97509993Y-37894000D01*
X98578007Y-37894000D01*
X98625162Y-37898644D01*
G37*
G36*
X72067599Y-37789800D02*
G01*
X68465599Y-37789800D01*
X68465599Y-35987800D01*
X72067599Y-35987800D01*
X72067599Y-37789800D01*
G37*
G36*
X52487599Y-37789800D02*
G01*
X48885599Y-37789800D01*
X48885599Y-35987800D01*
X52487599Y-35987800D01*
X52487599Y-37789800D01*
G37*
G36*
X95661000Y-37521000D02*
G01*
X94499000Y-37521000D01*
X94499000Y-34869000D01*
X95661000Y-34869000D01*
X95661000Y-37521000D01*
G37*
G36*
X93461000Y-37521000D02*
G01*
X92299000Y-37521000D01*
X92299000Y-34869000D01*
X93461000Y-34869000D01*
X93461000Y-37521000D01*
G37*
G36*
X98625162Y-35913644D02*
G01*
X98664608Y-35925610D01*
X98700953Y-35945037D01*
X98732815Y-35971185D01*
X98758963Y-36003047D01*
X98778390Y-36039392D01*
X98790356Y-36078838D01*
X98795000Y-36125993D01*
X98795000Y-36819007D01*
X98790356Y-36866162D01*
X98778390Y-36905608D01*
X98758963Y-36941953D01*
X98732815Y-36973815D01*
X98700953Y-36999963D01*
X98664608Y-37019390D01*
X98625162Y-37031356D01*
X98578007Y-37036000D01*
X97509993Y-37036000D01*
X97462838Y-37031356D01*
X97423392Y-37019390D01*
X97387047Y-36999963D01*
X97355185Y-36973815D01*
X97329037Y-36941953D01*
X97309610Y-36905608D01*
X97297644Y-36866162D01*
X97293000Y-36819007D01*
X97293000Y-36125993D01*
X97297644Y-36078838D01*
X97309610Y-36039392D01*
X97329037Y-36003047D01*
X97355185Y-35971185D01*
X97387047Y-35945037D01*
X97423392Y-35925610D01*
X97462838Y-35913644D01*
X97509993Y-35909000D01*
X98578007Y-35909000D01*
X98625162Y-35913644D01*
G37*
G36*
X84177811Y-34889271D02*
G01*
X84213603Y-34900129D01*
X84246595Y-34917763D01*
X84275508Y-34941492D01*
X84299237Y-34970405D01*
X84316871Y-35003397D01*
X84327729Y-35039189D01*
X84332000Y-35082555D01*
X84332000Y-36114445D01*
X84327729Y-36157811D01*
X84316871Y-36193603D01*
X84299237Y-36226595D01*
X84275508Y-36255508D01*
X84246595Y-36279237D01*
X84213603Y-36296871D01*
X84177811Y-36307729D01*
X84134445Y-36312000D01*
X81727555Y-36312000D01*
X81684189Y-36307729D01*
X81648397Y-36296871D01*
X81615405Y-36279237D01*
X81586492Y-36255508D01*
X81562763Y-36226595D01*
X81545129Y-36193603D01*
X81534271Y-36157811D01*
X81530000Y-36114445D01*
X81530000Y-35082555D01*
X81534271Y-35039189D01*
X81545129Y-35003397D01*
X81562763Y-34970405D01*
X81586492Y-34941492D01*
X81615405Y-34917763D01*
X81648397Y-34900129D01*
X81684189Y-34889271D01*
X81727555Y-34885000D01*
X84134445Y-34885000D01*
X84177811Y-34889271D01*
G37*
G36*
X107291811Y-34000271D02*
G01*
X107327603Y-34011129D01*
X107360595Y-34028763D01*
X107389508Y-34052492D01*
X107413237Y-34081405D01*
X107430871Y-34114397D01*
X107441729Y-34150189D01*
X107446000Y-34193555D01*
X107446000Y-35225445D01*
X107441729Y-35268811D01*
X107430871Y-35304603D01*
X107413237Y-35337595D01*
X107389508Y-35366508D01*
X107360595Y-35390237D01*
X107327603Y-35407871D01*
X107291811Y-35418729D01*
X107248445Y-35423000D01*
X104841555Y-35423000D01*
X104798189Y-35418729D01*
X104762397Y-35407871D01*
X104729405Y-35390237D01*
X104700492Y-35366508D01*
X104676763Y-35337595D01*
X104659129Y-35304603D01*
X104648271Y-35268811D01*
X104644000Y-35225445D01*
X104644000Y-34193555D01*
X104648271Y-34150189D01*
X104659129Y-34114397D01*
X104676763Y-34081405D01*
X104700492Y-34052492D01*
X104729405Y-34028763D01*
X104762397Y-34011129D01*
X104798189Y-34000271D01*
X104841555Y-33996000D01*
X107248445Y-33996000D01*
X107291811Y-34000271D01*
G37*
G36*
X89847999Y-29706737D02*
G01*
X89857608Y-29709652D01*
X89866472Y-29714390D01*
X89879007Y-29724677D01*
X90925323Y-30770993D01*
X90935610Y-30783528D01*
X90940348Y-30792392D01*
X90943263Y-30802001D01*
X90944852Y-30818140D01*
X90944852Y-34205860D01*
X90943263Y-34221999D01*
X90940348Y-34231608D01*
X90935610Y-34240472D01*
X90925323Y-34253007D01*
X89879007Y-35299323D01*
X89866472Y-35309610D01*
X89857608Y-35314348D01*
X89847999Y-35317263D01*
X89831860Y-35318852D01*
X88904140Y-35318852D01*
X88888001Y-35317263D01*
X88878392Y-35314348D01*
X88869528Y-35309610D01*
X88861763Y-35303237D01*
X88855390Y-35295472D01*
X88850652Y-35286608D01*
X88847737Y-35276999D01*
X88846148Y-35260860D01*
X88846148Y-34218140D01*
X88847737Y-34202001D01*
X88850652Y-34192392D01*
X88854689Y-34184839D01*
X88854691Y-34184837D01*
X88855390Y-34183529D01*
X88863506Y-34174099D01*
X88865482Y-34172301D01*
X88868732Y-34168525D01*
X89745284Y-33370770D01*
X89761702Y-33352580D01*
X89774257Y-33331536D01*
X89782464Y-33308447D01*
X89786148Y-33278325D01*
X89786148Y-31745675D01*
X89783746Y-31721289D01*
X89776633Y-31697840D01*
X89765082Y-31676229D01*
X89745284Y-31653230D01*
X88867645Y-30854485D01*
X88863516Y-30849910D01*
X88863506Y-30849901D01*
X88856775Y-30842443D01*
X88851628Y-30833815D01*
X88848263Y-30824350D01*
X88846753Y-30812000D01*
X88846753Y-30809329D01*
X88846148Y-30804381D01*
X88846148Y-29763140D01*
X88847737Y-29747001D01*
X88850652Y-29737392D01*
X88855390Y-29728528D01*
X88861763Y-29720763D01*
X88869528Y-29714390D01*
X88878392Y-29709652D01*
X88888001Y-29706737D01*
X88904140Y-29705148D01*
X89831860Y-29705148D01*
X89847999Y-29706737D01*
G37*
G36*
X87387999Y-29706737D02*
G01*
X87397608Y-29709652D01*
X87406472Y-29714390D01*
X87414237Y-29720763D01*
X87420610Y-29728528D01*
X87425348Y-29737392D01*
X87428263Y-29747001D01*
X87429852Y-29763140D01*
X87429852Y-30805860D01*
X87428263Y-30821999D01*
X87425348Y-30831608D01*
X87421311Y-30839161D01*
X87421309Y-30839163D01*
X87420610Y-30840471D01*
X87412494Y-30849901D01*
X87410518Y-30851699D01*
X87407268Y-30855475D01*
X86530716Y-31653230D01*
X86514298Y-31671420D01*
X86501743Y-31692464D01*
X86493536Y-31715553D01*
X86489852Y-31745675D01*
X86489852Y-33278325D01*
X86492254Y-33302711D01*
X86499367Y-33326160D01*
X86510918Y-33347771D01*
X86530716Y-33370770D01*
X87408355Y-34169515D01*
X87412484Y-34174090D01*
X87412494Y-34174099D01*
X87419225Y-34181557D01*
X87424372Y-34190185D01*
X87427737Y-34199650D01*
X87429247Y-34212000D01*
X87429247Y-34214671D01*
X87429852Y-34219619D01*
X87429852Y-35260860D01*
X87428263Y-35276999D01*
X87425348Y-35286608D01*
X87420610Y-35295472D01*
X87414237Y-35303237D01*
X87406472Y-35309610D01*
X87397608Y-35314348D01*
X87387999Y-35317263D01*
X87371860Y-35318852D01*
X86444140Y-35318852D01*
X86428001Y-35317263D01*
X86418392Y-35314348D01*
X86409528Y-35309610D01*
X86396993Y-35299323D01*
X85350677Y-34253007D01*
X85340390Y-34240472D01*
X85335652Y-34231608D01*
X85332737Y-34221999D01*
X85331148Y-34205860D01*
X85331148Y-30818140D01*
X85332737Y-30802001D01*
X85335652Y-30792392D01*
X85340390Y-30783528D01*
X85350677Y-30770993D01*
X86396993Y-29724677D01*
X86409528Y-29714390D01*
X86418392Y-29709652D01*
X86428001Y-29706737D01*
X86444140Y-29705148D01*
X87371860Y-29705148D01*
X87387999Y-29706737D01*
G37*
G36*
X102465811Y-33873271D02*
G01*
X102501603Y-33884129D01*
X102534595Y-33901763D01*
X102563508Y-33925492D01*
X102587237Y-33954405D01*
X102604871Y-33987397D01*
X102615729Y-34023189D01*
X102620000Y-34066555D01*
X102620000Y-35098445D01*
X102615729Y-35141811D01*
X102604871Y-35177603D01*
X102587237Y-35210595D01*
X102563508Y-35239508D01*
X102534595Y-35263237D01*
X102501603Y-35280871D01*
X102465811Y-35291729D01*
X102422445Y-35296000D01*
X100015555Y-35296000D01*
X99972189Y-35291729D01*
X99936397Y-35280871D01*
X99903405Y-35263237D01*
X99874492Y-35239508D01*
X99850763Y-35210595D01*
X99833129Y-35177603D01*
X99822271Y-35141811D01*
X99818000Y-35098445D01*
X99818000Y-34066555D01*
X99822271Y-34023189D01*
X99833129Y-33987397D01*
X99850763Y-33954405D01*
X99874492Y-33925492D01*
X99903405Y-33901763D01*
X99936397Y-33884129D01*
X99972189Y-33873271D01*
X100015555Y-33869000D01*
X102422445Y-33869000D01*
X102465811Y-33873271D01*
G37*
G36*
X72067599Y-35249800D02*
G01*
X68465599Y-35249800D01*
X68465599Y-33447800D01*
X72067599Y-33447800D01*
X72067599Y-35249800D01*
G37*
G36*
X52487599Y-35249800D02*
G01*
X48885599Y-35249800D01*
X48885599Y-33447800D01*
X52487599Y-33447800D01*
X52487599Y-35249800D01*
G37*
G36*
X98625162Y-34088644D02*
G01*
X98664608Y-34100610D01*
X98700953Y-34120037D01*
X98732815Y-34146185D01*
X98758963Y-34178047D01*
X98778390Y-34214392D01*
X98790356Y-34253838D01*
X98795000Y-34300993D01*
X98795000Y-34994007D01*
X98790356Y-35041162D01*
X98778390Y-35080608D01*
X98758963Y-35116953D01*
X98732815Y-35148815D01*
X98700953Y-35174963D01*
X98664608Y-35194390D01*
X98625162Y-35206356D01*
X98578007Y-35211000D01*
X97509993Y-35211000D01*
X97462838Y-35206356D01*
X97423392Y-35194390D01*
X97387047Y-35174963D01*
X97355185Y-35148815D01*
X97329037Y-35116953D01*
X97309610Y-35080608D01*
X97297644Y-35041162D01*
X97293000Y-34994007D01*
X97293000Y-34300993D01*
X97297644Y-34253838D01*
X97309610Y-34214392D01*
X97329037Y-34178047D01*
X97355185Y-34146185D01*
X97387047Y-34120037D01*
X97423392Y-34100610D01*
X97462838Y-34088644D01*
X97509993Y-34084000D01*
X98578007Y-34084000D01*
X98625162Y-34088644D01*
G37*
G36*
X58285241Y-31658581D02*
G01*
X58422783Y-31715553D01*
X58431015Y-31718963D01*
X58562207Y-31806622D01*
X58673777Y-31918192D01*
X58747653Y-32028756D01*
X58761437Y-32049386D01*
X58821818Y-32195158D01*
X58852599Y-32349907D01*
X58852599Y-32507693D01*
X58821818Y-32662442D01*
X58761437Y-32808214D01*
X58761436Y-32808216D01*
X58673777Y-32939408D01*
X58562207Y-33050978D01*
X58431015Y-33138637D01*
X58431014Y-33138638D01*
X58431013Y-33138638D01*
X58285241Y-33199019D01*
X58130492Y-33229800D01*
X57972706Y-33229800D01*
X57817957Y-33199019D01*
X57672185Y-33138638D01*
X57672184Y-33138638D01*
X57672183Y-33138637D01*
X57540991Y-33050978D01*
X57429421Y-32939408D01*
X57341762Y-32808216D01*
X57341761Y-32808214D01*
X57281380Y-32662442D01*
X57250599Y-32507693D01*
X57250599Y-32349907D01*
X57281380Y-32195158D01*
X57341761Y-32049386D01*
X57355545Y-32028756D01*
X57429421Y-31918192D01*
X57540991Y-31806622D01*
X57672183Y-31718963D01*
X57680415Y-31715553D01*
X57817957Y-31658581D01*
X57972706Y-31627800D01*
X58130492Y-31627800D01*
X58285241Y-31658581D01*
G37*
G36*
X63135241Y-31658581D02*
G01*
X63272783Y-31715553D01*
X63281015Y-31718963D01*
X63412207Y-31806622D01*
X63523777Y-31918192D01*
X63597653Y-32028756D01*
X63611437Y-32049386D01*
X63671818Y-32195158D01*
X63702599Y-32349907D01*
X63702599Y-32507693D01*
X63671818Y-32662442D01*
X63611437Y-32808214D01*
X63611436Y-32808216D01*
X63523777Y-32939408D01*
X63412207Y-33050978D01*
X63281015Y-33138637D01*
X63281014Y-33138638D01*
X63281013Y-33138638D01*
X63135241Y-33199019D01*
X62980492Y-33229800D01*
X62822706Y-33229800D01*
X62667957Y-33199019D01*
X62522185Y-33138638D01*
X62522184Y-33138638D01*
X62522183Y-33138637D01*
X62390991Y-33050978D01*
X62279421Y-32939408D01*
X62191762Y-32808216D01*
X62191761Y-32808214D01*
X62131380Y-32662442D01*
X62100599Y-32507693D01*
X62100599Y-32349907D01*
X62131380Y-32195158D01*
X62191761Y-32049386D01*
X62205545Y-32028756D01*
X62279421Y-31918192D01*
X62390991Y-31806622D01*
X62522183Y-31718963D01*
X62530415Y-31715553D01*
X62667957Y-31658581D01*
X62822706Y-31627800D01*
X62980492Y-31627800D01*
X63135241Y-31658581D01*
G37*
G36*
X84177811Y-31764271D02*
G01*
X84213603Y-31775129D01*
X84246595Y-31792763D01*
X84275508Y-31816492D01*
X84299237Y-31845405D01*
X84316871Y-31878397D01*
X84327729Y-31914189D01*
X84332000Y-31957555D01*
X84332000Y-32989445D01*
X84327729Y-33032811D01*
X84316871Y-33068603D01*
X84299237Y-33101595D01*
X84275508Y-33130508D01*
X84246595Y-33154237D01*
X84213603Y-33171871D01*
X84177811Y-33182729D01*
X84134445Y-33187000D01*
X81727555Y-33187000D01*
X81684189Y-33182729D01*
X81648397Y-33171871D01*
X81615405Y-33154237D01*
X81586492Y-33130508D01*
X81562763Y-33101595D01*
X81545129Y-33068603D01*
X81534271Y-33032811D01*
X81530000Y-32989445D01*
X81530000Y-31957555D01*
X81534271Y-31914189D01*
X81545129Y-31878397D01*
X81562763Y-31845405D01*
X81586492Y-31816492D01*
X81615405Y-31792763D01*
X81648397Y-31775129D01*
X81684189Y-31764271D01*
X81727555Y-31760000D01*
X84134445Y-31760000D01*
X84177811Y-31764271D01*
G37*
G36*
X93085000Y-33163000D02*
G01*
X92083000Y-33163000D01*
X92083000Y-31861000D01*
X93085000Y-31861000D01*
X93085000Y-33163000D01*
G37*
G36*
X96385000Y-33163000D02*
G01*
X95383000Y-33163000D01*
X95383000Y-31861000D01*
X96385000Y-31861000D01*
X96385000Y-33163000D01*
G37*
G36*
X52487599Y-32709800D02*
G01*
X48885599Y-32709800D01*
X48885599Y-30907800D01*
X52487599Y-30907800D01*
X52487599Y-32709800D01*
G37*
G36*
X72067599Y-32709800D02*
G01*
X68465599Y-32709800D01*
X68465599Y-30907800D01*
X72067599Y-30907800D01*
X72067599Y-32709800D01*
G37*
G36*
X80453000Y-32709000D02*
G01*
X78401000Y-32709000D01*
X78401000Y-31807000D01*
X80453000Y-31807000D01*
X80453000Y-32709000D01*
G37*
G36*
X107291811Y-30875271D02*
G01*
X107327603Y-30886129D01*
X107360595Y-30903763D01*
X107389508Y-30927492D01*
X107413237Y-30956405D01*
X107430871Y-30989397D01*
X107441729Y-31025189D01*
X107446000Y-31068555D01*
X107446000Y-32100445D01*
X107441729Y-32143811D01*
X107430871Y-32179603D01*
X107413237Y-32212595D01*
X107389508Y-32241508D01*
X107360595Y-32265237D01*
X107327603Y-32282871D01*
X107291811Y-32293729D01*
X107248445Y-32298000D01*
X104841555Y-32298000D01*
X104798189Y-32293729D01*
X104762397Y-32282871D01*
X104729405Y-32265237D01*
X104700492Y-32241508D01*
X104676763Y-32212595D01*
X104659129Y-32179603D01*
X104648271Y-32143811D01*
X104644000Y-32100445D01*
X104644000Y-31068555D01*
X104648271Y-31025189D01*
X104659129Y-30989397D01*
X104676763Y-30956405D01*
X104700492Y-30927492D01*
X104729405Y-30903763D01*
X104762397Y-30886129D01*
X104798189Y-30875271D01*
X104841555Y-30871000D01*
X107248445Y-30871000D01*
X107291811Y-30875271D01*
G37*
G36*
X102465811Y-30748271D02*
G01*
X102501603Y-30759129D01*
X102534595Y-30776763D01*
X102563508Y-30800492D01*
X102587237Y-30829405D01*
X102604871Y-30862397D01*
X102615729Y-30898189D01*
X102620000Y-30941555D01*
X102620000Y-31973445D01*
X102615729Y-32016811D01*
X102604871Y-32052603D01*
X102587237Y-32085595D01*
X102563508Y-32114508D01*
X102534595Y-32138237D01*
X102501603Y-32155871D01*
X102465811Y-32166729D01*
X102422445Y-32171000D01*
X100015555Y-32171000D01*
X99972189Y-32166729D01*
X99936397Y-32155871D01*
X99903405Y-32138237D01*
X99874492Y-32114508D01*
X99850763Y-32085595D01*
X99833129Y-32052603D01*
X99822271Y-32016811D01*
X99818000Y-31973445D01*
X99818000Y-30941555D01*
X99822271Y-30898189D01*
X99833129Y-30862397D01*
X99850763Y-30829405D01*
X99874492Y-30800492D01*
X99903405Y-30776763D01*
X99936397Y-30759129D01*
X99972189Y-30748271D01*
X100015555Y-30744000D01*
X102422445Y-30744000D01*
X102465811Y-30748271D01*
G37*
G36*
X96355811Y-27940271D02*
G01*
X96391603Y-27951129D01*
X96424595Y-27968763D01*
X96453508Y-27992492D01*
X96477237Y-28021405D01*
X96494871Y-28054397D01*
X96505729Y-28090189D01*
X96510000Y-28133555D01*
X96510000Y-30540445D01*
X96505729Y-30583811D01*
X96494871Y-30619603D01*
X96477237Y-30652595D01*
X96453508Y-30681508D01*
X96424595Y-30705237D01*
X96391603Y-30722871D01*
X96355811Y-30733729D01*
X96312445Y-30738000D01*
X95280555Y-30738000D01*
X95237189Y-30733729D01*
X95201397Y-30722871D01*
X95168405Y-30705237D01*
X95139492Y-30681508D01*
X95115763Y-30652595D01*
X95098129Y-30619603D01*
X95087271Y-30583811D01*
X95083000Y-30540445D01*
X95083000Y-28133555D01*
X95087271Y-28090189D01*
X95098129Y-28054397D01*
X95115763Y-28021405D01*
X95139492Y-27992492D01*
X95168405Y-27968763D01*
X95201397Y-27951129D01*
X95237189Y-27940271D01*
X95280555Y-27936000D01*
X96312445Y-27936000D01*
X96355811Y-27940271D01*
G37*
G36*
X93230811Y-27940271D02*
G01*
X93266603Y-27951129D01*
X93299595Y-27968763D01*
X93328508Y-27992492D01*
X93352237Y-28021405D01*
X93369871Y-28054397D01*
X93380729Y-28090189D01*
X93385000Y-28133555D01*
X93385000Y-30540445D01*
X93380729Y-30583811D01*
X93369871Y-30619603D01*
X93352237Y-30652595D01*
X93328508Y-30681508D01*
X93299595Y-30705237D01*
X93266603Y-30722871D01*
X93230811Y-30733729D01*
X93187445Y-30738000D01*
X92155555Y-30738000D01*
X92112189Y-30733729D01*
X92076397Y-30722871D01*
X92043405Y-30705237D01*
X92014492Y-30681508D01*
X91990763Y-30652595D01*
X91973129Y-30619603D01*
X91962271Y-30583811D01*
X91958000Y-30540445D01*
X91958000Y-28133555D01*
X91962271Y-28090189D01*
X91973129Y-28054397D01*
X91990763Y-28021405D01*
X92014492Y-27992492D01*
X92043405Y-27968763D01*
X92076397Y-27951129D01*
X92112189Y-27940271D01*
X92155555Y-27936000D01*
X93187445Y-27936000D01*
X93230811Y-27940271D01*
G37*
G36*
X63478994Y-28484346D02*
G01*
X63652065Y-28556034D01*
X63729417Y-28607719D01*
X63807826Y-28660110D01*
X63940289Y-28792573D01*
X63992680Y-28870982D01*
X64044365Y-28948334D01*
X64116053Y-29121405D01*
X64152599Y-29305133D01*
X64152599Y-29492467D01*
X64116053Y-29676195D01*
X64044365Y-29849266D01*
X64044364Y-29849267D01*
X63940289Y-30005027D01*
X63807826Y-30137490D01*
X63759470Y-30169800D01*
X63652065Y-30241566D01*
X63478994Y-30313254D01*
X63295266Y-30349800D01*
X63107932Y-30349800D01*
X62924204Y-30313254D01*
X62751133Y-30241566D01*
X62643728Y-30169800D01*
X62595372Y-30137490D01*
X62462909Y-30005027D01*
X62358834Y-29849267D01*
X62358833Y-29849266D01*
X62287145Y-29676195D01*
X62250599Y-29492467D01*
X62250599Y-29305133D01*
X62287145Y-29121405D01*
X62358833Y-28948334D01*
X62410518Y-28870982D01*
X62462909Y-28792573D01*
X62595372Y-28660110D01*
X62673781Y-28607719D01*
X62751133Y-28556034D01*
X62924204Y-28484346D01*
X63107932Y-28447800D01*
X63295266Y-28447800D01*
X63478994Y-28484346D01*
G37*
G36*
X58028994Y-28484346D02*
G01*
X58202065Y-28556034D01*
X58279417Y-28607719D01*
X58357826Y-28660110D01*
X58490289Y-28792573D01*
X58542680Y-28870982D01*
X58594365Y-28948334D01*
X58666053Y-29121405D01*
X58702599Y-29305133D01*
X58702599Y-29492467D01*
X58666053Y-29676195D01*
X58594365Y-29849266D01*
X58594364Y-29849267D01*
X58490289Y-30005027D01*
X58357826Y-30137490D01*
X58309470Y-30169800D01*
X58202065Y-30241566D01*
X58028994Y-30313254D01*
X57845266Y-30349800D01*
X57657932Y-30349800D01*
X57474204Y-30313254D01*
X57301133Y-30241566D01*
X57193728Y-30169800D01*
X57145372Y-30137490D01*
X57012909Y-30005027D01*
X56908834Y-29849267D01*
X56908833Y-29849266D01*
X56837145Y-29676195D01*
X56800599Y-29492467D01*
X56800599Y-29305133D01*
X56837145Y-29121405D01*
X56908833Y-28948334D01*
X56960518Y-28870982D01*
X57012909Y-28792573D01*
X57145372Y-28660110D01*
X57223781Y-28607719D01*
X57301133Y-28556034D01*
X57474204Y-28484346D01*
X57657932Y-28447800D01*
X57845266Y-28447800D01*
X58028994Y-28484346D01*
G37*
G36*
X52487599Y-30169800D02*
G01*
X48885599Y-30169800D01*
X48885599Y-28367800D01*
X52487599Y-28367800D01*
X52487599Y-30169800D01*
G37*
G36*
X72067599Y-30169800D02*
G01*
X68465599Y-30169800D01*
X68465599Y-28367800D01*
X72067599Y-28367800D01*
X72067599Y-30169800D01*
G37*
G36*
X100280000Y-29788000D02*
G01*
X98228000Y-29788000D01*
X98228000Y-28886000D01*
X100280000Y-28886000D01*
X100280000Y-29788000D01*
G37*
M02*
