M48
; DRILL file {KiCad 5.1.6-c6e7f7d~86~ubuntu16.04.1} date Tue Oct 27 22:16:17 2020
; FORMAT={-:-/ absolute / inch / decimal}
; #@! TF.CreationDate,2020-10-27T22:16:17+00:00
; #@! TF.GenerationSoftware,Kicad,Pcbnew,5.1.6-c6e7f7d~86~ubuntu16.04.1
; #@! TF.FileFunction,Plated,1,2,PTH
FMAT,2
INCH
T1C0.0157
T2C0.0300
T3C0.0315
T4C0.0394
T5C0.0433
T6C0.0630
%
G90
G05
T1
X4.91Y-4.53
X4.97Y-3.4
X5.01Y-3.47
X5.09Y-4.35
X5.09Y-4.5
X5.14Y-4.6
X5.15Y-4.21
X5.33Y-3.64
X5.33Y-4.85
X5.48Y-3.79
X5.48Y-3.97
X5.56Y-3.69
X5.57Y-3.8
X5.6Y-5.0
X5.62Y-3.6
X5.63Y-3.88
X5.66Y-3.69
X5.67Y-5.22
X5.85Y-2.5
X5.9Y-2.6
X5.9Y-3.17
X5.94Y-2.73
X5.95Y-3.08
X5.97Y-2.82
X5.97Y-2.98
X6.06Y-3.18
X6.06Y-3.58
X6.29Y-4.95
X6.34Y-5.24
X6.45Y-3.99
X6.46Y-4.18
X6.47Y-4.28
X6.49Y-3.93
X6.5Y-3.86
X6.5Y-4.08
X6.53Y-2.9
X6.53Y-3.38
X6.54Y-3.98
X6.55Y-3.78
X6.56Y-3.01
X6.56Y-3.48
X6.59Y-3.1
X6.59Y-4.53
X6.6185Y-3.2
X6.62Y-4.42
X6.66Y-3.29
X6.66Y-4.32
X6.6885Y-3.42
X6.69Y-4.22
X6.7171Y-3.51
X6.7171Y-4.12
X6.74Y-5.57
X6.7456Y-4.02
X6.75Y-3.6
X6.78Y-3.64
X7.05Y-3.81
X7.17Y-4.25
X7.18Y-5.25
X7.22Y-5.36
X7.23Y-4.14
X7.28Y-5.45
X7.32Y-4.03
X7.32Y-4.4
X7.32Y-5.15
T2
X8.05Y-3.83
X8.05Y-3.93
X8.05Y-4.03
X8.05Y-4.13
X8.05Y-4.23
X8.05Y-4.33
X5.78Y-2.98
X5.78Y-3.08
X5.78Y-3.18
X5.78Y-3.28
X5.78Y-3.38
X5.78Y-3.48
X5.78Y-3.58
X5.78Y-3.68
X5.78Y-3.78
X5.78Y-3.88
X5.78Y-3.98
X5.78Y-4.08
X5.78Y-4.18
X5.78Y-4.28
X5.78Y-4.38
X5.78Y-4.48
X5.78Y-4.58
X5.78Y-4.68
X5.78Y-4.78
X5.78Y-4.88
X5.93Y-4.73
X6.03Y-4.73
X6.13Y-4.73
X6.18Y-3.38
X6.18Y-3.48
X6.18Y-3.58
X6.23Y-4.73
X6.28Y-3.38
X6.28Y-3.48
X6.28Y-3.58
X6.38Y-2.98
X6.38Y-3.08
X6.38Y-3.18
X6.38Y-3.28
X6.38Y-3.38
X6.38Y-3.48
X6.38Y-3.58
X6.38Y-3.68
X6.38Y-3.78
X6.38Y-3.88
X6.38Y-3.98
X6.38Y-4.08
X6.38Y-4.18
X6.38Y-4.28
X6.38Y-4.38
X6.38Y-4.48
X6.38Y-4.58
X6.38Y-4.68
X6.38Y-4.78
X6.38Y-4.88
T3
X7.08Y-5.55
X7.48Y-5.55
X4.2Y-3.55
X4.6Y-3.55
X7.05Y-3.25
X7.45Y-3.25
X4.23Y-5.56
X4.23Y-5.96
X7.05Y-2.55
X7.45Y-2.55
X7.05Y-3.35
X7.45Y-3.35
X4.47Y-5.56
X4.47Y-5.96
X4.2Y-3.65
X4.6Y-3.65
X7.6Y-3.15
X8.0Y-3.15
X4.2Y-4.8
X4.6Y-4.8
X7.6Y-3.05
X8.0Y-3.05
X7.13Y-4.8
X7.53Y-4.8
X7.05Y-2.45
X7.45Y-2.45
X5.22Y-5.56
X5.22Y-5.96
X4.11Y-5.56
X4.11Y-5.96
X7.6Y-2.95
X8.0Y-2.95
X7.63Y-5.15
X8.03Y-5.15
X4.2Y-4.7
X4.6Y-4.7
X7.08Y-5.25
X7.48Y-5.25
X4.85Y-4.9
X5.25Y-4.9
X7.05Y-3.15
X7.45Y-3.15
X7.63Y-5.25
X8.03Y-5.25
X5.35Y-5.56
X5.35Y-5.96
X4.59Y-5.56
X4.59Y-5.96
X4.2Y-4.4
X4.6Y-4.4
X7.13Y-4.9
X7.53Y-4.9
X4.2Y-4.5
X4.6Y-4.5
X7.6Y-3.45
X8.0Y-3.45
X7.68Y-4.7
X8.08Y-4.7
X4.8Y-3.75
X5.2Y-3.75
X7.05Y-3.05
X7.45Y-3.05
X4.2Y-4.3
X4.6Y-4.3
X5.0Y-2.4
X5.0Y-2.5
X5.0Y-2.6
X5.0Y-2.7
X5.0Y-2.8
X5.0Y-2.9
X5.0Y-3.0
X5.0Y-3.1
X5.0Y-3.2
X5.0Y-3.3
X5.3Y-2.4
X5.3Y-2.5
X5.3Y-2.6
X5.3Y-2.7
X5.3Y-2.8
X5.3Y-2.9
X5.3Y-3.0
X5.3Y-3.1
X5.3Y-3.2
X5.3Y-3.3
X4.71Y-5.56
X4.71Y-5.96
X4.2Y-4.9
X4.6Y-4.9
X7.6Y-3.55
X8.0Y-3.55
X7.68Y-4.6
X8.08Y-4.6
X4.85Y-4.5
X5.25Y-4.5
X4.96Y-5.56
X4.96Y-5.96
X7.6Y-2.65
X8.0Y-2.65
X7.63Y-5.45
X8.03Y-5.45
X7.6Y-2.75
X8.0Y-2.75
X7.6Y-3.25
X8.0Y-3.25
X4.0Y-2.4
X4.0Y-2.5
X4.0Y-2.6
X4.0Y-2.7
X4.0Y-2.8
X4.0Y-2.9
X4.0Y-3.0
X4.0Y-3.1
X4.0Y-3.2
X4.0Y-3.3
X4.3Y-2.4
X4.3Y-2.5
X4.3Y-2.6
X4.3Y-2.7
X4.3Y-2.8
X4.3Y-2.9
X4.3Y-3.0
X4.3Y-3.1
X4.3Y-3.2
X4.3Y-3.3
X5.09Y-5.56
X5.09Y-5.96
X7.13Y-4.6
X7.53Y-4.6
X4.85Y-4.4
X5.25Y-4.4
X7.08Y-5.35
X7.48Y-5.35
X4.2Y-4.6
X4.6Y-4.6
X4.85Y-4.6
X5.25Y-4.6
X7.05Y-3.45
X7.45Y-3.45
X7.05Y-2.95
X7.45Y-2.95
X7.63Y-5.55
X8.03Y-5.55
X7.08Y-5.15
X7.48Y-5.15
X4.8Y-3.55
X5.2Y-3.55
X7.63Y-5.35
X8.03Y-5.35
X4.85Y-4.7
X5.25Y-4.7
X7.05Y-2.65
X7.45Y-2.65
X4.2Y-5.0
X4.6Y-5.0
X4.35Y-5.56
X4.35Y-5.96
X4.85Y-5.0
X5.25Y-5.0
X7.68Y-4.8
X8.08Y-4.8
X4.85Y-4.3
X5.25Y-4.3
X7.05Y-2.85
X7.45Y-2.85
X4.83Y-5.56
X4.83Y-5.96
X7.05Y-2.75
X7.45Y-2.75
X7.6Y-3.35
X8.0Y-3.35
X7.68Y-4.9
X8.08Y-4.9
X7.13Y-4.7
X7.53Y-4.7
X7.08Y-5.45
X7.48Y-5.45
X4.8Y-3.65
X5.2Y-3.65
X4.2Y-3.75
X4.6Y-3.75
X7.6Y-2.45
X8.0Y-2.45
X4.85Y-4.8
X5.25Y-4.8
X4.5Y-2.4
X4.5Y-2.5
X4.5Y-2.6
X4.5Y-2.7
X4.5Y-2.8
X4.5Y-2.9
X4.5Y-3.0
X4.5Y-3.1
X4.5Y-3.2
X4.5Y-3.3
X4.8Y-2.4
X4.8Y-2.5
X4.8Y-2.6
X4.8Y-2.7
X4.8Y-2.8
X4.8Y-2.9
X4.8Y-3.0
X4.8Y-3.1
X4.8Y-3.2
X4.8Y-3.3
X7.6Y-2.85
X8.0Y-2.85
X7.6Y-2.55
X8.0Y-2.55
X7.05Y-3.55
X7.45Y-3.55
T4
X4.011Y-4.3
X4.011Y-4.4
X4.011Y-4.5
X4.011Y-4.6
X4.011Y-4.7
X4.011Y-4.8
X4.011Y-4.9
X4.011Y-5.0
X8.2Y-2.45
X8.2Y-2.55
X8.2Y-2.65
X8.2Y-2.75
X8.2Y-2.85
X8.2Y-2.95
X8.2Y-3.05
X8.2Y-3.15
X8.2Y-3.25
X8.2Y-3.35
X8.2Y-3.45
X8.2Y-3.55
X4.05Y-3.55
X4.05Y-3.65
X4.05Y-3.75
X7.4Y-4.033
X7.4Y-4.133
X7.4Y-4.233
X7.4Y-4.333
X7.595Y-4.03
X7.595Y-4.13
X7.595Y-4.23
X7.595Y-4.33
X4.1Y-5.25
X4.1Y-5.35
X8.26Y-5.15
X8.26Y-5.25
X8.26Y-5.35
X8.26Y-5.45
X8.26Y-5.55
X8.244Y-4.6
X8.244Y-4.7
X8.244Y-4.8
X8.244Y-4.9
X7.5Y-4.033
X7.5Y-4.133
X7.5Y-4.233
X7.5Y-4.333
T5
X6.638Y-5.591
X6.638Y-5.691
X6.638Y-5.791
T6
X5.9Y-5.35
X5.9Y-5.85
T0
M30
