%TF.GenerationSoftware,KiCad,Pcbnew,5.1.6-c6e7f7d~86~ubuntu16.04.1*%
%TF.CreationDate,2020-10-27T22:16:19+00:00*%
%TF.ProjectId,ppstrace1,70707374-7261-4636-9531-2e6b69636164,rev?*%
%TF.SameCoordinates,Original*%
%TF.FileFunction,Copper,L2,Bot*%
%TF.FilePolarity,Positive*%
%FSLAX46Y46*%
G04 Gerber Fmt 4.6, Leading zero omitted, Abs format (unit mm)*
G04 Created by KiCad (PCBNEW 5.1.6-c6e7f7d~86~ubuntu16.04.1) date 2020-10-27 22:16:19*
%MOMM*%
%LPD*%
G01*
G04 APERTURE LIST*
%TA.AperFunction,ComponentPad*%
%ADD10O,2.400000X1.600000*%
%TD*%
%TA.AperFunction,ComponentPad*%
%ADD11R,2.400000X1.600000*%
%TD*%
%TA.AperFunction,ComponentPad*%
%ADD12O,1.600000X1.600000*%
%TD*%
%TA.AperFunction,ComponentPad*%
%ADD13C,1.600000*%
%TD*%
%TA.AperFunction,ComponentPad*%
%ADD14C,1.524000*%
%TD*%
%TA.AperFunction,ComponentPad*%
%ADD15O,2.000000X1.905000*%
%TD*%
%TA.AperFunction,ComponentPad*%
%ADD16R,2.000000X1.905000*%
%TD*%
%TA.AperFunction,ComponentPad*%
%ADD17O,1.700000X1.700000*%
%TD*%
%TA.AperFunction,ComponentPad*%
%ADD18R,1.700000X1.700000*%
%TD*%
%TA.AperFunction,ComponentPad*%
%ADD19O,3.200000X3.200000*%
%TD*%
%TA.AperFunction,ComponentPad*%
%ADD20R,3.200000X3.200000*%
%TD*%
%TA.AperFunction,ComponentPad*%
%ADD21R,1.524000X1.524000*%
%TD*%
%TA.AperFunction,ViaPad*%
%ADD22C,0.800000*%
%TD*%
%TA.AperFunction,Conductor*%
%ADD23C,1.000000*%
%TD*%
%TA.AperFunction,Conductor*%
%ADD24C,0.500000*%
%TD*%
%TA.AperFunction,Conductor*%
%ADD25C,0.250000*%
%TD*%
G04 APERTURE END LIST*
D10*
%TO.P,REF\u002A\u002A,20*%
%TO.N,N/C*%
X134620000Y-60960000D03*
%TO.P,REF\u002A\u002A,10*%
X127000000Y-83820000D03*
%TO.P,REF\u002A\u002A,19*%
X134620000Y-63500000D03*
%TO.P,REF\u002A\u002A,9*%
X127000000Y-81280000D03*
%TO.P,REF\u002A\u002A,18*%
X134620000Y-66040000D03*
%TO.P,REF\u002A\u002A,8*%
X127000000Y-78740000D03*
%TO.P,REF\u002A\u002A,17*%
X134620000Y-68580000D03*
%TO.P,REF\u002A\u002A,7*%
X127000000Y-76200000D03*
%TO.P,REF\u002A\u002A,16*%
X134620000Y-71120000D03*
%TO.P,REF\u002A\u002A,6*%
X127000000Y-73660000D03*
%TO.P,REF\u002A\u002A,15*%
X134620000Y-73660000D03*
%TO.P,REF\u002A\u002A,5*%
X127000000Y-71120000D03*
%TO.P,REF\u002A\u002A,14*%
X134620000Y-76200000D03*
%TO.P,REF\u002A\u002A,4*%
X127000000Y-68580000D03*
%TO.P,REF\u002A\u002A,13*%
X134620000Y-78740000D03*
%TO.P,REF\u002A\u002A,3*%
X127000000Y-66040000D03*
%TO.P,REF\u002A\u002A,12*%
X134620000Y-81280000D03*
%TO.P,REF\u002A\u002A,2*%
X127000000Y-63500000D03*
%TO.P,REF\u002A\u002A,11*%
X134620000Y-83820000D03*
D11*
%TO.P,REF\u002A\u002A,1*%
X127000000Y-60960000D03*
%TD*%
D10*
%TO.P,REF\u002A\u002A,20*%
%TO.N,N/C*%
X121920000Y-60960000D03*
%TO.P,REF\u002A\u002A,10*%
X114300000Y-83820000D03*
%TO.P,REF\u002A\u002A,19*%
X121920000Y-63500000D03*
%TO.P,REF\u002A\u002A,9*%
X114300000Y-81280000D03*
%TO.P,REF\u002A\u002A,18*%
X121920000Y-66040000D03*
%TO.P,REF\u002A\u002A,8*%
X114300000Y-78740000D03*
%TO.P,REF\u002A\u002A,17*%
X121920000Y-68580000D03*
%TO.P,REF\u002A\u002A,7*%
X114300000Y-76200000D03*
%TO.P,REF\u002A\u002A,16*%
X121920000Y-71120000D03*
%TO.P,REF\u002A\u002A,6*%
X114300000Y-73660000D03*
%TO.P,REF\u002A\u002A,15*%
X121920000Y-73660000D03*
%TO.P,REF\u002A\u002A,5*%
X114300000Y-71120000D03*
%TO.P,REF\u002A\u002A,14*%
X121920000Y-76200000D03*
%TO.P,REF\u002A\u002A,4*%
X114300000Y-68580000D03*
%TO.P,REF\u002A\u002A,13*%
X121920000Y-78740000D03*
%TO.P,REF\u002A\u002A,3*%
X114300000Y-66040000D03*
%TO.P,REF\u002A\u002A,12*%
X121920000Y-81280000D03*
%TO.P,REF\u002A\u002A,2*%
X114300000Y-63500000D03*
%TO.P,REF\u002A\u002A,11*%
X121920000Y-83820000D03*
D11*
%TO.P,REF\u002A\u002A,1*%
X114300000Y-60960000D03*
%TD*%
D10*
%TO.P,REF\u002A\u002A,20*%
%TO.N,N/C*%
X109220000Y-60960000D03*
%TO.P,REF\u002A\u002A,10*%
X101600000Y-83820000D03*
%TO.P,REF\u002A\u002A,19*%
X109220000Y-63500000D03*
%TO.P,REF\u002A\u002A,9*%
X101600000Y-81280000D03*
%TO.P,REF\u002A\u002A,18*%
X109220000Y-66040000D03*
%TO.P,REF\u002A\u002A,8*%
X101600000Y-78740000D03*
%TO.P,REF\u002A\u002A,17*%
X109220000Y-68580000D03*
%TO.P,REF\u002A\u002A,7*%
X101600000Y-76200000D03*
%TO.P,REF\u002A\u002A,16*%
X109220000Y-71120000D03*
%TO.P,REF\u002A\u002A,6*%
X101600000Y-73660000D03*
%TO.P,REF\u002A\u002A,15*%
X109220000Y-73660000D03*
%TO.P,REF\u002A\u002A,5*%
X101600000Y-71120000D03*
%TO.P,REF\u002A\u002A,14*%
X109220000Y-76200000D03*
%TO.P,REF\u002A\u002A,4*%
X101600000Y-68580000D03*
%TO.P,REF\u002A\u002A,13*%
X109220000Y-78740000D03*
%TO.P,REF\u002A\u002A,3*%
X101600000Y-66040000D03*
%TO.P,REF\u002A\u002A,12*%
X109220000Y-81280000D03*
%TO.P,REF\u002A\u002A,2*%
X101600000Y-63500000D03*
%TO.P,REF\u002A\u002A,11*%
X109220000Y-83820000D03*
D11*
%TO.P,REF\u002A\u002A,1*%
X101600000Y-60960000D03*
%TD*%
D12*
%TO.P,R75,2*%
%TO.N,GND*%
X132080000Y-90170000D03*
D13*
%TO.P,R75,1*%
%TO.N,ICLKA*%
X121920000Y-90170000D03*
%TD*%
D12*
%TO.P,R74,2*%
%TO.N,ICLKA*%
X116840000Y-90170000D03*
D13*
%TO.P,R74,1*%
%TO.N,CLKA*%
X106680000Y-90170000D03*
%TD*%
D12*
%TO.P,R73,2*%
%TO.N,GND*%
X179832000Y-140970000D03*
D13*
%TO.P,R73,1*%
%TO.N,IX5*%
X189992000Y-140970000D03*
%TD*%
D12*
%TO.P,R72,2*%
%TO.N,IX5*%
X193802000Y-140970000D03*
D13*
%TO.P,R72,1*%
%TO.N,X5*%
X203962000Y-140970000D03*
%TD*%
D12*
%TO.P,R71,2*%
%TO.N,GND*%
X132080000Y-92710000D03*
D13*
%TO.P,R71,1*%
%TO.N,ICLKB*%
X121920000Y-92710000D03*
%TD*%
D12*
%TO.P,R70,2*%
%TO.N,ICLKB*%
X116840000Y-92710000D03*
D13*
%TO.P,R70,1*%
%TO.N,CLKB*%
X106680000Y-92710000D03*
%TD*%
D12*
%TO.P,R69,2*%
%TO.N,GND*%
X179832000Y-138430000D03*
D13*
%TO.P,R69,1*%
%TO.N,IX4*%
X189992000Y-138430000D03*
%TD*%
D12*
%TO.P,R68,2*%
%TO.N,IX4*%
X193802000Y-138430000D03*
D13*
%TO.P,R68,1*%
%TO.N,X4*%
X203962000Y-138430000D03*
%TD*%
D12*
%TO.P,R67,2*%
%TO.N,GND*%
X179832000Y-135890000D03*
D13*
%TO.P,R67,1*%
%TO.N,IX3*%
X189992000Y-135890000D03*
%TD*%
D12*
%TO.P,R66,2*%
%TO.N,IX3*%
X193802000Y-135890000D03*
D13*
%TO.P,R66,1*%
%TO.N,X3*%
X203962000Y-135890000D03*
%TD*%
D12*
%TO.P,R65,2*%
%TO.N,GND*%
X179832000Y-133350000D03*
D13*
%TO.P,R65,1*%
%TO.N,IX2*%
X189992000Y-133350000D03*
%TD*%
D12*
%TO.P,R64,2*%
%TO.N,IX2*%
X193802000Y-133350000D03*
D13*
%TO.P,R64,1*%
%TO.N,X2*%
X203962000Y-133350000D03*
%TD*%
D12*
%TO.P,R63,2*%
%TO.N,GND*%
X132080000Y-95250000D03*
D13*
%TO.P,R63,1*%
%TO.N,IWIO*%
X121920000Y-95250000D03*
%TD*%
D12*
%TO.P,R62,2*%
%TO.N,IWIO*%
X116840000Y-95250000D03*
D13*
%TO.P,R62,1*%
%TO.N,WIO*%
X106680000Y-95250000D03*
%TD*%
D12*
%TO.P,R61,2*%
%TO.N,GND*%
X179832000Y-130810000D03*
D13*
%TO.P,R61,1*%
%TO.N,IX1*%
X189992000Y-130810000D03*
%TD*%
D12*
%TO.P,R60,2*%
%TO.N,IX1*%
X193802000Y-130810000D03*
D13*
%TO.P,R60,1*%
%TO.N,X1*%
X203962000Y-130810000D03*
%TD*%
D12*
%TO.P,R59,2*%
%TO.N,GND*%
X181102000Y-116840000D03*
D13*
%TO.P,R59,1*%
%TO.N,IDO4*%
X191262000Y-116840000D03*
%TD*%
D12*
%TO.P,R58,2*%
%TO.N,IDO4*%
X195072000Y-116840000D03*
D13*
%TO.P,R58,1*%
%TO.N,DO4*%
X205232000Y-116840000D03*
%TD*%
D12*
%TO.P,R57,2*%
%TO.N,GND*%
X181102000Y-119380000D03*
D13*
%TO.P,R57,1*%
%TO.N,IDO3*%
X191262000Y-119380000D03*
%TD*%
D12*
%TO.P,R56,2*%
%TO.N,IDO3*%
X195072000Y-119380000D03*
D13*
%TO.P,R56,1*%
%TO.N,DO3*%
X205232000Y-119380000D03*
%TD*%
D12*
%TO.P,R55,2*%
%TO.N,GND*%
X181102000Y-121920000D03*
D13*
%TO.P,R55,1*%
%TO.N,IDO2*%
X191262000Y-121920000D03*
%TD*%
D12*
%TO.P,R54,2*%
%TO.N,IDO2*%
X195072000Y-121920000D03*
D13*
%TO.P,R54,1*%
%TO.N,DO2*%
X205232000Y-121920000D03*
%TD*%
D12*
%TO.P,R53,2*%
%TO.N,GND*%
X181102000Y-124460000D03*
D13*
%TO.P,R53,1*%
%TO.N,IDO1*%
X191262000Y-124460000D03*
%TD*%
D12*
%TO.P,R52,2*%
%TO.N,IDO1*%
X195072000Y-124460000D03*
D13*
%TO.P,R52,1*%
%TO.N,DO1*%
X205232000Y-124460000D03*
%TD*%
D12*
%TO.P,R51,2*%
%TO.N,GND*%
X133350000Y-127000000D03*
D13*
%TO.P,R51,1*%
%TO.N,ID8*%
X123190000Y-127000000D03*
%TD*%
D12*
%TO.P,R50,2*%
%TO.N,ID8*%
X116840000Y-127000000D03*
D13*
%TO.P,R50,1*%
%TO.N,D8*%
X106680000Y-127000000D03*
%TD*%
D12*
%TO.P,R49,2*%
%TO.N,GND*%
X133350000Y-119380000D03*
D13*
%TO.P,R49,1*%
%TO.N,ID5*%
X123190000Y-119380000D03*
%TD*%
D12*
%TO.P,R48,2*%
%TO.N,ID5*%
X116840000Y-119380000D03*
D13*
%TO.P,R48,1*%
%TO.N,D5*%
X106680000Y-119380000D03*
%TD*%
D12*
%TO.P,R47,2*%
%TO.N,GND*%
X133350000Y-116840000D03*
D13*
%TO.P,R47,1*%
%TO.N,ID4*%
X123190000Y-116840000D03*
%TD*%
D12*
%TO.P,R46,2*%
%TO.N,ID4*%
X116840000Y-116840000D03*
D13*
%TO.P,R46,1*%
%TO.N,D4*%
X106680000Y-116840000D03*
%TD*%
D12*
%TO.P,R45,2*%
%TO.N,GND*%
X133350000Y-124460000D03*
D13*
%TO.P,R45,1*%
%TO.N,ID7*%
X123190000Y-124460000D03*
%TD*%
D12*
%TO.P,R44,2*%
%TO.N,ID7*%
X116840000Y-124460000D03*
D13*
%TO.P,R44,1*%
%TO.N,D7*%
X106680000Y-124460000D03*
%TD*%
D12*
%TO.P,R43,2*%
%TO.N,GND*%
X133350000Y-121920000D03*
D13*
%TO.P,R43,1*%
%TO.N,ID6*%
X123190000Y-121920000D03*
%TD*%
D12*
%TO.P,R42,2*%
%TO.N,ID6*%
X116840000Y-121920000D03*
D13*
%TO.P,R42,1*%
%TO.N,D6*%
X106680000Y-121920000D03*
%TD*%
D12*
%TO.P,R41,2*%
%TO.N,GND*%
X133350000Y-114300000D03*
D13*
%TO.P,R41,1*%
%TO.N,ID3*%
X123190000Y-114300000D03*
%TD*%
D12*
%TO.P,R40,2*%
%TO.N,ID3*%
X116840000Y-114300000D03*
D13*
%TO.P,R40,1*%
%TO.N,D3*%
X106680000Y-114300000D03*
%TD*%
D12*
%TO.P,R39,2*%
%TO.N,GND*%
X133350000Y-109220000D03*
D13*
%TO.P,R39,1*%
%TO.N,ID1*%
X123190000Y-109220000D03*
%TD*%
D12*
%TO.P,R38,2*%
%TO.N,ID1*%
X116840000Y-109220000D03*
D13*
%TO.P,R38,1*%
%TO.N,D1*%
X106680000Y-109220000D03*
%TD*%
D12*
%TO.P,R37,2*%
%TO.N,GND*%
X179070000Y-62230000D03*
D13*
%TO.P,R37,1*%
%TO.N,IA12*%
X189230000Y-62230000D03*
%TD*%
D12*
%TO.P,R36,2*%
%TO.N,IA12*%
X193040000Y-62230000D03*
D13*
%TO.P,R36,1*%
%TO.N,A12*%
X203200000Y-62230000D03*
%TD*%
D12*
%TO.P,R35,2*%
%TO.N,GND*%
X179070000Y-64770000D03*
D13*
%TO.P,R35,1*%
%TO.N,IA11*%
X189230000Y-64770000D03*
%TD*%
D12*
%TO.P,R34,2*%
%TO.N,IA11*%
X193040000Y-64770000D03*
D13*
%TO.P,R34,1*%
%TO.N,A11*%
X203200000Y-64770000D03*
%TD*%
D12*
%TO.P,R33,2*%
%TO.N,GND*%
X133350000Y-111760000D03*
D13*
%TO.P,R33,1*%
%TO.N,ID2*%
X123190000Y-111760000D03*
%TD*%
D12*
%TO.P,R32,2*%
%TO.N,ID2*%
X116840000Y-111760000D03*
D13*
%TO.P,R32,1*%
%TO.N,D2*%
X106680000Y-111760000D03*
%TD*%
D12*
%TO.P,R31,2*%
%TO.N,GND*%
X179070000Y-67310000D03*
D13*
%TO.P,R31,1*%
%TO.N,IA10*%
X189230000Y-67310000D03*
%TD*%
D12*
%TO.P,R30,2*%
%TO.N,IA10*%
X193040000Y-67310000D03*
D13*
%TO.P,R30,1*%
%TO.N,A10*%
X203200000Y-67310000D03*
%TD*%
D12*
%TO.P,R29,2*%
%TO.N,GND*%
X179070000Y-69850000D03*
D13*
%TO.P,R29,1*%
%TO.N,IA9*%
X189230000Y-69850000D03*
%TD*%
D12*
%TO.P,R28,2*%
%TO.N,IA9*%
X193040000Y-69850000D03*
D13*
%TO.P,R28,1*%
%TO.N,A9*%
X203200000Y-69850000D03*
%TD*%
D12*
%TO.P,R27,2*%
%TO.N,GND*%
X179070000Y-72390000D03*
D13*
%TO.P,R27,1*%
%TO.N,IA8*%
X189230000Y-72390000D03*
%TD*%
D12*
%TO.P,R26,2*%
%TO.N,IA8*%
X193040000Y-72390000D03*
D13*
%TO.P,R26,1*%
%TO.N,A8*%
X203200000Y-72390000D03*
%TD*%
D12*
%TO.P,R25,2*%
%TO.N,GND*%
X179070000Y-74930000D03*
D13*
%TO.P,R25,1*%
%TO.N,IA7*%
X189230000Y-74930000D03*
%TD*%
D12*
%TO.P,R24,2*%
%TO.N,IA7*%
X193040000Y-74930000D03*
D13*
%TO.P,R24,1*%
%TO.N,A7*%
X203200000Y-74930000D03*
%TD*%
D12*
%TO.P,R23,2*%
%TO.N,GND*%
X179070000Y-77470000D03*
D13*
%TO.P,R23,1*%
%TO.N,IA6*%
X189230000Y-77470000D03*
%TD*%
D12*
%TO.P,R22,2*%
%TO.N,IA6*%
X193040000Y-77470000D03*
D13*
%TO.P,R22,1*%
%TO.N,A6*%
X203200000Y-77470000D03*
%TD*%
D12*
%TO.P,R21,2*%
%TO.N,GND*%
X179070000Y-80010000D03*
D13*
%TO.P,R21,1*%
%TO.N,IA5*%
X189230000Y-80010000D03*
%TD*%
D12*
%TO.P,R20,2*%
%TO.N,IA5*%
X193040000Y-80010000D03*
D13*
%TO.P,R20,1*%
%TO.N,A5*%
X203200000Y-80010000D03*
%TD*%
D12*
%TO.P,R19,2*%
%TO.N,GND*%
X179070000Y-82550000D03*
D13*
%TO.P,R19,1*%
%TO.N,IA4*%
X189230000Y-82550000D03*
%TD*%
D12*
%TO.P,R18,2*%
%TO.N,IA4*%
X193040000Y-82550000D03*
D13*
%TO.P,R18,1*%
%TO.N,A4*%
X203200000Y-82550000D03*
%TD*%
D12*
%TO.P,R17,2*%
%TO.N,GND*%
X179070000Y-85090000D03*
D13*
%TO.P,R17,1*%
%TO.N,IA3*%
X189230000Y-85090000D03*
%TD*%
D12*
%TO.P,R16,2*%
%TO.N,IA3*%
X193040000Y-85090000D03*
D13*
%TO.P,R16,1*%
%TO.N,A3*%
X203200000Y-85090000D03*
%TD*%
D12*
%TO.P,R15,2*%
%TO.N,GND*%
X179070000Y-87630000D03*
D13*
%TO.P,R15,1*%
%TO.N,IA2*%
X189230000Y-87630000D03*
%TD*%
D12*
%TO.P,R14,2*%
%TO.N,IA2*%
X193040000Y-87630000D03*
D13*
%TO.P,R14,1*%
%TO.N,A2*%
X203200000Y-87630000D03*
%TD*%
D12*
%TO.P,R13,2*%
%TO.N,GND*%
X179070000Y-90170000D03*
D13*
%TO.P,R13,1*%
%TO.N,IA1*%
X189230000Y-90170000D03*
%TD*%
D12*
%TO.P,R12,2*%
%TO.N,IA1*%
X193040000Y-90170000D03*
D13*
%TO.P,R12,1*%
%TO.N,A1*%
X203200000Y-90170000D03*
%TD*%
D12*
%TO.P,R10,2*%
%TO.N,Net-(R10-Pad2)*%
X132588000Y-141224000D03*
D13*
%TO.P,R10,1*%
%TO.N,Net-(R10-Pad1)*%
X132588000Y-151384000D03*
%TD*%
D12*
%TO.P,R9,2*%
%TO.N,Net-(R8-Pad1)*%
X129286000Y-151384000D03*
D13*
%TO.P,R9,1*%
%TO.N,Net-(R10-Pad2)*%
X129286000Y-141224000D03*
%TD*%
D12*
%TO.P,R8,2*%
%TO.N,Net-(R7-Pad1)*%
X125984000Y-141224000D03*
D13*
%TO.P,R8,1*%
%TO.N,Net-(R8-Pad1)*%
X125984000Y-151384000D03*
%TD*%
D12*
%TO.P,R7,2*%
%TO.N,Net-(R6-Pad1)*%
X122682000Y-151384000D03*
D13*
%TO.P,R7,1*%
%TO.N,Net-(R7-Pad1)*%
X122682000Y-141224000D03*
%TD*%
D12*
%TO.P,R6,2*%
%TO.N,Net-(R5-Pad1)*%
X119634000Y-141224000D03*
D13*
%TO.P,R6,1*%
%TO.N,Net-(R6-Pad1)*%
X119634000Y-151384000D03*
%TD*%
D12*
%TO.P,R5,2*%
%TO.N,Net-(R4-Pad1)*%
X116586000Y-151384000D03*
D13*
%TO.P,R5,1*%
%TO.N,Net-(R5-Pad1)*%
X116586000Y-141224000D03*
%TD*%
D12*
%TO.P,R4,2*%
%TO.N,Net-(R3-Pad1)*%
X113538000Y-141224000D03*
D13*
%TO.P,R4,1*%
%TO.N,Net-(R4-Pad1)*%
X113538000Y-151384000D03*
%TD*%
D12*
%TO.P,R3,2*%
%TO.N,Net-(R2-Pad1)*%
X110490000Y-151384000D03*
D13*
%TO.P,R3,1*%
%TO.N,Net-(R3-Pad1)*%
X110490000Y-141224000D03*
%TD*%
D12*
%TO.P,R11,2*%
%TO.N,Net-(R10-Pad1)*%
X135890000Y-151384000D03*
D13*
%TO.P,R11,1*%
%TO.N,Net-(C1-Pad1)*%
X135890000Y-141224000D03*
%TD*%
D12*
%TO.P,R2,2*%
%TO.N,Net-(R1-Pad1)*%
X107442000Y-141224000D03*
D13*
%TO.P,R2,1*%
%TO.N,Net-(R2-Pad1)*%
X107442000Y-151384000D03*
%TD*%
D12*
%TO.P,R1,2*%
%TO.N,Net-(J1-Pad1)*%
X104394000Y-151384000D03*
D13*
%TO.P,R1,1*%
%TO.N,Net-(R1-Pad1)*%
X104394000Y-141224000D03*
%TD*%
D14*
%TO.P,U1,5V*%
%TO.N,+5V*%
X146812000Y-118872000D03*
%TO.P,U1,3V3*%
%TO.N,+3V3*%
X156972000Y-90932000D03*
%TO.P,U1,PB2*%
%TO.N,N/C*%
X156972000Y-88392000D03*
%TO.P,U1,G*%
%TO.N,GND*%
X156972000Y-85852000D03*
%TO.P,U1,3V3*%
%TO.N,+3V3*%
X159512000Y-90932000D03*
%TO.P,U1,BOOT*%
%TO.N,N/C*%
X159512000Y-88392000D03*
%TO.P,U1,G*%
%TO.N,GND*%
X159512000Y-85852000D03*
X158242000Y-120142000D03*
%TO.P,U1,PA14*%
%TO.N,N/C*%
X155702000Y-120142000D03*
%TO.P,U1,PA13*%
X153162000Y-120142000D03*
%TO.P,U1,3V3*%
%TO.N,+3V3*%
X150622000Y-120142000D03*
%TO.P,U1,G*%
%TO.N,GND*%
X162052000Y-75692000D03*
X162052000Y-78232000D03*
%TO.P,U1,3V3*%
%TO.N,+3V3*%
X162052000Y-80772000D03*
%TO.P,U1,NRST*%
%TO.N,N/C*%
X162052000Y-83312000D03*
%TO.P,U1,PB11*%
%TO.N,IA8*%
X162052000Y-85852000D03*
%TO.P,U1,PB10*%
%TO.N,IA7*%
X162052000Y-88392000D03*
%TO.P,U1,PB1*%
%TO.N,IX5*%
X162052000Y-90932000D03*
%TO.P,U1,PB0*%
%TO.N,IDO1*%
X162052000Y-93472000D03*
%TO.P,U1,PA7*%
%TO.N,Net-(J9-Pad4)*%
X162052000Y-96012000D03*
%TO.P,U1,PA6*%
%TO.N,Net-(J9-Pad3)*%
X162052000Y-98552000D03*
%TO.P,U1,PA5*%
%TO.N,Net-(J9-Pad2)*%
X162052000Y-101092000D03*
%TO.P,U1,PA4*%
%TO.N,Net-(J9-Pad1)*%
X162052000Y-103632000D03*
%TO.P,U1,PA3*%
%TO.N,ID4*%
X162052000Y-106172000D03*
%TO.P,U1,PA2*%
%TO.N,ID3*%
X162052000Y-108712000D03*
%TO.P,U1,PA1*%
%TO.N,ID2*%
X162052000Y-111252000D03*
%TO.P,U1,PA0*%
%TO.N,ID1*%
X162052000Y-113792000D03*
%TO.P,U1,PC15*%
%TO.N,IDO4*%
X162052000Y-116332000D03*
%TO.P,U1,PC14*%
%TO.N,IDO3*%
X162052000Y-118872000D03*
%TO.P,U1,PC13*%
%TO.N,IDO2*%
X162052000Y-121412000D03*
%TO.P,U1,VBAT*%
%TO.N,N/C*%
X162052000Y-123952000D03*
%TO.P,U1,3V3*%
%TO.N,+3V3*%
X146812000Y-123952000D03*
%TO.P,U1,G*%
%TO.N,GND*%
X146812000Y-121412000D03*
%TO.P,U1,PB9*%
%TO.N,IA6*%
X146812000Y-116332000D03*
%TO.P,U1,PB8*%
%TO.N,IA5*%
X146812000Y-113792000D03*
%TO.P,U1,PB7*%
%TO.N,IA4*%
X146812000Y-111252000D03*
%TO.P,U1,PB6*%
%TO.N,IA3*%
X146812000Y-108712000D03*
%TO.P,U1,PB5*%
%TO.N,IA2*%
X146812000Y-106172000D03*
%TO.P,U1,PB4*%
%TO.N,IA1*%
X146812000Y-103632000D03*
%TO.P,U1,PB3*%
%TO.N,IWIO*%
X146812000Y-101092000D03*
%TO.P,U1,PA15*%
%TO.N,ICLKA*%
X146812000Y-98552000D03*
%TO.P,U1,PA12*%
%TO.N,ICLKB*%
X146812000Y-96012000D03*
%TO.P,U1,PA11*%
%TO.N,ID8*%
X146812000Y-93472000D03*
%TO.P,U1,PA10*%
%TO.N,ID7*%
X146812000Y-90932000D03*
%TO.P,U1,PA9*%
%TO.N,ID6*%
X146812000Y-88392000D03*
%TO.P,U1,PA8*%
%TO.N,ID5*%
X146812000Y-85852000D03*
%TO.P,U1,PB15*%
%TO.N,IA12*%
X146812000Y-83312000D03*
%TO.P,U1,PB14*%
%TO.N,IA11*%
X146812000Y-80772000D03*
%TO.P,U1,PB13*%
%TO.N,IA10*%
X146812000Y-78232000D03*
%TO.P,U1,PB12*%
%TO.N,IA9*%
X146812000Y-75692000D03*
%TD*%
D15*
%TO.P,U2,3*%
%TO.N,+5V*%
X168605200Y-142011400D03*
%TO.P,U2,2*%
%TO.N,GND*%
X168605200Y-144551400D03*
D16*
%TO.P,U2,1*%
%TO.N,Net-(C1-Pad1)*%
X168605200Y-147091400D03*
%TD*%
D17*
%TO.P,J9,4*%
%TO.N,Net-(J9-Pad4)*%
X190500000Y-102438200D03*
%TO.P,J9,3*%
%TO.N,Net-(J9-Pad3)*%
X190500000Y-104978200D03*
%TO.P,J9,2*%
%TO.N,Net-(J9-Pad2)*%
X190500000Y-107518200D03*
D18*
%TO.P,J9,1*%
%TO.N,Net-(J9-Pad1)*%
X190500000Y-110058200D03*
%TD*%
D17*
%TO.P,J8,4*%
%TO.N,Net-(A1-Pad3)*%
X192913000Y-102362000D03*
%TO.P,J8,3*%
%TO.N,Net-(A1-Pad5)*%
X192913000Y-104902000D03*
%TO.P,J8,2*%
%TO.N,Net-(A1-Pad4)*%
X192913000Y-107442000D03*
D18*
%TO.P,J8,1*%
%TO.N,Net-(A1-Pad6)*%
X192913000Y-109982000D03*
%TD*%
D17*
%TO.P,J7,4*%
%TO.N,IX4*%
X187960000Y-102438200D03*
%TO.P,J7,3*%
%TO.N,IX3*%
X187960000Y-104978200D03*
%TO.P,J7,2*%
%TO.N,IX2*%
X187960000Y-107518200D03*
D18*
%TO.P,J7,1*%
%TO.N,IX1*%
X187960000Y-110058200D03*
%TD*%
D17*
%TO.P,J6,5*%
%TO.N,X5*%
X209804000Y-140970000D03*
%TO.P,J6,4*%
%TO.N,X4*%
X209804000Y-138430000D03*
%TO.P,J6,3*%
%TO.N,X3*%
X209804000Y-135890000D03*
%TO.P,J6,2*%
%TO.N,X2*%
X209804000Y-133350000D03*
D18*
%TO.P,J6,1*%
%TO.N,X1*%
X209804000Y-130810000D03*
%TD*%
D17*
%TO.P,J5,3*%
%TO.N,WIO*%
X102870000Y-95250000D03*
%TO.P,J5,2*%
%TO.N,CLKB*%
X102870000Y-92710000D03*
D18*
%TO.P,J5,1*%
%TO.N,CLKA*%
X102870000Y-90170000D03*
%TD*%
D17*
%TO.P,J4,4*%
%TO.N,DO4*%
X209397600Y-116840000D03*
%TO.P,J4,3*%
%TO.N,DO3*%
X209397600Y-119380000D03*
%TO.P,J4,2*%
%TO.N,DO2*%
X209397600Y-121920000D03*
D18*
%TO.P,J4,1*%
%TO.N,DO1*%
X209397600Y-124460000D03*
%TD*%
D17*
%TO.P,J1,2*%
%TO.N,GND*%
X104140000Y-133350000D03*
D18*
%TO.P,J1,1*%
%TO.N,Net-(J1-Pad1)*%
X104140000Y-135890000D03*
%TD*%
D17*
%TO.P,J3,12*%
%TO.N,A12*%
X208280000Y-62230000D03*
%TO.P,J3,11*%
%TO.N,A11*%
X208280000Y-64770000D03*
%TO.P,J3,10*%
%TO.N,A10*%
X208280000Y-67310000D03*
%TO.P,J3,9*%
%TO.N,A9*%
X208280000Y-69850000D03*
%TO.P,J3,8*%
%TO.N,A8*%
X208280000Y-72390000D03*
%TO.P,J3,7*%
%TO.N,A7*%
X208280000Y-74930000D03*
%TO.P,J3,6*%
%TO.N,A6*%
X208280000Y-77470000D03*
%TO.P,J3,5*%
%TO.N,A5*%
X208280000Y-80010000D03*
%TO.P,J3,4*%
%TO.N,A4*%
X208280000Y-82550000D03*
%TO.P,J3,3*%
%TO.N,A3*%
X208280000Y-85090000D03*
%TO.P,J3,2*%
%TO.N,A2*%
X208280000Y-87630000D03*
D18*
%TO.P,J3,1*%
%TO.N,A1*%
X208280000Y-90170000D03*
%TD*%
D17*
%TO.P,J2,8*%
%TO.N,D8*%
X101879400Y-127000000D03*
%TO.P,J2,7*%
%TO.N,D7*%
X101879400Y-124460000D03*
%TO.P,J2,6*%
%TO.N,D6*%
X101879400Y-121920000D03*
%TO.P,J2,5*%
%TO.N,D5*%
X101879400Y-119380000D03*
%TO.P,J2,4*%
%TO.N,D4*%
X101879400Y-116840000D03*
%TO.P,J2,3*%
%TO.N,D3*%
X101879400Y-114300000D03*
%TO.P,J2,2*%
%TO.N,D2*%
X101879400Y-111760000D03*
D18*
%TO.P,J2,1*%
%TO.N,D1*%
X101879400Y-109220000D03*
%TD*%
D19*
%TO.P,D1,2*%
%TO.N,GND*%
X149860000Y-135890000D03*
D20*
%TO.P,D1,1*%
%TO.N,Net-(C1-Pad1)*%
X149860000Y-148590000D03*
%TD*%
D14*
%TO.P,A1,6*%
%TO.N,Net-(A1-Pad6)*%
X204470000Y-109982000D03*
%TO.P,A1,5*%
%TO.N,Net-(A1-Pad5)*%
X204470000Y-107442000D03*
%TO.P,A1,4*%
%TO.N,Net-(A1-Pad4)*%
X204470000Y-104902000D03*
%TO.P,A1,3*%
%TO.N,Net-(A1-Pad3)*%
X204470000Y-102362000D03*
%TO.P,A1,2*%
%TO.N,+3V3*%
X204470000Y-99822000D03*
D21*
%TO.P,A1,1*%
%TO.N,GND*%
X204470000Y-97282000D03*
%TD*%
D22*
%TO.N,+3V3*%
X153924000Y-80772000D03*
X153924000Y-90932000D03*
X165100000Y-98044000D03*
%TO.N,GND*%
X179070000Y-96774000D03*
%TO.N,+5V*%
X144018000Y-132588000D03*
X161036000Y-133096000D03*
%TO.N,IX4*%
X185928000Y-102362000D03*
X184912000Y-138430000D03*
%TO.N,IX3*%
X183642000Y-105156000D03*
X183388000Y-136144000D03*
%TO.N,IX2*%
X182118000Y-107950000D03*
X182372000Y-133350000D03*
%TO.N,IX1*%
X185928000Y-111760000D03*
X185928000Y-130810000D03*
%TO.N,Net-(J9-Pad4)*%
X166116000Y-101092000D03*
X166370000Y-96012000D03*
%TO.N,Net-(J9-Pad3)*%
X165100000Y-103632000D03*
X164846000Y-99822000D03*
%TO.N,Net-(J9-Pad2)*%
X164084000Y-106172000D03*
X163830000Y-101346000D03*
%TO.N,Net-(J9-Pad1)*%
X164338000Y-108712000D03*
%TO.N,IA1*%
X171450000Y-91440000D03*
X171339000Y-102108000D03*
%TO.N,IA2*%
X170614000Y-89154000D03*
X170614000Y-104648000D03*
%TO.N,IA3*%
X169889000Y-86868000D03*
X169926000Y-107188000D03*
%TO.N,IA4*%
X169164000Y-83566000D03*
X169164000Y-109728000D03*
%TO.N,IA5*%
X168111000Y-81280000D03*
X168148000Y-112268000D03*
%TO.N,IA6*%
X167386000Y-78740000D03*
X167386000Y-115062000D03*
%TO.N,IA7*%
X166624000Y-76454000D03*
X166624000Y-88392000D03*
%TO.N,IA8*%
X165862000Y-73660000D03*
X165862000Y-85852000D03*
%TO.N,IA9*%
X151638000Y-71628000D03*
X151638000Y-75692000D03*
%TO.N,IA10*%
X150876000Y-69342000D03*
X151130000Y-78232000D03*
%TO.N,IA11*%
X149860000Y-66040000D03*
X149860000Y-80518000D03*
%TO.N,IA12*%
X148590000Y-63500000D03*
%TO.N,ID1*%
X124714000Y-115062000D03*
%TO.N,ID3*%
X129286000Y-110490000D03*
X129286000Y-114300000D03*
%TO.N,ID6*%
X127254000Y-88138000D03*
%TO.N,ID7*%
X135382000Y-92456000D03*
X135382000Y-123190000D03*
%TO.N,ID4*%
X130810000Y-106934000D03*
X130556000Y-116840000D03*
%TO.N,ID5*%
X126238000Y-86360000D03*
%TO.N,ID8*%
X143764000Y-93726000D03*
X142240000Y-127000000D03*
%TO.N,IDO1*%
X159766000Y-125730000D03*
%TO.N,IWIO*%
X139192000Y-96266000D03*
X139192000Y-100838000D03*
%TO.N,ICLKB*%
X141224000Y-93726000D03*
X141478000Y-96520000D03*
%TO.N,IX5*%
X171196000Y-141478000D03*
X172212000Y-92456000D03*
%TO.N,ICLKA*%
X142748000Y-91440000D03*
X143002000Y-98552000D03*
%TD*%
D23*
%TO.N,Net-(A1-Pad6)*%
X204470000Y-109982000D02*
X192913000Y-109982000D01*
%TO.N,Net-(A1-Pad4)*%
X192913000Y-107442000D02*
X196850000Y-107442000D01*
X199390000Y-104902000D02*
X204470000Y-104902000D01*
X196850000Y-107442000D02*
X199390000Y-104902000D01*
%TO.N,Net-(A1-Pad3)*%
X192913000Y-102362000D02*
X204470000Y-102362000D01*
D24*
%TO.N,+3V3*%
X162052000Y-80772000D02*
X153924000Y-80772000D01*
X153924000Y-90932000D02*
X156972000Y-90932000D01*
X156972000Y-90932000D02*
X159512000Y-90932000D01*
X204470000Y-99822000D02*
X202946000Y-99822000D01*
X201168000Y-98044000D02*
X165100000Y-98044000D01*
X202946000Y-99822000D02*
X201168000Y-98044000D01*
D23*
%TO.N,GND*%
X179832000Y-130810000D02*
X179832000Y-140970000D01*
D24*
X162813999Y-74930001D02*
X162052000Y-75692000D01*
X179070000Y-74930000D02*
X162813999Y-74930001D01*
D23*
X146304000Y-121920000D02*
X146812000Y-121412000D01*
X133350000Y-121920000D02*
X146304000Y-121920000D01*
X156210001Y-122173999D02*
X158242000Y-120142000D01*
X147573999Y-122173999D02*
X156210001Y-122173999D01*
X146812000Y-121412000D02*
X147573999Y-122173999D01*
D24*
X179070000Y-96774000D02*
X203962000Y-96774000D01*
X203962000Y-96774000D02*
X204470000Y-97282000D01*
D23*
%TO.N,+5V*%
X160528000Y-132588000D02*
X161036000Y-133096000D01*
X144018000Y-132588000D02*
X160528000Y-132588000D01*
%TO.N,D8*%
X106680000Y-127000000D02*
X101879400Y-127000000D01*
%TO.N,D7*%
X101879400Y-124460000D02*
X106680000Y-124460000D01*
%TO.N,D6*%
X106680000Y-121920000D02*
X101879400Y-121920000D01*
%TO.N,D5*%
X101879400Y-119380000D02*
X106680000Y-119380000D01*
%TO.N,D4*%
X106680000Y-116840000D02*
X101879400Y-116840000D01*
%TO.N,D3*%
X106680000Y-114300000D02*
X101879400Y-114300000D01*
%TO.N,D2*%
X101879400Y-111760000D02*
X106680000Y-111760000D01*
%TO.N,D1*%
X106680000Y-109220000D02*
X101879400Y-109220000D01*
%TO.N,DO4*%
X209397600Y-116840000D02*
X205232000Y-116840000D01*
%TO.N,DO3*%
X205232000Y-119380000D02*
X209397600Y-119380000D01*
%TO.N,DO2*%
X209397600Y-121920000D02*
X205232000Y-121920000D01*
%TO.N,DO1*%
X205232000Y-124460000D02*
X209397600Y-124460000D01*
%TO.N,WIO*%
X106680000Y-95250000D02*
X102870000Y-95250000D01*
%TO.N,CLKB*%
X102870000Y-92710000D02*
X106680000Y-92710000D01*
%TO.N,CLKA*%
X102870000Y-90170000D02*
X106680000Y-90170000D01*
%TO.N,X5*%
X209804000Y-140970000D02*
X203962000Y-140970000D01*
%TO.N,X4*%
X203962000Y-138430000D02*
X209804000Y-138430000D01*
%TO.N,X3*%
X209804000Y-135890000D02*
X203962000Y-135890000D01*
%TO.N,X2*%
X203962000Y-133350000D02*
X209322001Y-133350000D01*
X209322001Y-133350000D02*
X209804000Y-133350000D01*
%TO.N,X1*%
X209804000Y-130810000D02*
X203962000Y-130810000D01*
%TO.N,IX4*%
X189992000Y-138430000D02*
X193802000Y-138430000D01*
D25*
X186004200Y-102438200D02*
X185928000Y-102362000D01*
X187960000Y-102438200D02*
X186004200Y-102438200D01*
X184912000Y-138430000D02*
X189992000Y-138430000D01*
D23*
%TO.N,IX3*%
X193802000Y-135890000D02*
X189992000Y-135890000D01*
D25*
X183819800Y-104978200D02*
X183642000Y-105156000D01*
X187960000Y-104978200D02*
X183819800Y-104978200D01*
X189738000Y-136144000D02*
X189992000Y-135890000D01*
X183388000Y-136144000D02*
X189738000Y-136144000D01*
D23*
%TO.N,IX2*%
X189992000Y-133350000D02*
X193802000Y-133350000D01*
D25*
X182549800Y-107518200D02*
X182118000Y-107950000D01*
X187960000Y-107518200D02*
X182549800Y-107518200D01*
X182372000Y-133350000D02*
X189992000Y-133350000D01*
D23*
%TO.N,IX1*%
X193802000Y-130810000D02*
X189992000Y-130810000D01*
D25*
X187629800Y-110058200D02*
X185928000Y-111760000D01*
X187960000Y-110058200D02*
X187629800Y-110058200D01*
X185928000Y-130810000D02*
X189992000Y-130810000D01*
%TO.N,Net-(J9-Pad4)*%
X189153800Y-101092000D02*
X166116000Y-101092000D01*
X190500000Y-102438200D02*
X189153800Y-101092000D01*
X166370000Y-96012000D02*
X162052000Y-96012000D01*
%TO.N,Net-(J9-Pad3)*%
X189153800Y-103632000D02*
X165100000Y-103632000D01*
X190500000Y-104978200D02*
X189153800Y-103632000D01*
X163576000Y-98552000D02*
X162052000Y-98552000D01*
X164846000Y-99822000D02*
X163576000Y-98552000D01*
%TO.N,Net-(J9-Pad2)*%
X189324999Y-106343199D02*
X164255199Y-106343199D01*
X164255199Y-106343199D02*
X164084000Y-106172000D01*
X190500000Y-107518200D02*
X189324999Y-106343199D01*
X162306000Y-101346000D02*
X162052000Y-101092000D01*
X163830000Y-101346000D02*
X162306000Y-101346000D01*
%TO.N,Net-(J9-Pad1)*%
X189153800Y-108712000D02*
X164338000Y-108712000D01*
X190500000Y-110058200D02*
X189153800Y-108712000D01*
D24*
%TO.N,Net-(R1-Pad1)*%
X104394000Y-141224000D02*
X107442000Y-141224000D01*
%TO.N,Net-(R2-Pad1)*%
X107442000Y-151384000D02*
X110490000Y-151384000D01*
%TO.N,Net-(R4-Pad1)*%
X113538000Y-151384000D02*
X116586000Y-151384000D01*
%TO.N,Net-(R5-Pad1)*%
X116586000Y-141224000D02*
X119634000Y-141224000D01*
%TO.N,Net-(R6-Pad1)*%
X119634000Y-151384000D02*
X122682000Y-151384000D01*
%TO.N,Net-(R7-Pad1)*%
X122682000Y-141224000D02*
X125984000Y-141224000D01*
%TO.N,Net-(R8-Pad1)*%
X125984000Y-151384000D02*
X129286000Y-151384000D01*
%TO.N,Net-(R10-Pad2)*%
X129286000Y-141224000D02*
X132588000Y-141224000D01*
%TO.N,Net-(R10-Pad1)*%
X132588000Y-151384000D02*
X135890000Y-151384000D01*
D25*
%TO.N,IA1*%
X189230000Y-90170000D02*
X185928000Y-90170000D01*
X184658000Y-91440000D02*
X171450000Y-91440000D01*
X185928000Y-90170000D02*
X184658000Y-91440000D01*
X170939001Y-102507999D02*
X152000001Y-102507999D01*
X171339000Y-102108000D02*
X170939001Y-102507999D01*
X150876000Y-103632000D02*
X146812000Y-103632000D01*
X152000001Y-102507999D02*
X150876000Y-103632000D01*
%TO.N,IA2*%
X189230000Y-87630000D02*
X185674000Y-87630000D01*
X170723001Y-89044999D02*
X170614000Y-89154000D01*
X184259001Y-89044999D02*
X170723001Y-89044999D01*
X185674000Y-87630000D02*
X184259001Y-89044999D01*
X170214001Y-105047999D02*
X151492001Y-105047999D01*
X170614000Y-104648000D02*
X170214001Y-105047999D01*
X150368000Y-106172000D02*
X146812000Y-106172000D01*
X151492001Y-105047999D02*
X150368000Y-106172000D01*
%TO.N,IA3*%
X189230000Y-85090000D02*
X185420000Y-85090000D01*
X184005001Y-86504999D02*
X170252001Y-86504999D01*
X170252001Y-86504999D02*
X169889000Y-86868000D01*
X185420000Y-85090000D02*
X184005001Y-86504999D01*
X169526001Y-107587999D02*
X152254001Y-107587999D01*
X169926000Y-107188000D02*
X169526001Y-107587999D01*
X151130000Y-108712000D02*
X146812000Y-108712000D01*
X152254001Y-107587999D02*
X151130000Y-108712000D01*
%TO.N,IA4*%
X169273001Y-83675001D02*
X169164000Y-83566000D01*
X188104999Y-83675001D02*
X169273001Y-83675001D01*
X189230000Y-82550000D02*
X188104999Y-83675001D01*
X168764001Y-110127999D02*
X153270001Y-110127999D01*
X169164000Y-109728000D02*
X168764001Y-110127999D01*
X152146000Y-111252000D02*
X146812000Y-111252000D01*
X153270001Y-110127999D02*
X152146000Y-111252000D01*
%TO.N,IA5*%
X189230000Y-80010000D02*
X185674000Y-80010000D01*
X184259001Y-81424999D02*
X168255999Y-81424999D01*
X168255999Y-81424999D02*
X168111000Y-81280000D01*
X185674000Y-80010000D02*
X184259001Y-81424999D01*
X167748001Y-112667999D02*
X153524001Y-112667999D01*
X168148000Y-112268000D02*
X167748001Y-112667999D01*
X152400000Y-113792000D02*
X146812000Y-113792000D01*
X153524001Y-112667999D02*
X152400000Y-113792000D01*
%TO.N,IA6*%
X189230000Y-77470000D02*
X185166000Y-77470000D01*
X185166000Y-77470000D02*
X183896000Y-78740000D01*
X183896000Y-78740000D02*
X167386000Y-78740000D01*
X167386000Y-115062000D02*
X154178000Y-115062000D01*
X152908000Y-116332000D02*
X146812000Y-116332000D01*
X154178000Y-115062000D02*
X152908000Y-116332000D01*
%TO.N,IA7*%
X189230000Y-74930000D02*
X184912000Y-74930000D01*
X166733001Y-76344999D02*
X166624000Y-76454000D01*
X183497001Y-76344999D02*
X166733001Y-76344999D01*
X184912000Y-74930000D02*
X183497001Y-76344999D01*
X166624000Y-88392000D02*
X162052000Y-88392000D01*
%TO.N,IA8*%
X187960000Y-73660000D02*
X165862000Y-73660000D01*
X189230000Y-72390000D02*
X187960000Y-73660000D01*
X162052000Y-85852000D02*
X165862000Y-85852000D01*
%TO.N,IA9*%
X189230000Y-69850000D02*
X185166000Y-69850000D01*
X152001001Y-71264999D02*
X151638000Y-71628000D01*
X183751001Y-71264999D02*
X152001001Y-71264999D01*
X185166000Y-69850000D02*
X183751001Y-71264999D01*
X151638000Y-75692000D02*
X146812000Y-75692000D01*
%TO.N,IA10*%
X189230000Y-67310000D02*
X183896000Y-67310000D01*
X182481001Y-68724999D02*
X151493001Y-68724999D01*
X151493001Y-68724999D02*
X150876000Y-69342000D01*
X183896000Y-67310000D02*
X182481001Y-68724999D01*
X151130000Y-78232000D02*
X146812000Y-78232000D01*
D23*
%TO.N,ID2*%
X116840000Y-111760000D02*
X123190000Y-111760000D01*
D25*
X124315001Y-112885001D02*
X123190000Y-111760000D01*
X134253002Y-112522000D02*
X133890001Y-112885001D01*
X147828001Y-112013999D02*
X147320000Y-112522000D01*
X133890001Y-112885001D02*
X124315001Y-112885001D01*
X147320000Y-112522000D02*
X134253002Y-112522000D01*
X161290001Y-112013999D02*
X147828001Y-112013999D01*
X162052000Y-111252000D02*
X161290001Y-112013999D01*
%TO.N,IA11*%
X189230000Y-64770000D02*
X184150000Y-64770000D01*
X184150000Y-64770000D02*
X181610000Y-64770000D01*
X180340000Y-66040000D02*
X149860000Y-66040000D01*
X181610000Y-64770000D02*
X180340000Y-66040000D01*
X147066000Y-80518000D02*
X146812000Y-80772000D01*
X149860000Y-80518000D02*
X147066000Y-80518000D01*
%TO.N,IA12*%
X189230000Y-62230000D02*
X181610000Y-62230000D01*
X180340000Y-63500000D02*
X148590000Y-63500000D01*
X181610000Y-62230000D02*
X180340000Y-63500000D01*
D23*
%TO.N,ID1*%
X116840000Y-109220000D02*
X123190000Y-109220000D01*
D25*
X125077001Y-115425001D02*
X124714000Y-115062000D01*
X162052000Y-113792000D02*
X153036410Y-113792000D01*
X151949409Y-114879001D02*
X134436001Y-114879001D01*
X133890001Y-115425001D02*
X125077001Y-115425001D01*
X153036410Y-113792000D02*
X151949409Y-114879001D01*
X134436001Y-114879001D02*
X133890001Y-115425001D01*
D23*
%TO.N,ID3*%
X116840000Y-114300000D02*
X123190000Y-114300000D01*
D25*
X145599240Y-110490000D02*
X129286000Y-110490000D01*
X162052000Y-108712000D02*
X151766410Y-108712000D01*
X150679409Y-109799001D02*
X146290239Y-109799001D01*
X146290239Y-109799001D02*
X145599240Y-110490000D01*
X151766410Y-108712000D02*
X150679409Y-109799001D01*
X129286000Y-114300000D02*
X123190000Y-114300000D01*
D23*
%TO.N,ID6*%
X116840000Y-121920000D02*
X123190000Y-121920000D01*
D25*
X127508000Y-88392000D02*
X127254000Y-88138000D01*
X146812000Y-88392000D02*
X127508000Y-88392000D01*
D23*
%TO.N,ID7*%
X116840000Y-124460000D02*
X123190000Y-124460000D01*
D25*
X145288000Y-92456000D02*
X135382000Y-92456000D01*
X146812000Y-90932000D02*
X145288000Y-92456000D01*
X135382000Y-123190000D02*
X130048000Y-123190000D01*
X128778000Y-124460000D02*
X123190000Y-124460000D01*
X130048000Y-123190000D02*
X128778000Y-124460000D01*
%TO.N,ID4*%
X162052000Y-106172000D02*
X151004410Y-106172000D01*
X151004410Y-106172000D02*
X149917409Y-107259001D01*
X149917409Y-107259001D02*
X131135001Y-107259001D01*
X131135001Y-107259001D02*
X130810000Y-106934000D01*
X130556000Y-116840000D02*
X122174000Y-116840000D01*
D23*
X122174000Y-116840000D02*
X123190000Y-116840000D01*
X116840000Y-116840000D02*
X122174000Y-116840000D01*
%TO.N,ID5*%
X116840000Y-119380000D02*
X123190000Y-119380000D01*
D25*
X126746000Y-85852000D02*
X126238000Y-86360000D01*
X146812000Y-85852000D02*
X126746000Y-85852000D01*
D23*
%TO.N,ID8*%
X123190000Y-127000000D02*
X116840000Y-127000000D01*
D25*
X144018000Y-93472000D02*
X143764000Y-93726000D01*
X146812000Y-93472000D02*
X144018000Y-93472000D01*
X141114999Y-125874999D02*
X124315001Y-125874999D01*
X124315001Y-125874999D02*
X123190000Y-127000000D01*
X142240000Y-127000000D02*
X141114999Y-125874999D01*
D23*
%TO.N,IDO1*%
X191262000Y-124460000D02*
X195072000Y-124460000D01*
D25*
X191262000Y-124460000D02*
X187706000Y-124460000D01*
X186436000Y-125730000D02*
X159766000Y-125730000D01*
X187706000Y-124460000D02*
X186436000Y-125730000D01*
D23*
%TO.N,IDO2*%
X195072000Y-121920000D02*
X191262000Y-121920000D01*
D25*
X162669001Y-120794999D02*
X162052000Y-121412000D01*
X190136999Y-120794999D02*
X162669001Y-120794999D01*
X191262000Y-121920000D02*
X190136999Y-120794999D01*
D23*
%TO.N,IDO3*%
X191262000Y-119380000D02*
X195072000Y-119380000D01*
D25*
X162669001Y-118254999D02*
X162052000Y-118872000D01*
X190136999Y-118254999D02*
X162669001Y-118254999D01*
X191262000Y-119380000D02*
X190136999Y-118254999D01*
D23*
%TO.N,IDO4*%
X195072000Y-116840000D02*
X191262000Y-116840000D01*
D25*
X191262000Y-116840000D02*
X189992000Y-115570000D01*
X189992000Y-115570000D02*
X174498000Y-115570000D01*
X174498000Y-115570000D02*
X173482000Y-116586000D01*
X162306000Y-116586000D02*
X162052000Y-116332000D01*
X173482000Y-116586000D02*
X162306000Y-116586000D01*
D23*
%TO.N,IWIO*%
X116840000Y-95250000D02*
X121920000Y-95250000D01*
D25*
X139082999Y-96375001D02*
X139192000Y-96266000D01*
X123045001Y-96375001D02*
X139082999Y-96375001D01*
X121920000Y-95250000D02*
X123045001Y-96375001D01*
X146558000Y-100838000D02*
X146812000Y-101092000D01*
X139192000Y-100838000D02*
X146558000Y-100838000D01*
D23*
%TO.N,ICLKB*%
X121920000Y-92710000D02*
X116840000Y-92710000D01*
D25*
X141114999Y-93835001D02*
X141224000Y-93726000D01*
X123045001Y-93835001D02*
X141114999Y-93835001D01*
X121920000Y-92710000D02*
X123045001Y-93835001D01*
X141986000Y-96012000D02*
X146812000Y-96012000D01*
X141478000Y-96520000D02*
X141986000Y-96012000D01*
D23*
%TO.N,IX5*%
X193802000Y-140970000D02*
X189992000Y-140970000D01*
D25*
X189992000Y-140970000D02*
X186436000Y-140970000D01*
X185310999Y-142095001D02*
X171813001Y-142095001D01*
X186436000Y-140970000D02*
X185310999Y-142095001D01*
X171813001Y-142095001D02*
X171196000Y-141478000D01*
X163576000Y-92456000D02*
X162052000Y-90932000D01*
X172212000Y-92456000D02*
X163576000Y-92456000D01*
D23*
%TO.N,ICLKA*%
X116840000Y-90170000D02*
X121920000Y-90170000D01*
D25*
X142603001Y-91295001D02*
X142748000Y-91440000D01*
X123045001Y-91295001D02*
X142603001Y-91295001D01*
X121920000Y-90170000D02*
X123045001Y-91295001D01*
X143002000Y-98552000D02*
X146812000Y-98552000D01*
D24*
%TO.N,Net-(J1-Pad1)*%
X104140000Y-135890000D02*
X101600000Y-138430000D01*
X101600000Y-138430000D02*
X101600000Y-148590000D01*
X101600000Y-148590000D02*
X104394000Y-151384000D01*
%TO.N,Net-(R3-Pad1)*%
X110490000Y-141224000D02*
X113538000Y-141224000D01*
%TD*%
M02*
