%TF.GenerationSoftware,KiCad,Pcbnew,5.1.6-c6e7f7d~86~ubuntu16.04.1*%
%TF.CreationDate,2020-10-27T22:16:19+00:00*%
%TF.ProjectId,ppstrace1,70707374-7261-4636-9531-2e6b69636164,rev?*%
%TF.SameCoordinates,Original*%
%TF.FileFunction,Legend,Top*%
%TF.FilePolarity,Positive*%
%FSLAX46Y46*%
G04 Gerber Fmt 4.6, Leading zero omitted, Abs format (unit mm)*
G04 Created by KiCad (PCBNEW 5.1.6-c6e7f7d~86~ubuntu16.04.1) date 2020-10-27 22:16:19*
%MOMM*%
%LPD*%
G01*
G04 APERTURE LIST*
%ADD10C,0.120000*%
%ADD11C,0.150000*%
G04 APERTURE END LIST*
D10*
%TO.C,REF\u002A\u002A*%
X131810000Y-59630000D02*
G75*
G02*
X129810000Y-59630000I-1000000J0D01*
G01*
X129810000Y-59630000D02*
X128560000Y-59630000D01*
X128560000Y-59630000D02*
X128560000Y-85150000D01*
X128560000Y-85150000D02*
X133060000Y-85150000D01*
X133060000Y-85150000D02*
X133060000Y-59630000D01*
X133060000Y-59630000D02*
X131810000Y-59630000D01*
X125560000Y-59570000D02*
X125560000Y-85210000D01*
X125560000Y-85210000D02*
X136060000Y-85210000D01*
X136060000Y-85210000D02*
X136060000Y-59570000D01*
X136060000Y-59570000D02*
X125560000Y-59570000D01*
X119110000Y-59630000D02*
G75*
G02*
X117110000Y-59630000I-1000000J0D01*
G01*
X117110000Y-59630000D02*
X115860000Y-59630000D01*
X115860000Y-59630000D02*
X115860000Y-85150000D01*
X115860000Y-85150000D02*
X120360000Y-85150000D01*
X120360000Y-85150000D02*
X120360000Y-59630000D01*
X120360000Y-59630000D02*
X119110000Y-59630000D01*
X112860000Y-59570000D02*
X112860000Y-85210000D01*
X112860000Y-85210000D02*
X123360000Y-85210000D01*
X123360000Y-85210000D02*
X123360000Y-59570000D01*
X123360000Y-59570000D02*
X112860000Y-59570000D01*
X106410000Y-59630000D02*
G75*
G02*
X104410000Y-59630000I-1000000J0D01*
G01*
X104410000Y-59630000D02*
X103160000Y-59630000D01*
X103160000Y-59630000D02*
X103160000Y-85150000D01*
X103160000Y-85150000D02*
X107660000Y-85150000D01*
X107660000Y-85150000D02*
X107660000Y-59630000D01*
X107660000Y-59630000D02*
X106410000Y-59630000D01*
X100160000Y-59570000D02*
X100160000Y-85210000D01*
X100160000Y-85210000D02*
X110660000Y-85210000D01*
X110660000Y-85210000D02*
X110660000Y-59570000D01*
X110660000Y-59570000D02*
X100160000Y-59570000D01*
%TO.C,R75*%
X123730000Y-88800000D02*
X123730000Y-91540000D01*
X123730000Y-91540000D02*
X130270000Y-91540000D01*
X130270000Y-91540000D02*
X130270000Y-88800000D01*
X130270000Y-88800000D02*
X123730000Y-88800000D01*
X122960000Y-90170000D02*
X123730000Y-90170000D01*
X131040000Y-90170000D02*
X130270000Y-90170000D01*
%TO.C,R74*%
X108490000Y-88800000D02*
X108490000Y-91540000D01*
X108490000Y-91540000D02*
X115030000Y-91540000D01*
X115030000Y-91540000D02*
X115030000Y-88800000D01*
X115030000Y-88800000D02*
X108490000Y-88800000D01*
X107720000Y-90170000D02*
X108490000Y-90170000D01*
X115800000Y-90170000D02*
X115030000Y-90170000D01*
%TO.C,R73*%
X188182000Y-142340000D02*
X188182000Y-139600000D01*
X188182000Y-139600000D02*
X181642000Y-139600000D01*
X181642000Y-139600000D02*
X181642000Y-142340000D01*
X181642000Y-142340000D02*
X188182000Y-142340000D01*
X188952000Y-140970000D02*
X188182000Y-140970000D01*
X180872000Y-140970000D02*
X181642000Y-140970000D01*
%TO.C,R72*%
X202152000Y-142340000D02*
X202152000Y-139600000D01*
X202152000Y-139600000D02*
X195612000Y-139600000D01*
X195612000Y-139600000D02*
X195612000Y-142340000D01*
X195612000Y-142340000D02*
X202152000Y-142340000D01*
X202922000Y-140970000D02*
X202152000Y-140970000D01*
X194842000Y-140970000D02*
X195612000Y-140970000D01*
%TO.C,R71*%
X123730000Y-91340000D02*
X123730000Y-94080000D01*
X123730000Y-94080000D02*
X130270000Y-94080000D01*
X130270000Y-94080000D02*
X130270000Y-91340000D01*
X130270000Y-91340000D02*
X123730000Y-91340000D01*
X122960000Y-92710000D02*
X123730000Y-92710000D01*
X131040000Y-92710000D02*
X130270000Y-92710000D01*
%TO.C,R70*%
X108490000Y-91340000D02*
X108490000Y-94080000D01*
X108490000Y-94080000D02*
X115030000Y-94080000D01*
X115030000Y-94080000D02*
X115030000Y-91340000D01*
X115030000Y-91340000D02*
X108490000Y-91340000D01*
X107720000Y-92710000D02*
X108490000Y-92710000D01*
X115800000Y-92710000D02*
X115030000Y-92710000D01*
%TO.C,R69*%
X188182000Y-139800000D02*
X188182000Y-137060000D01*
X188182000Y-137060000D02*
X181642000Y-137060000D01*
X181642000Y-137060000D02*
X181642000Y-139800000D01*
X181642000Y-139800000D02*
X188182000Y-139800000D01*
X188952000Y-138430000D02*
X188182000Y-138430000D01*
X180872000Y-138430000D02*
X181642000Y-138430000D01*
%TO.C,R68*%
X202152000Y-139800000D02*
X202152000Y-137060000D01*
X202152000Y-137060000D02*
X195612000Y-137060000D01*
X195612000Y-137060000D02*
X195612000Y-139800000D01*
X195612000Y-139800000D02*
X202152000Y-139800000D01*
X202922000Y-138430000D02*
X202152000Y-138430000D01*
X194842000Y-138430000D02*
X195612000Y-138430000D01*
%TO.C,R67*%
X188182000Y-137260000D02*
X188182000Y-134520000D01*
X188182000Y-134520000D02*
X181642000Y-134520000D01*
X181642000Y-134520000D02*
X181642000Y-137260000D01*
X181642000Y-137260000D02*
X188182000Y-137260000D01*
X188952000Y-135890000D02*
X188182000Y-135890000D01*
X180872000Y-135890000D02*
X181642000Y-135890000D01*
%TO.C,R66*%
X202152000Y-137260000D02*
X202152000Y-134520000D01*
X202152000Y-134520000D02*
X195612000Y-134520000D01*
X195612000Y-134520000D02*
X195612000Y-137260000D01*
X195612000Y-137260000D02*
X202152000Y-137260000D01*
X202922000Y-135890000D02*
X202152000Y-135890000D01*
X194842000Y-135890000D02*
X195612000Y-135890000D01*
%TO.C,R65*%
X188182000Y-134720000D02*
X188182000Y-131980000D01*
X188182000Y-131980000D02*
X181642000Y-131980000D01*
X181642000Y-131980000D02*
X181642000Y-134720000D01*
X181642000Y-134720000D02*
X188182000Y-134720000D01*
X188952000Y-133350000D02*
X188182000Y-133350000D01*
X180872000Y-133350000D02*
X181642000Y-133350000D01*
%TO.C,R64*%
X202152000Y-134720000D02*
X202152000Y-131980000D01*
X202152000Y-131980000D02*
X195612000Y-131980000D01*
X195612000Y-131980000D02*
X195612000Y-134720000D01*
X195612000Y-134720000D02*
X202152000Y-134720000D01*
X202922000Y-133350000D02*
X202152000Y-133350000D01*
X194842000Y-133350000D02*
X195612000Y-133350000D01*
%TO.C,R63*%
X123730000Y-93880000D02*
X123730000Y-96620000D01*
X123730000Y-96620000D02*
X130270000Y-96620000D01*
X130270000Y-96620000D02*
X130270000Y-93880000D01*
X130270000Y-93880000D02*
X123730000Y-93880000D01*
X122960000Y-95250000D02*
X123730000Y-95250000D01*
X131040000Y-95250000D02*
X130270000Y-95250000D01*
%TO.C,R62*%
X108490000Y-93880000D02*
X108490000Y-96620000D01*
X108490000Y-96620000D02*
X115030000Y-96620000D01*
X115030000Y-96620000D02*
X115030000Y-93880000D01*
X115030000Y-93880000D02*
X108490000Y-93880000D01*
X107720000Y-95250000D02*
X108490000Y-95250000D01*
X115800000Y-95250000D02*
X115030000Y-95250000D01*
%TO.C,R61*%
X188182000Y-132180000D02*
X188182000Y-129440000D01*
X188182000Y-129440000D02*
X181642000Y-129440000D01*
X181642000Y-129440000D02*
X181642000Y-132180000D01*
X181642000Y-132180000D02*
X188182000Y-132180000D01*
X188952000Y-130810000D02*
X188182000Y-130810000D01*
X180872000Y-130810000D02*
X181642000Y-130810000D01*
%TO.C,R60*%
X202152000Y-132180000D02*
X202152000Y-129440000D01*
X202152000Y-129440000D02*
X195612000Y-129440000D01*
X195612000Y-129440000D02*
X195612000Y-132180000D01*
X195612000Y-132180000D02*
X202152000Y-132180000D01*
X202922000Y-130810000D02*
X202152000Y-130810000D01*
X194842000Y-130810000D02*
X195612000Y-130810000D01*
%TO.C,R59*%
X189452000Y-118210000D02*
X189452000Y-115470000D01*
X189452000Y-115470000D02*
X182912000Y-115470000D01*
X182912000Y-115470000D02*
X182912000Y-118210000D01*
X182912000Y-118210000D02*
X189452000Y-118210000D01*
X190222000Y-116840000D02*
X189452000Y-116840000D01*
X182142000Y-116840000D02*
X182912000Y-116840000D01*
%TO.C,R58*%
X203422000Y-118210000D02*
X203422000Y-115470000D01*
X203422000Y-115470000D02*
X196882000Y-115470000D01*
X196882000Y-115470000D02*
X196882000Y-118210000D01*
X196882000Y-118210000D02*
X203422000Y-118210000D01*
X204192000Y-116840000D02*
X203422000Y-116840000D01*
X196112000Y-116840000D02*
X196882000Y-116840000D01*
%TO.C,R57*%
X189452000Y-120750000D02*
X189452000Y-118010000D01*
X189452000Y-118010000D02*
X182912000Y-118010000D01*
X182912000Y-118010000D02*
X182912000Y-120750000D01*
X182912000Y-120750000D02*
X189452000Y-120750000D01*
X190222000Y-119380000D02*
X189452000Y-119380000D01*
X182142000Y-119380000D02*
X182912000Y-119380000D01*
%TO.C,R56*%
X203422000Y-120750000D02*
X203422000Y-118010000D01*
X203422000Y-118010000D02*
X196882000Y-118010000D01*
X196882000Y-118010000D02*
X196882000Y-120750000D01*
X196882000Y-120750000D02*
X203422000Y-120750000D01*
X204192000Y-119380000D02*
X203422000Y-119380000D01*
X196112000Y-119380000D02*
X196882000Y-119380000D01*
%TO.C,R55*%
X189452000Y-123290000D02*
X189452000Y-120550000D01*
X189452000Y-120550000D02*
X182912000Y-120550000D01*
X182912000Y-120550000D02*
X182912000Y-123290000D01*
X182912000Y-123290000D02*
X189452000Y-123290000D01*
X190222000Y-121920000D02*
X189452000Y-121920000D01*
X182142000Y-121920000D02*
X182912000Y-121920000D01*
%TO.C,R54*%
X203422000Y-123290000D02*
X203422000Y-120550000D01*
X203422000Y-120550000D02*
X196882000Y-120550000D01*
X196882000Y-120550000D02*
X196882000Y-123290000D01*
X196882000Y-123290000D02*
X203422000Y-123290000D01*
X204192000Y-121920000D02*
X203422000Y-121920000D01*
X196112000Y-121920000D02*
X196882000Y-121920000D01*
%TO.C,R53*%
X189452000Y-125830000D02*
X189452000Y-123090000D01*
X189452000Y-123090000D02*
X182912000Y-123090000D01*
X182912000Y-123090000D02*
X182912000Y-125830000D01*
X182912000Y-125830000D02*
X189452000Y-125830000D01*
X190222000Y-124460000D02*
X189452000Y-124460000D01*
X182142000Y-124460000D02*
X182912000Y-124460000D01*
%TO.C,R52*%
X203422000Y-125830000D02*
X203422000Y-123090000D01*
X203422000Y-123090000D02*
X196882000Y-123090000D01*
X196882000Y-123090000D02*
X196882000Y-125830000D01*
X196882000Y-125830000D02*
X203422000Y-125830000D01*
X204192000Y-124460000D02*
X203422000Y-124460000D01*
X196112000Y-124460000D02*
X196882000Y-124460000D01*
%TO.C,R51*%
X125000000Y-125630000D02*
X125000000Y-128370000D01*
X125000000Y-128370000D02*
X131540000Y-128370000D01*
X131540000Y-128370000D02*
X131540000Y-125630000D01*
X131540000Y-125630000D02*
X125000000Y-125630000D01*
X124230000Y-127000000D02*
X125000000Y-127000000D01*
X132310000Y-127000000D02*
X131540000Y-127000000D01*
%TO.C,R50*%
X108490000Y-125630000D02*
X108490000Y-128370000D01*
X108490000Y-128370000D02*
X115030000Y-128370000D01*
X115030000Y-128370000D02*
X115030000Y-125630000D01*
X115030000Y-125630000D02*
X108490000Y-125630000D01*
X107720000Y-127000000D02*
X108490000Y-127000000D01*
X115800000Y-127000000D02*
X115030000Y-127000000D01*
%TO.C,R49*%
X125000000Y-118010000D02*
X125000000Y-120750000D01*
X125000000Y-120750000D02*
X131540000Y-120750000D01*
X131540000Y-120750000D02*
X131540000Y-118010000D01*
X131540000Y-118010000D02*
X125000000Y-118010000D01*
X124230000Y-119380000D02*
X125000000Y-119380000D01*
X132310000Y-119380000D02*
X131540000Y-119380000D01*
%TO.C,R48*%
X108490000Y-118010000D02*
X108490000Y-120750000D01*
X108490000Y-120750000D02*
X115030000Y-120750000D01*
X115030000Y-120750000D02*
X115030000Y-118010000D01*
X115030000Y-118010000D02*
X108490000Y-118010000D01*
X107720000Y-119380000D02*
X108490000Y-119380000D01*
X115800000Y-119380000D02*
X115030000Y-119380000D01*
%TO.C,R47*%
X125000000Y-115470000D02*
X125000000Y-118210000D01*
X125000000Y-118210000D02*
X131540000Y-118210000D01*
X131540000Y-118210000D02*
X131540000Y-115470000D01*
X131540000Y-115470000D02*
X125000000Y-115470000D01*
X124230000Y-116840000D02*
X125000000Y-116840000D01*
X132310000Y-116840000D02*
X131540000Y-116840000D01*
%TO.C,R46*%
X108490000Y-115470000D02*
X108490000Y-118210000D01*
X108490000Y-118210000D02*
X115030000Y-118210000D01*
X115030000Y-118210000D02*
X115030000Y-115470000D01*
X115030000Y-115470000D02*
X108490000Y-115470000D01*
X107720000Y-116840000D02*
X108490000Y-116840000D01*
X115800000Y-116840000D02*
X115030000Y-116840000D01*
%TO.C,R45*%
X125000000Y-123090000D02*
X125000000Y-125830000D01*
X125000000Y-125830000D02*
X131540000Y-125830000D01*
X131540000Y-125830000D02*
X131540000Y-123090000D01*
X131540000Y-123090000D02*
X125000000Y-123090000D01*
X124230000Y-124460000D02*
X125000000Y-124460000D01*
X132310000Y-124460000D02*
X131540000Y-124460000D01*
%TO.C,R44*%
X108490000Y-123090000D02*
X108490000Y-125830000D01*
X108490000Y-125830000D02*
X115030000Y-125830000D01*
X115030000Y-125830000D02*
X115030000Y-123090000D01*
X115030000Y-123090000D02*
X108490000Y-123090000D01*
X107720000Y-124460000D02*
X108490000Y-124460000D01*
X115800000Y-124460000D02*
X115030000Y-124460000D01*
%TO.C,R43*%
X125000000Y-120550000D02*
X125000000Y-123290000D01*
X125000000Y-123290000D02*
X131540000Y-123290000D01*
X131540000Y-123290000D02*
X131540000Y-120550000D01*
X131540000Y-120550000D02*
X125000000Y-120550000D01*
X124230000Y-121920000D02*
X125000000Y-121920000D01*
X132310000Y-121920000D02*
X131540000Y-121920000D01*
%TO.C,R42*%
X108490000Y-120550000D02*
X108490000Y-123290000D01*
X108490000Y-123290000D02*
X115030000Y-123290000D01*
X115030000Y-123290000D02*
X115030000Y-120550000D01*
X115030000Y-120550000D02*
X108490000Y-120550000D01*
X107720000Y-121920000D02*
X108490000Y-121920000D01*
X115800000Y-121920000D02*
X115030000Y-121920000D01*
%TO.C,R41*%
X125000000Y-112930000D02*
X125000000Y-115670000D01*
X125000000Y-115670000D02*
X131540000Y-115670000D01*
X131540000Y-115670000D02*
X131540000Y-112930000D01*
X131540000Y-112930000D02*
X125000000Y-112930000D01*
X124230000Y-114300000D02*
X125000000Y-114300000D01*
X132310000Y-114300000D02*
X131540000Y-114300000D01*
%TO.C,R40*%
X108490000Y-112930000D02*
X108490000Y-115670000D01*
X108490000Y-115670000D02*
X115030000Y-115670000D01*
X115030000Y-115670000D02*
X115030000Y-112930000D01*
X115030000Y-112930000D02*
X108490000Y-112930000D01*
X107720000Y-114300000D02*
X108490000Y-114300000D01*
X115800000Y-114300000D02*
X115030000Y-114300000D01*
%TO.C,R39*%
X125000000Y-107850000D02*
X125000000Y-110590000D01*
X125000000Y-110590000D02*
X131540000Y-110590000D01*
X131540000Y-110590000D02*
X131540000Y-107850000D01*
X131540000Y-107850000D02*
X125000000Y-107850000D01*
X124230000Y-109220000D02*
X125000000Y-109220000D01*
X132310000Y-109220000D02*
X131540000Y-109220000D01*
%TO.C,R38*%
X108490000Y-107850000D02*
X108490000Y-110590000D01*
X108490000Y-110590000D02*
X115030000Y-110590000D01*
X115030000Y-110590000D02*
X115030000Y-107850000D01*
X115030000Y-107850000D02*
X108490000Y-107850000D01*
X107720000Y-109220000D02*
X108490000Y-109220000D01*
X115800000Y-109220000D02*
X115030000Y-109220000D01*
%TO.C,R37*%
X187420000Y-63600000D02*
X187420000Y-60860000D01*
X187420000Y-60860000D02*
X180880000Y-60860000D01*
X180880000Y-60860000D02*
X180880000Y-63600000D01*
X180880000Y-63600000D02*
X187420000Y-63600000D01*
X188190000Y-62230000D02*
X187420000Y-62230000D01*
X180110000Y-62230000D02*
X180880000Y-62230000D01*
%TO.C,R36*%
X201390000Y-63600000D02*
X201390000Y-60860000D01*
X201390000Y-60860000D02*
X194850000Y-60860000D01*
X194850000Y-60860000D02*
X194850000Y-63600000D01*
X194850000Y-63600000D02*
X201390000Y-63600000D01*
X202160000Y-62230000D02*
X201390000Y-62230000D01*
X194080000Y-62230000D02*
X194850000Y-62230000D01*
%TO.C,R35*%
X187420000Y-66140000D02*
X187420000Y-63400000D01*
X187420000Y-63400000D02*
X180880000Y-63400000D01*
X180880000Y-63400000D02*
X180880000Y-66140000D01*
X180880000Y-66140000D02*
X187420000Y-66140000D01*
X188190000Y-64770000D02*
X187420000Y-64770000D01*
X180110000Y-64770000D02*
X180880000Y-64770000D01*
%TO.C,R34*%
X201390000Y-66140000D02*
X201390000Y-63400000D01*
X201390000Y-63400000D02*
X194850000Y-63400000D01*
X194850000Y-63400000D02*
X194850000Y-66140000D01*
X194850000Y-66140000D02*
X201390000Y-66140000D01*
X202160000Y-64770000D02*
X201390000Y-64770000D01*
X194080000Y-64770000D02*
X194850000Y-64770000D01*
%TO.C,R33*%
X125000000Y-110390000D02*
X125000000Y-113130000D01*
X125000000Y-113130000D02*
X131540000Y-113130000D01*
X131540000Y-113130000D02*
X131540000Y-110390000D01*
X131540000Y-110390000D02*
X125000000Y-110390000D01*
X124230000Y-111760000D02*
X125000000Y-111760000D01*
X132310000Y-111760000D02*
X131540000Y-111760000D01*
%TO.C,R32*%
X108490000Y-110390000D02*
X108490000Y-113130000D01*
X108490000Y-113130000D02*
X115030000Y-113130000D01*
X115030000Y-113130000D02*
X115030000Y-110390000D01*
X115030000Y-110390000D02*
X108490000Y-110390000D01*
X107720000Y-111760000D02*
X108490000Y-111760000D01*
X115800000Y-111760000D02*
X115030000Y-111760000D01*
%TO.C,R31*%
X187420000Y-68680000D02*
X187420000Y-65940000D01*
X187420000Y-65940000D02*
X180880000Y-65940000D01*
X180880000Y-65940000D02*
X180880000Y-68680000D01*
X180880000Y-68680000D02*
X187420000Y-68680000D01*
X188190000Y-67310000D02*
X187420000Y-67310000D01*
X180110000Y-67310000D02*
X180880000Y-67310000D01*
%TO.C,R30*%
X201390000Y-68680000D02*
X201390000Y-65940000D01*
X201390000Y-65940000D02*
X194850000Y-65940000D01*
X194850000Y-65940000D02*
X194850000Y-68680000D01*
X194850000Y-68680000D02*
X201390000Y-68680000D01*
X202160000Y-67310000D02*
X201390000Y-67310000D01*
X194080000Y-67310000D02*
X194850000Y-67310000D01*
%TO.C,R29*%
X187420000Y-71220000D02*
X187420000Y-68480000D01*
X187420000Y-68480000D02*
X180880000Y-68480000D01*
X180880000Y-68480000D02*
X180880000Y-71220000D01*
X180880000Y-71220000D02*
X187420000Y-71220000D01*
X188190000Y-69850000D02*
X187420000Y-69850000D01*
X180110000Y-69850000D02*
X180880000Y-69850000D01*
%TO.C,R28*%
X201390000Y-71220000D02*
X201390000Y-68480000D01*
X201390000Y-68480000D02*
X194850000Y-68480000D01*
X194850000Y-68480000D02*
X194850000Y-71220000D01*
X194850000Y-71220000D02*
X201390000Y-71220000D01*
X202160000Y-69850000D02*
X201390000Y-69850000D01*
X194080000Y-69850000D02*
X194850000Y-69850000D01*
%TO.C,R27*%
X187420000Y-73760000D02*
X187420000Y-71020000D01*
X187420000Y-71020000D02*
X180880000Y-71020000D01*
X180880000Y-71020000D02*
X180880000Y-73760000D01*
X180880000Y-73760000D02*
X187420000Y-73760000D01*
X188190000Y-72390000D02*
X187420000Y-72390000D01*
X180110000Y-72390000D02*
X180880000Y-72390000D01*
%TO.C,R26*%
X201390000Y-73760000D02*
X201390000Y-71020000D01*
X201390000Y-71020000D02*
X194850000Y-71020000D01*
X194850000Y-71020000D02*
X194850000Y-73760000D01*
X194850000Y-73760000D02*
X201390000Y-73760000D01*
X202160000Y-72390000D02*
X201390000Y-72390000D01*
X194080000Y-72390000D02*
X194850000Y-72390000D01*
%TO.C,R25*%
X187420000Y-76300000D02*
X187420000Y-73560000D01*
X187420000Y-73560000D02*
X180880000Y-73560000D01*
X180880000Y-73560000D02*
X180880000Y-76300000D01*
X180880000Y-76300000D02*
X187420000Y-76300000D01*
X188190000Y-74930000D02*
X187420000Y-74930000D01*
X180110000Y-74930000D02*
X180880000Y-74930000D01*
%TO.C,R24*%
X201390000Y-76300000D02*
X201390000Y-73560000D01*
X201390000Y-73560000D02*
X194850000Y-73560000D01*
X194850000Y-73560000D02*
X194850000Y-76300000D01*
X194850000Y-76300000D02*
X201390000Y-76300000D01*
X202160000Y-74930000D02*
X201390000Y-74930000D01*
X194080000Y-74930000D02*
X194850000Y-74930000D01*
%TO.C,R23*%
X187420000Y-78840000D02*
X187420000Y-76100000D01*
X187420000Y-76100000D02*
X180880000Y-76100000D01*
X180880000Y-76100000D02*
X180880000Y-78840000D01*
X180880000Y-78840000D02*
X187420000Y-78840000D01*
X188190000Y-77470000D02*
X187420000Y-77470000D01*
X180110000Y-77470000D02*
X180880000Y-77470000D01*
%TO.C,R22*%
X201390000Y-78840000D02*
X201390000Y-76100000D01*
X201390000Y-76100000D02*
X194850000Y-76100000D01*
X194850000Y-76100000D02*
X194850000Y-78840000D01*
X194850000Y-78840000D02*
X201390000Y-78840000D01*
X202160000Y-77470000D02*
X201390000Y-77470000D01*
X194080000Y-77470000D02*
X194850000Y-77470000D01*
%TO.C,R21*%
X187420000Y-81380000D02*
X187420000Y-78640000D01*
X187420000Y-78640000D02*
X180880000Y-78640000D01*
X180880000Y-78640000D02*
X180880000Y-81380000D01*
X180880000Y-81380000D02*
X187420000Y-81380000D01*
X188190000Y-80010000D02*
X187420000Y-80010000D01*
X180110000Y-80010000D02*
X180880000Y-80010000D01*
%TO.C,R20*%
X201390000Y-81380000D02*
X201390000Y-78640000D01*
X201390000Y-78640000D02*
X194850000Y-78640000D01*
X194850000Y-78640000D02*
X194850000Y-81380000D01*
X194850000Y-81380000D02*
X201390000Y-81380000D01*
X202160000Y-80010000D02*
X201390000Y-80010000D01*
X194080000Y-80010000D02*
X194850000Y-80010000D01*
%TO.C,R19*%
X187420000Y-83920000D02*
X187420000Y-81180000D01*
X187420000Y-81180000D02*
X180880000Y-81180000D01*
X180880000Y-81180000D02*
X180880000Y-83920000D01*
X180880000Y-83920000D02*
X187420000Y-83920000D01*
X188190000Y-82550000D02*
X187420000Y-82550000D01*
X180110000Y-82550000D02*
X180880000Y-82550000D01*
%TO.C,R18*%
X201390000Y-83920000D02*
X201390000Y-81180000D01*
X201390000Y-81180000D02*
X194850000Y-81180000D01*
X194850000Y-81180000D02*
X194850000Y-83920000D01*
X194850000Y-83920000D02*
X201390000Y-83920000D01*
X202160000Y-82550000D02*
X201390000Y-82550000D01*
X194080000Y-82550000D02*
X194850000Y-82550000D01*
%TO.C,R17*%
X187420000Y-86460000D02*
X187420000Y-83720000D01*
X187420000Y-83720000D02*
X180880000Y-83720000D01*
X180880000Y-83720000D02*
X180880000Y-86460000D01*
X180880000Y-86460000D02*
X187420000Y-86460000D01*
X188190000Y-85090000D02*
X187420000Y-85090000D01*
X180110000Y-85090000D02*
X180880000Y-85090000D01*
%TO.C,R16*%
X201390000Y-86460000D02*
X201390000Y-83720000D01*
X201390000Y-83720000D02*
X194850000Y-83720000D01*
X194850000Y-83720000D02*
X194850000Y-86460000D01*
X194850000Y-86460000D02*
X201390000Y-86460000D01*
X202160000Y-85090000D02*
X201390000Y-85090000D01*
X194080000Y-85090000D02*
X194850000Y-85090000D01*
%TO.C,R15*%
X187420000Y-89000000D02*
X187420000Y-86260000D01*
X187420000Y-86260000D02*
X180880000Y-86260000D01*
X180880000Y-86260000D02*
X180880000Y-89000000D01*
X180880000Y-89000000D02*
X187420000Y-89000000D01*
X188190000Y-87630000D02*
X187420000Y-87630000D01*
X180110000Y-87630000D02*
X180880000Y-87630000D01*
%TO.C,R14*%
X201390000Y-89000000D02*
X201390000Y-86260000D01*
X201390000Y-86260000D02*
X194850000Y-86260000D01*
X194850000Y-86260000D02*
X194850000Y-89000000D01*
X194850000Y-89000000D02*
X201390000Y-89000000D01*
X202160000Y-87630000D02*
X201390000Y-87630000D01*
X194080000Y-87630000D02*
X194850000Y-87630000D01*
%TO.C,R13*%
X187420000Y-91540000D02*
X187420000Y-88800000D01*
X187420000Y-88800000D02*
X180880000Y-88800000D01*
X180880000Y-88800000D02*
X180880000Y-91540000D01*
X180880000Y-91540000D02*
X187420000Y-91540000D01*
X188190000Y-90170000D02*
X187420000Y-90170000D01*
X180110000Y-90170000D02*
X180880000Y-90170000D01*
%TO.C,R12*%
X201390000Y-91540000D02*
X201390000Y-88800000D01*
X201390000Y-88800000D02*
X194850000Y-88800000D01*
X194850000Y-88800000D02*
X194850000Y-91540000D01*
X194850000Y-91540000D02*
X201390000Y-91540000D01*
X202160000Y-90170000D02*
X201390000Y-90170000D01*
X194080000Y-90170000D02*
X194850000Y-90170000D01*
%TO.C,R10*%
X131218000Y-149574000D02*
X133958000Y-149574000D01*
X133958000Y-149574000D02*
X133958000Y-143034000D01*
X133958000Y-143034000D02*
X131218000Y-143034000D01*
X131218000Y-143034000D02*
X131218000Y-149574000D01*
X132588000Y-150344000D02*
X132588000Y-149574000D01*
X132588000Y-142264000D02*
X132588000Y-143034000D01*
%TO.C,R9*%
X130656000Y-143034000D02*
X127916000Y-143034000D01*
X127916000Y-143034000D02*
X127916000Y-149574000D01*
X127916000Y-149574000D02*
X130656000Y-149574000D01*
X130656000Y-149574000D02*
X130656000Y-143034000D01*
X129286000Y-142264000D02*
X129286000Y-143034000D01*
X129286000Y-150344000D02*
X129286000Y-149574000D01*
%TO.C,R8*%
X124614000Y-149574000D02*
X127354000Y-149574000D01*
X127354000Y-149574000D02*
X127354000Y-143034000D01*
X127354000Y-143034000D02*
X124614000Y-143034000D01*
X124614000Y-143034000D02*
X124614000Y-149574000D01*
X125984000Y-150344000D02*
X125984000Y-149574000D01*
X125984000Y-142264000D02*
X125984000Y-143034000D01*
%TO.C,R7*%
X124052000Y-143034000D02*
X121312000Y-143034000D01*
X121312000Y-143034000D02*
X121312000Y-149574000D01*
X121312000Y-149574000D02*
X124052000Y-149574000D01*
X124052000Y-149574000D02*
X124052000Y-143034000D01*
X122682000Y-142264000D02*
X122682000Y-143034000D01*
X122682000Y-150344000D02*
X122682000Y-149574000D01*
%TO.C,R6*%
X118264000Y-149574000D02*
X121004000Y-149574000D01*
X121004000Y-149574000D02*
X121004000Y-143034000D01*
X121004000Y-143034000D02*
X118264000Y-143034000D01*
X118264000Y-143034000D02*
X118264000Y-149574000D01*
X119634000Y-150344000D02*
X119634000Y-149574000D01*
X119634000Y-142264000D02*
X119634000Y-143034000D01*
%TO.C,R5*%
X117956000Y-143034000D02*
X115216000Y-143034000D01*
X115216000Y-143034000D02*
X115216000Y-149574000D01*
X115216000Y-149574000D02*
X117956000Y-149574000D01*
X117956000Y-149574000D02*
X117956000Y-143034000D01*
X116586000Y-142264000D02*
X116586000Y-143034000D01*
X116586000Y-150344000D02*
X116586000Y-149574000D01*
%TO.C,R4*%
X112168000Y-149574000D02*
X114908000Y-149574000D01*
X114908000Y-149574000D02*
X114908000Y-143034000D01*
X114908000Y-143034000D02*
X112168000Y-143034000D01*
X112168000Y-143034000D02*
X112168000Y-149574000D01*
X113538000Y-150344000D02*
X113538000Y-149574000D01*
X113538000Y-142264000D02*
X113538000Y-143034000D01*
%TO.C,R3*%
X111860000Y-143034000D02*
X109120000Y-143034000D01*
X109120000Y-143034000D02*
X109120000Y-149574000D01*
X109120000Y-149574000D02*
X111860000Y-149574000D01*
X111860000Y-149574000D02*
X111860000Y-143034000D01*
X110490000Y-142264000D02*
X110490000Y-143034000D01*
X110490000Y-150344000D02*
X110490000Y-149574000D01*
%TO.C,R11*%
X137260000Y-143034000D02*
X134520000Y-143034000D01*
X134520000Y-143034000D02*
X134520000Y-149574000D01*
X134520000Y-149574000D02*
X137260000Y-149574000D01*
X137260000Y-149574000D02*
X137260000Y-143034000D01*
X135890000Y-142264000D02*
X135890000Y-143034000D01*
X135890000Y-150344000D02*
X135890000Y-149574000D01*
%TO.C,R2*%
X106072000Y-149574000D02*
X108812000Y-149574000D01*
X108812000Y-149574000D02*
X108812000Y-143034000D01*
X108812000Y-143034000D02*
X106072000Y-143034000D01*
X106072000Y-143034000D02*
X106072000Y-149574000D01*
X107442000Y-150344000D02*
X107442000Y-149574000D01*
X107442000Y-142264000D02*
X107442000Y-143034000D01*
%TO.C,R1*%
X105764000Y-143034000D02*
X103024000Y-143034000D01*
X103024000Y-143034000D02*
X103024000Y-149574000D01*
X103024000Y-149574000D02*
X105764000Y-149574000D01*
X105764000Y-149574000D02*
X105764000Y-143034000D01*
X104394000Y-142264000D02*
X104394000Y-143034000D01*
X104394000Y-150344000D02*
X104394000Y-149574000D01*
D11*
%TO.C,U1*%
X150632000Y-73422000D02*
X150632000Y-77922000D01*
X150632000Y-77922000D02*
X158232000Y-77922000D01*
X158232000Y-77922000D02*
X158232000Y-73422000D01*
X143182000Y-73322000D02*
X165682000Y-73322000D01*
X165682000Y-73322000D02*
X165682000Y-126322000D01*
X165682000Y-126322000D02*
X143182000Y-126322000D01*
X143182000Y-126322000D02*
X143182000Y-73322000D01*
D10*
%TO.C,U2*%
X165335200Y-149671400D02*
X165335200Y-139431400D01*
X169976200Y-149671400D02*
X169976200Y-139431400D01*
X165335200Y-149671400D02*
X169976200Y-149671400D01*
X165335200Y-139431400D02*
X169976200Y-139431400D01*
X166845200Y-149671400D02*
X166845200Y-139431400D01*
X165335200Y-146401400D02*
X166845200Y-146401400D01*
X165335200Y-142700400D02*
X166845200Y-142700400D01*
%TO.C,J9*%
X191830000Y-101108200D02*
X189170000Y-101108200D01*
X191830000Y-108788200D02*
X191830000Y-101108200D01*
X189170000Y-108788200D02*
X189170000Y-101108200D01*
X191830000Y-108788200D02*
X189170000Y-108788200D01*
X191830000Y-110058200D02*
X191830000Y-111388200D01*
X191830000Y-111388200D02*
X190500000Y-111388200D01*
%TO.C,J8*%
X194243000Y-101032000D02*
X191583000Y-101032000D01*
X194243000Y-108712000D02*
X194243000Y-101032000D01*
X191583000Y-108712000D02*
X191583000Y-101032000D01*
X194243000Y-108712000D02*
X191583000Y-108712000D01*
X194243000Y-109982000D02*
X194243000Y-111312000D01*
X194243000Y-111312000D02*
X192913000Y-111312000D01*
%TO.C,J7*%
X189290000Y-101108200D02*
X186630000Y-101108200D01*
X189290000Y-108788200D02*
X189290000Y-101108200D01*
X186630000Y-108788200D02*
X186630000Y-101108200D01*
X189290000Y-108788200D02*
X186630000Y-108788200D01*
X189290000Y-110058200D02*
X189290000Y-111388200D01*
X189290000Y-111388200D02*
X187960000Y-111388200D01*
%TO.C,J6*%
X208474000Y-142300000D02*
X211134000Y-142300000D01*
X208474000Y-132080000D02*
X208474000Y-142300000D01*
X211134000Y-132080000D02*
X211134000Y-142300000D01*
X208474000Y-132080000D02*
X211134000Y-132080000D01*
X208474000Y-130810000D02*
X208474000Y-129480000D01*
X208474000Y-129480000D02*
X209804000Y-129480000D01*
%TO.C,J5*%
X101540000Y-96580000D02*
X104200000Y-96580000D01*
X101540000Y-91440000D02*
X101540000Y-96580000D01*
X104200000Y-91440000D02*
X104200000Y-96580000D01*
X101540000Y-91440000D02*
X104200000Y-91440000D01*
X101540000Y-90170000D02*
X101540000Y-88840000D01*
X101540000Y-88840000D02*
X102870000Y-88840000D01*
%TO.C,J4*%
X210727600Y-115510000D02*
X208067600Y-115510000D01*
X210727600Y-123190000D02*
X210727600Y-115510000D01*
X208067600Y-123190000D02*
X208067600Y-115510000D01*
X210727600Y-123190000D02*
X208067600Y-123190000D01*
X210727600Y-124460000D02*
X210727600Y-125790000D01*
X210727600Y-125790000D02*
X209397600Y-125790000D01*
%TO.C,J1*%
X105470000Y-132020000D02*
X102810000Y-132020000D01*
X105470000Y-134620000D02*
X105470000Y-132020000D01*
X102810000Y-134620000D02*
X102810000Y-132020000D01*
X105470000Y-134620000D02*
X102810000Y-134620000D01*
X105470000Y-135890000D02*
X105470000Y-137220000D01*
X105470000Y-137220000D02*
X104140000Y-137220000D01*
%TO.C,J3*%
X209610000Y-60900000D02*
X206950000Y-60900000D01*
X209610000Y-88900000D02*
X209610000Y-60900000D01*
X206950000Y-88900000D02*
X206950000Y-60900000D01*
X209610000Y-88900000D02*
X206950000Y-88900000D01*
X209610000Y-90170000D02*
X209610000Y-91500000D01*
X209610000Y-91500000D02*
X208280000Y-91500000D01*
%TO.C,J2*%
X100549400Y-128330000D02*
X103209400Y-128330000D01*
X100549400Y-110490000D02*
X100549400Y-128330000D01*
X103209400Y-110490000D02*
X103209400Y-128330000D01*
X100549400Y-110490000D02*
X103209400Y-110490000D01*
X100549400Y-109220000D02*
X100549400Y-107890000D01*
X100549400Y-107890000D02*
X101879400Y-107890000D01*
%TO.C,D1*%
X148020000Y-146860000D02*
X145740000Y-146860000D01*
X145740000Y-146860000D02*
X145740000Y-137620000D01*
X145740000Y-137620000D02*
X148020000Y-137620000D01*
X151700000Y-146860000D02*
X153980000Y-146860000D01*
X153980000Y-146860000D02*
X153980000Y-137620000D01*
X153980000Y-137620000D02*
X151700000Y-137620000D01*
X145740000Y-145390000D02*
X153980000Y-145390000D01*
X145740000Y-145270000D02*
X153980000Y-145270000D01*
X145740000Y-145510000D02*
X153980000Y-145510000D01*
%TO.C,C3*%
X162000000Y-143248748D02*
X162000000Y-143771252D01*
X160580000Y-143248748D02*
X160580000Y-143771252D01*
%TO.C,C2*%
X173280000Y-146311252D02*
X173280000Y-145788748D01*
X174700000Y-146311252D02*
X174700000Y-145788748D01*
%TO.C,C1*%
X138990000Y-139961252D02*
X138990000Y-139438748D01*
X140410000Y-139961252D02*
X140410000Y-139438748D01*
%TO.C,A1*%
X223520000Y-108076999D02*
G75*
G02*
X223520000Y-99187000I10160000J4444999D01*
G01*
X203200000Y-94742000D02*
X220980000Y-94742000D01*
X220980000Y-94742000D02*
X220980000Y-112522000D01*
X220980000Y-112522000D02*
X203200000Y-112522000D01*
X203200000Y-112522000D02*
X203200000Y-94742000D01*
X213360000Y-97282000D02*
X213360000Y-109982000D01*
X213360000Y-109982000D02*
X223520000Y-109982000D01*
X213360000Y-97282000D02*
X223520000Y-97282000D01*
X223520000Y-97282000D02*
X223520000Y-99187000D01*
X223520000Y-109982000D02*
X223520000Y-108077000D01*
X223520000Y-97917000D02*
X231140000Y-97917000D01*
X231140000Y-97917000D02*
X231140000Y-109347000D01*
X231140000Y-109347000D02*
X223520000Y-109347000D01*
%TO.C,REF\u002A\u002A*%
D11*
X129476666Y-59082380D02*
X129143333Y-58606190D01*
X128905238Y-59082380D02*
X128905238Y-58082380D01*
X129286190Y-58082380D01*
X129381428Y-58130000D01*
X129429047Y-58177619D01*
X129476666Y-58272857D01*
X129476666Y-58415714D01*
X129429047Y-58510952D01*
X129381428Y-58558571D01*
X129286190Y-58606190D01*
X128905238Y-58606190D01*
X129905238Y-58558571D02*
X130238571Y-58558571D01*
X130381428Y-59082380D02*
X129905238Y-59082380D01*
X129905238Y-58082380D01*
X130381428Y-58082380D01*
X131143333Y-58558571D02*
X130810000Y-58558571D01*
X130810000Y-59082380D02*
X130810000Y-58082380D01*
X131286190Y-58082380D01*
X131810000Y-58082380D02*
X131810000Y-58320476D01*
X131571904Y-58225238D02*
X131810000Y-58320476D01*
X132048095Y-58225238D01*
X131667142Y-58510952D02*
X131810000Y-58320476D01*
X131952857Y-58510952D01*
X132571904Y-58082380D02*
X132571904Y-58320476D01*
X132333809Y-58225238D02*
X132571904Y-58320476D01*
X132810000Y-58225238D01*
X132429047Y-58510952D02*
X132571904Y-58320476D01*
X132714761Y-58510952D01*
X116776666Y-59082380D02*
X116443333Y-58606190D01*
X116205238Y-59082380D02*
X116205238Y-58082380D01*
X116586190Y-58082380D01*
X116681428Y-58130000D01*
X116729047Y-58177619D01*
X116776666Y-58272857D01*
X116776666Y-58415714D01*
X116729047Y-58510952D01*
X116681428Y-58558571D01*
X116586190Y-58606190D01*
X116205238Y-58606190D01*
X117205238Y-58558571D02*
X117538571Y-58558571D01*
X117681428Y-59082380D02*
X117205238Y-59082380D01*
X117205238Y-58082380D01*
X117681428Y-58082380D01*
X118443333Y-58558571D02*
X118110000Y-58558571D01*
X118110000Y-59082380D02*
X118110000Y-58082380D01*
X118586190Y-58082380D01*
X119110000Y-58082380D02*
X119110000Y-58320476D01*
X118871904Y-58225238D02*
X119110000Y-58320476D01*
X119348095Y-58225238D01*
X118967142Y-58510952D02*
X119110000Y-58320476D01*
X119252857Y-58510952D01*
X119871904Y-58082380D02*
X119871904Y-58320476D01*
X119633809Y-58225238D02*
X119871904Y-58320476D01*
X120110000Y-58225238D01*
X119729047Y-58510952D02*
X119871904Y-58320476D01*
X120014761Y-58510952D01*
X104076666Y-59082380D02*
X103743333Y-58606190D01*
X103505238Y-59082380D02*
X103505238Y-58082380D01*
X103886190Y-58082380D01*
X103981428Y-58130000D01*
X104029047Y-58177619D01*
X104076666Y-58272857D01*
X104076666Y-58415714D01*
X104029047Y-58510952D01*
X103981428Y-58558571D01*
X103886190Y-58606190D01*
X103505238Y-58606190D01*
X104505238Y-58558571D02*
X104838571Y-58558571D01*
X104981428Y-59082380D02*
X104505238Y-59082380D01*
X104505238Y-58082380D01*
X104981428Y-58082380D01*
X105743333Y-58558571D02*
X105410000Y-58558571D01*
X105410000Y-59082380D02*
X105410000Y-58082380D01*
X105886190Y-58082380D01*
X106410000Y-58082380D02*
X106410000Y-58320476D01*
X106171904Y-58225238D02*
X106410000Y-58320476D01*
X106648095Y-58225238D01*
X106267142Y-58510952D02*
X106410000Y-58320476D01*
X106552857Y-58510952D01*
X107171904Y-58082380D02*
X107171904Y-58320476D01*
X106933809Y-58225238D02*
X107171904Y-58320476D01*
X107410000Y-58225238D01*
X107029047Y-58510952D02*
X107171904Y-58320476D01*
X107314761Y-58510952D01*
%TO.C,R75*%
X126357142Y-88252380D02*
X126023809Y-87776190D01*
X125785714Y-88252380D02*
X125785714Y-87252380D01*
X126166666Y-87252380D01*
X126261904Y-87300000D01*
X126309523Y-87347619D01*
X126357142Y-87442857D01*
X126357142Y-87585714D01*
X126309523Y-87680952D01*
X126261904Y-87728571D01*
X126166666Y-87776190D01*
X125785714Y-87776190D01*
X126690476Y-87252380D02*
X127357142Y-87252380D01*
X126928571Y-88252380D01*
X128214285Y-87252380D02*
X127738095Y-87252380D01*
X127690476Y-87728571D01*
X127738095Y-87680952D01*
X127833333Y-87633333D01*
X128071428Y-87633333D01*
X128166666Y-87680952D01*
X128214285Y-87728571D01*
X128261904Y-87823809D01*
X128261904Y-88061904D01*
X128214285Y-88157142D01*
X128166666Y-88204761D01*
X128071428Y-88252380D01*
X127833333Y-88252380D01*
X127738095Y-88204761D01*
X127690476Y-88157142D01*
%TO.C,R74*%
X111117142Y-88252380D02*
X110783809Y-87776190D01*
X110545714Y-88252380D02*
X110545714Y-87252380D01*
X110926666Y-87252380D01*
X111021904Y-87300000D01*
X111069523Y-87347619D01*
X111117142Y-87442857D01*
X111117142Y-87585714D01*
X111069523Y-87680952D01*
X111021904Y-87728571D01*
X110926666Y-87776190D01*
X110545714Y-87776190D01*
X111450476Y-87252380D02*
X112117142Y-87252380D01*
X111688571Y-88252380D01*
X112926666Y-87585714D02*
X112926666Y-88252380D01*
X112688571Y-87204761D02*
X112450476Y-87919047D01*
X113069523Y-87919047D01*
%TO.C,R73*%
X184269142Y-143792380D02*
X183935809Y-143316190D01*
X183697714Y-143792380D02*
X183697714Y-142792380D01*
X184078666Y-142792380D01*
X184173904Y-142840000D01*
X184221523Y-142887619D01*
X184269142Y-142982857D01*
X184269142Y-143125714D01*
X184221523Y-143220952D01*
X184173904Y-143268571D01*
X184078666Y-143316190D01*
X183697714Y-143316190D01*
X184602476Y-142792380D02*
X185269142Y-142792380D01*
X184840571Y-143792380D01*
X185554857Y-142792380D02*
X186173904Y-142792380D01*
X185840571Y-143173333D01*
X185983428Y-143173333D01*
X186078666Y-143220952D01*
X186126285Y-143268571D01*
X186173904Y-143363809D01*
X186173904Y-143601904D01*
X186126285Y-143697142D01*
X186078666Y-143744761D01*
X185983428Y-143792380D01*
X185697714Y-143792380D01*
X185602476Y-143744761D01*
X185554857Y-143697142D01*
%TO.C,R72*%
X198239142Y-143792380D02*
X197905809Y-143316190D01*
X197667714Y-143792380D02*
X197667714Y-142792380D01*
X198048666Y-142792380D01*
X198143904Y-142840000D01*
X198191523Y-142887619D01*
X198239142Y-142982857D01*
X198239142Y-143125714D01*
X198191523Y-143220952D01*
X198143904Y-143268571D01*
X198048666Y-143316190D01*
X197667714Y-143316190D01*
X198572476Y-142792380D02*
X199239142Y-142792380D01*
X198810571Y-143792380D01*
X199572476Y-142887619D02*
X199620095Y-142840000D01*
X199715333Y-142792380D01*
X199953428Y-142792380D01*
X200048666Y-142840000D01*
X200096285Y-142887619D01*
X200143904Y-142982857D01*
X200143904Y-143078095D01*
X200096285Y-143220952D01*
X199524857Y-143792380D01*
X200143904Y-143792380D01*
%TO.C,R71*%
X126357142Y-90792380D02*
X126023809Y-90316190D01*
X125785714Y-90792380D02*
X125785714Y-89792380D01*
X126166666Y-89792380D01*
X126261904Y-89840000D01*
X126309523Y-89887619D01*
X126357142Y-89982857D01*
X126357142Y-90125714D01*
X126309523Y-90220952D01*
X126261904Y-90268571D01*
X126166666Y-90316190D01*
X125785714Y-90316190D01*
X126690476Y-89792380D02*
X127357142Y-89792380D01*
X126928571Y-90792380D01*
X128261904Y-90792380D02*
X127690476Y-90792380D01*
X127976190Y-90792380D02*
X127976190Y-89792380D01*
X127880952Y-89935238D01*
X127785714Y-90030476D01*
X127690476Y-90078095D01*
%TO.C,R70*%
X111117142Y-90792380D02*
X110783809Y-90316190D01*
X110545714Y-90792380D02*
X110545714Y-89792380D01*
X110926666Y-89792380D01*
X111021904Y-89840000D01*
X111069523Y-89887619D01*
X111117142Y-89982857D01*
X111117142Y-90125714D01*
X111069523Y-90220952D01*
X111021904Y-90268571D01*
X110926666Y-90316190D01*
X110545714Y-90316190D01*
X111450476Y-89792380D02*
X112117142Y-89792380D01*
X111688571Y-90792380D01*
X112688571Y-89792380D02*
X112783809Y-89792380D01*
X112879047Y-89840000D01*
X112926666Y-89887619D01*
X112974285Y-89982857D01*
X113021904Y-90173333D01*
X113021904Y-90411428D01*
X112974285Y-90601904D01*
X112926666Y-90697142D01*
X112879047Y-90744761D01*
X112783809Y-90792380D01*
X112688571Y-90792380D01*
X112593333Y-90744761D01*
X112545714Y-90697142D01*
X112498095Y-90601904D01*
X112450476Y-90411428D01*
X112450476Y-90173333D01*
X112498095Y-89982857D01*
X112545714Y-89887619D01*
X112593333Y-89840000D01*
X112688571Y-89792380D01*
%TO.C,R69*%
X184269142Y-141252380D02*
X183935809Y-140776190D01*
X183697714Y-141252380D02*
X183697714Y-140252380D01*
X184078666Y-140252380D01*
X184173904Y-140300000D01*
X184221523Y-140347619D01*
X184269142Y-140442857D01*
X184269142Y-140585714D01*
X184221523Y-140680952D01*
X184173904Y-140728571D01*
X184078666Y-140776190D01*
X183697714Y-140776190D01*
X185126285Y-140252380D02*
X184935809Y-140252380D01*
X184840571Y-140300000D01*
X184792952Y-140347619D01*
X184697714Y-140490476D01*
X184650095Y-140680952D01*
X184650095Y-141061904D01*
X184697714Y-141157142D01*
X184745333Y-141204761D01*
X184840571Y-141252380D01*
X185031047Y-141252380D01*
X185126285Y-141204761D01*
X185173904Y-141157142D01*
X185221523Y-141061904D01*
X185221523Y-140823809D01*
X185173904Y-140728571D01*
X185126285Y-140680952D01*
X185031047Y-140633333D01*
X184840571Y-140633333D01*
X184745333Y-140680952D01*
X184697714Y-140728571D01*
X184650095Y-140823809D01*
X185697714Y-141252380D02*
X185888190Y-141252380D01*
X185983428Y-141204761D01*
X186031047Y-141157142D01*
X186126285Y-141014285D01*
X186173904Y-140823809D01*
X186173904Y-140442857D01*
X186126285Y-140347619D01*
X186078666Y-140300000D01*
X185983428Y-140252380D01*
X185792952Y-140252380D01*
X185697714Y-140300000D01*
X185650095Y-140347619D01*
X185602476Y-140442857D01*
X185602476Y-140680952D01*
X185650095Y-140776190D01*
X185697714Y-140823809D01*
X185792952Y-140871428D01*
X185983428Y-140871428D01*
X186078666Y-140823809D01*
X186126285Y-140776190D01*
X186173904Y-140680952D01*
%TO.C,R68*%
X198239142Y-141252380D02*
X197905809Y-140776190D01*
X197667714Y-141252380D02*
X197667714Y-140252380D01*
X198048666Y-140252380D01*
X198143904Y-140300000D01*
X198191523Y-140347619D01*
X198239142Y-140442857D01*
X198239142Y-140585714D01*
X198191523Y-140680952D01*
X198143904Y-140728571D01*
X198048666Y-140776190D01*
X197667714Y-140776190D01*
X199096285Y-140252380D02*
X198905809Y-140252380D01*
X198810571Y-140300000D01*
X198762952Y-140347619D01*
X198667714Y-140490476D01*
X198620095Y-140680952D01*
X198620095Y-141061904D01*
X198667714Y-141157142D01*
X198715333Y-141204761D01*
X198810571Y-141252380D01*
X199001047Y-141252380D01*
X199096285Y-141204761D01*
X199143904Y-141157142D01*
X199191523Y-141061904D01*
X199191523Y-140823809D01*
X199143904Y-140728571D01*
X199096285Y-140680952D01*
X199001047Y-140633333D01*
X198810571Y-140633333D01*
X198715333Y-140680952D01*
X198667714Y-140728571D01*
X198620095Y-140823809D01*
X199762952Y-140680952D02*
X199667714Y-140633333D01*
X199620095Y-140585714D01*
X199572476Y-140490476D01*
X199572476Y-140442857D01*
X199620095Y-140347619D01*
X199667714Y-140300000D01*
X199762952Y-140252380D01*
X199953428Y-140252380D01*
X200048666Y-140300000D01*
X200096285Y-140347619D01*
X200143904Y-140442857D01*
X200143904Y-140490476D01*
X200096285Y-140585714D01*
X200048666Y-140633333D01*
X199953428Y-140680952D01*
X199762952Y-140680952D01*
X199667714Y-140728571D01*
X199620095Y-140776190D01*
X199572476Y-140871428D01*
X199572476Y-141061904D01*
X199620095Y-141157142D01*
X199667714Y-141204761D01*
X199762952Y-141252380D01*
X199953428Y-141252380D01*
X200048666Y-141204761D01*
X200096285Y-141157142D01*
X200143904Y-141061904D01*
X200143904Y-140871428D01*
X200096285Y-140776190D01*
X200048666Y-140728571D01*
X199953428Y-140680952D01*
%TO.C,R67*%
X184269142Y-138712380D02*
X183935809Y-138236190D01*
X183697714Y-138712380D02*
X183697714Y-137712380D01*
X184078666Y-137712380D01*
X184173904Y-137760000D01*
X184221523Y-137807619D01*
X184269142Y-137902857D01*
X184269142Y-138045714D01*
X184221523Y-138140952D01*
X184173904Y-138188571D01*
X184078666Y-138236190D01*
X183697714Y-138236190D01*
X185126285Y-137712380D02*
X184935809Y-137712380D01*
X184840571Y-137760000D01*
X184792952Y-137807619D01*
X184697714Y-137950476D01*
X184650095Y-138140952D01*
X184650095Y-138521904D01*
X184697714Y-138617142D01*
X184745333Y-138664761D01*
X184840571Y-138712380D01*
X185031047Y-138712380D01*
X185126285Y-138664761D01*
X185173904Y-138617142D01*
X185221523Y-138521904D01*
X185221523Y-138283809D01*
X185173904Y-138188571D01*
X185126285Y-138140952D01*
X185031047Y-138093333D01*
X184840571Y-138093333D01*
X184745333Y-138140952D01*
X184697714Y-138188571D01*
X184650095Y-138283809D01*
X185554857Y-137712380D02*
X186221523Y-137712380D01*
X185792952Y-138712380D01*
%TO.C,R66*%
X198239142Y-138712380D02*
X197905809Y-138236190D01*
X197667714Y-138712380D02*
X197667714Y-137712380D01*
X198048666Y-137712380D01*
X198143904Y-137760000D01*
X198191523Y-137807619D01*
X198239142Y-137902857D01*
X198239142Y-138045714D01*
X198191523Y-138140952D01*
X198143904Y-138188571D01*
X198048666Y-138236190D01*
X197667714Y-138236190D01*
X199096285Y-137712380D02*
X198905809Y-137712380D01*
X198810571Y-137760000D01*
X198762952Y-137807619D01*
X198667714Y-137950476D01*
X198620095Y-138140952D01*
X198620095Y-138521904D01*
X198667714Y-138617142D01*
X198715333Y-138664761D01*
X198810571Y-138712380D01*
X199001047Y-138712380D01*
X199096285Y-138664761D01*
X199143904Y-138617142D01*
X199191523Y-138521904D01*
X199191523Y-138283809D01*
X199143904Y-138188571D01*
X199096285Y-138140952D01*
X199001047Y-138093333D01*
X198810571Y-138093333D01*
X198715333Y-138140952D01*
X198667714Y-138188571D01*
X198620095Y-138283809D01*
X200048666Y-137712380D02*
X199858190Y-137712380D01*
X199762952Y-137760000D01*
X199715333Y-137807619D01*
X199620095Y-137950476D01*
X199572476Y-138140952D01*
X199572476Y-138521904D01*
X199620095Y-138617142D01*
X199667714Y-138664761D01*
X199762952Y-138712380D01*
X199953428Y-138712380D01*
X200048666Y-138664761D01*
X200096285Y-138617142D01*
X200143904Y-138521904D01*
X200143904Y-138283809D01*
X200096285Y-138188571D01*
X200048666Y-138140952D01*
X199953428Y-138093333D01*
X199762952Y-138093333D01*
X199667714Y-138140952D01*
X199620095Y-138188571D01*
X199572476Y-138283809D01*
%TO.C,R65*%
X184269142Y-136172380D02*
X183935809Y-135696190D01*
X183697714Y-136172380D02*
X183697714Y-135172380D01*
X184078666Y-135172380D01*
X184173904Y-135220000D01*
X184221523Y-135267619D01*
X184269142Y-135362857D01*
X184269142Y-135505714D01*
X184221523Y-135600952D01*
X184173904Y-135648571D01*
X184078666Y-135696190D01*
X183697714Y-135696190D01*
X185126285Y-135172380D02*
X184935809Y-135172380D01*
X184840571Y-135220000D01*
X184792952Y-135267619D01*
X184697714Y-135410476D01*
X184650095Y-135600952D01*
X184650095Y-135981904D01*
X184697714Y-136077142D01*
X184745333Y-136124761D01*
X184840571Y-136172380D01*
X185031047Y-136172380D01*
X185126285Y-136124761D01*
X185173904Y-136077142D01*
X185221523Y-135981904D01*
X185221523Y-135743809D01*
X185173904Y-135648571D01*
X185126285Y-135600952D01*
X185031047Y-135553333D01*
X184840571Y-135553333D01*
X184745333Y-135600952D01*
X184697714Y-135648571D01*
X184650095Y-135743809D01*
X186126285Y-135172380D02*
X185650095Y-135172380D01*
X185602476Y-135648571D01*
X185650095Y-135600952D01*
X185745333Y-135553333D01*
X185983428Y-135553333D01*
X186078666Y-135600952D01*
X186126285Y-135648571D01*
X186173904Y-135743809D01*
X186173904Y-135981904D01*
X186126285Y-136077142D01*
X186078666Y-136124761D01*
X185983428Y-136172380D01*
X185745333Y-136172380D01*
X185650095Y-136124761D01*
X185602476Y-136077142D01*
%TO.C,R64*%
X198239142Y-136172380D02*
X197905809Y-135696190D01*
X197667714Y-136172380D02*
X197667714Y-135172380D01*
X198048666Y-135172380D01*
X198143904Y-135220000D01*
X198191523Y-135267619D01*
X198239142Y-135362857D01*
X198239142Y-135505714D01*
X198191523Y-135600952D01*
X198143904Y-135648571D01*
X198048666Y-135696190D01*
X197667714Y-135696190D01*
X199096285Y-135172380D02*
X198905809Y-135172380D01*
X198810571Y-135220000D01*
X198762952Y-135267619D01*
X198667714Y-135410476D01*
X198620095Y-135600952D01*
X198620095Y-135981904D01*
X198667714Y-136077142D01*
X198715333Y-136124761D01*
X198810571Y-136172380D01*
X199001047Y-136172380D01*
X199096285Y-136124761D01*
X199143904Y-136077142D01*
X199191523Y-135981904D01*
X199191523Y-135743809D01*
X199143904Y-135648571D01*
X199096285Y-135600952D01*
X199001047Y-135553333D01*
X198810571Y-135553333D01*
X198715333Y-135600952D01*
X198667714Y-135648571D01*
X198620095Y-135743809D01*
X200048666Y-135505714D02*
X200048666Y-136172380D01*
X199810571Y-135124761D02*
X199572476Y-135839047D01*
X200191523Y-135839047D01*
%TO.C,R63*%
X126357142Y-93332380D02*
X126023809Y-92856190D01*
X125785714Y-93332380D02*
X125785714Y-92332380D01*
X126166666Y-92332380D01*
X126261904Y-92380000D01*
X126309523Y-92427619D01*
X126357142Y-92522857D01*
X126357142Y-92665714D01*
X126309523Y-92760952D01*
X126261904Y-92808571D01*
X126166666Y-92856190D01*
X125785714Y-92856190D01*
X127214285Y-92332380D02*
X127023809Y-92332380D01*
X126928571Y-92380000D01*
X126880952Y-92427619D01*
X126785714Y-92570476D01*
X126738095Y-92760952D01*
X126738095Y-93141904D01*
X126785714Y-93237142D01*
X126833333Y-93284761D01*
X126928571Y-93332380D01*
X127119047Y-93332380D01*
X127214285Y-93284761D01*
X127261904Y-93237142D01*
X127309523Y-93141904D01*
X127309523Y-92903809D01*
X127261904Y-92808571D01*
X127214285Y-92760952D01*
X127119047Y-92713333D01*
X126928571Y-92713333D01*
X126833333Y-92760952D01*
X126785714Y-92808571D01*
X126738095Y-92903809D01*
X127642857Y-92332380D02*
X128261904Y-92332380D01*
X127928571Y-92713333D01*
X128071428Y-92713333D01*
X128166666Y-92760952D01*
X128214285Y-92808571D01*
X128261904Y-92903809D01*
X128261904Y-93141904D01*
X128214285Y-93237142D01*
X128166666Y-93284761D01*
X128071428Y-93332380D01*
X127785714Y-93332380D01*
X127690476Y-93284761D01*
X127642857Y-93237142D01*
%TO.C,R62*%
X111117142Y-93332380D02*
X110783809Y-92856190D01*
X110545714Y-93332380D02*
X110545714Y-92332380D01*
X110926666Y-92332380D01*
X111021904Y-92380000D01*
X111069523Y-92427619D01*
X111117142Y-92522857D01*
X111117142Y-92665714D01*
X111069523Y-92760952D01*
X111021904Y-92808571D01*
X110926666Y-92856190D01*
X110545714Y-92856190D01*
X111974285Y-92332380D02*
X111783809Y-92332380D01*
X111688571Y-92380000D01*
X111640952Y-92427619D01*
X111545714Y-92570476D01*
X111498095Y-92760952D01*
X111498095Y-93141904D01*
X111545714Y-93237142D01*
X111593333Y-93284761D01*
X111688571Y-93332380D01*
X111879047Y-93332380D01*
X111974285Y-93284761D01*
X112021904Y-93237142D01*
X112069523Y-93141904D01*
X112069523Y-92903809D01*
X112021904Y-92808571D01*
X111974285Y-92760952D01*
X111879047Y-92713333D01*
X111688571Y-92713333D01*
X111593333Y-92760952D01*
X111545714Y-92808571D01*
X111498095Y-92903809D01*
X112450476Y-92427619D02*
X112498095Y-92380000D01*
X112593333Y-92332380D01*
X112831428Y-92332380D01*
X112926666Y-92380000D01*
X112974285Y-92427619D01*
X113021904Y-92522857D01*
X113021904Y-92618095D01*
X112974285Y-92760952D01*
X112402857Y-93332380D01*
X113021904Y-93332380D01*
%TO.C,R61*%
X184269142Y-133632380D02*
X183935809Y-133156190D01*
X183697714Y-133632380D02*
X183697714Y-132632380D01*
X184078666Y-132632380D01*
X184173904Y-132680000D01*
X184221523Y-132727619D01*
X184269142Y-132822857D01*
X184269142Y-132965714D01*
X184221523Y-133060952D01*
X184173904Y-133108571D01*
X184078666Y-133156190D01*
X183697714Y-133156190D01*
X185126285Y-132632380D02*
X184935809Y-132632380D01*
X184840571Y-132680000D01*
X184792952Y-132727619D01*
X184697714Y-132870476D01*
X184650095Y-133060952D01*
X184650095Y-133441904D01*
X184697714Y-133537142D01*
X184745333Y-133584761D01*
X184840571Y-133632380D01*
X185031047Y-133632380D01*
X185126285Y-133584761D01*
X185173904Y-133537142D01*
X185221523Y-133441904D01*
X185221523Y-133203809D01*
X185173904Y-133108571D01*
X185126285Y-133060952D01*
X185031047Y-133013333D01*
X184840571Y-133013333D01*
X184745333Y-133060952D01*
X184697714Y-133108571D01*
X184650095Y-133203809D01*
X186173904Y-133632380D02*
X185602476Y-133632380D01*
X185888190Y-133632380D02*
X185888190Y-132632380D01*
X185792952Y-132775238D01*
X185697714Y-132870476D01*
X185602476Y-132918095D01*
%TO.C,R60*%
X198239142Y-133632380D02*
X197905809Y-133156190D01*
X197667714Y-133632380D02*
X197667714Y-132632380D01*
X198048666Y-132632380D01*
X198143904Y-132680000D01*
X198191523Y-132727619D01*
X198239142Y-132822857D01*
X198239142Y-132965714D01*
X198191523Y-133060952D01*
X198143904Y-133108571D01*
X198048666Y-133156190D01*
X197667714Y-133156190D01*
X199096285Y-132632380D02*
X198905809Y-132632380D01*
X198810571Y-132680000D01*
X198762952Y-132727619D01*
X198667714Y-132870476D01*
X198620095Y-133060952D01*
X198620095Y-133441904D01*
X198667714Y-133537142D01*
X198715333Y-133584761D01*
X198810571Y-133632380D01*
X199001047Y-133632380D01*
X199096285Y-133584761D01*
X199143904Y-133537142D01*
X199191523Y-133441904D01*
X199191523Y-133203809D01*
X199143904Y-133108571D01*
X199096285Y-133060952D01*
X199001047Y-133013333D01*
X198810571Y-133013333D01*
X198715333Y-133060952D01*
X198667714Y-133108571D01*
X198620095Y-133203809D01*
X199810571Y-132632380D02*
X199905809Y-132632380D01*
X200001047Y-132680000D01*
X200048666Y-132727619D01*
X200096285Y-132822857D01*
X200143904Y-133013333D01*
X200143904Y-133251428D01*
X200096285Y-133441904D01*
X200048666Y-133537142D01*
X200001047Y-133584761D01*
X199905809Y-133632380D01*
X199810571Y-133632380D01*
X199715333Y-133584761D01*
X199667714Y-133537142D01*
X199620095Y-133441904D01*
X199572476Y-133251428D01*
X199572476Y-133013333D01*
X199620095Y-132822857D01*
X199667714Y-132727619D01*
X199715333Y-132680000D01*
X199810571Y-132632380D01*
%TO.C,R59*%
X185539142Y-119662380D02*
X185205809Y-119186190D01*
X184967714Y-119662380D02*
X184967714Y-118662380D01*
X185348666Y-118662380D01*
X185443904Y-118710000D01*
X185491523Y-118757619D01*
X185539142Y-118852857D01*
X185539142Y-118995714D01*
X185491523Y-119090952D01*
X185443904Y-119138571D01*
X185348666Y-119186190D01*
X184967714Y-119186190D01*
X186443904Y-118662380D02*
X185967714Y-118662380D01*
X185920095Y-119138571D01*
X185967714Y-119090952D01*
X186062952Y-119043333D01*
X186301047Y-119043333D01*
X186396285Y-119090952D01*
X186443904Y-119138571D01*
X186491523Y-119233809D01*
X186491523Y-119471904D01*
X186443904Y-119567142D01*
X186396285Y-119614761D01*
X186301047Y-119662380D01*
X186062952Y-119662380D01*
X185967714Y-119614761D01*
X185920095Y-119567142D01*
X186967714Y-119662380D02*
X187158190Y-119662380D01*
X187253428Y-119614761D01*
X187301047Y-119567142D01*
X187396285Y-119424285D01*
X187443904Y-119233809D01*
X187443904Y-118852857D01*
X187396285Y-118757619D01*
X187348666Y-118710000D01*
X187253428Y-118662380D01*
X187062952Y-118662380D01*
X186967714Y-118710000D01*
X186920095Y-118757619D01*
X186872476Y-118852857D01*
X186872476Y-119090952D01*
X186920095Y-119186190D01*
X186967714Y-119233809D01*
X187062952Y-119281428D01*
X187253428Y-119281428D01*
X187348666Y-119233809D01*
X187396285Y-119186190D01*
X187443904Y-119090952D01*
%TO.C,R58*%
X199509142Y-119662380D02*
X199175809Y-119186190D01*
X198937714Y-119662380D02*
X198937714Y-118662380D01*
X199318666Y-118662380D01*
X199413904Y-118710000D01*
X199461523Y-118757619D01*
X199509142Y-118852857D01*
X199509142Y-118995714D01*
X199461523Y-119090952D01*
X199413904Y-119138571D01*
X199318666Y-119186190D01*
X198937714Y-119186190D01*
X200413904Y-118662380D02*
X199937714Y-118662380D01*
X199890095Y-119138571D01*
X199937714Y-119090952D01*
X200032952Y-119043333D01*
X200271047Y-119043333D01*
X200366285Y-119090952D01*
X200413904Y-119138571D01*
X200461523Y-119233809D01*
X200461523Y-119471904D01*
X200413904Y-119567142D01*
X200366285Y-119614761D01*
X200271047Y-119662380D01*
X200032952Y-119662380D01*
X199937714Y-119614761D01*
X199890095Y-119567142D01*
X201032952Y-119090952D02*
X200937714Y-119043333D01*
X200890095Y-118995714D01*
X200842476Y-118900476D01*
X200842476Y-118852857D01*
X200890095Y-118757619D01*
X200937714Y-118710000D01*
X201032952Y-118662380D01*
X201223428Y-118662380D01*
X201318666Y-118710000D01*
X201366285Y-118757619D01*
X201413904Y-118852857D01*
X201413904Y-118900476D01*
X201366285Y-118995714D01*
X201318666Y-119043333D01*
X201223428Y-119090952D01*
X201032952Y-119090952D01*
X200937714Y-119138571D01*
X200890095Y-119186190D01*
X200842476Y-119281428D01*
X200842476Y-119471904D01*
X200890095Y-119567142D01*
X200937714Y-119614761D01*
X201032952Y-119662380D01*
X201223428Y-119662380D01*
X201318666Y-119614761D01*
X201366285Y-119567142D01*
X201413904Y-119471904D01*
X201413904Y-119281428D01*
X201366285Y-119186190D01*
X201318666Y-119138571D01*
X201223428Y-119090952D01*
%TO.C,R57*%
X185539142Y-122202380D02*
X185205809Y-121726190D01*
X184967714Y-122202380D02*
X184967714Y-121202380D01*
X185348666Y-121202380D01*
X185443904Y-121250000D01*
X185491523Y-121297619D01*
X185539142Y-121392857D01*
X185539142Y-121535714D01*
X185491523Y-121630952D01*
X185443904Y-121678571D01*
X185348666Y-121726190D01*
X184967714Y-121726190D01*
X186443904Y-121202380D02*
X185967714Y-121202380D01*
X185920095Y-121678571D01*
X185967714Y-121630952D01*
X186062952Y-121583333D01*
X186301047Y-121583333D01*
X186396285Y-121630952D01*
X186443904Y-121678571D01*
X186491523Y-121773809D01*
X186491523Y-122011904D01*
X186443904Y-122107142D01*
X186396285Y-122154761D01*
X186301047Y-122202380D01*
X186062952Y-122202380D01*
X185967714Y-122154761D01*
X185920095Y-122107142D01*
X186824857Y-121202380D02*
X187491523Y-121202380D01*
X187062952Y-122202380D01*
%TO.C,R56*%
X199509142Y-122202380D02*
X199175809Y-121726190D01*
X198937714Y-122202380D02*
X198937714Y-121202380D01*
X199318666Y-121202380D01*
X199413904Y-121250000D01*
X199461523Y-121297619D01*
X199509142Y-121392857D01*
X199509142Y-121535714D01*
X199461523Y-121630952D01*
X199413904Y-121678571D01*
X199318666Y-121726190D01*
X198937714Y-121726190D01*
X200413904Y-121202380D02*
X199937714Y-121202380D01*
X199890095Y-121678571D01*
X199937714Y-121630952D01*
X200032952Y-121583333D01*
X200271047Y-121583333D01*
X200366285Y-121630952D01*
X200413904Y-121678571D01*
X200461523Y-121773809D01*
X200461523Y-122011904D01*
X200413904Y-122107142D01*
X200366285Y-122154761D01*
X200271047Y-122202380D01*
X200032952Y-122202380D01*
X199937714Y-122154761D01*
X199890095Y-122107142D01*
X201318666Y-121202380D02*
X201128190Y-121202380D01*
X201032952Y-121250000D01*
X200985333Y-121297619D01*
X200890095Y-121440476D01*
X200842476Y-121630952D01*
X200842476Y-122011904D01*
X200890095Y-122107142D01*
X200937714Y-122154761D01*
X201032952Y-122202380D01*
X201223428Y-122202380D01*
X201318666Y-122154761D01*
X201366285Y-122107142D01*
X201413904Y-122011904D01*
X201413904Y-121773809D01*
X201366285Y-121678571D01*
X201318666Y-121630952D01*
X201223428Y-121583333D01*
X201032952Y-121583333D01*
X200937714Y-121630952D01*
X200890095Y-121678571D01*
X200842476Y-121773809D01*
%TO.C,R55*%
X185539142Y-124742380D02*
X185205809Y-124266190D01*
X184967714Y-124742380D02*
X184967714Y-123742380D01*
X185348666Y-123742380D01*
X185443904Y-123790000D01*
X185491523Y-123837619D01*
X185539142Y-123932857D01*
X185539142Y-124075714D01*
X185491523Y-124170952D01*
X185443904Y-124218571D01*
X185348666Y-124266190D01*
X184967714Y-124266190D01*
X186443904Y-123742380D02*
X185967714Y-123742380D01*
X185920095Y-124218571D01*
X185967714Y-124170952D01*
X186062952Y-124123333D01*
X186301047Y-124123333D01*
X186396285Y-124170952D01*
X186443904Y-124218571D01*
X186491523Y-124313809D01*
X186491523Y-124551904D01*
X186443904Y-124647142D01*
X186396285Y-124694761D01*
X186301047Y-124742380D01*
X186062952Y-124742380D01*
X185967714Y-124694761D01*
X185920095Y-124647142D01*
X187396285Y-123742380D02*
X186920095Y-123742380D01*
X186872476Y-124218571D01*
X186920095Y-124170952D01*
X187015333Y-124123333D01*
X187253428Y-124123333D01*
X187348666Y-124170952D01*
X187396285Y-124218571D01*
X187443904Y-124313809D01*
X187443904Y-124551904D01*
X187396285Y-124647142D01*
X187348666Y-124694761D01*
X187253428Y-124742380D01*
X187015333Y-124742380D01*
X186920095Y-124694761D01*
X186872476Y-124647142D01*
%TO.C,R54*%
X199509142Y-124742380D02*
X199175809Y-124266190D01*
X198937714Y-124742380D02*
X198937714Y-123742380D01*
X199318666Y-123742380D01*
X199413904Y-123790000D01*
X199461523Y-123837619D01*
X199509142Y-123932857D01*
X199509142Y-124075714D01*
X199461523Y-124170952D01*
X199413904Y-124218571D01*
X199318666Y-124266190D01*
X198937714Y-124266190D01*
X200413904Y-123742380D02*
X199937714Y-123742380D01*
X199890095Y-124218571D01*
X199937714Y-124170952D01*
X200032952Y-124123333D01*
X200271047Y-124123333D01*
X200366285Y-124170952D01*
X200413904Y-124218571D01*
X200461523Y-124313809D01*
X200461523Y-124551904D01*
X200413904Y-124647142D01*
X200366285Y-124694761D01*
X200271047Y-124742380D01*
X200032952Y-124742380D01*
X199937714Y-124694761D01*
X199890095Y-124647142D01*
X201318666Y-124075714D02*
X201318666Y-124742380D01*
X201080571Y-123694761D02*
X200842476Y-124409047D01*
X201461523Y-124409047D01*
%TO.C,R53*%
X185539142Y-127282380D02*
X185205809Y-126806190D01*
X184967714Y-127282380D02*
X184967714Y-126282380D01*
X185348666Y-126282380D01*
X185443904Y-126330000D01*
X185491523Y-126377619D01*
X185539142Y-126472857D01*
X185539142Y-126615714D01*
X185491523Y-126710952D01*
X185443904Y-126758571D01*
X185348666Y-126806190D01*
X184967714Y-126806190D01*
X186443904Y-126282380D02*
X185967714Y-126282380D01*
X185920095Y-126758571D01*
X185967714Y-126710952D01*
X186062952Y-126663333D01*
X186301047Y-126663333D01*
X186396285Y-126710952D01*
X186443904Y-126758571D01*
X186491523Y-126853809D01*
X186491523Y-127091904D01*
X186443904Y-127187142D01*
X186396285Y-127234761D01*
X186301047Y-127282380D01*
X186062952Y-127282380D01*
X185967714Y-127234761D01*
X185920095Y-127187142D01*
X186824857Y-126282380D02*
X187443904Y-126282380D01*
X187110571Y-126663333D01*
X187253428Y-126663333D01*
X187348666Y-126710952D01*
X187396285Y-126758571D01*
X187443904Y-126853809D01*
X187443904Y-127091904D01*
X187396285Y-127187142D01*
X187348666Y-127234761D01*
X187253428Y-127282380D01*
X186967714Y-127282380D01*
X186872476Y-127234761D01*
X186824857Y-127187142D01*
%TO.C,R52*%
X199509142Y-127282380D02*
X199175809Y-126806190D01*
X198937714Y-127282380D02*
X198937714Y-126282380D01*
X199318666Y-126282380D01*
X199413904Y-126330000D01*
X199461523Y-126377619D01*
X199509142Y-126472857D01*
X199509142Y-126615714D01*
X199461523Y-126710952D01*
X199413904Y-126758571D01*
X199318666Y-126806190D01*
X198937714Y-126806190D01*
X200413904Y-126282380D02*
X199937714Y-126282380D01*
X199890095Y-126758571D01*
X199937714Y-126710952D01*
X200032952Y-126663333D01*
X200271047Y-126663333D01*
X200366285Y-126710952D01*
X200413904Y-126758571D01*
X200461523Y-126853809D01*
X200461523Y-127091904D01*
X200413904Y-127187142D01*
X200366285Y-127234761D01*
X200271047Y-127282380D01*
X200032952Y-127282380D01*
X199937714Y-127234761D01*
X199890095Y-127187142D01*
X200842476Y-126377619D02*
X200890095Y-126330000D01*
X200985333Y-126282380D01*
X201223428Y-126282380D01*
X201318666Y-126330000D01*
X201366285Y-126377619D01*
X201413904Y-126472857D01*
X201413904Y-126568095D01*
X201366285Y-126710952D01*
X200794857Y-127282380D01*
X201413904Y-127282380D01*
%TO.C,R51*%
X127627142Y-125082380D02*
X127293809Y-124606190D01*
X127055714Y-125082380D02*
X127055714Y-124082380D01*
X127436666Y-124082380D01*
X127531904Y-124130000D01*
X127579523Y-124177619D01*
X127627142Y-124272857D01*
X127627142Y-124415714D01*
X127579523Y-124510952D01*
X127531904Y-124558571D01*
X127436666Y-124606190D01*
X127055714Y-124606190D01*
X128531904Y-124082380D02*
X128055714Y-124082380D01*
X128008095Y-124558571D01*
X128055714Y-124510952D01*
X128150952Y-124463333D01*
X128389047Y-124463333D01*
X128484285Y-124510952D01*
X128531904Y-124558571D01*
X128579523Y-124653809D01*
X128579523Y-124891904D01*
X128531904Y-124987142D01*
X128484285Y-125034761D01*
X128389047Y-125082380D01*
X128150952Y-125082380D01*
X128055714Y-125034761D01*
X128008095Y-124987142D01*
X129531904Y-125082380D02*
X128960476Y-125082380D01*
X129246190Y-125082380D02*
X129246190Y-124082380D01*
X129150952Y-124225238D01*
X129055714Y-124320476D01*
X128960476Y-124368095D01*
%TO.C,R50*%
X111117142Y-125082380D02*
X110783809Y-124606190D01*
X110545714Y-125082380D02*
X110545714Y-124082380D01*
X110926666Y-124082380D01*
X111021904Y-124130000D01*
X111069523Y-124177619D01*
X111117142Y-124272857D01*
X111117142Y-124415714D01*
X111069523Y-124510952D01*
X111021904Y-124558571D01*
X110926666Y-124606190D01*
X110545714Y-124606190D01*
X112021904Y-124082380D02*
X111545714Y-124082380D01*
X111498095Y-124558571D01*
X111545714Y-124510952D01*
X111640952Y-124463333D01*
X111879047Y-124463333D01*
X111974285Y-124510952D01*
X112021904Y-124558571D01*
X112069523Y-124653809D01*
X112069523Y-124891904D01*
X112021904Y-124987142D01*
X111974285Y-125034761D01*
X111879047Y-125082380D01*
X111640952Y-125082380D01*
X111545714Y-125034761D01*
X111498095Y-124987142D01*
X112688571Y-124082380D02*
X112783809Y-124082380D01*
X112879047Y-124130000D01*
X112926666Y-124177619D01*
X112974285Y-124272857D01*
X113021904Y-124463333D01*
X113021904Y-124701428D01*
X112974285Y-124891904D01*
X112926666Y-124987142D01*
X112879047Y-125034761D01*
X112783809Y-125082380D01*
X112688571Y-125082380D01*
X112593333Y-125034761D01*
X112545714Y-124987142D01*
X112498095Y-124891904D01*
X112450476Y-124701428D01*
X112450476Y-124463333D01*
X112498095Y-124272857D01*
X112545714Y-124177619D01*
X112593333Y-124130000D01*
X112688571Y-124082380D01*
%TO.C,R49*%
X127627142Y-117462380D02*
X127293809Y-116986190D01*
X127055714Y-117462380D02*
X127055714Y-116462380D01*
X127436666Y-116462380D01*
X127531904Y-116510000D01*
X127579523Y-116557619D01*
X127627142Y-116652857D01*
X127627142Y-116795714D01*
X127579523Y-116890952D01*
X127531904Y-116938571D01*
X127436666Y-116986190D01*
X127055714Y-116986190D01*
X128484285Y-116795714D02*
X128484285Y-117462380D01*
X128246190Y-116414761D02*
X128008095Y-117129047D01*
X128627142Y-117129047D01*
X129055714Y-117462380D02*
X129246190Y-117462380D01*
X129341428Y-117414761D01*
X129389047Y-117367142D01*
X129484285Y-117224285D01*
X129531904Y-117033809D01*
X129531904Y-116652857D01*
X129484285Y-116557619D01*
X129436666Y-116510000D01*
X129341428Y-116462380D01*
X129150952Y-116462380D01*
X129055714Y-116510000D01*
X129008095Y-116557619D01*
X128960476Y-116652857D01*
X128960476Y-116890952D01*
X129008095Y-116986190D01*
X129055714Y-117033809D01*
X129150952Y-117081428D01*
X129341428Y-117081428D01*
X129436666Y-117033809D01*
X129484285Y-116986190D01*
X129531904Y-116890952D01*
%TO.C,R48*%
X111117142Y-117462380D02*
X110783809Y-116986190D01*
X110545714Y-117462380D02*
X110545714Y-116462380D01*
X110926666Y-116462380D01*
X111021904Y-116510000D01*
X111069523Y-116557619D01*
X111117142Y-116652857D01*
X111117142Y-116795714D01*
X111069523Y-116890952D01*
X111021904Y-116938571D01*
X110926666Y-116986190D01*
X110545714Y-116986190D01*
X111974285Y-116795714D02*
X111974285Y-117462380D01*
X111736190Y-116414761D02*
X111498095Y-117129047D01*
X112117142Y-117129047D01*
X112640952Y-116890952D02*
X112545714Y-116843333D01*
X112498095Y-116795714D01*
X112450476Y-116700476D01*
X112450476Y-116652857D01*
X112498095Y-116557619D01*
X112545714Y-116510000D01*
X112640952Y-116462380D01*
X112831428Y-116462380D01*
X112926666Y-116510000D01*
X112974285Y-116557619D01*
X113021904Y-116652857D01*
X113021904Y-116700476D01*
X112974285Y-116795714D01*
X112926666Y-116843333D01*
X112831428Y-116890952D01*
X112640952Y-116890952D01*
X112545714Y-116938571D01*
X112498095Y-116986190D01*
X112450476Y-117081428D01*
X112450476Y-117271904D01*
X112498095Y-117367142D01*
X112545714Y-117414761D01*
X112640952Y-117462380D01*
X112831428Y-117462380D01*
X112926666Y-117414761D01*
X112974285Y-117367142D01*
X113021904Y-117271904D01*
X113021904Y-117081428D01*
X112974285Y-116986190D01*
X112926666Y-116938571D01*
X112831428Y-116890952D01*
%TO.C,R47*%
X127627142Y-114922380D02*
X127293809Y-114446190D01*
X127055714Y-114922380D02*
X127055714Y-113922380D01*
X127436666Y-113922380D01*
X127531904Y-113970000D01*
X127579523Y-114017619D01*
X127627142Y-114112857D01*
X127627142Y-114255714D01*
X127579523Y-114350952D01*
X127531904Y-114398571D01*
X127436666Y-114446190D01*
X127055714Y-114446190D01*
X128484285Y-114255714D02*
X128484285Y-114922380D01*
X128246190Y-113874761D02*
X128008095Y-114589047D01*
X128627142Y-114589047D01*
X128912857Y-113922380D02*
X129579523Y-113922380D01*
X129150952Y-114922380D01*
%TO.C,R46*%
X111117142Y-114922380D02*
X110783809Y-114446190D01*
X110545714Y-114922380D02*
X110545714Y-113922380D01*
X110926666Y-113922380D01*
X111021904Y-113970000D01*
X111069523Y-114017619D01*
X111117142Y-114112857D01*
X111117142Y-114255714D01*
X111069523Y-114350952D01*
X111021904Y-114398571D01*
X110926666Y-114446190D01*
X110545714Y-114446190D01*
X111974285Y-114255714D02*
X111974285Y-114922380D01*
X111736190Y-113874761D02*
X111498095Y-114589047D01*
X112117142Y-114589047D01*
X112926666Y-113922380D02*
X112736190Y-113922380D01*
X112640952Y-113970000D01*
X112593333Y-114017619D01*
X112498095Y-114160476D01*
X112450476Y-114350952D01*
X112450476Y-114731904D01*
X112498095Y-114827142D01*
X112545714Y-114874761D01*
X112640952Y-114922380D01*
X112831428Y-114922380D01*
X112926666Y-114874761D01*
X112974285Y-114827142D01*
X113021904Y-114731904D01*
X113021904Y-114493809D01*
X112974285Y-114398571D01*
X112926666Y-114350952D01*
X112831428Y-114303333D01*
X112640952Y-114303333D01*
X112545714Y-114350952D01*
X112498095Y-114398571D01*
X112450476Y-114493809D01*
%TO.C,R45*%
X127627142Y-122542380D02*
X127293809Y-122066190D01*
X127055714Y-122542380D02*
X127055714Y-121542380D01*
X127436666Y-121542380D01*
X127531904Y-121590000D01*
X127579523Y-121637619D01*
X127627142Y-121732857D01*
X127627142Y-121875714D01*
X127579523Y-121970952D01*
X127531904Y-122018571D01*
X127436666Y-122066190D01*
X127055714Y-122066190D01*
X128484285Y-121875714D02*
X128484285Y-122542380D01*
X128246190Y-121494761D02*
X128008095Y-122209047D01*
X128627142Y-122209047D01*
X129484285Y-121542380D02*
X129008095Y-121542380D01*
X128960476Y-122018571D01*
X129008095Y-121970952D01*
X129103333Y-121923333D01*
X129341428Y-121923333D01*
X129436666Y-121970952D01*
X129484285Y-122018571D01*
X129531904Y-122113809D01*
X129531904Y-122351904D01*
X129484285Y-122447142D01*
X129436666Y-122494761D01*
X129341428Y-122542380D01*
X129103333Y-122542380D01*
X129008095Y-122494761D01*
X128960476Y-122447142D01*
%TO.C,R44*%
X111117142Y-122542380D02*
X110783809Y-122066190D01*
X110545714Y-122542380D02*
X110545714Y-121542380D01*
X110926666Y-121542380D01*
X111021904Y-121590000D01*
X111069523Y-121637619D01*
X111117142Y-121732857D01*
X111117142Y-121875714D01*
X111069523Y-121970952D01*
X111021904Y-122018571D01*
X110926666Y-122066190D01*
X110545714Y-122066190D01*
X111974285Y-121875714D02*
X111974285Y-122542380D01*
X111736190Y-121494761D02*
X111498095Y-122209047D01*
X112117142Y-122209047D01*
X112926666Y-121875714D02*
X112926666Y-122542380D01*
X112688571Y-121494761D02*
X112450476Y-122209047D01*
X113069523Y-122209047D01*
%TO.C,R43*%
X127627142Y-120002380D02*
X127293809Y-119526190D01*
X127055714Y-120002380D02*
X127055714Y-119002380D01*
X127436666Y-119002380D01*
X127531904Y-119050000D01*
X127579523Y-119097619D01*
X127627142Y-119192857D01*
X127627142Y-119335714D01*
X127579523Y-119430952D01*
X127531904Y-119478571D01*
X127436666Y-119526190D01*
X127055714Y-119526190D01*
X128484285Y-119335714D02*
X128484285Y-120002380D01*
X128246190Y-118954761D02*
X128008095Y-119669047D01*
X128627142Y-119669047D01*
X128912857Y-119002380D02*
X129531904Y-119002380D01*
X129198571Y-119383333D01*
X129341428Y-119383333D01*
X129436666Y-119430952D01*
X129484285Y-119478571D01*
X129531904Y-119573809D01*
X129531904Y-119811904D01*
X129484285Y-119907142D01*
X129436666Y-119954761D01*
X129341428Y-120002380D01*
X129055714Y-120002380D01*
X128960476Y-119954761D01*
X128912857Y-119907142D01*
%TO.C,R42*%
X111117142Y-120002380D02*
X110783809Y-119526190D01*
X110545714Y-120002380D02*
X110545714Y-119002380D01*
X110926666Y-119002380D01*
X111021904Y-119050000D01*
X111069523Y-119097619D01*
X111117142Y-119192857D01*
X111117142Y-119335714D01*
X111069523Y-119430952D01*
X111021904Y-119478571D01*
X110926666Y-119526190D01*
X110545714Y-119526190D01*
X111974285Y-119335714D02*
X111974285Y-120002380D01*
X111736190Y-118954761D02*
X111498095Y-119669047D01*
X112117142Y-119669047D01*
X112450476Y-119097619D02*
X112498095Y-119050000D01*
X112593333Y-119002380D01*
X112831428Y-119002380D01*
X112926666Y-119050000D01*
X112974285Y-119097619D01*
X113021904Y-119192857D01*
X113021904Y-119288095D01*
X112974285Y-119430952D01*
X112402857Y-120002380D01*
X113021904Y-120002380D01*
%TO.C,R41*%
X127627142Y-112382380D02*
X127293809Y-111906190D01*
X127055714Y-112382380D02*
X127055714Y-111382380D01*
X127436666Y-111382380D01*
X127531904Y-111430000D01*
X127579523Y-111477619D01*
X127627142Y-111572857D01*
X127627142Y-111715714D01*
X127579523Y-111810952D01*
X127531904Y-111858571D01*
X127436666Y-111906190D01*
X127055714Y-111906190D01*
X128484285Y-111715714D02*
X128484285Y-112382380D01*
X128246190Y-111334761D02*
X128008095Y-112049047D01*
X128627142Y-112049047D01*
X129531904Y-112382380D02*
X128960476Y-112382380D01*
X129246190Y-112382380D02*
X129246190Y-111382380D01*
X129150952Y-111525238D01*
X129055714Y-111620476D01*
X128960476Y-111668095D01*
%TO.C,R40*%
X111117142Y-112382380D02*
X110783809Y-111906190D01*
X110545714Y-112382380D02*
X110545714Y-111382380D01*
X110926666Y-111382380D01*
X111021904Y-111430000D01*
X111069523Y-111477619D01*
X111117142Y-111572857D01*
X111117142Y-111715714D01*
X111069523Y-111810952D01*
X111021904Y-111858571D01*
X110926666Y-111906190D01*
X110545714Y-111906190D01*
X111974285Y-111715714D02*
X111974285Y-112382380D01*
X111736190Y-111334761D02*
X111498095Y-112049047D01*
X112117142Y-112049047D01*
X112688571Y-111382380D02*
X112783809Y-111382380D01*
X112879047Y-111430000D01*
X112926666Y-111477619D01*
X112974285Y-111572857D01*
X113021904Y-111763333D01*
X113021904Y-112001428D01*
X112974285Y-112191904D01*
X112926666Y-112287142D01*
X112879047Y-112334761D01*
X112783809Y-112382380D01*
X112688571Y-112382380D01*
X112593333Y-112334761D01*
X112545714Y-112287142D01*
X112498095Y-112191904D01*
X112450476Y-112001428D01*
X112450476Y-111763333D01*
X112498095Y-111572857D01*
X112545714Y-111477619D01*
X112593333Y-111430000D01*
X112688571Y-111382380D01*
%TO.C,R39*%
X127627142Y-107302380D02*
X127293809Y-106826190D01*
X127055714Y-107302380D02*
X127055714Y-106302380D01*
X127436666Y-106302380D01*
X127531904Y-106350000D01*
X127579523Y-106397619D01*
X127627142Y-106492857D01*
X127627142Y-106635714D01*
X127579523Y-106730952D01*
X127531904Y-106778571D01*
X127436666Y-106826190D01*
X127055714Y-106826190D01*
X127960476Y-106302380D02*
X128579523Y-106302380D01*
X128246190Y-106683333D01*
X128389047Y-106683333D01*
X128484285Y-106730952D01*
X128531904Y-106778571D01*
X128579523Y-106873809D01*
X128579523Y-107111904D01*
X128531904Y-107207142D01*
X128484285Y-107254761D01*
X128389047Y-107302380D01*
X128103333Y-107302380D01*
X128008095Y-107254761D01*
X127960476Y-107207142D01*
X129055714Y-107302380D02*
X129246190Y-107302380D01*
X129341428Y-107254761D01*
X129389047Y-107207142D01*
X129484285Y-107064285D01*
X129531904Y-106873809D01*
X129531904Y-106492857D01*
X129484285Y-106397619D01*
X129436666Y-106350000D01*
X129341428Y-106302380D01*
X129150952Y-106302380D01*
X129055714Y-106350000D01*
X129008095Y-106397619D01*
X128960476Y-106492857D01*
X128960476Y-106730952D01*
X129008095Y-106826190D01*
X129055714Y-106873809D01*
X129150952Y-106921428D01*
X129341428Y-106921428D01*
X129436666Y-106873809D01*
X129484285Y-106826190D01*
X129531904Y-106730952D01*
%TO.C,R38*%
X111117142Y-107302380D02*
X110783809Y-106826190D01*
X110545714Y-107302380D02*
X110545714Y-106302380D01*
X110926666Y-106302380D01*
X111021904Y-106350000D01*
X111069523Y-106397619D01*
X111117142Y-106492857D01*
X111117142Y-106635714D01*
X111069523Y-106730952D01*
X111021904Y-106778571D01*
X110926666Y-106826190D01*
X110545714Y-106826190D01*
X111450476Y-106302380D02*
X112069523Y-106302380D01*
X111736190Y-106683333D01*
X111879047Y-106683333D01*
X111974285Y-106730952D01*
X112021904Y-106778571D01*
X112069523Y-106873809D01*
X112069523Y-107111904D01*
X112021904Y-107207142D01*
X111974285Y-107254761D01*
X111879047Y-107302380D01*
X111593333Y-107302380D01*
X111498095Y-107254761D01*
X111450476Y-107207142D01*
X112640952Y-106730952D02*
X112545714Y-106683333D01*
X112498095Y-106635714D01*
X112450476Y-106540476D01*
X112450476Y-106492857D01*
X112498095Y-106397619D01*
X112545714Y-106350000D01*
X112640952Y-106302380D01*
X112831428Y-106302380D01*
X112926666Y-106350000D01*
X112974285Y-106397619D01*
X113021904Y-106492857D01*
X113021904Y-106540476D01*
X112974285Y-106635714D01*
X112926666Y-106683333D01*
X112831428Y-106730952D01*
X112640952Y-106730952D01*
X112545714Y-106778571D01*
X112498095Y-106826190D01*
X112450476Y-106921428D01*
X112450476Y-107111904D01*
X112498095Y-107207142D01*
X112545714Y-107254761D01*
X112640952Y-107302380D01*
X112831428Y-107302380D01*
X112926666Y-107254761D01*
X112974285Y-107207142D01*
X113021904Y-107111904D01*
X113021904Y-106921428D01*
X112974285Y-106826190D01*
X112926666Y-106778571D01*
X112831428Y-106730952D01*
%TO.C,R37*%
X183507142Y-65052380D02*
X183173809Y-64576190D01*
X182935714Y-65052380D02*
X182935714Y-64052380D01*
X183316666Y-64052380D01*
X183411904Y-64100000D01*
X183459523Y-64147619D01*
X183507142Y-64242857D01*
X183507142Y-64385714D01*
X183459523Y-64480952D01*
X183411904Y-64528571D01*
X183316666Y-64576190D01*
X182935714Y-64576190D01*
X183840476Y-64052380D02*
X184459523Y-64052380D01*
X184126190Y-64433333D01*
X184269047Y-64433333D01*
X184364285Y-64480952D01*
X184411904Y-64528571D01*
X184459523Y-64623809D01*
X184459523Y-64861904D01*
X184411904Y-64957142D01*
X184364285Y-65004761D01*
X184269047Y-65052380D01*
X183983333Y-65052380D01*
X183888095Y-65004761D01*
X183840476Y-64957142D01*
X184792857Y-64052380D02*
X185459523Y-64052380D01*
X185030952Y-65052380D01*
%TO.C,R36*%
X197477142Y-65052380D02*
X197143809Y-64576190D01*
X196905714Y-65052380D02*
X196905714Y-64052380D01*
X197286666Y-64052380D01*
X197381904Y-64100000D01*
X197429523Y-64147619D01*
X197477142Y-64242857D01*
X197477142Y-64385714D01*
X197429523Y-64480952D01*
X197381904Y-64528571D01*
X197286666Y-64576190D01*
X196905714Y-64576190D01*
X197810476Y-64052380D02*
X198429523Y-64052380D01*
X198096190Y-64433333D01*
X198239047Y-64433333D01*
X198334285Y-64480952D01*
X198381904Y-64528571D01*
X198429523Y-64623809D01*
X198429523Y-64861904D01*
X198381904Y-64957142D01*
X198334285Y-65004761D01*
X198239047Y-65052380D01*
X197953333Y-65052380D01*
X197858095Y-65004761D01*
X197810476Y-64957142D01*
X199286666Y-64052380D02*
X199096190Y-64052380D01*
X199000952Y-64100000D01*
X198953333Y-64147619D01*
X198858095Y-64290476D01*
X198810476Y-64480952D01*
X198810476Y-64861904D01*
X198858095Y-64957142D01*
X198905714Y-65004761D01*
X199000952Y-65052380D01*
X199191428Y-65052380D01*
X199286666Y-65004761D01*
X199334285Y-64957142D01*
X199381904Y-64861904D01*
X199381904Y-64623809D01*
X199334285Y-64528571D01*
X199286666Y-64480952D01*
X199191428Y-64433333D01*
X199000952Y-64433333D01*
X198905714Y-64480952D01*
X198858095Y-64528571D01*
X198810476Y-64623809D01*
%TO.C,R35*%
X183507142Y-67592380D02*
X183173809Y-67116190D01*
X182935714Y-67592380D02*
X182935714Y-66592380D01*
X183316666Y-66592380D01*
X183411904Y-66640000D01*
X183459523Y-66687619D01*
X183507142Y-66782857D01*
X183507142Y-66925714D01*
X183459523Y-67020952D01*
X183411904Y-67068571D01*
X183316666Y-67116190D01*
X182935714Y-67116190D01*
X183840476Y-66592380D02*
X184459523Y-66592380D01*
X184126190Y-66973333D01*
X184269047Y-66973333D01*
X184364285Y-67020952D01*
X184411904Y-67068571D01*
X184459523Y-67163809D01*
X184459523Y-67401904D01*
X184411904Y-67497142D01*
X184364285Y-67544761D01*
X184269047Y-67592380D01*
X183983333Y-67592380D01*
X183888095Y-67544761D01*
X183840476Y-67497142D01*
X185364285Y-66592380D02*
X184888095Y-66592380D01*
X184840476Y-67068571D01*
X184888095Y-67020952D01*
X184983333Y-66973333D01*
X185221428Y-66973333D01*
X185316666Y-67020952D01*
X185364285Y-67068571D01*
X185411904Y-67163809D01*
X185411904Y-67401904D01*
X185364285Y-67497142D01*
X185316666Y-67544761D01*
X185221428Y-67592380D01*
X184983333Y-67592380D01*
X184888095Y-67544761D01*
X184840476Y-67497142D01*
%TO.C,R34*%
X197477142Y-67592380D02*
X197143809Y-67116190D01*
X196905714Y-67592380D02*
X196905714Y-66592380D01*
X197286666Y-66592380D01*
X197381904Y-66640000D01*
X197429523Y-66687619D01*
X197477142Y-66782857D01*
X197477142Y-66925714D01*
X197429523Y-67020952D01*
X197381904Y-67068571D01*
X197286666Y-67116190D01*
X196905714Y-67116190D01*
X197810476Y-66592380D02*
X198429523Y-66592380D01*
X198096190Y-66973333D01*
X198239047Y-66973333D01*
X198334285Y-67020952D01*
X198381904Y-67068571D01*
X198429523Y-67163809D01*
X198429523Y-67401904D01*
X198381904Y-67497142D01*
X198334285Y-67544761D01*
X198239047Y-67592380D01*
X197953333Y-67592380D01*
X197858095Y-67544761D01*
X197810476Y-67497142D01*
X199286666Y-66925714D02*
X199286666Y-67592380D01*
X199048571Y-66544761D02*
X198810476Y-67259047D01*
X199429523Y-67259047D01*
%TO.C,R33*%
X127627142Y-109842380D02*
X127293809Y-109366190D01*
X127055714Y-109842380D02*
X127055714Y-108842380D01*
X127436666Y-108842380D01*
X127531904Y-108890000D01*
X127579523Y-108937619D01*
X127627142Y-109032857D01*
X127627142Y-109175714D01*
X127579523Y-109270952D01*
X127531904Y-109318571D01*
X127436666Y-109366190D01*
X127055714Y-109366190D01*
X127960476Y-108842380D02*
X128579523Y-108842380D01*
X128246190Y-109223333D01*
X128389047Y-109223333D01*
X128484285Y-109270952D01*
X128531904Y-109318571D01*
X128579523Y-109413809D01*
X128579523Y-109651904D01*
X128531904Y-109747142D01*
X128484285Y-109794761D01*
X128389047Y-109842380D01*
X128103333Y-109842380D01*
X128008095Y-109794761D01*
X127960476Y-109747142D01*
X128912857Y-108842380D02*
X129531904Y-108842380D01*
X129198571Y-109223333D01*
X129341428Y-109223333D01*
X129436666Y-109270952D01*
X129484285Y-109318571D01*
X129531904Y-109413809D01*
X129531904Y-109651904D01*
X129484285Y-109747142D01*
X129436666Y-109794761D01*
X129341428Y-109842380D01*
X129055714Y-109842380D01*
X128960476Y-109794761D01*
X128912857Y-109747142D01*
%TO.C,R32*%
X111117142Y-109842380D02*
X110783809Y-109366190D01*
X110545714Y-109842380D02*
X110545714Y-108842380D01*
X110926666Y-108842380D01*
X111021904Y-108890000D01*
X111069523Y-108937619D01*
X111117142Y-109032857D01*
X111117142Y-109175714D01*
X111069523Y-109270952D01*
X111021904Y-109318571D01*
X110926666Y-109366190D01*
X110545714Y-109366190D01*
X111450476Y-108842380D02*
X112069523Y-108842380D01*
X111736190Y-109223333D01*
X111879047Y-109223333D01*
X111974285Y-109270952D01*
X112021904Y-109318571D01*
X112069523Y-109413809D01*
X112069523Y-109651904D01*
X112021904Y-109747142D01*
X111974285Y-109794761D01*
X111879047Y-109842380D01*
X111593333Y-109842380D01*
X111498095Y-109794761D01*
X111450476Y-109747142D01*
X112450476Y-108937619D02*
X112498095Y-108890000D01*
X112593333Y-108842380D01*
X112831428Y-108842380D01*
X112926666Y-108890000D01*
X112974285Y-108937619D01*
X113021904Y-109032857D01*
X113021904Y-109128095D01*
X112974285Y-109270952D01*
X112402857Y-109842380D01*
X113021904Y-109842380D01*
%TO.C,R31*%
X183507142Y-70132380D02*
X183173809Y-69656190D01*
X182935714Y-70132380D02*
X182935714Y-69132380D01*
X183316666Y-69132380D01*
X183411904Y-69180000D01*
X183459523Y-69227619D01*
X183507142Y-69322857D01*
X183507142Y-69465714D01*
X183459523Y-69560952D01*
X183411904Y-69608571D01*
X183316666Y-69656190D01*
X182935714Y-69656190D01*
X183840476Y-69132380D02*
X184459523Y-69132380D01*
X184126190Y-69513333D01*
X184269047Y-69513333D01*
X184364285Y-69560952D01*
X184411904Y-69608571D01*
X184459523Y-69703809D01*
X184459523Y-69941904D01*
X184411904Y-70037142D01*
X184364285Y-70084761D01*
X184269047Y-70132380D01*
X183983333Y-70132380D01*
X183888095Y-70084761D01*
X183840476Y-70037142D01*
X185411904Y-70132380D02*
X184840476Y-70132380D01*
X185126190Y-70132380D02*
X185126190Y-69132380D01*
X185030952Y-69275238D01*
X184935714Y-69370476D01*
X184840476Y-69418095D01*
%TO.C,R30*%
X197477142Y-70132380D02*
X197143809Y-69656190D01*
X196905714Y-70132380D02*
X196905714Y-69132380D01*
X197286666Y-69132380D01*
X197381904Y-69180000D01*
X197429523Y-69227619D01*
X197477142Y-69322857D01*
X197477142Y-69465714D01*
X197429523Y-69560952D01*
X197381904Y-69608571D01*
X197286666Y-69656190D01*
X196905714Y-69656190D01*
X197810476Y-69132380D02*
X198429523Y-69132380D01*
X198096190Y-69513333D01*
X198239047Y-69513333D01*
X198334285Y-69560952D01*
X198381904Y-69608571D01*
X198429523Y-69703809D01*
X198429523Y-69941904D01*
X198381904Y-70037142D01*
X198334285Y-70084761D01*
X198239047Y-70132380D01*
X197953333Y-70132380D01*
X197858095Y-70084761D01*
X197810476Y-70037142D01*
X199048571Y-69132380D02*
X199143809Y-69132380D01*
X199239047Y-69180000D01*
X199286666Y-69227619D01*
X199334285Y-69322857D01*
X199381904Y-69513333D01*
X199381904Y-69751428D01*
X199334285Y-69941904D01*
X199286666Y-70037142D01*
X199239047Y-70084761D01*
X199143809Y-70132380D01*
X199048571Y-70132380D01*
X198953333Y-70084761D01*
X198905714Y-70037142D01*
X198858095Y-69941904D01*
X198810476Y-69751428D01*
X198810476Y-69513333D01*
X198858095Y-69322857D01*
X198905714Y-69227619D01*
X198953333Y-69180000D01*
X199048571Y-69132380D01*
%TO.C,R29*%
X183507142Y-72672380D02*
X183173809Y-72196190D01*
X182935714Y-72672380D02*
X182935714Y-71672380D01*
X183316666Y-71672380D01*
X183411904Y-71720000D01*
X183459523Y-71767619D01*
X183507142Y-71862857D01*
X183507142Y-72005714D01*
X183459523Y-72100952D01*
X183411904Y-72148571D01*
X183316666Y-72196190D01*
X182935714Y-72196190D01*
X183888095Y-71767619D02*
X183935714Y-71720000D01*
X184030952Y-71672380D01*
X184269047Y-71672380D01*
X184364285Y-71720000D01*
X184411904Y-71767619D01*
X184459523Y-71862857D01*
X184459523Y-71958095D01*
X184411904Y-72100952D01*
X183840476Y-72672380D01*
X184459523Y-72672380D01*
X184935714Y-72672380D02*
X185126190Y-72672380D01*
X185221428Y-72624761D01*
X185269047Y-72577142D01*
X185364285Y-72434285D01*
X185411904Y-72243809D01*
X185411904Y-71862857D01*
X185364285Y-71767619D01*
X185316666Y-71720000D01*
X185221428Y-71672380D01*
X185030952Y-71672380D01*
X184935714Y-71720000D01*
X184888095Y-71767619D01*
X184840476Y-71862857D01*
X184840476Y-72100952D01*
X184888095Y-72196190D01*
X184935714Y-72243809D01*
X185030952Y-72291428D01*
X185221428Y-72291428D01*
X185316666Y-72243809D01*
X185364285Y-72196190D01*
X185411904Y-72100952D01*
%TO.C,R28*%
X197477142Y-72672380D02*
X197143809Y-72196190D01*
X196905714Y-72672380D02*
X196905714Y-71672380D01*
X197286666Y-71672380D01*
X197381904Y-71720000D01*
X197429523Y-71767619D01*
X197477142Y-71862857D01*
X197477142Y-72005714D01*
X197429523Y-72100952D01*
X197381904Y-72148571D01*
X197286666Y-72196190D01*
X196905714Y-72196190D01*
X197858095Y-71767619D02*
X197905714Y-71720000D01*
X198000952Y-71672380D01*
X198239047Y-71672380D01*
X198334285Y-71720000D01*
X198381904Y-71767619D01*
X198429523Y-71862857D01*
X198429523Y-71958095D01*
X198381904Y-72100952D01*
X197810476Y-72672380D01*
X198429523Y-72672380D01*
X199000952Y-72100952D02*
X198905714Y-72053333D01*
X198858095Y-72005714D01*
X198810476Y-71910476D01*
X198810476Y-71862857D01*
X198858095Y-71767619D01*
X198905714Y-71720000D01*
X199000952Y-71672380D01*
X199191428Y-71672380D01*
X199286666Y-71720000D01*
X199334285Y-71767619D01*
X199381904Y-71862857D01*
X199381904Y-71910476D01*
X199334285Y-72005714D01*
X199286666Y-72053333D01*
X199191428Y-72100952D01*
X199000952Y-72100952D01*
X198905714Y-72148571D01*
X198858095Y-72196190D01*
X198810476Y-72291428D01*
X198810476Y-72481904D01*
X198858095Y-72577142D01*
X198905714Y-72624761D01*
X199000952Y-72672380D01*
X199191428Y-72672380D01*
X199286666Y-72624761D01*
X199334285Y-72577142D01*
X199381904Y-72481904D01*
X199381904Y-72291428D01*
X199334285Y-72196190D01*
X199286666Y-72148571D01*
X199191428Y-72100952D01*
%TO.C,R27*%
X183507142Y-75212380D02*
X183173809Y-74736190D01*
X182935714Y-75212380D02*
X182935714Y-74212380D01*
X183316666Y-74212380D01*
X183411904Y-74260000D01*
X183459523Y-74307619D01*
X183507142Y-74402857D01*
X183507142Y-74545714D01*
X183459523Y-74640952D01*
X183411904Y-74688571D01*
X183316666Y-74736190D01*
X182935714Y-74736190D01*
X183888095Y-74307619D02*
X183935714Y-74260000D01*
X184030952Y-74212380D01*
X184269047Y-74212380D01*
X184364285Y-74260000D01*
X184411904Y-74307619D01*
X184459523Y-74402857D01*
X184459523Y-74498095D01*
X184411904Y-74640952D01*
X183840476Y-75212380D01*
X184459523Y-75212380D01*
X184792857Y-74212380D02*
X185459523Y-74212380D01*
X185030952Y-75212380D01*
%TO.C,R26*%
X197477142Y-75212380D02*
X197143809Y-74736190D01*
X196905714Y-75212380D02*
X196905714Y-74212380D01*
X197286666Y-74212380D01*
X197381904Y-74260000D01*
X197429523Y-74307619D01*
X197477142Y-74402857D01*
X197477142Y-74545714D01*
X197429523Y-74640952D01*
X197381904Y-74688571D01*
X197286666Y-74736190D01*
X196905714Y-74736190D01*
X197858095Y-74307619D02*
X197905714Y-74260000D01*
X198000952Y-74212380D01*
X198239047Y-74212380D01*
X198334285Y-74260000D01*
X198381904Y-74307619D01*
X198429523Y-74402857D01*
X198429523Y-74498095D01*
X198381904Y-74640952D01*
X197810476Y-75212380D01*
X198429523Y-75212380D01*
X199286666Y-74212380D02*
X199096190Y-74212380D01*
X199000952Y-74260000D01*
X198953333Y-74307619D01*
X198858095Y-74450476D01*
X198810476Y-74640952D01*
X198810476Y-75021904D01*
X198858095Y-75117142D01*
X198905714Y-75164761D01*
X199000952Y-75212380D01*
X199191428Y-75212380D01*
X199286666Y-75164761D01*
X199334285Y-75117142D01*
X199381904Y-75021904D01*
X199381904Y-74783809D01*
X199334285Y-74688571D01*
X199286666Y-74640952D01*
X199191428Y-74593333D01*
X199000952Y-74593333D01*
X198905714Y-74640952D01*
X198858095Y-74688571D01*
X198810476Y-74783809D01*
%TO.C,R25*%
X183507142Y-77752380D02*
X183173809Y-77276190D01*
X182935714Y-77752380D02*
X182935714Y-76752380D01*
X183316666Y-76752380D01*
X183411904Y-76800000D01*
X183459523Y-76847619D01*
X183507142Y-76942857D01*
X183507142Y-77085714D01*
X183459523Y-77180952D01*
X183411904Y-77228571D01*
X183316666Y-77276190D01*
X182935714Y-77276190D01*
X183888095Y-76847619D02*
X183935714Y-76800000D01*
X184030952Y-76752380D01*
X184269047Y-76752380D01*
X184364285Y-76800000D01*
X184411904Y-76847619D01*
X184459523Y-76942857D01*
X184459523Y-77038095D01*
X184411904Y-77180952D01*
X183840476Y-77752380D01*
X184459523Y-77752380D01*
X185364285Y-76752380D02*
X184888095Y-76752380D01*
X184840476Y-77228571D01*
X184888095Y-77180952D01*
X184983333Y-77133333D01*
X185221428Y-77133333D01*
X185316666Y-77180952D01*
X185364285Y-77228571D01*
X185411904Y-77323809D01*
X185411904Y-77561904D01*
X185364285Y-77657142D01*
X185316666Y-77704761D01*
X185221428Y-77752380D01*
X184983333Y-77752380D01*
X184888095Y-77704761D01*
X184840476Y-77657142D01*
%TO.C,R24*%
X197477142Y-77752380D02*
X197143809Y-77276190D01*
X196905714Y-77752380D02*
X196905714Y-76752380D01*
X197286666Y-76752380D01*
X197381904Y-76800000D01*
X197429523Y-76847619D01*
X197477142Y-76942857D01*
X197477142Y-77085714D01*
X197429523Y-77180952D01*
X197381904Y-77228571D01*
X197286666Y-77276190D01*
X196905714Y-77276190D01*
X197858095Y-76847619D02*
X197905714Y-76800000D01*
X198000952Y-76752380D01*
X198239047Y-76752380D01*
X198334285Y-76800000D01*
X198381904Y-76847619D01*
X198429523Y-76942857D01*
X198429523Y-77038095D01*
X198381904Y-77180952D01*
X197810476Y-77752380D01*
X198429523Y-77752380D01*
X199286666Y-77085714D02*
X199286666Y-77752380D01*
X199048571Y-76704761D02*
X198810476Y-77419047D01*
X199429523Y-77419047D01*
%TO.C,R23*%
X183507142Y-80292380D02*
X183173809Y-79816190D01*
X182935714Y-80292380D02*
X182935714Y-79292380D01*
X183316666Y-79292380D01*
X183411904Y-79340000D01*
X183459523Y-79387619D01*
X183507142Y-79482857D01*
X183507142Y-79625714D01*
X183459523Y-79720952D01*
X183411904Y-79768571D01*
X183316666Y-79816190D01*
X182935714Y-79816190D01*
X183888095Y-79387619D02*
X183935714Y-79340000D01*
X184030952Y-79292380D01*
X184269047Y-79292380D01*
X184364285Y-79340000D01*
X184411904Y-79387619D01*
X184459523Y-79482857D01*
X184459523Y-79578095D01*
X184411904Y-79720952D01*
X183840476Y-80292380D01*
X184459523Y-80292380D01*
X184792857Y-79292380D02*
X185411904Y-79292380D01*
X185078571Y-79673333D01*
X185221428Y-79673333D01*
X185316666Y-79720952D01*
X185364285Y-79768571D01*
X185411904Y-79863809D01*
X185411904Y-80101904D01*
X185364285Y-80197142D01*
X185316666Y-80244761D01*
X185221428Y-80292380D01*
X184935714Y-80292380D01*
X184840476Y-80244761D01*
X184792857Y-80197142D01*
%TO.C,R22*%
X197477142Y-80292380D02*
X197143809Y-79816190D01*
X196905714Y-80292380D02*
X196905714Y-79292380D01*
X197286666Y-79292380D01*
X197381904Y-79340000D01*
X197429523Y-79387619D01*
X197477142Y-79482857D01*
X197477142Y-79625714D01*
X197429523Y-79720952D01*
X197381904Y-79768571D01*
X197286666Y-79816190D01*
X196905714Y-79816190D01*
X197858095Y-79387619D02*
X197905714Y-79340000D01*
X198000952Y-79292380D01*
X198239047Y-79292380D01*
X198334285Y-79340000D01*
X198381904Y-79387619D01*
X198429523Y-79482857D01*
X198429523Y-79578095D01*
X198381904Y-79720952D01*
X197810476Y-80292380D01*
X198429523Y-80292380D01*
X198810476Y-79387619D02*
X198858095Y-79340000D01*
X198953333Y-79292380D01*
X199191428Y-79292380D01*
X199286666Y-79340000D01*
X199334285Y-79387619D01*
X199381904Y-79482857D01*
X199381904Y-79578095D01*
X199334285Y-79720952D01*
X198762857Y-80292380D01*
X199381904Y-80292380D01*
%TO.C,R21*%
X183507142Y-82832380D02*
X183173809Y-82356190D01*
X182935714Y-82832380D02*
X182935714Y-81832380D01*
X183316666Y-81832380D01*
X183411904Y-81880000D01*
X183459523Y-81927619D01*
X183507142Y-82022857D01*
X183507142Y-82165714D01*
X183459523Y-82260952D01*
X183411904Y-82308571D01*
X183316666Y-82356190D01*
X182935714Y-82356190D01*
X183888095Y-81927619D02*
X183935714Y-81880000D01*
X184030952Y-81832380D01*
X184269047Y-81832380D01*
X184364285Y-81880000D01*
X184411904Y-81927619D01*
X184459523Y-82022857D01*
X184459523Y-82118095D01*
X184411904Y-82260952D01*
X183840476Y-82832380D01*
X184459523Y-82832380D01*
X185411904Y-82832380D02*
X184840476Y-82832380D01*
X185126190Y-82832380D02*
X185126190Y-81832380D01*
X185030952Y-81975238D01*
X184935714Y-82070476D01*
X184840476Y-82118095D01*
%TO.C,R20*%
X197477142Y-82832380D02*
X197143809Y-82356190D01*
X196905714Y-82832380D02*
X196905714Y-81832380D01*
X197286666Y-81832380D01*
X197381904Y-81880000D01*
X197429523Y-81927619D01*
X197477142Y-82022857D01*
X197477142Y-82165714D01*
X197429523Y-82260952D01*
X197381904Y-82308571D01*
X197286666Y-82356190D01*
X196905714Y-82356190D01*
X197858095Y-81927619D02*
X197905714Y-81880000D01*
X198000952Y-81832380D01*
X198239047Y-81832380D01*
X198334285Y-81880000D01*
X198381904Y-81927619D01*
X198429523Y-82022857D01*
X198429523Y-82118095D01*
X198381904Y-82260952D01*
X197810476Y-82832380D01*
X198429523Y-82832380D01*
X199048571Y-81832380D02*
X199143809Y-81832380D01*
X199239047Y-81880000D01*
X199286666Y-81927619D01*
X199334285Y-82022857D01*
X199381904Y-82213333D01*
X199381904Y-82451428D01*
X199334285Y-82641904D01*
X199286666Y-82737142D01*
X199239047Y-82784761D01*
X199143809Y-82832380D01*
X199048571Y-82832380D01*
X198953333Y-82784761D01*
X198905714Y-82737142D01*
X198858095Y-82641904D01*
X198810476Y-82451428D01*
X198810476Y-82213333D01*
X198858095Y-82022857D01*
X198905714Y-81927619D01*
X198953333Y-81880000D01*
X199048571Y-81832380D01*
%TO.C,R19*%
X183507142Y-85372380D02*
X183173809Y-84896190D01*
X182935714Y-85372380D02*
X182935714Y-84372380D01*
X183316666Y-84372380D01*
X183411904Y-84420000D01*
X183459523Y-84467619D01*
X183507142Y-84562857D01*
X183507142Y-84705714D01*
X183459523Y-84800952D01*
X183411904Y-84848571D01*
X183316666Y-84896190D01*
X182935714Y-84896190D01*
X184459523Y-85372380D02*
X183888095Y-85372380D01*
X184173809Y-85372380D02*
X184173809Y-84372380D01*
X184078571Y-84515238D01*
X183983333Y-84610476D01*
X183888095Y-84658095D01*
X184935714Y-85372380D02*
X185126190Y-85372380D01*
X185221428Y-85324761D01*
X185269047Y-85277142D01*
X185364285Y-85134285D01*
X185411904Y-84943809D01*
X185411904Y-84562857D01*
X185364285Y-84467619D01*
X185316666Y-84420000D01*
X185221428Y-84372380D01*
X185030952Y-84372380D01*
X184935714Y-84420000D01*
X184888095Y-84467619D01*
X184840476Y-84562857D01*
X184840476Y-84800952D01*
X184888095Y-84896190D01*
X184935714Y-84943809D01*
X185030952Y-84991428D01*
X185221428Y-84991428D01*
X185316666Y-84943809D01*
X185364285Y-84896190D01*
X185411904Y-84800952D01*
%TO.C,R18*%
X197477142Y-85372380D02*
X197143809Y-84896190D01*
X196905714Y-85372380D02*
X196905714Y-84372380D01*
X197286666Y-84372380D01*
X197381904Y-84420000D01*
X197429523Y-84467619D01*
X197477142Y-84562857D01*
X197477142Y-84705714D01*
X197429523Y-84800952D01*
X197381904Y-84848571D01*
X197286666Y-84896190D01*
X196905714Y-84896190D01*
X198429523Y-85372380D02*
X197858095Y-85372380D01*
X198143809Y-85372380D02*
X198143809Y-84372380D01*
X198048571Y-84515238D01*
X197953333Y-84610476D01*
X197858095Y-84658095D01*
X199000952Y-84800952D02*
X198905714Y-84753333D01*
X198858095Y-84705714D01*
X198810476Y-84610476D01*
X198810476Y-84562857D01*
X198858095Y-84467619D01*
X198905714Y-84420000D01*
X199000952Y-84372380D01*
X199191428Y-84372380D01*
X199286666Y-84420000D01*
X199334285Y-84467619D01*
X199381904Y-84562857D01*
X199381904Y-84610476D01*
X199334285Y-84705714D01*
X199286666Y-84753333D01*
X199191428Y-84800952D01*
X199000952Y-84800952D01*
X198905714Y-84848571D01*
X198858095Y-84896190D01*
X198810476Y-84991428D01*
X198810476Y-85181904D01*
X198858095Y-85277142D01*
X198905714Y-85324761D01*
X199000952Y-85372380D01*
X199191428Y-85372380D01*
X199286666Y-85324761D01*
X199334285Y-85277142D01*
X199381904Y-85181904D01*
X199381904Y-84991428D01*
X199334285Y-84896190D01*
X199286666Y-84848571D01*
X199191428Y-84800952D01*
%TO.C,R17*%
X183507142Y-87912380D02*
X183173809Y-87436190D01*
X182935714Y-87912380D02*
X182935714Y-86912380D01*
X183316666Y-86912380D01*
X183411904Y-86960000D01*
X183459523Y-87007619D01*
X183507142Y-87102857D01*
X183507142Y-87245714D01*
X183459523Y-87340952D01*
X183411904Y-87388571D01*
X183316666Y-87436190D01*
X182935714Y-87436190D01*
X184459523Y-87912380D02*
X183888095Y-87912380D01*
X184173809Y-87912380D02*
X184173809Y-86912380D01*
X184078571Y-87055238D01*
X183983333Y-87150476D01*
X183888095Y-87198095D01*
X184792857Y-86912380D02*
X185459523Y-86912380D01*
X185030952Y-87912380D01*
%TO.C,R16*%
X197477142Y-87912380D02*
X197143809Y-87436190D01*
X196905714Y-87912380D02*
X196905714Y-86912380D01*
X197286666Y-86912380D01*
X197381904Y-86960000D01*
X197429523Y-87007619D01*
X197477142Y-87102857D01*
X197477142Y-87245714D01*
X197429523Y-87340952D01*
X197381904Y-87388571D01*
X197286666Y-87436190D01*
X196905714Y-87436190D01*
X198429523Y-87912380D02*
X197858095Y-87912380D01*
X198143809Y-87912380D02*
X198143809Y-86912380D01*
X198048571Y-87055238D01*
X197953333Y-87150476D01*
X197858095Y-87198095D01*
X199286666Y-86912380D02*
X199096190Y-86912380D01*
X199000952Y-86960000D01*
X198953333Y-87007619D01*
X198858095Y-87150476D01*
X198810476Y-87340952D01*
X198810476Y-87721904D01*
X198858095Y-87817142D01*
X198905714Y-87864761D01*
X199000952Y-87912380D01*
X199191428Y-87912380D01*
X199286666Y-87864761D01*
X199334285Y-87817142D01*
X199381904Y-87721904D01*
X199381904Y-87483809D01*
X199334285Y-87388571D01*
X199286666Y-87340952D01*
X199191428Y-87293333D01*
X199000952Y-87293333D01*
X198905714Y-87340952D01*
X198858095Y-87388571D01*
X198810476Y-87483809D01*
%TO.C,R15*%
X183507142Y-90452380D02*
X183173809Y-89976190D01*
X182935714Y-90452380D02*
X182935714Y-89452380D01*
X183316666Y-89452380D01*
X183411904Y-89500000D01*
X183459523Y-89547619D01*
X183507142Y-89642857D01*
X183507142Y-89785714D01*
X183459523Y-89880952D01*
X183411904Y-89928571D01*
X183316666Y-89976190D01*
X182935714Y-89976190D01*
X184459523Y-90452380D02*
X183888095Y-90452380D01*
X184173809Y-90452380D02*
X184173809Y-89452380D01*
X184078571Y-89595238D01*
X183983333Y-89690476D01*
X183888095Y-89738095D01*
X185364285Y-89452380D02*
X184888095Y-89452380D01*
X184840476Y-89928571D01*
X184888095Y-89880952D01*
X184983333Y-89833333D01*
X185221428Y-89833333D01*
X185316666Y-89880952D01*
X185364285Y-89928571D01*
X185411904Y-90023809D01*
X185411904Y-90261904D01*
X185364285Y-90357142D01*
X185316666Y-90404761D01*
X185221428Y-90452380D01*
X184983333Y-90452380D01*
X184888095Y-90404761D01*
X184840476Y-90357142D01*
%TO.C,R14*%
X197477142Y-90452380D02*
X197143809Y-89976190D01*
X196905714Y-90452380D02*
X196905714Y-89452380D01*
X197286666Y-89452380D01*
X197381904Y-89500000D01*
X197429523Y-89547619D01*
X197477142Y-89642857D01*
X197477142Y-89785714D01*
X197429523Y-89880952D01*
X197381904Y-89928571D01*
X197286666Y-89976190D01*
X196905714Y-89976190D01*
X198429523Y-90452380D02*
X197858095Y-90452380D01*
X198143809Y-90452380D02*
X198143809Y-89452380D01*
X198048571Y-89595238D01*
X197953333Y-89690476D01*
X197858095Y-89738095D01*
X199286666Y-89785714D02*
X199286666Y-90452380D01*
X199048571Y-89404761D02*
X198810476Y-90119047D01*
X199429523Y-90119047D01*
%TO.C,R13*%
X183507142Y-92992380D02*
X183173809Y-92516190D01*
X182935714Y-92992380D02*
X182935714Y-91992380D01*
X183316666Y-91992380D01*
X183411904Y-92040000D01*
X183459523Y-92087619D01*
X183507142Y-92182857D01*
X183507142Y-92325714D01*
X183459523Y-92420952D01*
X183411904Y-92468571D01*
X183316666Y-92516190D01*
X182935714Y-92516190D01*
X184459523Y-92992380D02*
X183888095Y-92992380D01*
X184173809Y-92992380D02*
X184173809Y-91992380D01*
X184078571Y-92135238D01*
X183983333Y-92230476D01*
X183888095Y-92278095D01*
X184792857Y-91992380D02*
X185411904Y-91992380D01*
X185078571Y-92373333D01*
X185221428Y-92373333D01*
X185316666Y-92420952D01*
X185364285Y-92468571D01*
X185411904Y-92563809D01*
X185411904Y-92801904D01*
X185364285Y-92897142D01*
X185316666Y-92944761D01*
X185221428Y-92992380D01*
X184935714Y-92992380D01*
X184840476Y-92944761D01*
X184792857Y-92897142D01*
%TO.C,R12*%
X197477142Y-92992380D02*
X197143809Y-92516190D01*
X196905714Y-92992380D02*
X196905714Y-91992380D01*
X197286666Y-91992380D01*
X197381904Y-92040000D01*
X197429523Y-92087619D01*
X197477142Y-92182857D01*
X197477142Y-92325714D01*
X197429523Y-92420952D01*
X197381904Y-92468571D01*
X197286666Y-92516190D01*
X196905714Y-92516190D01*
X198429523Y-92992380D02*
X197858095Y-92992380D01*
X198143809Y-92992380D02*
X198143809Y-91992380D01*
X198048571Y-92135238D01*
X197953333Y-92230476D01*
X197858095Y-92278095D01*
X198810476Y-92087619D02*
X198858095Y-92040000D01*
X198953333Y-91992380D01*
X199191428Y-91992380D01*
X199286666Y-92040000D01*
X199334285Y-92087619D01*
X199381904Y-92182857D01*
X199381904Y-92278095D01*
X199334285Y-92420952D01*
X198762857Y-92992380D01*
X199381904Y-92992380D01*
%TO.C,R10*%
X130670380Y-146946857D02*
X130194190Y-147280190D01*
X130670380Y-147518285D02*
X129670380Y-147518285D01*
X129670380Y-147137333D01*
X129718000Y-147042095D01*
X129765619Y-146994476D01*
X129860857Y-146946857D01*
X130003714Y-146946857D01*
X130098952Y-146994476D01*
X130146571Y-147042095D01*
X130194190Y-147137333D01*
X130194190Y-147518285D01*
X130670380Y-145994476D02*
X130670380Y-146565904D01*
X130670380Y-146280190D02*
X129670380Y-146280190D01*
X129813238Y-146375428D01*
X129908476Y-146470666D01*
X129956095Y-146565904D01*
X129670380Y-145375428D02*
X129670380Y-145280190D01*
X129718000Y-145184952D01*
X129765619Y-145137333D01*
X129860857Y-145089714D01*
X130051333Y-145042095D01*
X130289428Y-145042095D01*
X130479904Y-145089714D01*
X130575142Y-145137333D01*
X130622761Y-145184952D01*
X130670380Y-145280190D01*
X130670380Y-145375428D01*
X130622761Y-145470666D01*
X130575142Y-145518285D01*
X130479904Y-145565904D01*
X130289428Y-145613523D01*
X130051333Y-145613523D01*
X129860857Y-145565904D01*
X129765619Y-145518285D01*
X129718000Y-145470666D01*
X129670380Y-145375428D01*
%TO.C,R9*%
X132108380Y-146470666D02*
X131632190Y-146804000D01*
X132108380Y-147042095D02*
X131108380Y-147042095D01*
X131108380Y-146661142D01*
X131156000Y-146565904D01*
X131203619Y-146518285D01*
X131298857Y-146470666D01*
X131441714Y-146470666D01*
X131536952Y-146518285D01*
X131584571Y-146565904D01*
X131632190Y-146661142D01*
X131632190Y-147042095D01*
X132108380Y-145994476D02*
X132108380Y-145804000D01*
X132060761Y-145708761D01*
X132013142Y-145661142D01*
X131870285Y-145565904D01*
X131679809Y-145518285D01*
X131298857Y-145518285D01*
X131203619Y-145565904D01*
X131156000Y-145613523D01*
X131108380Y-145708761D01*
X131108380Y-145899238D01*
X131156000Y-145994476D01*
X131203619Y-146042095D01*
X131298857Y-146089714D01*
X131536952Y-146089714D01*
X131632190Y-146042095D01*
X131679809Y-145994476D01*
X131727428Y-145899238D01*
X131727428Y-145708761D01*
X131679809Y-145613523D01*
X131632190Y-145565904D01*
X131536952Y-145518285D01*
%TO.C,R8*%
X124066380Y-146470666D02*
X123590190Y-146804000D01*
X124066380Y-147042095D02*
X123066380Y-147042095D01*
X123066380Y-146661142D01*
X123114000Y-146565904D01*
X123161619Y-146518285D01*
X123256857Y-146470666D01*
X123399714Y-146470666D01*
X123494952Y-146518285D01*
X123542571Y-146565904D01*
X123590190Y-146661142D01*
X123590190Y-147042095D01*
X123494952Y-145899238D02*
X123447333Y-145994476D01*
X123399714Y-146042095D01*
X123304476Y-146089714D01*
X123256857Y-146089714D01*
X123161619Y-146042095D01*
X123114000Y-145994476D01*
X123066380Y-145899238D01*
X123066380Y-145708761D01*
X123114000Y-145613523D01*
X123161619Y-145565904D01*
X123256857Y-145518285D01*
X123304476Y-145518285D01*
X123399714Y-145565904D01*
X123447333Y-145613523D01*
X123494952Y-145708761D01*
X123494952Y-145899238D01*
X123542571Y-145994476D01*
X123590190Y-146042095D01*
X123685428Y-146089714D01*
X123875904Y-146089714D01*
X123971142Y-146042095D01*
X124018761Y-145994476D01*
X124066380Y-145899238D01*
X124066380Y-145708761D01*
X124018761Y-145613523D01*
X123971142Y-145565904D01*
X123875904Y-145518285D01*
X123685428Y-145518285D01*
X123590190Y-145565904D01*
X123542571Y-145613523D01*
X123494952Y-145708761D01*
%TO.C,R7*%
X125504380Y-146470666D02*
X125028190Y-146804000D01*
X125504380Y-147042095D02*
X124504380Y-147042095D01*
X124504380Y-146661142D01*
X124552000Y-146565904D01*
X124599619Y-146518285D01*
X124694857Y-146470666D01*
X124837714Y-146470666D01*
X124932952Y-146518285D01*
X124980571Y-146565904D01*
X125028190Y-146661142D01*
X125028190Y-147042095D01*
X124504380Y-146137333D02*
X124504380Y-145470666D01*
X125504380Y-145899238D01*
%TO.C,R6*%
X117716380Y-146470666D02*
X117240190Y-146804000D01*
X117716380Y-147042095D02*
X116716380Y-147042095D01*
X116716380Y-146661142D01*
X116764000Y-146565904D01*
X116811619Y-146518285D01*
X116906857Y-146470666D01*
X117049714Y-146470666D01*
X117144952Y-146518285D01*
X117192571Y-146565904D01*
X117240190Y-146661142D01*
X117240190Y-147042095D01*
X116716380Y-145613523D02*
X116716380Y-145804000D01*
X116764000Y-145899238D01*
X116811619Y-145946857D01*
X116954476Y-146042095D01*
X117144952Y-146089714D01*
X117525904Y-146089714D01*
X117621142Y-146042095D01*
X117668761Y-145994476D01*
X117716380Y-145899238D01*
X117716380Y-145708761D01*
X117668761Y-145613523D01*
X117621142Y-145565904D01*
X117525904Y-145518285D01*
X117287809Y-145518285D01*
X117192571Y-145565904D01*
X117144952Y-145613523D01*
X117097333Y-145708761D01*
X117097333Y-145899238D01*
X117144952Y-145994476D01*
X117192571Y-146042095D01*
X117287809Y-146089714D01*
%TO.C,R5*%
X119408380Y-146470666D02*
X118932190Y-146804000D01*
X119408380Y-147042095D02*
X118408380Y-147042095D01*
X118408380Y-146661142D01*
X118456000Y-146565904D01*
X118503619Y-146518285D01*
X118598857Y-146470666D01*
X118741714Y-146470666D01*
X118836952Y-146518285D01*
X118884571Y-146565904D01*
X118932190Y-146661142D01*
X118932190Y-147042095D01*
X118408380Y-145565904D02*
X118408380Y-146042095D01*
X118884571Y-146089714D01*
X118836952Y-146042095D01*
X118789333Y-145946857D01*
X118789333Y-145708761D01*
X118836952Y-145613523D01*
X118884571Y-145565904D01*
X118979809Y-145518285D01*
X119217904Y-145518285D01*
X119313142Y-145565904D01*
X119360761Y-145613523D01*
X119408380Y-145708761D01*
X119408380Y-145946857D01*
X119360761Y-146042095D01*
X119313142Y-146089714D01*
%TO.C,R4*%
X111620380Y-146470666D02*
X111144190Y-146804000D01*
X111620380Y-147042095D02*
X110620380Y-147042095D01*
X110620380Y-146661142D01*
X110668000Y-146565904D01*
X110715619Y-146518285D01*
X110810857Y-146470666D01*
X110953714Y-146470666D01*
X111048952Y-146518285D01*
X111096571Y-146565904D01*
X111144190Y-146661142D01*
X111144190Y-147042095D01*
X110953714Y-145613523D02*
X111620380Y-145613523D01*
X110572761Y-145851619D02*
X111287047Y-146089714D01*
X111287047Y-145470666D01*
%TO.C,R3*%
X113312380Y-146470666D02*
X112836190Y-146804000D01*
X113312380Y-147042095D02*
X112312380Y-147042095D01*
X112312380Y-146661142D01*
X112360000Y-146565904D01*
X112407619Y-146518285D01*
X112502857Y-146470666D01*
X112645714Y-146470666D01*
X112740952Y-146518285D01*
X112788571Y-146565904D01*
X112836190Y-146661142D01*
X112836190Y-147042095D01*
X112312380Y-146137333D02*
X112312380Y-145518285D01*
X112693333Y-145851619D01*
X112693333Y-145708761D01*
X112740952Y-145613523D01*
X112788571Y-145565904D01*
X112883809Y-145518285D01*
X113121904Y-145518285D01*
X113217142Y-145565904D01*
X113264761Y-145613523D01*
X113312380Y-145708761D01*
X113312380Y-145994476D01*
X113264761Y-146089714D01*
X113217142Y-146137333D01*
%TO.C,R11*%
X138712380Y-146946857D02*
X138236190Y-147280190D01*
X138712380Y-147518285D02*
X137712380Y-147518285D01*
X137712380Y-147137333D01*
X137760000Y-147042095D01*
X137807619Y-146994476D01*
X137902857Y-146946857D01*
X138045714Y-146946857D01*
X138140952Y-146994476D01*
X138188571Y-147042095D01*
X138236190Y-147137333D01*
X138236190Y-147518285D01*
X138712380Y-145994476D02*
X138712380Y-146565904D01*
X138712380Y-146280190D02*
X137712380Y-146280190D01*
X137855238Y-146375428D01*
X137950476Y-146470666D01*
X137998095Y-146565904D01*
X138712380Y-145042095D02*
X138712380Y-145613523D01*
X138712380Y-145327809D02*
X137712380Y-145327809D01*
X137855238Y-145423047D01*
X137950476Y-145518285D01*
X137998095Y-145613523D01*
%TO.C,R2*%
X105524380Y-146470666D02*
X105048190Y-146804000D01*
X105524380Y-147042095D02*
X104524380Y-147042095D01*
X104524380Y-146661142D01*
X104572000Y-146565904D01*
X104619619Y-146518285D01*
X104714857Y-146470666D01*
X104857714Y-146470666D01*
X104952952Y-146518285D01*
X105000571Y-146565904D01*
X105048190Y-146661142D01*
X105048190Y-147042095D01*
X104619619Y-146089714D02*
X104572000Y-146042095D01*
X104524380Y-145946857D01*
X104524380Y-145708761D01*
X104572000Y-145613523D01*
X104619619Y-145565904D01*
X104714857Y-145518285D01*
X104810095Y-145518285D01*
X104952952Y-145565904D01*
X105524380Y-146137333D01*
X105524380Y-145518285D01*
%TO.C,R1*%
X107216380Y-146470666D02*
X106740190Y-146804000D01*
X107216380Y-147042095D02*
X106216380Y-147042095D01*
X106216380Y-146661142D01*
X106264000Y-146565904D01*
X106311619Y-146518285D01*
X106406857Y-146470666D01*
X106549714Y-146470666D01*
X106644952Y-146518285D01*
X106692571Y-146565904D01*
X106740190Y-146661142D01*
X106740190Y-147042095D01*
X107216380Y-145518285D02*
X107216380Y-146089714D01*
X107216380Y-145804000D02*
X106216380Y-145804000D01*
X106359238Y-145899238D01*
X106454476Y-145994476D01*
X106502095Y-146089714D01*
%TO.C,U1*%
X153670095Y-124674380D02*
X153670095Y-125483904D01*
X153717714Y-125579142D01*
X153765333Y-125626761D01*
X153860571Y-125674380D01*
X154051047Y-125674380D01*
X154146285Y-125626761D01*
X154193904Y-125579142D01*
X154241523Y-125483904D01*
X154241523Y-124674380D01*
X155241523Y-125674380D02*
X154670095Y-125674380D01*
X154955809Y-125674380D02*
X154955809Y-124674380D01*
X154860571Y-124817238D01*
X154765333Y-124912476D01*
X154670095Y-124960095D01*
%TO.C,U2*%
X163787580Y-145313304D02*
X164597104Y-145313304D01*
X164692342Y-145265685D01*
X164739961Y-145218066D01*
X164787580Y-145122828D01*
X164787580Y-144932352D01*
X164739961Y-144837114D01*
X164692342Y-144789495D01*
X164597104Y-144741876D01*
X163787580Y-144741876D01*
X163882819Y-144313304D02*
X163835200Y-144265685D01*
X163787580Y-144170447D01*
X163787580Y-143932352D01*
X163835200Y-143837114D01*
X163882819Y-143789495D01*
X163978057Y-143741876D01*
X164073295Y-143741876D01*
X164216152Y-143789495D01*
X164787580Y-144360923D01*
X164787580Y-143741876D01*
%TO.C,J9*%
X190166666Y-111840580D02*
X190166666Y-112554866D01*
X190119047Y-112697723D01*
X190023809Y-112792961D01*
X189880952Y-112840580D01*
X189785714Y-112840580D01*
X190690476Y-112840580D02*
X190880952Y-112840580D01*
X190976190Y-112792961D01*
X191023809Y-112745342D01*
X191119047Y-112602485D01*
X191166666Y-112412009D01*
X191166666Y-112031057D01*
X191119047Y-111935819D01*
X191071428Y-111888200D01*
X190976190Y-111840580D01*
X190785714Y-111840580D01*
X190690476Y-111888200D01*
X190642857Y-111935819D01*
X190595238Y-112031057D01*
X190595238Y-112269152D01*
X190642857Y-112364390D01*
X190690476Y-112412009D01*
X190785714Y-112459628D01*
X190976190Y-112459628D01*
X191071428Y-112412009D01*
X191119047Y-112364390D01*
X191166666Y-112269152D01*
%TO.C,J8*%
X192579666Y-111764380D02*
X192579666Y-112478666D01*
X192532047Y-112621523D01*
X192436809Y-112716761D01*
X192293952Y-112764380D01*
X192198714Y-112764380D01*
X193198714Y-112192952D02*
X193103476Y-112145333D01*
X193055857Y-112097714D01*
X193008238Y-112002476D01*
X193008238Y-111954857D01*
X193055857Y-111859619D01*
X193103476Y-111812000D01*
X193198714Y-111764380D01*
X193389190Y-111764380D01*
X193484428Y-111812000D01*
X193532047Y-111859619D01*
X193579666Y-111954857D01*
X193579666Y-112002476D01*
X193532047Y-112097714D01*
X193484428Y-112145333D01*
X193389190Y-112192952D01*
X193198714Y-112192952D01*
X193103476Y-112240571D01*
X193055857Y-112288190D01*
X193008238Y-112383428D01*
X193008238Y-112573904D01*
X193055857Y-112669142D01*
X193103476Y-112716761D01*
X193198714Y-112764380D01*
X193389190Y-112764380D01*
X193484428Y-112716761D01*
X193532047Y-112669142D01*
X193579666Y-112573904D01*
X193579666Y-112383428D01*
X193532047Y-112288190D01*
X193484428Y-112240571D01*
X193389190Y-112192952D01*
%TO.C,J7*%
X187626666Y-111840580D02*
X187626666Y-112554866D01*
X187579047Y-112697723D01*
X187483809Y-112792961D01*
X187340952Y-112840580D01*
X187245714Y-112840580D01*
X188007619Y-111840580D02*
X188674285Y-111840580D01*
X188245714Y-112840580D01*
%TO.C,J6*%
X209470666Y-127932380D02*
X209470666Y-128646666D01*
X209423047Y-128789523D01*
X209327809Y-128884761D01*
X209184952Y-128932380D01*
X209089714Y-128932380D01*
X210375428Y-127932380D02*
X210184952Y-127932380D01*
X210089714Y-127980000D01*
X210042095Y-128027619D01*
X209946857Y-128170476D01*
X209899238Y-128360952D01*
X209899238Y-128741904D01*
X209946857Y-128837142D01*
X209994476Y-128884761D01*
X210089714Y-128932380D01*
X210280190Y-128932380D01*
X210375428Y-128884761D01*
X210423047Y-128837142D01*
X210470666Y-128741904D01*
X210470666Y-128503809D01*
X210423047Y-128408571D01*
X210375428Y-128360952D01*
X210280190Y-128313333D01*
X210089714Y-128313333D01*
X209994476Y-128360952D01*
X209946857Y-128408571D01*
X209899238Y-128503809D01*
%TO.C,J5*%
X102536666Y-87292380D02*
X102536666Y-88006666D01*
X102489047Y-88149523D01*
X102393809Y-88244761D01*
X102250952Y-88292380D01*
X102155714Y-88292380D01*
X103489047Y-87292380D02*
X103012857Y-87292380D01*
X102965238Y-87768571D01*
X103012857Y-87720952D01*
X103108095Y-87673333D01*
X103346190Y-87673333D01*
X103441428Y-87720952D01*
X103489047Y-87768571D01*
X103536666Y-87863809D01*
X103536666Y-88101904D01*
X103489047Y-88197142D01*
X103441428Y-88244761D01*
X103346190Y-88292380D01*
X103108095Y-88292380D01*
X103012857Y-88244761D01*
X102965238Y-88197142D01*
%TO.C,J4*%
X209064266Y-126242380D02*
X209064266Y-126956666D01*
X209016647Y-127099523D01*
X208921409Y-127194761D01*
X208778552Y-127242380D01*
X208683314Y-127242380D01*
X209969028Y-126575714D02*
X209969028Y-127242380D01*
X209730933Y-126194761D02*
X209492838Y-126909047D01*
X210111885Y-126909047D01*
%TO.C,J1*%
X103806666Y-137672380D02*
X103806666Y-138386666D01*
X103759047Y-138529523D01*
X103663809Y-138624761D01*
X103520952Y-138672380D01*
X103425714Y-138672380D01*
X104806666Y-138672380D02*
X104235238Y-138672380D01*
X104520952Y-138672380D02*
X104520952Y-137672380D01*
X104425714Y-137815238D01*
X104330476Y-137910476D01*
X104235238Y-137958095D01*
%TO.C,J3*%
X207946666Y-91952380D02*
X207946666Y-92666666D01*
X207899047Y-92809523D01*
X207803809Y-92904761D01*
X207660952Y-92952380D01*
X207565714Y-92952380D01*
X208327619Y-91952380D02*
X208946666Y-91952380D01*
X208613333Y-92333333D01*
X208756190Y-92333333D01*
X208851428Y-92380952D01*
X208899047Y-92428571D01*
X208946666Y-92523809D01*
X208946666Y-92761904D01*
X208899047Y-92857142D01*
X208851428Y-92904761D01*
X208756190Y-92952380D01*
X208470476Y-92952380D01*
X208375238Y-92904761D01*
X208327619Y-92857142D01*
%TO.C,J2*%
X101546066Y-106342380D02*
X101546066Y-107056666D01*
X101498447Y-107199523D01*
X101403209Y-107294761D01*
X101260352Y-107342380D01*
X101165114Y-107342380D01*
X101974638Y-106437619D02*
X102022257Y-106390000D01*
X102117495Y-106342380D01*
X102355590Y-106342380D01*
X102450828Y-106390000D01*
X102498447Y-106437619D01*
X102546066Y-106532857D01*
X102546066Y-106628095D01*
X102498447Y-106770952D01*
X101927019Y-107342380D01*
X102546066Y-107342380D01*
%TO.C,D1*%
X145192380Y-142978095D02*
X144192380Y-142978095D01*
X144192380Y-142740000D01*
X144240000Y-142597142D01*
X144335238Y-142501904D01*
X144430476Y-142454285D01*
X144620952Y-142406666D01*
X144763809Y-142406666D01*
X144954285Y-142454285D01*
X145049523Y-142501904D01*
X145144761Y-142597142D01*
X145192380Y-142740000D01*
X145192380Y-142978095D01*
X145192380Y-141454285D02*
X145192380Y-142025714D01*
X145192380Y-141740000D02*
X144192380Y-141740000D01*
X144335238Y-141835238D01*
X144430476Y-141930476D01*
X144478095Y-142025714D01*
X147712380Y-148851904D02*
X146712380Y-148851904D01*
X147712380Y-148280476D02*
X147140952Y-148709047D01*
X146712380Y-148280476D02*
X147283809Y-148851904D01*
%TO.C,C3*%
X163297142Y-143676666D02*
X163344761Y-143724285D01*
X163392380Y-143867142D01*
X163392380Y-143962380D01*
X163344761Y-144105238D01*
X163249523Y-144200476D01*
X163154285Y-144248095D01*
X162963809Y-144295714D01*
X162820952Y-144295714D01*
X162630476Y-144248095D01*
X162535238Y-144200476D01*
X162440000Y-144105238D01*
X162392380Y-143962380D01*
X162392380Y-143867142D01*
X162440000Y-143724285D01*
X162487619Y-143676666D01*
X162392380Y-143343333D02*
X162392380Y-142724285D01*
X162773333Y-143057619D01*
X162773333Y-142914761D01*
X162820952Y-142819523D01*
X162868571Y-142771904D01*
X162963809Y-142724285D01*
X163201904Y-142724285D01*
X163297142Y-142771904D01*
X163344761Y-142819523D01*
X163392380Y-142914761D01*
X163392380Y-143200476D01*
X163344761Y-143295714D01*
X163297142Y-143343333D01*
%TO.C,C2*%
X172697142Y-146216666D02*
X172744761Y-146264285D01*
X172792380Y-146407142D01*
X172792380Y-146502380D01*
X172744761Y-146645238D01*
X172649523Y-146740476D01*
X172554285Y-146788095D01*
X172363809Y-146835714D01*
X172220952Y-146835714D01*
X172030476Y-146788095D01*
X171935238Y-146740476D01*
X171840000Y-146645238D01*
X171792380Y-146502380D01*
X171792380Y-146407142D01*
X171840000Y-146264285D01*
X171887619Y-146216666D01*
X171887619Y-145835714D02*
X171840000Y-145788095D01*
X171792380Y-145692857D01*
X171792380Y-145454761D01*
X171840000Y-145359523D01*
X171887619Y-145311904D01*
X171982857Y-145264285D01*
X172078095Y-145264285D01*
X172220952Y-145311904D01*
X172792380Y-145883333D01*
X172792380Y-145264285D01*
%TO.C,C1*%
X138407142Y-139866666D02*
X138454761Y-139914285D01*
X138502380Y-140057142D01*
X138502380Y-140152380D01*
X138454761Y-140295238D01*
X138359523Y-140390476D01*
X138264285Y-140438095D01*
X138073809Y-140485714D01*
X137930952Y-140485714D01*
X137740476Y-140438095D01*
X137645238Y-140390476D01*
X137550000Y-140295238D01*
X137502380Y-140152380D01*
X137502380Y-140057142D01*
X137550000Y-139914285D01*
X137597619Y-139866666D01*
X138502380Y-138914285D02*
X138502380Y-139485714D01*
X138502380Y-139200000D02*
X137502380Y-139200000D01*
X137645238Y-139295238D01*
X137740476Y-139390476D01*
X137788095Y-139485714D01*
%TO.C,A1*%
X205025714Y-93638666D02*
X205501904Y-93638666D01*
X204930476Y-93924380D02*
X205263809Y-92924380D01*
X205597142Y-93924380D01*
X206454285Y-93924380D02*
X205882857Y-93924380D01*
X206168571Y-93924380D02*
X206168571Y-92924380D01*
X206073333Y-93067238D01*
X205978095Y-93162476D01*
X205882857Y-93210095D01*
%TD*%
M02*
